<svg width="24" height="24" viewBox="0 0 24 24" fill="none" xmlns="http://www.w3.org/2000/svg">
<path d="M21.125 8.71998C21.125 8.64498 21.125 8.56998 21.12 8.49498C21.12 8.48498 21.12 8.46998 21.12 8.45998C21.09 7.38998 20.94 6.31998 20.67 5.26498V5.25998C20.645 5.16998 20.625 5.07998 20.6 4.98998C20.6 4.98498 20.595 4.97498 20.595 4.96998C20.57 4.87998 20.545 4.78998 20.515 4.69498C20.515 4.69498 20.515 4.69498 20.515 4.68998C20.46 4.49998 20.4 4.31498 20.335 4.12998C20.33 4.11998 20.33 4.11498 20.325 4.10498C20.3 4.02498 20.27 3.94498 20.24 3.86498C20.235 3.84498 20.225 3.82498 20.22 3.80998C20.195 3.73998 20.17 3.66998 20.14 3.59998C20.135 3.57998 20.125 3.55998 20.12 3.53998C20.09 3.45998 20.06 3.38498 20.025 3.30498C20.02 3.29498 20.02 3.28498 20.015 3.27998C19.98 3.18998 19.94 3.10498 19.905 3.01498C19.9 2.99998 19.895 2.98998 19.89 2.97498C19.86 2.90498 19.83 2.82998 19.795 2.75998C19.785 2.73498 19.77 2.70498 19.76 2.67998C19.735 2.61998 19.705 2.56498 19.68 2.50498C19.665 2.47498 19.655 2.44498 19.64 2.41998C19.61 2.35998 19.585 2.30498 19.555 2.24498C19.54 2.21998 19.53 2.19498 19.515 2.16498C19.475 2.07998 19.43 1.99998 19.39 1.91998C19.38 1.89998 19.365 1.87998 19.355 1.85998C19.265 1.72498 19.115 1.63498 18.955 1.61498C18.86 1.59998 18.765 1.58998 18.675 1.57998C18.645 1.57498 18.615 1.57498 18.59 1.56998C18.525 1.56498 18.455 1.55498 18.39 1.54998C18.36 1.54498 18.325 1.54498 18.295 1.53998C18.23 1.53498 18.16 1.52998 18.095 1.52498C18.065 1.52498 18.04 1.51998 18.01 1.51998C17.82 1.50498 17.635 1.49498 17.445 1.48998C17.415 1.48998 17.39 1.48998 17.36 1.48498C17.295 1.48498 17.225 1.47998 17.16 1.47998C17.13 1.47998 17.1 1.47998 17.065 1.47998C16.995 1.47998 16.93 1.47998 16.86 1.47998C16.835 1.47998 16.805 1.47998 16.78 1.47998C16.59 1.47998 16.405 1.48498 16.215 1.49498C16.19 1.49498 16.16 1.49998 16.135 1.49998C16.065 1.50498 16 1.50498 15.93 1.50998C15.9 1.50998 15.87 1.51498 15.84 1.51498C15.77 1.51998 15.7 1.52498 15.635 1.52998C15.61 1.52998 15.585 1.53498 15.56 1.53498C15.375 1.54998 15.185 1.56998 15 1.59498C14.975 1.59998 14.95 1.59998 14.925 1.60498C14.855 1.61498 14.79 1.62498 14.72 1.63498C14.69 1.63998 14.665 1.64498 14.635 1.64998C14.565 1.65998 14.495 1.66998 14.43 1.68498C14.405 1.68998 14.385 1.69498 14.36 1.69498C13.68 1.80998 13.01 1.97498 12.355 2.18498C11.75 2.37998 11.155 2.61498 10.58 2.88998C10.575 2.88998 10.57 2.89498 10.565 2.89498C10.49 2.92998 10.41 2.96998 10.335 3.00498C10.33 3.00998 10.325 3.00998 10.32 3.01498C10.24 3.05498 10.165 3.09498 10.085 3.13498C10.085 3.13498 10.085 3.13498 10.08 3.13498C9.76004 3.30498 9.45004 3.48498 9.14004 3.67998C9.13004 3.68498 9.12504 3.68998 9.11504 3.69498C9.05004 3.73498 8.98504 3.77998 8.92004 3.81998C8.90504 3.82998 8.89504 3.83498 8.88004 3.84498C8.82004 3.88498 8.76004 3.92498 8.70004 3.96998C8.68504 3.97998 8.67004 3.98998 8.65504 3.99998C8.59504 4.03998 8.53504 4.08498 8.47504 4.12998C8.46504 4.13998 8.45004 4.14498 8.44004 4.15498C8.37004 4.20498 8.30504 4.25498 8.23504 4.30498C8.23004 4.30498 8.23004 4.30998 8.22504 4.30998C8.08004 4.41998 7.94004 4.52998 7.80004 4.64498C7.79004 4.64998 7.78004 4.65998 7.77504 4.66498C7.71504 4.71498 7.66004 4.75998 7.60004 4.80998C7.58504 4.82498 7.56504 4.83998 7.55004 4.85498C7.50004 4.89498 7.45004 4.93998 7.40504 4.98498C7.38504 5.00498 7.36504 5.01998 7.34504 5.03998C7.30004 5.07998 7.25504 5.11998 7.21004 5.16498C7.19004 5.18498 7.17004 5.20498 7.15004 5.22498C7.10504 5.26498 7.06004 5.30998 7.01504 5.34998C6.99504 5.36998 6.97504 5.38998 6.95504 5.40498C6.90504 5.44998 6.86004 5.49998 6.81004 5.54998C6.79504 5.56498 6.78004 5.57998 6.76504 5.59498C6.64004 5.71998 6.52004 5.84998 6.39504 5.98498C6.38004 6.00498 6.36004 6.02498 6.34504 6.03998C6.30504 6.08498 6.26004 6.13498 6.22004 6.17998C6.20004 6.20498 6.18004 6.22998 6.15504 6.25498C6.12004 6.29998 6.08004 6.33998 6.04504 6.38498C6.02504 6.40998 6.00004 6.43998 5.98004 6.46498C5.94504 6.50498 5.91004 6.54998 5.87504 6.59498C5.85504 6.62498 5.83004 6.64998 5.81004 6.67998C5.77504 6.72498 5.74004 6.76998 5.70504 6.80998C5.68504 6.83498 5.66504 6.86498 5.64004 6.88998C5.60504 6.93998 5.56504 6.98498 5.53004 7.03498C5.51504 7.05998 5.49504 7.07998 5.48004 7.10498C5.42504 7.17998 5.37504 7.24998 5.32004 7.32498C5.27004 7.39998 5.21504 7.47498 5.16504 7.54998C5.15004 7.57498 5.13504 7.59998 5.11504 7.62498C5.08004 7.67498 5.05004 7.72498 5.01504 7.77498C4.99504 7.80498 4.98004 7.83498 4.96004 7.85998C4.93004 7.90498 4.90004 7.95498 4.87004 7.99998C4.85004 8.02998 4.83504 8.05998 4.81504 8.08998C4.78504 8.13498 4.76004 8.18498 4.73004 8.22998C4.71004 8.25998 4.69504 8.28998 4.67504 8.31998C4.64504 8.36998 4.62004 8.41998 4.59004 8.46998C4.57504 8.49998 4.56004 8.52498 4.54504 8.55498C4.51504 8.60998 4.48504 8.66498 4.45504 8.71998C4.44504 8.73998 4.43004 8.76498 4.42004 8.78498C4.33504 8.94498 4.25504 9.10498 4.18004 9.26498C4.17004 9.28498 4.16004 9.30498 4.15504 9.31998C4.12504 9.37998 4.10004 9.44498 4.07004 9.50498C4.06004 9.52998 4.05004 9.55498 4.03504 9.57998C4.01004 9.63498 3.98504 9.69498 3.96004 9.74998C3.95004 9.77498 3.94004 9.79998 3.92504 9.82998C3.90004 9.88498 3.88004 9.94498 3.85504 9.99998C3.84504 10.025 3.83504 10.05 3.82504 10.075C3.80004 10.135 3.78004 10.195 3.75504 10.255C3.74504 10.275 3.74004 10.3 3.73004 10.32C3.70504 10.39 3.68004 10.46 3.65504 10.53C3.65004 10.54 3.64504 10.55 3.64504 10.565C3.58504 10.735 3.53004 10.91 3.47504 11.08C3.47504 11.085 3.47504 11.09 3.47004 11.09C3.44504 11.17 3.42004 11.25 3.40004 11.33C3.39504 11.345 3.39004 11.36 3.39004 11.375C3.37004 11.445 3.35004 11.515 3.33004 11.59C3.32504 11.605 3.32004 11.625 3.31504 11.64C3.29504 11.71 3.28004 11.78 3.26004 11.85C3.25504 11.865 3.25004 11.88 3.25004 11.895C3.23004 11.97 3.21504 12.045 3.20004 12.12C3.20004 12.13 3.19504 12.14 3.19504 12.15C3.12004 12.505 3.05504 12.86 3.00504 13.215V13.22C2.99504 13.305 2.98004 13.395 2.97004 13.48C2.97004 13.485 2.97004 13.49 2.97004 13.5C2.96004 13.585 2.95004 13.67 2.94504 13.755C2.94504 13.76 2.94504 13.765 2.94504 13.77C2.88504 14.405 2.86504 15.04 2.89004 15.675C2.91504 16.36 2.99504 17.045 3.11504 17.725C3.12004 17.75 3.12504 17.775 3.13004 17.795C3.14504 17.865 3.15504 17.93 3.17004 18C3.17504 18.03 3.18004 18.06 3.19004 18.085C3.20504 18.15 3.22004 18.215 3.23504 18.285C3.24004 18.31 3.24504 18.335 3.25004 18.36C3.29004 18.54 3.33504 18.725 3.38504 18.905C3.39004 18.93 3.40004 18.955 3.40504 18.98C3.42504 19.045 3.44004 19.11 3.46004 19.175C3.47004 19.205 3.47504 19.235 3.48504 19.265C3.50504 19.33 3.52504 19.395 3.54504 19.46C3.55504 19.485 3.56004 19.51 3.57004 19.54C3.62504 19.72 3.68504 19.895 3.75004 20.075C3.76004 20.1 3.77004 20.125 3.78004 20.15C3.80504 20.215 3.82504 20.275 3.85004 20.34C3.86004 20.37 3.87004 20.4 3.88504 20.43C3.91004 20.49 3.93504 20.555 3.96004 20.615C3.97004 20.64 3.98004 20.67 3.99004 20.695C4.02504 20.78 4.06004 20.87 4.09504 20.955C4.13004 21.04 4.17004 21.13 4.21004 21.215C4.22004 21.24 4.23504 21.265 4.24504 21.295C4.27504 21.355 4.30004 21.415 4.33004 21.475C4.34504 21.505 4.36004 21.535 4.37004 21.565C4.40004 21.625 4.43004 21.685 4.45504 21.745C4.47004 21.77 4.48004 21.795 4.49504 21.825C4.53504 21.91 4.58004 21.995 4.62504 22.08C4.63504 22.1 4.65004 22.12 4.66004 22.14C4.74004 22.255 4.86004 22.34 4.99504 22.375C5.01504 22.38 5.04004 22.385 5.06504 22.39C5.15504 22.4 5.25004 22.415 5.34004 22.425C5.37004 22.43 5.39504 22.43 5.42504 22.435C5.49004 22.44 5.55504 22.45 5.62004 22.455C5.65004 22.46 5.68504 22.46 5.71504 22.465C5.78004 22.47 5.84504 22.475 5.91004 22.48C5.94004 22.48 5.97004 22.485 5.99504 22.485C6.07504 22.49 6.15004 22.495 6.23004 22.5C6.24504 22.5 6.26004 22.5 6.27004 22.505C6.36504 22.51 6.46004 22.515 6.55504 22.52C6.56504 22.52 6.57504 22.52 6.58504 22.52C6.67004 22.525 6.75504 22.525 6.83504 22.525C6.85504 22.525 6.87504 22.525 6.90004 22.525C6.97504 22.525 7.05004 22.525 7.12504 22.525C7.14504 22.525 7.16504 22.525 7.18504 22.525C7.27004 22.525 7.35504 22.525 7.44004 22.52C7.45004 22.52 7.45504 22.52 7.46504 22.52C7.66004 22.515 7.85504 22.505 8.05504 22.495C8.05504 22.495 8.05504 22.495 8.06004 22.495C8.15504 22.49 8.25004 22.48 8.34504 22.475C8.35504 22.475 8.36004 22.475 8.37004 22.475C8.46504 22.465 8.55504 22.46 8.65004 22.45H8.65504C9.05004 22.41 9.44004 22.355 9.82504 22.285C10.5 22.16 11.165 21.995 11.81 21.78C11.82 21.775 11.83 21.775 11.845 21.77C11.915 21.745 11.99 21.72 12.06 21.695C12.085 21.685 12.105 21.68 12.13 21.67C12.19 21.65 12.25 21.625 12.31 21.605C12.335 21.595 12.36 21.585 12.39 21.575C12.445 21.555 12.505 21.53 12.56 21.51C12.585 21.5 12.61 21.49 12.64 21.48C12.7 21.455 12.755 21.435 12.815 21.41C12.84 21.4 12.86 21.39 12.885 21.38C12.955 21.35 13.02 21.32 13.09 21.29C13.1 21.285 13.115 21.28 13.125 21.275C13.205 21.24 13.29 21.2 13.37 21.165C13.375 21.165 13.375 21.16 13.38 21.16C13.455 21.125 13.53 21.09 13.605 21.05C13.625 21.04 13.645 21.03 13.67 21.02C13.725 20.99 13.785 20.965 13.84 20.935C13.865 20.92 13.89 20.91 13.915 20.895C13.97 20.865 14.02 20.84 14.07 20.81C14.095 20.795 14.12 20.78 14.15 20.765C14.2 20.735 14.255 20.705 14.305 20.68C14.33 20.665 14.355 20.65 14.38 20.64C14.435 20.605 14.495 20.575 14.55 20.54C14.57 20.53 14.59 20.52 14.605 20.505C14.755 20.415 14.905 20.32 15.055 20.225C15.075 20.21 15.095 20.2 15.11 20.185C15.165 20.15 15.215 20.115 15.27 20.08C15.295 20.065 15.32 20.045 15.345 20.03C15.395 19.995 15.44 19.965 15.49 19.93C15.515 19.91 15.54 19.895 15.565 19.875C15.61 19.84 15.655 19.81 15.705 19.775C15.73 19.755 15.755 19.74 15.78 19.72C15.83 19.685 15.875 19.645 15.925 19.61C15.945 19.595 15.97 19.575 15.99 19.56C16.05 19.515 16.11 19.465 16.17 19.42C16.18 19.41 16.19 19.405 16.2 19.4C16.27 19.345 16.335 19.285 16.405 19.23C16.42 19.215 16.435 19.2 16.455 19.19C16.505 19.145 16.555 19.105 16.605 19.06C16.63 19.04 16.65 19.02 16.675 19C16.72 18.96 16.76 18.925 16.805 18.885C16.83 18.86 16.855 18.84 16.88 18.815C16.92 18.775 16.96 18.74 17 18.7C17.025 18.675 17.05 18.655 17.075 18.63C17.115 18.59 17.155 18.55 17.2 18.51C17.22 18.49 17.245 18.465 17.265 18.445C17.31 18.4 17.355 18.35 17.4 18.305C17.415 18.29 17.435 18.27 17.45 18.255C17.51 18.19 17.57 18.125 17.63 18.06C17.64 18.05 17.65 18.035 17.665 18.025C17.715 17.97 17.76 17.915 17.81 17.86C17.83 17.835 17.85 17.815 17.87 17.79C17.91 17.745 17.945 17.7 17.985 17.655C18.005 17.63 18.03 17.6 18.05 17.575C18.085 17.53 18.12 17.49 18.155 17.445C18.175 17.415 18.2 17.39 18.22 17.36C18.255 17.315 18.29 17.27 18.325 17.225C18.345 17.2 18.365 17.17 18.39 17.145C18.425 17.095 18.465 17.045 18.5 17C18.52 16.975 18.535 16.955 18.555 16.93C18.61 16.855 18.66 16.785 18.715 16.71C18.765 16.635 18.82 16.56 18.87 16.485C18.885 16.46 18.905 16.435 18.92 16.41C18.955 16.36 18.985 16.31 19.02 16.255C19.04 16.225 19.055 16.195 19.075 16.165C19.105 16.115 19.135 16.07 19.165 16.02C19.185 15.99 19.2 15.96 19.22 15.93C19.25 15.88 19.275 15.835 19.305 15.785C19.325 15.755 19.34 15.725 19.355 15.695C19.385 15.645 19.415 15.595 19.44 15.54C19.455 15.515 19.47 15.485 19.485 15.46C19.52 15.395 19.555 15.33 19.59 15.27C19.6 15.255 19.605 15.24 19.615 15.225C19.655 15.145 19.695 15.065 19.735 14.985C19.745 14.965 19.755 14.945 19.765 14.92C19.795 14.86 19.825 14.8 19.85 14.745C19.865 14.715 19.875 14.685 19.89 14.66C19.915 14.61 19.94 14.555 19.96 14.505C19.975 14.475 19.99 14.445 20 14.41C20.02 14.36 20.045 14.31 20.065 14.255C20.08 14.225 20.09 14.195 20.105 14.16C20.125 14.105 20.15 14.055 20.17 14C20.18 13.97 20.195 13.945 20.205 13.915C20.23 13.855 20.255 13.79 20.275 13.73C20.285 13.71 20.29 13.69 20.3 13.67C20.33 13.585 20.36 13.505 20.39 13.42C20.395 13.41 20.4 13.395 20.4 13.385C20.425 13.315 20.45 13.24 20.47 13.17C20.48 13.145 20.485 13.12 20.495 13.09C20.515 13.03 20.53 12.975 20.55 12.915C20.56 12.885 20.57 12.855 20.575 12.825C20.59 12.77 20.605 12.715 20.625 12.66C20.635 12.63 20.64 12.6 20.65 12.57C20.665 12.515 20.68 12.46 20.695 12.4C20.705 12.37 20.71 12.345 20.715 12.315C20.73 12.25 20.745 12.19 20.76 12.125C20.765 12.105 20.77 12.08 20.775 12.06C20.815 11.89 20.85 11.715 20.885 11.545C20.89 11.525 20.895 11.505 20.895 11.48C20.905 11.415 20.92 11.35 20.93 11.285C20.935 11.255 20.94 11.23 20.945 11.2C20.955 11.14 20.965 11.08 20.975 11.025C20.98 10.995 20.985 10.965 20.99 10.935C21 10.875 21.005 10.815 21.015 10.76C21.02 10.73 21.025 10.705 21.025 10.675C21.035 10.61 21.04 10.55 21.05 10.485C21.055 10.46 21.055 10.44 21.06 10.415C21.07 10.33 21.08 10.245 21.085 10.165V10.16C21.095 10.07 21.1 9.97998 21.105 9.88998C21.105 9.87498 21.105 9.86498 21.105 9.84998C21.11 9.77498 21.115 9.69998 21.12 9.62998C21.12 9.60498 21.12 9.57998 21.125 9.55498C21.13 9.48998 21.13 9.42998 21.135 9.36498C21.135 9.33498 21.135 9.30998 21.135 9.27998C21.135 9.21998 21.14 9.15998 21.14 9.09498C21.14 9.06998 21.14 9.03998 21.14 9.01498C21.14 8.94998 21.14 8.88998 21.14 8.82498C21.125 8.76998 21.125 8.74498 21.125 8.71998ZM9.55004 20.79H9.54504C9.20004 20.855 8.85004 20.9 8.50004 20.935H8.49504C8.41504 20.945 8.33004 20.95 8.24504 20.96H8.23504H8.22504C8.15504 20.965 8.09504 20.97 8.03004 20.975C7.27004 19.92 6.16504 19.145 4.91504 18.795C4.91004 18.78 4.90504 18.77 4.90504 18.755C4.89004 18.695 4.87004 18.635 4.85504 18.58L4.84504 18.545C4.84004 18.535 4.84004 18.52 4.83504 18.51C4.79004 18.35 4.75004 18.185 4.71504 18.02C4.71004 18.005 4.71004 17.99 4.70504 17.975L4.70004 17.95C4.68504 17.89 4.67504 17.83 4.66004 17.77C4.65504 17.745 4.65004 17.72 4.64504 17.69C4.63504 17.63 4.62004 17.57 4.61004 17.505L4.60504 17.475C4.60504 17.465 4.60004 17.455 4.60004 17.44C4.58504 17.35 4.57004 17.255 4.55504 17.16L4.85004 17.22C6.78504 17.625 8.49004 18.82 9.53004 20.495L9.69004 20.75C9.63504 20.775 9.59504 20.785 9.55004 20.79ZM16.265 10.7C16.12 10.91 15.885 11.02 15.65 11.02C15.5 11.02 15.35 10.975 15.22 10.885L14.195 10.17L13.05 11.805L14.075 12.52C14.415 12.76 14.495 13.225 14.26 13.565C14.115 13.775 13.88 13.885 13.645 13.885C13.495 13.885 13.345 13.84 13.215 13.75L12.19 13.035L11.045 14.675L12.07 15.39C12.41 15.63 12.49 16.095 12.255 16.435C12.11 16.645 11.875 16.755 11.64 16.755C11.49 16.755 11.34 16.71 11.21 16.62L10.18 15.9L9.46504 16.925C9.32004 17.135 9.08504 17.245 8.85004 17.245C8.70004 17.245 8.55004 17.2 8.42004 17.11C8.08004 16.87 8.00004 16.405 8.23504 16.065L8.95004 15.04L7.92504 14.325C7.58504 14.085 7.50504 13.62 7.74004 13.28C7.97504 12.94 8.44504 12.86 8.78504 13.095L9.81004 13.81L10.955 12.17L9.93004 11.455C9.59004 11.215 9.51004 10.75 9.74504 10.41C9.98004 10.07 10.45 9.98998 10.79 10.225L11.815 10.94L12.96 9.29998L11.935 8.58498C11.595 8.34498 11.515 7.87998 11.75 7.53998C11.985 7.19998 12.455 7.11998 12.795 7.35498L13.82 8.06998L14.535 7.04498C14.775 6.70498 15.24 6.62498 15.58 6.85998C15.92 7.09998 16 7.56498 15.765 7.90498L15.05 8.92998L16.075 9.64498C16.42 9.88998 16.5 10.36 16.265 10.7ZM19.165 6.73998C17.23 6.33498 15.525 5.13998 14.485 3.46498L14.325 3.20998C14.415 3.18998 14.51 3.17498 14.605 3.15998C14.615 3.15998 14.625 3.15498 14.635 3.15498L14.665 3.14998C14.725 3.13998 14.79 3.12998 14.85 3.11998C14.875 3.11498 14.9 3.10998 14.925 3.10998C14.985 3.09998 15.045 3.09498 15.11 3.08498L15.14 3.07998C15.155 3.07998 15.165 3.07498 15.18 3.07498C15.345 3.05498 15.515 3.03498 15.68 3.01998C15.69 3.01998 15.705 3.01998 15.715 3.01498L15.745 3.00998C15.805 3.00498 15.87 2.99998 15.93 2.99498C15.945 2.99498 15.955 2.99498 15.97 2.98998C16.73 4.04498 17.835 4.81998 19.085 5.16998C19.1 5.22998 19.12 5.28998 19.14 5.35998L19.145 5.36998V5.37998C19.17 5.45998 19.19 5.54498 19.21 5.62498V5.62998C19.31 6.01498 19.39 6.40498 19.45 6.79498L19.165 6.73998Z" fill="#13334C"/>
</svg>
