<svg width="24" height="24" viewBox="0 0 24 24" fill="none" xmlns="http://www.w3.org/2000/svg">
<path d="M11.22 14.5049C10.77 14.1899 10.66 13.5649 10.975 13.1099C11.29 12.6599 11.915 12.5499 12.37 12.8649L14.58 14.4149C15.03 14.7299 15.14 15.3549 14.825 15.8099C14.63 16.0899 14.32 16.2349 14.005 16.2349C13.805 16.2349 13.605 16.1749 13.43 16.0549L11.22 14.5049ZM13.05 17.0499C12.995 16.9849 12.93 16.9249 12.855 16.8749L9.07001 14.2249C8.62001 13.9099 7.99501 14.0199 7.67501 14.4699C7.36001 14.9199 7.47001 15.5449 7.92001 15.8649L11.6 18.4399L15.21 22.5849C15.41 22.8199 15.69 22.9449 15.975 22.9449C16.2 22.9449 16.43 22.8699 16.615 22.7099C17.04 22.3549 17.095 21.7249 16.74 21.2999L13.05 17.0499ZM4.84001 3.93493C5.78501 4.59493 6.95501 4.38493 7.61501 3.43993C8.27501 2.49493 8.07001 1.31493 7.12501 0.654929C6.18001 -0.0100714 5.00001 0.194929 4.34001 1.13993C3.68001 2.08493 3.89501 3.26993 4.84001 3.93493ZM21.935 16.2749L15.975 8.77493C16.04 8.40493 15.895 8.01493 15.565 7.78493L13.11 6.06493C13.015 5.99993 12.91 5.94993 12.8 5.91993L8.39001 4.71993C8.38501 4.71993 8.38001 4.71993 8.37501 4.71493C8.36501 4.70993 8.35501 4.70993 8.34501 4.70993C8.32501 4.70493 8.30501 4.69993 8.28501 4.69993C8.27501 4.69993 8.26501 4.69493 8.25501 4.69493C8.23501 4.68993 8.21501 4.68993 8.19001 4.68993C8.18001 4.68993 8.17501 4.68993 8.16501 4.68993C8.13501 4.68993 8.10501 4.68993 8.08001 4.68993C8.07001 4.68993 8.06501 4.68993 8.05501 4.68993C8.03501 4.68993 8.01001 4.69493 7.99001 4.69493C7.98001 4.69493 7.97001 4.69993 7.96001 4.69993C7.94001 4.70493 7.92001 4.70493 7.90001 4.70993C7.89001 4.70993 7.88001 4.71493 7.87001 4.71493C7.84501 4.71993 7.82001 4.72993 7.80001 4.73493C7.79501 4.73493 7.79001 4.73493 7.79001 4.73993L4.97001 5.76493C4.72001 5.85493 4.52001 6.03993 4.40501 6.27993C4.40001 6.28993 4.40001 6.29993 4.39501 6.30493L2.69001 8.73993C2.57001 8.90993 2.51001 9.10993 2.51001 9.31493V12.7599C2.51001 13.1999 2.79501 13.5699 3.18501 13.7049L4.75001 22.6149C4.79501 22.8599 5.00501 23.0299 5.24001 23.0299C5.27001 23.0299 5.30001 23.0249 5.32501 23.0199C5.59501 22.9699 5.78001 22.7149 5.73001 22.4399L4.16001 13.5149C4.37001 13.3299 4.50501 13.0649 4.50501 12.7649V9.63493L5.03501 8.87993L6.42001 12.6899C6.51001 12.9399 6.69501 13.1399 6.93501 13.2549C7.07001 13.3149 7.21501 13.3499 7.36001 13.3499C7.47501 13.3499 7.59001 13.3299 7.70001 13.2899L10.515 12.2649C11.035 12.0749 11.3 11.5049 11.115 10.9849L9.72501 7.14993L12.105 7.79993L14.42 9.41993C14.69 9.60993 15.025 9.64493 15.315 9.54493L21.15 16.8999C21.25 17.0249 21.395 17.0899 21.54 17.0899C21.65 17.0899 21.76 17.0549 21.85 16.9799C22.07 16.8049 22.105 16.4899 21.935 16.2749ZM19.865 18.4499C19.035 18.4499 18.365 19.1199 18.365 19.9499C18.365 20.7799 19.035 21.4499 19.865 21.4499C20.695 21.4499 21.365 20.7799 21.365 19.9499C21.365 19.1199 20.69 18.4499 19.865 18.4499Z" fill="#13334C"/>
</svg>
