<svg width="24" height="24" viewBox="0 0 24 24" fill="none" xmlns="http://www.w3.org/2000/svg">
<path d="M14.0999 19.8501C13.9049 19.5151 13.8199 19.1501 13.7449 18.8501C13.7149 18.7351 13.6899 18.6251 13.6649 18.5551C13.5349 18.1751 13.4799 17.8351 13.4949 17.5201C13.5199 17.0051 13.7399 16.5551 14.1249 16.2251C14.3949 15.9951 14.6849 15.8801 14.8949 15.8001C14.9549 15.7751 15.0399 15.7451 15.0799 15.7251C15.0999 15.6951 15.1349 15.6401 15.1599 15.6001C15.2699 15.4301 15.4149 15.1951 15.6699 14.9901C15.9799 14.7351 16.3249 14.6201 16.5949 14.5251C16.7199 14.4851 16.8449 14.4401 16.9099 14.4001C16.9249 14.3901 16.9399 14.3801 16.9599 14.3701C17.1849 14.2301 17.5649 14.0001 18.0349 14.0001C18.3399 14.0001 18.6199 14.1001 18.8449 14.2851C18.9899 14.1851 19.1499 14.1201 19.3049 14.0951C19.3749 14.0801 19.4449 14.0751 19.5149 14.0751C19.6499 14.0751 19.8449 14.1001 20.0499 14.2101C21.7099 10.2851 21.3999 5.7801 19.3799 1.9301C19.2949 1.7651 19.1299 1.6501 18.9449 1.6251C13.6949 0.910096 8.39992 2.9151 5.31492 7.3201C2.22992 11.7251 2.15492 17.3851 4.61492 22.0751C4.69992 22.2401 4.86492 22.3551 5.04992 22.3801C8.43492 22.8401 11.8399 22.1651 14.6599 20.4451C14.4399 20.3051 14.2499 20.1051 14.0999 19.8501ZM12.0599 15.4001C12.3999 15.6401 12.4799 16.1051 12.2449 16.4451C12.0999 16.6551 11.8649 16.7651 11.6299 16.7651C11.4799 16.7651 11.3299 16.7201 11.1999 16.6301L10.1749 15.9151L9.45992 16.9401C9.31492 17.1501 9.07992 17.2601 8.84492 17.2601C8.69492 17.2601 8.54492 17.2151 8.41492 17.1251C8.07492 16.8851 7.99492 16.4201 8.22992 16.0801L8.94992 15.0501L7.92492 14.3351C7.58492 14.0951 7.50492 13.6301 7.73992 13.2901C7.97992 12.9501 8.44492 12.8701 8.78492 13.1051L9.80992 13.8201L10.9549 12.1801L9.92992 11.4651C9.58992 11.2251 9.50992 10.7601 9.74492 10.4201C9.98492 10.0801 10.4499 10.0001 10.7899 10.2351L11.8149 10.9501L12.9599 9.3101L11.9399 8.6001C11.5999 8.3601 11.5199 7.8951 11.7549 7.5551C11.9949 7.2151 12.4599 7.1351 12.7999 7.3701L13.8249 8.0851L14.5399 7.0601C14.7799 6.7201 15.2449 6.6401 15.5849 6.8751C15.9249 7.1151 16.0049 7.5801 15.7699 7.9201L15.0499 8.9501L16.0749 9.6651C16.4149 9.9051 16.4949 10.3701 16.2599 10.7101C16.1149 10.9201 15.8799 11.0301 15.6449 11.0301C15.4949 11.0301 15.3449 10.9851 15.2149 10.8951L14.1899 10.1801L13.0449 11.8201L14.0699 12.5351C14.4099 12.7751 14.4899 13.2401 14.2549 13.5801C14.1099 13.7901 13.8749 13.9001 13.6399 13.9001C13.4899 13.9001 13.3399 13.8551 13.2099 13.7651L12.1849 13.0501L11.0399 14.6901L12.0599 15.4001ZM21.0149 19.4951C20.9499 19.6801 20.9249 19.8751 20.8349 20.0501C20.5899 20.5451 19.8549 20.7651 19.3799 20.4951C19.1799 20.3801 19.0249 20.2051 18.8549 20.0551C18.6499 19.8751 18.4349 19.7051 18.2149 19.5351C17.9399 19.3201 17.6749 19.1251 17.3099 19.1401C16.7099 19.1601 16.2399 19.6251 15.6449 19.6901C14.8299 19.7801 14.8049 18.7901 14.6199 18.2351C14.4749 17.8051 14.3999 17.3151 14.7849 16.9851C15.0599 16.7501 15.4549 16.7201 15.7349 16.4901C15.9749 16.2901 16.0649 15.9651 16.3049 15.7651C16.6149 15.5101 17.0799 15.4651 17.4299 15.2601C17.6499 15.1301 18.0799 14.8251 18.2899 15.1351C18.3599 15.2351 18.3299 15.3751 18.3199 15.4951C18.2799 15.8551 18.6399 15.9551 18.8949 16.1001C19.2199 16.2851 19.2799 15.6801 19.2899 15.4751C19.2949 15.3351 19.3249 15.1101 19.4949 15.0751C19.7349 15.0301 19.8799 15.5951 19.9649 15.7451C20.1549 16.1001 20.3899 16.4401 20.6599 16.7401C20.9499 17.0651 21.2899 17.3751 21.4549 17.7851C21.5749 18.0801 21.4649 18.3701 21.3549 18.6551C21.2399 18.9401 21.1149 19.2101 21.0149 19.4951ZM20.1299 21.9451C19.8549 21.8851 19.6249 21.5751 19.5999 21.3051C19.5699 20.9451 19.9699 21.0551 20.1899 21.0251C20.3249 21.0051 20.4549 20.9151 20.5699 21.0301C20.6599 21.1201 20.6599 21.2901 20.6399 21.4001C20.5999 21.6501 20.4299 22.0151 20.1299 21.9451Z" fill="#13334C"/>
</svg>
