<svg width="24" height="24" viewBox="0 0 24 24" fill="none" xmlns="http://www.w3.org/2000/svg">
<path fill-rule="evenodd" clip-rule="evenodd" d="M5.60009 21.5949L4.78009 21.0199C3.65009 20.2299 3.37509 18.6699 4.16509 17.5399C4.48009 17.0899 5.10509 16.9799 5.56009 17.2949L8.83509 19.5899C9.28509 19.9049 9.39509 20.5299 9.08009 20.9849C8.29009 22.1099 6.73009 22.3849 5.60009 21.5949ZM10.0301 9.43993L7.34009 7.55493L6.46009 11.2099L8.53009 12.6599L10.0301 9.43993ZM17.2151 7.14993L14.4101 5.18493C13.9001 4.82993 13.1951 5.01993 12.9301 5.57993L11.2901 9.09993L14.6001 11.4199L17.3501 8.67493C17.7901 8.23493 17.7251 7.50493 17.2151 7.14993ZM10.8601 10.0249L9.36009 13.2449L11.3701 14.6549L13.8851 12.1399L10.8601 10.0249ZM10.6501 15.3699L8.93009 14.1649L7.51509 17.1999C7.46509 17.3099 7.50009 17.4399 7.60009 17.5099L7.96509 17.7649C8.06509 17.8349 8.20009 17.8249 8.28509 17.7349L10.6501 15.3699ZM18.4301 9.00993L15.4351 12.0049L18.3001 14.0099L21.5551 11.8499C22.1401 11.4599 22.1551 10.5999 21.5751 10.1949L19.7101 8.89993C19.3151 8.61993 18.7751 8.66493 18.4301 9.00993ZM8.09509 13.5849L6.20509 12.2599L5.36509 15.7499C5.34009 15.8499 5.38009 15.9549 5.46509 16.0149L6.35009 16.6349C6.47509 16.7249 6.65509 16.6749 6.72009 16.5349L8.09509 13.5849ZM17.4051 14.6049L14.7151 12.7199L12.2001 15.2349L14.2701 16.6849L17.4051 14.6049ZM11.4851 15.9549L9.18009 18.2549C9.07009 18.3649 9.08509 18.5449 9.21509 18.6349L10.1001 19.2549C10.1851 19.3149 10.2951 19.3149 10.3801 19.2599L13.3701 17.2749L11.4851 15.9549ZM10.4551 8.51993L12.2501 4.67993C12.4551 4.23993 12.3151 3.71493 11.9151 3.43993L10.0501 2.13493C9.47509 1.72993 8.67009 2.03493 8.50509 2.71993L7.59009 6.51493L10.4551 8.51993Z" fill="#13334C"/>
</svg>
