<svg width="24" height="24" viewBox="0 0 24 24" fill="none" xmlns="http://www.w3.org/2000/svg">
<path d="M6 13.9999C4.895 13.9999 4 13.1049 4 11.9999C4 10.8949 4.895 9.99988 6 9.99988C7.105 9.99988 8 10.8949 8 11.9999C8 13.1049 7.105 13.9999 6 13.9999ZM20.23 9.27988C19.4 10.4649 18.245 11.3249 16.975 11.6949C16.52 11.8299 16.07 11.8949 15.635 11.8949C14.99 11.8949 14.37 11.7499 13.82 11.4599L8.91 18.4749C9.065 18.7199 9.065 19.0499 8.89 19.2999L6.88 22.1649C6.64 22.5049 6.175 22.5849 5.835 22.3499L5.425 22.0649C5.085 21.8249 5.005 21.3599 5.24 21.0199L7.25 18.1549C7.445 17.8749 7.8 17.7699 8.11 17.8749L13 10.8899C12.235 10.1849 11.775 9.17988 11.7 8.00488C11.615 6.68488 12.025 5.30488 12.86 4.11988C13.69 2.93488 14.845 2.07488 16.115 1.70488C17.425 1.31988 18.695 1.49488 19.7 2.19988C20.7 2.89988 21.3 4.03988 21.39 5.39988C21.47 6.70988 21.06 8.08988 20.23 9.27988ZM20.39 5.45488C20.325 4.40488 19.875 3.53488 19.125 3.00988C18.64 2.67488 18.07 2.49988 17.45 2.49988C17.11 2.49988 16.755 2.54988 16.395 2.65488C15.345 2.96488 14.375 3.68488 13.675 4.68488C12.975 5.68488 12.625 6.83988 12.695 7.93488C12.76 8.98488 13.21 9.85488 13.96 10.3799C14.71 10.9049 15.68 11.0299 16.69 10.7299C17.74 10.4199 18.71 9.69988 19.41 8.69988C20.11 7.69988 20.46 6.54988 20.39 5.45488Z" fill="#13334C"/>
</svg>
