<svg width="24" height="24" viewBox="0 0 24 24" fill="none" xmlns="http://www.w3.org/2000/svg">
<path d="M22.36 3.785L15.955 12.94C15.95 12.95 15.94 12.965 15.935 12.975C15.845 13.1 15.76 13.225 15.675 13.345L12.275 18.205C11.36 19.515 10.325 20.38 9.205 20.77C8.765 20.925 8.305 21 7.815 21C6.615 21 5.265 20.535 3.72 19.595C3.705 19.585 3.69 19.575 3.68 19.565L2.2 18.465C2.005 18.32 1.945 18.06 2.055 17.84L3.055 15.84C3.12 15.715 3.235 15.62 3.37 15.58C3.505 15.545 3.655 15.565 3.775 15.64C3.82 15.67 3.845 15.695 3.91 15.755C4.69 16.5 6.73 18.225 8.85 18.175C9.86 18.15 10.78 17.71 11.58 16.87C11.585 16.865 11.59 16.86 11.595 16.855C11.605 16.845 12.815 15.65 14.865 12.76L21.55 3.21C21.71 2.985 22.02 2.93 22.245 3.085C22.46 3.25 22.515 3.56 22.36 3.785ZM19 17C17.895 17 17 17.895 17 19C17 20.105 17.895 21 19 21C20.105 21 21 20.105 21 19C21 17.895 20.105 17 19 17Z" fill="#13334C"/>
</svg>
