<svg width="24" height="24" viewBox="0 0 24 24" fill="none" xmlns="http://www.w3.org/2000/svg">
<path fill-rule="evenodd" clip-rule="evenodd" d="M3.5 12C3.5 12.255 3.51 12.505 3.535 12.75H7.46C7.3 14.54 6.595 16.17 5.5 17.47C5.825 17.855 6.18 18.21 6.565 18.53C7.925 16.955 8.795 14.955 8.96 12.75H11.25V20.465C11.495 20.485 11.745 20.5 12 20.5C12.255 20.5 12.505 20.49 12.75 20.465V12.75H15.04C15.205 14.95 16.075 16.955 17.435 18.53C17.82 18.21 18.175 17.855 18.5 17.47C17.41 16.17 16.7 14.54 16.54 12.75H20.465C20.485 12.505 20.5 12.25 20.5 12C20.5 11.745 20.49 11.495 20.465 11.25H16.54C16.7 9.46 17.405 7.83 18.5 6.53C18.175 6.145 17.82 5.79 17.435 5.47C16.075 7.045 15.205 9.045 15.04 11.25H12.75V3.535C12.505 3.515 12.255 3.5 12 3.5C11.745 3.5 11.495 3.51 11.25 3.535V11.25H8.96C8.795 9.05 7.925 7.045 6.565 5.47C6.18 5.79 5.825 6.145 5.5 6.53C6.595 7.83 7.3 9.46 7.46 11.25H3.535C3.51 11.495 3.5 11.745 3.5 12ZM2 12C2 6.475 6.475 2 12 2C17.52 2 22 6.475 22 12C22 17.52 17.52 22 12 22C6.475 22 2 17.52 2 12Z" fill="#13334C"/>
</svg>
