<svg width="24" height="24" viewBox="0 0 24 24" fill="none" xmlns="http://www.w3.org/2000/svg">
<path d="M5.5 11.9849C5.5 13.0899 4.605 13.9849 3.5 13.9849C2.395 13.9849 1.5 13.0899 1.5 11.9849C1.5 10.8799 2.395 9.98489 3.5 9.98489C4.605 9.98489 5.5 10.8799 5.5 11.9849ZM20.63 7.15489C19.36 8.96989 18.12 10.8049 16.815 12.5949C15.365 14.5849 13.82 16.6449 11.665 17.9249C9.205 19.3849 7.165 19.8049 4.48 18.9899C4.07 18.8649 2.745 18.3199 2.35 18.1599C1.925 17.9849 1.595 18.5499 1.945 18.8399C4.145 20.6549 7.02 21.9549 9.9 22.0099C12.49 22.0599 15.455 20.9399 17.5 19.3749C18.375 18.7099 19.305 17.7199 19.445 16.5549C19.59 15.3249 18.395 14.7349 18.48 13.5949C18.57 12.4049 21.22 9.31489 22.1 8.31989C22.25 8.14989 22.23 7.88489 22.05 7.73989L21.205 7.06989C21.025 6.92989 20.76 6.96989 20.63 7.15489ZM9.245 14.7099L10.615 12.6149L9.62 11.9149L8.12 13.9149L9.245 14.7099ZM17.27 1.92989C16 1.08489 14.165 1.51989 13.12 2.90989C12.755 3.39489 12.53 3.93489 12.435 4.46989L11.705 7.71489C11.425 8.94989 10.9 10.1399 10.155 11.1999L9.915 11.5199L10.885 12.1999L11.11 11.8549C11.85 10.8049 12.78 9.90489 13.835 9.22489L16.64 7.41989C17.08 7.16489 17.48 6.80489 17.8 6.34489C18.865 4.82489 18.63 2.83489 17.27 1.92989ZM7.815 14.3199L7.6 14.6049C7.39 14.9049 7.69 15.1699 7.955 15.3499C8.215 15.5349 8.565 15.7249 8.775 15.4249L8.97 15.1299L7.815 14.3199Z" fill="#13334C"/>
</svg>
