<svg width="24" height="24" viewBox="0 0 24 24" fill="none" xmlns="http://www.w3.org/2000/svg">
<path fill-rule="evenodd" clip-rule="evenodd" d="M19.515 9.50001C19.515 10.05 19.065 10.5 18.515 10.5H16.275C16.07 10.5 15.87 10.435 15.7 10.32L14.415 9.42001L11.55 13.515C11.4 13.73 11.165 13.88 10.905 13.925C10.845 13.935 10.79 13.94 10.73 13.94C10.525 13.94 10.325 13.88 10.155 13.76L7.69998 12.04C7.48498 11.89 7.33498 11.655 7.28998 11.395C7.24498 11.135 7.30498 10.865 7.45498 10.65L10.31 6.57001L5.82498 4.60001C5.31998 4.38001 5.08998 3.79001 5.30998 3.28001C5.52998 2.77501 6.11998 2.54501 6.62998 2.76501L11.3 4.81501C11.36 4.84001 11.42 4.87501 11.47 4.91001L12.285 5.48001L13.205 6.12501L16.59 8.49501H18.51C19.065 8.50001 19.515 8.95001 19.515 9.50001ZM13.69 5.24501C14.635 5.90501 15.805 5.69501 16.465 4.75001C17.125 3.80501 16.92 2.62501 15.975 1.96501C15.03 1.30501 13.85 1.51001 13.19 2.45501C12.525 3.40001 12.745 4.58501 13.69 5.24501ZM23 8.50001H21.24C20.825 8.50001 20.49 8.83501 20.49 9.25001V9.50001H23.75V9.25001C23.75 8.83501 23.41 8.50001 23 8.50001ZM6.01498 18.895C6.25998 18.975 6.59498 19.08 6.74998 19.085C6.77498 19.075 6.80498 19.065 6.83998 19.045L7.40998 17.645C7.63498 17.14 7.40498 16.55 6.89998 16.325C6.39498 16.1 5.80498 16.33 5.57998 16.835L4.86498 18.605C5.28498 18.66 5.66498 18.78 6.01498 18.895ZM10.52 19.26C10.15 19.1 9.76498 18.975 9.35998 19C8.76998 19.03 8.26498 19.35 7.81498 19.63C7.47498 19.845 7.14998 20.045 6.86998 20.08C6.53998 20.115 6.11498 19.98 5.70998 19.85C5.18998 19.68 4.64998 19.51 4.11998 19.605C3.18498 19.78 2.47998 20.405 1.85998 20.96C1.79498 21.015 1.73498 21.075 1.66998 21.13C1.46498 21.315 1.44498 21.63 1.62498 21.835C1.72498 21.945 1.85998 22.005 1.99998 22.005C2.11498 22.005 2.23498 21.965 2.32998 21.88C2.39498 21.825 2.45998 21.765 2.52498 21.705C3.06998 21.215 3.63998 20.71 4.29998 20.59C4.58498 20.54 4.97998 20.665 5.40498 20.8C5.91498 20.965 6.43998 21.135 6.98498 21.07C7.48998 21.01 7.92998 20.74 8.34998 20.475C8.72998 20.24 9.08498 20.015 9.41498 19.995C9.71498 19.98 10.09 20.155 10.485 20.34C10.82 20.5 11.165 20.66 11.53 20.74L10.52 19.26ZM22.33 21.125C22.28 21.08 22.23 21.035 22.175 20.99C21.605 20.48 20.825 19.78 19.88 19.605C19.35 19.505 18.81 19.68 18.29 19.85C17.88 19.98 17.46 20.12 17.13 20.08C16.85 20.05 16.525 19.845 16.185 19.63C15.91 19.46 15.615 19.275 15.29 19.15L16.425 20.815C16.455 20.855 16.48 20.9 16.505 20.945C16.665 21.01 16.835 21.055 17.015 21.075C17.56 21.135 18.085 20.965 18.595 20.805C19.015 20.67 19.415 20.54 19.7 20.595C20.365 20.72 21.025 21.31 21.51 21.74C21.565 21.79 21.62 21.835 21.67 21.88C21.875 22.065 22.195 22.045 22.375 21.835C22.56 21.625 22.54 21.31 22.33 21.125ZM12.325 16.575C12.255 16.475 12.175 16.39 12.075 16.325L7.12498 12.86C6.67498 12.545 6.04998 12.655 5.72998 13.105C5.41498 13.555 5.52498 14.18 5.97498 14.5L10.775 17.865L13.95 22.515C14.145 22.795 14.455 22.95 14.775 22.95C14.97 22.95 15.17 22.895 15.34 22.775C15.795 22.46 15.91 21.84 15.595 21.385L12.325 16.575Z" fill="#13334C"/>
</svg>
