<svg width="24" height="24" viewBox="0 0 24 24" fill="none" xmlns="http://www.w3.org/2000/svg">
<path d="M2.00005 22C1.86005 22 1.72505 21.945 1.62505 21.83C1.44005 21.625 1.46505 21.305 1.67005 21.125C1.73505 21.07 1.79505 21.015 1.86005 20.955C2.48005 20.4 3.18005 19.775 4.12005 19.6C4.65005 19.5 5.19005 19.675 5.71005 19.845C6.12005 19.975 6.54005 20.115 6.87005 20.075C7.15005 20.045 7.47505 19.84 7.81505 19.625C8.26005 19.345 8.77005 19.025 9.36005 18.995C9.91005 18.965 10.42 19.205 10.91 19.435C11.305 19.62 11.675 19.795 11.995 19.795C12.315 19.795 12.69 19.62 13.08 19.435C13.57 19.205 14.08 18.965 14.63 18.995C15.22 19.025 15.725 19.345 16.175 19.625C16.515 19.84 16.84 20.04 17.12 20.075C17.45 20.11 17.875 19.975 18.2801 19.845C18.8001 19.675 19.34 19.505 19.8701 19.6C20.8151 19.775 21.5951 20.475 22.1651 20.985C22.2201 21.035 22.2701 21.08 22.3201 21.12C22.5251 21.305 22.545 21.62 22.365 21.825C22.18 22.03 21.8651 22.05 21.6601 21.87C21.6101 21.825 21.555 21.775 21.5001 21.73C21.0201 21.3 20.3601 20.705 19.6901 20.585C19.4051 20.535 19.0101 20.66 18.5851 20.795C18.0751 20.96 17.5501 21.13 17.005 21.065C16.5 21.005 16.06 20.735 15.64 20.47C15.26 20.235 14.905 20.01 14.575 19.99C14.275 19.975 13.9 20.15 13.505 20.335C13.03 20.56 12.535 20.79 11.995 20.79C11.455 20.79 10.96 20.56 10.485 20.335C10.09 20.15 9.71505 19.975 9.41505 19.99C9.08505 20.01 8.72505 20.23 8.35005 20.47C7.93005 20.735 7.49005 21.01 6.98505 21.065C6.44005 21.125 5.91505 20.955 5.40505 20.795C4.98505 20.66 4.58505 20.53 4.30005 20.585C3.64005 20.705 3.07505 21.21 2.52505 21.7C2.46005 21.76 2.39505 21.815 2.33005 21.875C2.23505 21.96 2.12005 22 2.00005 22ZM22.1601 16.345L17.1601 17.975C17.1551 17.975 17.1551 17.975 17.1501 17.975C17.14 17.975 17.135 17.98 17.125 17.98C17.12 17.98 17.1151 17.985 17.1051 17.985C17.1 17.985 17.0901 17.99 17.0851 17.99C17.0801 17.99 17.07 17.99 17.065 17.995C17.06 17.995 17.05 17.995 17.045 17.995C17.035 17.995 17.0201 17.995 17.0101 17.995H17.005H2.50505C2.36005 17.995 2.22505 17.93 2.13005 17.825C2.03505 17.715 1.99005 17.57 2.01005 17.43L2.37505 14.775C2.68005 14.9 3.01005 14.975 3.35505 14.995L3.08005 17H5.70505C5.70505 16.965 5.70505 16.925 5.71005 16.89L6.33005 13.015C6.44505 12.7 6.50505 12.355 6.50505 12C6.50505 11.975 6.50505 11.95 6.50505 11.925L6.73505 10.5H6.10505C5.87005 10.1 5.55005 9.755 5.16505 9.5H6.89505L7.29505 7H4.46005L4.17505 9.075C3.96005 9.025 3.73505 9 3.51005 9C3.39505 9 3.28505 9.005 3.17505 9.02L4.01005 2.93C4.04505 2.685 4.25505 2.5 4.50505 2.5H19.0051C19.1501 2.5 19.2851 2.565 19.3801 2.67C19.475 2.78 19.5201 2.925 19.5 3.065L19.24 4.955L22.4851 15.72C22.5651 15.985 22.4201 16.26 22.1601 16.345ZM14.92 6H18.0851L18.2301 4.93L18.4251 3.5H15.315L14.92 6ZM11.695 6H13.9101L14.3101 3.5H12.095L11.695 6ZM11.135 9.5H13.35L13.75 7H11.535L11.135 9.5ZM8.46505 6H10.68L11.08 3.5H8.85005C8.85005 3.535 8.85005 3.575 8.84505 3.61L8.46505 6ZM7.90505 9.5H10.12L10.52 7H8.30505L7.90505 9.5ZM7.45005 6L7.85005 3.5H4.94005L4.59505 6H7.45005ZM9.40005 14H7.18505L6.70505 17H8.92005L9.40005 14ZM9.56005 13L9.96005 10.5H7.74505L7.34505 13H9.56005ZM12.63 14H10.415L9.93505 17H12.15L12.63 14ZM12.79 13L13.19 10.5H10.975L10.575 13H12.79ZM16.9851 14H13.64L13.16 17H16.57L16.9851 14ZM17.465 10.5H14.2L13.8 13H17.12L17.465 10.5ZM17.6051 9.5L17.9501 7H14.76L14.3601 9.5H17.6051ZM21.3851 15.545L18.9101 7.335L18.6051 9.555L17.6101 16.775L21.3851 15.545ZM3.50505 14C4.61005 14 5.50505 13.105 5.50505 12C5.50505 10.895 4.61005 10 3.50505 10C2.40005 10 1.50505 10.895 1.50505 12C1.50505 13.105 2.40005 14 3.50505 14Z" fill="#13334C"/>
</svg>
