<svg width="24" height="24" viewBox="0 0 24 24" fill="none" xmlns="http://www.w3.org/2000/svg">
<path fill-rule="evenodd" clip-rule="evenodd" d="M14.495 10.8401C14.55 11.0101 14.49 11.2001 14.345 11.3051L12.245 12.8301C12.1 12.9351 11.9 12.9351 11.755 12.8301L9.65498 11.3051C9.50998 11.2001 9.44998 11.0101 9.50498 10.8401L10.305 8.37012C10.36 8.20012 10.52 8.08512 10.7 8.08512H13.3C13.48 8.08512 13.64 8.20012 13.695 8.37012L14.495 10.8401ZM19.5 10.4951C19.5 14.6351 16.14 17.9951 12 17.9951C7.85998 17.9951 4.49998 14.6351 4.49998 10.4951C4.49998 6.35512 7.85998 2.99512 12 2.99512C16.14 2.99512 19.5 6.35512 19.5 10.4951ZM16.29 11.4401L18.335 9.76512C18.205 8.61012 17.76 7.55012 17.095 6.66512L15.345 6.65012C15.205 6.65012 15.075 6.57012 15.01 6.44012L14.025 4.45012C13.39 4.23512 12.71 4.12012 12 4.12012C11.29 4.12012 10.61 4.23512 9.97498 4.45012L8.98998 6.44512C8.92498 6.57512 8.79998 6.65512 8.65498 6.65512L6.90498 6.67012C6.23998 7.55512 5.79998 8.61512 5.66498 9.77012L7.70998 11.4451C7.83498 11.5501 7.87998 11.7201 7.81998 11.8701L6.86998 14.2851C7.62498 15.3001 8.66998 16.0901 9.88498 16.5151L11.805 15.3851C11.925 15.3151 12.07 15.3151 12.185 15.3851L14.105 16.5151C15.32 16.0851 16.37 15.3001 17.12 14.2851L16.17 11.8701C16.12 11.7151 16.165 11.5451 16.29 11.4401ZM2.32998 21.8751C2.39498 21.8201 2.45998 21.7601 2.52498 21.7001C3.06998 21.2101 3.63998 20.7051 4.29998 20.5851C4.58498 20.5351 4.97998 20.6601 5.40498 20.7951C5.91498 20.9601 6.43998 21.1301 6.98498 21.0651C7.48998 21.0051 7.92998 20.7351 8.34998 20.4701C8.72998 20.2351 9.08498 20.0101 9.41498 19.9901C9.71498 19.9751 10.09 20.1501 10.485 20.3351C10.96 20.5601 11.455 20.7901 11.995 20.7901C12.535 20.7901 13.03 20.5601 13.505 20.3351C13.9 20.1501 14.275 19.9751 14.575 19.9901C14.905 20.0101 15.265 20.2301 15.64 20.4701C16.06 20.7351 16.5 21.0101 17.005 21.0651C17.55 21.1251 18.075 20.9551 18.585 20.7951C19.005 20.6601 19.405 20.5301 19.69 20.5851C20.355 20.7101 21.015 21.3001 21.5 21.7301C21.555 21.7801 21.61 21.8251 21.66 21.8701C21.865 22.0551 22.185 22.0351 22.365 21.8251C22.55 21.6201 22.53 21.3001 22.32 21.1201C22.27 21.0751 22.22 21.0301 22.165 20.9851C21.595 20.4751 20.815 19.7751 19.87 19.6001C19.34 19.5001 18.8 19.6751 18.28 19.8451C17.87 19.9751 17.45 20.1151 17.12 20.0751C16.84 20.0451 16.515 19.8401 16.175 19.6251C15.73 19.3451 15.22 19.0251 14.63 18.9951C14.08 18.9651 13.57 19.2051 13.08 19.4351C12.685 19.6201 12.315 19.7951 11.995 19.7951C11.675 19.7951 11.3 19.6201 10.91 19.4351C10.42 19.2051 9.90998 18.9651 9.35998 18.9951C8.76998 19.0251 8.26498 19.3451 7.81498 19.6251C7.47498 19.8401 7.14998 20.0401 6.86998 20.0751C6.53998 20.1101 6.11498 19.9751 5.70998 19.8451C5.18998 19.6751 4.64998 19.5051 4.11998 19.6001C3.18498 19.7751 2.47998 20.4001 1.85998 20.9551C1.79498 21.0101 1.73498 21.0701 1.66998 21.1251C1.46498 21.3101 1.44498 21.6251 1.62498 21.8301C1.72498 21.9401 1.85998 22.0001 1.99998 22.0001C2.11998 22.0001 2.23498 21.9601 2.32998 21.8751Z" fill="#13334C"/>
</svg>
