<svg width="24" height="24" viewBox="0 0 24 24" fill="none" xmlns="http://www.w3.org/2000/svg">
<path fill-rule="evenodd" clip-rule="evenodd" d="M15.2343 4.5075C14.9191 4.32134 14.5886 4.16259 14.2463 4.033L14.0848 4.065L14.0173 4.1265L13.9363 4.2C13.8933 4.2375 13.8498 4.2755 13.8083 4.316C13.7918 4.3325 13.7753 4.35 13.7583 4.366C13.7413 4.382 13.7258 4.4 13.7083 4.416C13.6958 4.4295 13.6833 4.4435 13.6708 4.4565C13.5768 4.5535 13.4863 4.6515 13.3968 4.7535C13.3823 4.77 13.3673 4.786 13.3518 4.8035C13.3328 4.823 13.3143 4.843 13.2963 4.864L13.2858 4.877C13.2819 4.88255 13.2777 4.88789 13.2733 4.893C13.2543 4.915 13.2373 4.9385 13.2198 4.9625C13.2023 4.9865 13.1843 5.0125 13.1653 5.0335C13.0617 5.15359 12.9657 5.28 12.8778 5.412C12.8708 5.422 12.8638 5.431 12.8568 5.44C12.8498 5.449 12.8443 5.4565 12.8383 5.4655C12.7293 5.623 12.6228 5.7835 12.5238 5.9505C12.5203 5.957 12.5158 5.963 12.5118 5.9695L12.5088 5.974L12.5038 5.9815C12.1282 6.6415 11.8522 7.35335 11.6848 8.094C11.6848 8.1005 11.6813 8.107 11.6793 8.1135C11.6768 8.11986 11.6748 8.12637 11.6733 8.133C11.6678 8.1565 11.6638 8.183 11.6598 8.2045C11.6598 8.217 11.6553 8.2295 11.6533 8.242C11.6033 8.4745 11.5618 8.7075 11.5333 8.9445C11.5333 8.96 11.5283 8.976 11.5253 8.9915C11.5218 9.0105 11.5178 9.0295 11.5158 9.049C11.5118 9.088 11.5108 9.1285 11.5098 9.1685C11.5098 9.2 11.5098 9.2315 11.5063 9.2625C11.5023 9.3125 11.4968 9.3625 11.4913 9.4125C11.4823 9.4955 11.4733 9.578 11.4708 9.6625C11.3553 9.726 11.2393 9.786 11.1208 9.8425C11.0873 9.858 11.0538 9.8745 11.0208 9.8925C10.9558 9.924 10.8913 9.956 10.8248 9.9835C10.7173 10.028 10.6068 10.0645 10.4963 10.1015L10.3963 10.135C9.80513 10.3343 9.18931 10.4509 8.56626 10.4815H8.54676H8.52676C8.47939 10.1702 8.45449 9.85589 8.45226 9.541C8.45214 8.3267 8.78152 7.13512 9.40529 6.09327C10.0291 5.05143 10.9238 4.19836 11.9943 3.625C11.1869 3.62512 10.3869 3.7792 9.63726 4.079C8.19353 5.53109 7.38288 7.49535 7.38226 9.543C7.38388 9.84384 7.40274 10.1443 7.43876 10.443C7.31076 10.4275 7.18526 10.4025 7.05976 10.3775L6.97376 10.3605L6.87926 10.343C6.82926 10.334 6.77576 10.3245 6.72476 10.3125C6.56276 10.2735 6.40426 10.225 6.24626 10.174C6.17326 10.1515 6.10076 10.129 6.02926 10.1035C5.89276 10.0535 5.75776 10.0035 5.62576 9.945V10C5.62547 10.3799 5.65893 10.759 5.72576 11.133L5.82576 11.166L5.90226 11.1905C5.93526 11.201 5.96776 11.2125 6.00226 11.2235C6.05776 11.2425 6.11376 11.262 6.17076 11.2775L6.21126 11.288L6.23926 11.295C6.26326 11.3015 6.28926 11.3065 6.31176 11.3115L6.36176 11.3225C6.49226 11.3565 6.62326 11.385 6.75526 11.411C6.77426 11.415 6.79276 11.42 6.81176 11.4245C6.84076 11.4315 6.86976 11.439 6.90026 11.444L6.91976 11.4475H6.92626H6.93176H6.93676C6.96576 11.4525 6.99476 11.456 7.02426 11.459L7.08976 11.467C7.25726 11.4935 7.42526 11.517 7.59476 11.5315C7.60397 11.532 7.61315 11.533 7.62226 11.5345C7.63153 11.536 7.64087 11.537 7.65026 11.5375C7.84226 11.5525 8.03426 11.5645 8.22976 11.5665H8.24626H8.26426C9.02362 11.5619 9.77812 11.4449 10.5033 11.2195H10.5108H10.5168C10.5255 11.2181 10.5342 11.2161 10.5428 11.2135C10.5648 11.2065 10.5868 11.1985 10.6083 11.1905L10.6473 11.1765C10.8738 11.103 11.0973 11.0235 11.3153 10.929C11.3303 10.9225 11.3458 10.9175 11.3613 10.912C11.3793 10.906 11.3973 10.9 11.4143 10.8925C11.4498 10.8765 11.4838 10.8575 11.5178 10.839C11.5468 10.823 11.5753 10.8075 11.6048 10.7935C11.6493 10.772 11.6943 10.7525 11.7388 10.7325C11.8168 10.6985 11.8948 10.664 11.9693 10.623C12.0828 10.6915 12.1928 10.7625 12.3008 10.8375C12.3268 10.8555 12.3533 10.873 12.3798 10.8905C12.4443 10.9335 12.5088 10.976 12.5693 11.0235C12.6568 11.0905 12.7388 11.163 12.8193 11.2355L12.9128 11.3185C13.3819 11.7312 13.7916 12.2069 14.1303 12.732C14.1333 12.7376 14.1368 12.743 14.1408 12.748L14.1453 12.755L14.1488 12.76L14.1513 12.7645C13.0752 13.6228 11.7587 14.125 10.3844 14.2016C9.01014 14.2782 7.64605 13.9254 6.48126 13.192C6.88789 13.8906 7.42255 14.5064 8.05726 15.007C10.0348 15.5291 12.1386 15.2485 13.9103 14.2265C14.1695 14.0741 14.4199 13.9072 14.6603 13.7265C14.7133 13.8505 14.7558 13.9765 14.7983 14.103L14.8218 14.172C14.8308 14.1985 14.8403 14.225 14.8503 14.252C14.8693 14.302 14.8883 14.3565 14.9033 14.4095C14.9533 14.57 14.9883 14.732 15.0233 14.895C15.0398 14.9685 15.0563 15.042 15.0708 15.116C15.0968 15.259 15.1181 15.4018 15.1348 15.5445C15.4571 15.364 15.7633 15.1559 16.0498 14.9225L16.0998 14.7725C16.0933 14.742 16.0863 14.712 16.0798 14.6815C16.0733 14.651 16.0668 14.618 16.0608 14.586C16.0488 14.5265 16.0373 14.467 16.0223 14.408C16.0163 14.3855 16.0093 14.362 16.0028 14.3395C15.9963 14.317 15.9908 14.2975 15.9838 14.2765C15.9778 14.258 15.9718 14.2395 15.9668 14.2205C15.9298 14.09 15.8888 13.9615 15.8458 13.834C15.8388 13.8125 15.8323 13.7905 15.8258 13.7685C15.8193 13.7465 15.8113 13.7185 15.8023 13.693C15.8023 13.687 15.7978 13.6815 15.7953 13.6755C15.7926 13.6698 15.7903 13.664 15.7883 13.658C15.7783 13.631 15.7668 13.6045 15.7553 13.5775C15.7438 13.5505 15.7373 13.5365 15.7288 13.5155C15.6673 13.357 15.6038 13.201 15.5318 13.046C15.5283 13.0385 15.5253 13.031 15.5223 13.0235C15.5193 13.016 15.5143 13.0045 15.5098 12.995C15.4283 12.8225 15.3433 12.65 15.2473 12.481C15.2473 12.477 15.2428 12.4725 15.2408 12.468C15.2378 12.4609 15.2342 12.4541 15.2303 12.4475C14.8462 11.7927 14.3681 11.1979 13.8113 10.682L13.7963 10.667C13.7913 10.662 13.7868 10.657 13.7818 10.6525C13.7618 10.6335 13.7403 10.616 13.7188 10.598L13.6973 10.58C13.5208 10.421 13.3408 10.268 13.1503 10.1255C13.1368 10.1155 13.1238 10.1045 13.1113 10.0935C13.0968 10.0815 13.0828 10.0695 13.0678 10.0585C13.0358 10.035 13.0018 10.0145 12.9678 9.9935C12.9338 9.9725 12.9133 9.9605 12.8873 9.9435C12.8458 9.915 12.8058 9.8855 12.7653 9.856C12.6973 9.806 12.6293 9.756 12.5578 9.713C12.5608 9.581 12.5668 9.45 12.5773 9.3185C12.5803 9.2825 12.5828 9.246 12.5853 9.2095C12.5903 9.1375 12.5948 9.065 12.6043 8.993C12.6198 8.8745 12.6438 8.758 12.6683 8.643L12.6878 8.5485C12.809 7.93577 13.015 7.34291 13.2998 6.787C13.3038 6.78 13.3068 6.7725 13.3103 6.7655C13.3138 6.7585 13.3143 6.756 13.3168 6.751C14.599 7.25264 15.6932 8.14121 16.4474 9.29325C17.2015 10.4453 17.578 11.8036 17.5248 13.1795C17.9285 12.4816 18.1952 11.713 18.3103 10.915C18.0102 9.78713 17.4567 8.74263 16.6918 7.86107C15.927 6.97952 14.971 6.28417 13.8968 5.828C13.9748 5.725 14.0588 5.628 14.1423 5.5335L14.2008 5.4665C14.2228 5.4415 14.2443 5.4165 14.2658 5.3905C14.2988 5.351 14.3323 5.312 14.3658 5.2745C14.4803 5.153 14.6033 5.0405 14.7258 4.9295L14.7488 4.908C14.7988 4.8635 14.8453 4.819 14.8953 4.7765C15.0063 4.6835 15.1193 4.59384 15.2343 4.5075ZM4.49976 10C4.49976 8.51664 4.93962 7.0666 5.76373 5.83323C6.58784 4.59986 7.75918 3.63856 9.12963 3.07091C10.5001 2.50325 12.0081 2.35472 13.4629 2.64411C14.9178 2.9335 16.2542 3.64781 17.3031 4.6967C18.352 5.7456 19.0663 7.08197 19.3556 8.53683C19.645 9.99168 19.4965 11.4997 18.9289 12.8701C18.3612 14.2406 17.3999 15.4119 16.1665 16.236C14.9332 17.0601 13.4831 17.5 11.9998 17.5C10.0106 17.5 8.10298 16.7098 6.69645 15.3033C5.28993 13.8968 4.49976 11.9891 4.49976 10Z" fill="#13334C"/>
<path d="M1.99978 21.5024C1.89824 21.5024 1.79912 21.4714 1.7156 21.4137C1.63209 21.3559 1.56813 21.2741 1.53225 21.1791C1.49637 21.0841 1.49027 20.9804 1.51474 20.8819C1.53922 20.7833 1.59312 20.6946 1.66928 20.6274C1.73228 20.5719 1.79528 20.5154 1.85928 20.4584C2.47878 19.9049 3.18128 19.2779 4.11728 19.1049C4.64878 19.0049 5.18778 19.1804 5.70928 19.3484C6.11828 19.4799 6.54128 19.6164 6.87128 19.5789C7.15278 19.5469 7.47628 19.3444 7.81828 19.1289C8.26578 18.8484 8.77278 18.5289 9.36278 18.4989C9.91278 18.4689 10.4218 18.7069 10.9128 18.9374C11.3068 19.1219 11.6793 19.2964 11.9998 19.2964C12.3203 19.2964 12.6928 19.1219 13.0868 18.9374C13.5783 18.7069 14.0868 18.4689 14.6368 18.4989C15.2268 18.5309 15.7338 18.8489 16.1813 19.1289C16.5233 19.3434 16.8468 19.5459 17.1283 19.5789C17.4583 19.6159 17.8813 19.4789 18.2903 19.3484C18.8118 19.1804 19.3508 19.0069 19.8823 19.1049C20.8253 19.2789 21.6068 19.9794 22.1768 20.4904L22.3308 20.6279C22.38 20.6714 22.4202 20.7241 22.4491 20.7831C22.478 20.8421 22.4949 20.9062 22.499 20.9718C22.5031 21.0374 22.4942 21.1031 22.4729 21.1652C22.4516 21.2274 22.4183 21.2847 22.3748 21.3339C22.3313 21.3832 22.2786 21.4234 22.2196 21.4522C22.1606 21.4811 22.0965 21.4981 22.0309 21.5021C21.9653 21.5062 21.8996 21.4974 21.8375 21.476C21.7754 21.4547 21.718 21.4214 21.6688 21.3779L21.5098 21.2364C21.0273 20.8039 20.3673 20.2124 19.7003 20.0889C19.4173 20.0364 19.0188 20.1654 18.5968 20.3009C18.0868 20.4654 17.5593 20.6354 17.0153 20.5734C16.5083 20.5159 16.0718 20.2424 15.6503 19.9779C15.2718 19.7409 14.9148 19.5174 14.5828 19.4994C14.2828 19.4829 13.9078 19.6589 13.5113 19.8449C13.0353 20.0669 12.5433 20.2999 11.9998 20.2999C11.4563 20.2999 10.9643 20.0694 10.4883 19.8464C10.0913 19.6604 9.71628 19.4844 9.41678 19.5009C9.08478 19.5189 8.72778 19.7424 8.34928 19.9794C7.92728 20.2439 7.49128 20.5174 6.98428 20.5749C6.44028 20.6364 5.91278 20.4669 5.40278 20.3024C4.98078 20.1669 4.58228 20.0379 4.29878 20.0909C3.63828 20.2129 3.07278 20.7179 2.52528 21.2064C2.45861 21.2654 2.39361 21.3234 2.33028 21.3804C2.23856 21.4598 2.1211 21.5032 1.99978 21.5024Z" fill="#13334C"/>
</svg>
