<svg width="24" height="24" viewBox="0 0 24 24" fill="none" xmlns="http://www.w3.org/2000/svg">
<path d="M12.0001 18C16.1401 18 19.5001 14.64 19.5001 10.5C19.5001 6.36 16.1401 3 12.0001 3C7.86006 3 4.50006 6.36 4.50006 10.5C4.50006 14.64 7.86006 18 12.0001 18ZM5.62506 10.5C5.62506 10.31 5.63506 10.125 5.65006 9.94H8.59506C8.47506 8.6 7.94506 7.375 7.12506 6.4C7.37006 6.11 7.63506 5.845 7.92506 5.605C8.94506 6.785 9.59506 8.29 9.72006 9.94H11.4401V4.15C11.6251 4.135 11.8151 4.125 12.0051 4.125C12.1951 4.125 12.3801 4.135 12.5701 4.15V9.94H14.2901C14.4151 8.29 15.0651 6.785 16.0851 5.605C16.3751 5.845 16.6401 6.11 16.8851 6.4C16.0651 7.375 15.5351 8.6 15.4151 9.94H18.3501C18.3651 10.125 18.3751 10.315 18.3751 10.5C18.3751 10.69 18.3651 10.875 18.3501 11.065H15.4051C15.5251 12.405 16.0551 13.63 16.8751 14.605C16.6301 14.895 16.3651 15.16 16.0751 15.4C15.0551 14.22 14.4051 12.715 14.2801 11.065H12.5601V16.85C12.3751 16.865 12.1851 16.875 11.9951 16.875C11.8051 16.875 11.6201 16.865 11.4301 16.85V11.06H9.71006C9.58506 12.71 8.93506 14.215 7.91506 15.395C7.62506 15.155 7.36006 14.89 7.11506 14.6C7.93506 13.625 8.46506 12.4 8.58506 11.06H5.65006C5.63506 10.875 5.62506 10.69 5.62506 10.5ZM22.3751 21.83C22.1901 22.035 21.8751 22.055 21.6701 21.875C21.6201 21.83 21.5651 21.78 21.5101 21.735C21.0301 21.305 20.3701 20.71 19.7001 20.59C19.4151 20.54 19.0201 20.665 18.5951 20.8C18.0851 20.965 17.5601 21.135 17.0151 21.07C16.5101 21.01 16.0701 20.74 15.6501 20.475C15.2701 20.24 14.9151 20.015 14.5851 19.995C14.2851 19.98 13.9101 20.155 13.5151 20.34C13.0401 20.565 12.5451 20.795 12.0051 20.795C11.4651 20.795 10.9701 20.565 10.4951 20.34C10.1001 20.155 9.72506 19.98 9.42506 19.995C9.09506 20.015 8.73506 20.235 8.36006 20.475C7.94006 20.74 7.50006 21.015 6.99506 21.07C6.45006 21.13 5.92506 20.96 5.41506 20.8C4.99506 20.665 4.59506 20.535 4.31006 20.59C3.65006 20.71 3.08506 21.215 2.53506 21.705C2.47006 21.765 2.40506 21.82 2.34006 21.88C2.24506 21.965 2.12506 22.005 2.01006 22.005C1.87006 22.005 1.73506 21.95 1.63506 21.835C1.45006 21.63 1.47506 21.31 1.68006 21.13C1.74506 21.075 1.80506 21.02 1.87006 20.96C2.48006 20.4 3.18006 19.775 4.12006 19.6C4.65006 19.5 5.19006 19.675 5.71006 19.845C6.12006 19.975 6.54006 20.115 6.87006 20.075C7.15006 20.045 7.47506 19.84 7.81506 19.625C8.26006 19.345 8.77006 19.025 9.36006 18.995C9.91006 18.965 10.4201 19.205 10.9101 19.435C11.3051 19.62 11.6751 19.795 11.9951 19.795C12.3151 19.795 12.6901 19.62 13.0801 19.435C13.5701 19.205 14.0801 18.965 14.6301 18.995C15.2201 19.025 15.7251 19.345 16.1751 19.625C16.5151 19.84 16.8401 20.04 17.1201 20.075C17.4501 20.11 17.8751 19.975 18.2801 19.845C18.8001 19.675 19.3401 19.505 19.8701 19.6C20.8151 19.775 21.5951 20.475 22.1651 20.985C22.2201 21.035 22.2701 21.08 22.3201 21.12C22.5401 21.31 22.5601 21.625 22.3751 21.83Z" fill="#13334C"/>
</svg>
