<svg width="24" height="24" viewBox="0 0 24 24" fill="none" xmlns="http://www.w3.org/2000/svg">
<path fill-rule="evenodd" clip-rule="evenodd" d="M6.14492 10.3601C5.23992 9.72514 3.99492 9.94514 3.35992 10.8501C2.72492 11.7551 2.94492 13.0001 3.84992 13.6351C4.75492 14.2701 5.99992 14.0501 6.63492 13.1451C7.26992 12.2401 7.04992 10.9951 6.14492 10.3601ZM4.58992 11.7151C4.32992 12.0851 3.97992 12.3551 3.58492 12.5101C3.52492 12.3501 3.49492 12.1751 3.49492 12.0051C3.75992 11.8801 3.99492 11.6851 4.17492 11.4301C4.35492 11.1751 4.45492 10.8851 4.48492 10.5951C4.64492 10.5351 4.81992 10.5051 4.98992 10.5051C4.97992 10.9201 4.84992 11.3451 4.58992 11.7151ZM5.81992 12.5751C5.63992 12.8301 5.53992 13.1201 5.50992 13.4151C5.34992 13.4751 5.17492 13.5051 5.00492 13.5051C5.01992 13.0851 5.14992 12.6601 5.40992 12.2901C5.66992 11.9201 6.01992 11.6501 6.40992 11.4951C6.46992 11.6551 6.49992 11.8301 6.49992 12.0001C6.23492 12.1251 5.99992 12.3151 5.81992 12.5751ZM9.30992 18.0001C9.35992 17.9951 9.40992 17.9951 9.45992 17.9951C9.85492 17.9951 10.2149 18.0801 10.5449 18.1951L11.6349 16.6401C11.8099 16.3901 11.8099 16.0701 11.6649 15.8251L15.5949 14.2451C16.0699 14.2301 16.5599 14.1501 17.0549 14.0051C18.6149 13.5501 20.0349 12.4901 21.0599 11.0301C22.0799 9.57014 22.5899 7.87514 22.4849 6.25014C22.3799 4.58514 21.6499 3.20014 20.4249 2.34514C19.1999 1.48514 17.6499 1.27514 16.0499 1.74514C14.4899 2.20014 13.0699 3.26014 12.0449 4.72014C11.0249 6.18014 10.5149 7.87514 10.6199 9.50014C10.6549 10.0151 10.7449 10.5001 10.8949 10.9551L10.7549 15.1901C10.4749 15.1351 10.1699 15.2451 9.99492 15.4951L7.98492 18.3601C7.97992 18.3701 7.97492 18.3801 7.96992 18.3851C8.35492 18.1901 8.79992 18.0251 9.30992 18.0001ZM11.7699 14.7001L11.8399 12.6451C12.0849 12.9301 12.3649 13.1851 12.6799 13.4051C12.9949 13.6251 13.3299 13.8001 13.6799 13.9351L11.7699 14.7001ZM12.8649 5.29014C14.1099 3.51014 15.9749 2.50014 17.6799 2.50014C18.4599 2.50014 19.2099 2.71014 19.8499 3.16014C20.8149 3.83514 21.3949 4.95514 21.4849 6.31014C21.5749 7.70514 21.1299 9.17514 20.2399 10.4501C19.0149 12.2001 17.1899 13.2051 15.5099 13.2401C15.4999 13.2401 15.4949 13.2401 15.4849 13.2401C14.6799 13.2501 13.9099 13.0401 13.2549 12.5801C12.5999 12.1201 12.1399 11.4701 11.8749 10.7101C11.8699 10.7001 11.8699 10.6901 11.8649 10.6851C11.3199 9.09514 11.6399 7.04014 12.8649 5.29014ZM1.99992 22.0001C1.85992 22.0001 1.72492 21.9451 1.62492 21.8301C1.43992 21.6251 1.45992 21.3051 1.66992 21.1251C1.73492 21.0701 1.79492 21.0151 1.85992 20.9551C2.47992 20.4001 3.17992 19.7751 4.11992 19.6001C4.64992 19.5001 5.18992 19.6751 5.70992 19.8451C6.11992 19.9751 6.53992 20.1151 6.86992 20.0751C7.14992 20.0451 7.47492 19.8401 7.81492 19.6251C8.25992 19.3451 8.76992 19.0251 9.35992 18.9951C9.90992 18.9651 10.4199 19.2051 10.9099 19.4351C11.3049 19.6201 11.6749 19.7951 11.9949 19.7951C12.3149 19.7951 12.6899 19.6201 13.0799 19.4351C13.5699 19.2051 14.0799 18.9651 14.6299 18.9951C15.2199 19.0251 15.7249 19.3451 16.1749 19.6251C16.5149 19.8401 16.8399 20.0401 17.1199 20.0751C17.4499 20.1151 17.8749 19.9751 18.2799 19.8451C18.7999 19.6751 19.3399 19.5051 19.8699 19.6001C20.8149 19.7751 21.5949 20.4751 22.1649 20.9851C22.2199 21.0351 22.2699 21.0801 22.3199 21.1201C22.5249 21.3051 22.5449 21.6201 22.3649 21.8251C22.1799 22.0301 21.8649 22.0501 21.6599 21.8701C21.6099 21.8251 21.5549 21.7751 21.4999 21.7301C21.0199 21.3001 20.3599 20.7051 19.6899 20.5851C19.4049 20.5351 19.0099 20.6601 18.5849 20.7951C18.0749 20.9601 17.5449 21.1301 17.0049 21.0651C16.4999 21.0051 16.0599 20.7351 15.6399 20.4701C15.2599 20.2351 14.9049 20.0101 14.5749 19.9901C14.2749 19.9751 13.8999 20.1501 13.5049 20.3351C13.0299 20.5601 12.5349 20.7901 11.9949 20.7901C11.4499 20.7901 10.9599 20.5601 10.4849 20.3351C10.0899 20.1501 9.71492 19.9751 9.41492 19.9901C9.08492 20.0101 8.72492 20.2301 8.34992 20.4701C7.92992 20.7351 7.48992 21.0101 6.98492 21.0651C6.43992 21.1251 5.91492 20.9551 5.40492 20.7951C4.98492 20.6601 4.58492 20.5301 4.29992 20.5851C3.63992 20.7051 3.07492 21.2101 2.52492 21.7001C2.45992 21.7601 2.39492 21.8151 2.32992 21.8751C2.23492 21.9601 2.11992 22.0001 1.99992 22.0001Z" fill="#13334C"/>
</svg>
