<svg width="24" height="24" viewBox="0 0 24 24" fill="none" xmlns="http://www.w3.org/2000/svg">
<path d="M17.63 5.5151C17.555 4.5901 18.325 3.8251 19.245 3.9001C19.97 3.9551 20.56 4.5451 20.62 5.2751C20.695 6.2001 19.925 6.9651 19.005 6.8901C18.28 6.8301 17.69 6.2401 17.63 5.5151ZM10.555 9.7651C11.505 10.4401 12.685 10.2351 13.35 9.2801C13.985 8.3751 13.775 7.1401 12.87 6.5001C11.925 5.8301 10.74 6.0351 10.075 6.9851C9.43995 7.8951 9.65495 9.1201 10.555 9.7651ZM5.91495 10.1701L9.48995 12.6751V18.0151C9.48995 18.2801 9.59495 18.5351 9.78495 18.7201C9.80995 18.7451 9.83995 18.7701 9.86495 18.7951C10.355 18.6301 10.725 18.3851 11.165 18.0901C11.93 17.5751 12.865 16.9501 14.49 16.7401V12.9201L16.9 12.6851C17.055 12.6701 17.2 12.6201 17.33 12.5401L20 10.8801C20.46 10.5951 20.63 9.9901 20.36 9.5201C20.075 9.0251 19.445 8.8701 18.965 9.1701L16.475 10.7201L13.445 11.0201H10.61L7.49995 8.8351V5.9051C7.49995 5.3651 7.07995 4.9001 6.53495 4.8801C5.96495 4.8601 5.49995 5.3151 5.49995 5.8801V5.8851V9.3301V9.4501C5.49995 9.4701 5.49995 9.4951 5.50495 9.5151C5.54995 9.7751 5.69495 10.0151 5.91495 10.1701ZM21.965 19.3301C20.45 19.4051 19.685 18.9951 18.87 18.5601C18.01 18.1001 17.04 17.5851 15.245 17.6751C14.975 17.6901 14.725 17.7151 14.495 17.7501C13.18 17.9501 12.415 18.4601 11.725 18.9201C11.68 18.9501 11.63 18.9851 11.585 19.0151C10.865 19.4951 10.14 19.9251 8.70995 20.0001C7.18995 20.0751 6.41995 19.6651 5.59995 19.2301C4.74495 18.7751 3.77495 18.2551 1.99495 18.3401C1.72995 18.3551 1.50495 18.5651 1.49995 18.8351C1.49495 19.1251 1.73995 19.3551 2.02495 19.3401C3.54495 19.2651 4.31495 19.6751 5.13495 20.1101C5.99495 20.5701 6.96495 21.0851 8.75995 20.9951C10.555 20.9051 11.47 20.2901 12.28 19.7501C12.69 19.4751 13.085 19.2101 13.59 19.0101C13.72 18.9601 13.86 18.9101 14.01 18.8701C14.37 18.7701 14.79 18.6951 15.295 18.6701C16.815 18.5951 17.585 19.0051 18.405 19.4401C19.265 19.9001 20.235 20.4151 22.03 20.3251C22.315 20.3101 22.535 20.0551 22.5 19.7651C22.465 19.5051 22.2299 19.3151 21.965 19.3301Z" fill="#13334C"/>
</svg>
