<svg width="24" height="24" viewBox="0 0 24 24" fill="none" xmlns="http://www.w3.org/2000/svg">
<path fill-rule="evenodd" clip-rule="evenodd" d="M15.23 4.005C14.89 3.8 14.53 3.635 14.15 3.5C14.125 3.52 14.1 3.545 14.08 3.565C14.055 3.585 14.035 3.605 14.01 3.625C13.985 3.645 13.96 3.675 13.93 3.695C13.885 3.735 13.845 3.77 13.805 3.81C13.79 3.825 13.77 3.845 13.755 3.86C13.74 3.875 13.72 3.895 13.705 3.915C13.695 3.93 13.68 3.94 13.665 3.955C13.57 4.055 13.48 4.15 13.39 4.25C13.375 4.265 13.36 4.285 13.345 4.3C13.325 4.32 13.305 4.34 13.29 4.36C13.285 4.365 13.285 4.365 13.28 4.375C13.275 4.38 13.27 4.385 13.27 4.39C13.25 4.415 13.23 4.435 13.22 4.46C13.205 4.48 13.195 4.5 13.18 4.515C13.075 4.645 12.97 4.78 12.875 4.92C12.87 4.93 12.865 4.935 12.86 4.94C12.85 4.95 12.85 4.955 12.84 4.965C12.73 5.12 12.625 5.285 12.525 5.45C12.52 5.455 12.52 5.46 12.515 5.47L12.51 5.475C12.51 5.48 12.505 5.48 12.505 5.48C12.125 6.14 11.86 6.855 11.685 7.59C11.685 7.6 11.68 7.6 11.68 7.61C11.675 7.62 11.675 7.625 11.675 7.63C11.67 7.655 11.665 7.68 11.66 7.7C11.655 7.71 11.655 7.725 11.655 7.74C11.605 7.97 11.565 8.205 11.535 8.44C11.53 8.455 11.53 8.47 11.53 8.49C11.525 8.51 11.525 8.53 11.525 8.545C11.52 8.585 11.52 8.625 11.515 8.665C11.515 8.695 11.515 8.73 11.51 8.76C11.505 8.815 11.5 8.86 11.495 8.915C11.49 8.995 11.475 9.08 11.475 9.16C11.36 9.225 11.245 9.285 11.125 9.34C11.09 9.355 11.055 9.375 11.025 9.39C10.96 9.42 10.895 9.455 10.83 9.48C10.72 9.525 10.61 9.56 10.5 9.595C10.465 9.605 10.435 9.615 10.4 9.63C9.805 9.83 9.195 9.95 8.57 9.975C8.565 9.975 8.555 9.975 8.55 9.975C8.545 9.975 8.535 9.975 8.53 9.975C8.485 9.67 8.455 9.355 8.455 9.035C8.455 6.545 9.83 4.28 11.995 3.115C11.165 3.115 10.365 3.275 9.64 3.57C8.225 5 7.385 6.945 7.385 9.035C7.385 9.34 7.405 9.64 7.44 9.935C7.31 9.92 7.185 9.895 7.06 9.87C7.03 9.865 7.005 9.86 6.975 9.85C6.945 9.845 6.91 9.84 6.88 9.83C6.825 9.825 6.775 9.81 6.725 9.8C6.565 9.76 6.405 9.715 6.245 9.66C6.175 9.635 6.1 9.615 6.025 9.59C5.89 9.54 5.755 9.49 5.62 9.435C5.62 9.455 5.62 9.475 5.62 9.49C5.62 9.875 5.655 10.255 5.72 10.625C5.755 10.635 5.79 10.65 5.82 10.66C5.845 10.67 5.87 10.675 5.895 10.685C5.93 10.695 5.96 10.705 5.99 10.72C6.045 10.74 6.1 10.76 6.16 10.775C6.175 10.78 6.185 10.785 6.2 10.785C6.21 10.79 6.22 10.79 6.225 10.795C6.245 10.805 6.275 10.805 6.295 10.81C6.31 10.815 6.33 10.82 6.345 10.82C6.475 10.855 6.605 10.885 6.74 10.91C6.76 10.915 6.78 10.92 6.795 10.925C6.825 10.935 6.855 10.94 6.885 10.945C6.895 10.945 6.895 10.95 6.905 10.95H6.915H6.92H6.925C6.955 10.955 6.985 10.96 7.01 10.96C7.03 10.965 7.055 10.965 7.075 10.97C7.245 10.995 7.41 11.02 7.58 11.035C7.585 11.035 7.6 11.035 7.605 11.04C7.61 11.04 7.625 11.045 7.63 11.045C7.82 11.06 8.015 11.07 8.21 11.075C8.215 11.075 8.22 11.075 8.225 11.075C8.23 11.075 8.235 11.075 8.245 11.075C9.005 11.075 9.76 10.945 10.485 10.725C10.49 10.725 10.49 10.725 10.49 10.725H10.5C10.505 10.725 10.52 10.72 10.525 10.715C10.545 10.705 10.57 10.7 10.59 10.69C10.6 10.685 10.615 10.68 10.63 10.675C10.855 10.6 11.08 10.52 11.3 10.425C11.315 10.415 11.33 10.415 11.345 10.405C11.365 10.395 11.385 10.395 11.4 10.385C11.435 10.37 11.47 10.35 11.505 10.335C11.535 10.32 11.56 10.305 11.59 10.29C11.635 10.265 11.68 10.25 11.725 10.23C11.805 10.195 11.88 10.165 11.955 10.12C12.065 10.185 12.18 10.26 12.285 10.335C12.31 10.355 12.335 10.37 12.365 10.385C12.43 10.425 12.495 10.47 12.555 10.515C12.64 10.58 12.725 10.655 12.805 10.73C12.835 10.755 12.87 10.785 12.9 10.815C13.37 11.23 13.78 11.7 14.12 12.23C14.125 12.235 14.13 12.24 14.13 12.245L14.135 12.255L14.14 12.26L14.145 12.265C13.9 12.455 13.645 12.64 13.37 12.8C11.215 14.045 8.565 13.99 6.475 12.695C6.885 13.395 7.42 14.01 8.05 14.51C9.995 15.02 12.095 14.77 13.905 13.73C14.17 13.575 14.42 13.405 14.66 13.23C14.71 13.355 14.755 13.48 14.8 13.61C14.81 13.635 14.815 13.655 14.825 13.68C14.835 13.705 14.845 13.73 14.855 13.76C14.875 13.81 14.895 13.865 14.905 13.915C14.955 14.075 14.99 14.24 15.025 14.4C15.04 14.475 15.06 14.545 15.075 14.62C15.1 14.76 15.125 14.905 15.14 15.045C15.49 14.845 15.815 14.62 16.12 14.36C16.115 14.325 16.105 14.295 16.095 14.265C16.09 14.24 16.085 14.21 16.075 14.18C16.07 14.145 16.065 14.115 16.055 14.08C16.045 14.02 16.035 13.96 16.015 13.905C16.01 13.88 16.005 13.86 15.995 13.835C15.99 13.815 15.985 13.795 15.975 13.77C15.97 13.75 15.965 13.73 15.955 13.715C15.915 13.585 15.875 13.455 15.835 13.33C15.825 13.31 15.82 13.285 15.815 13.265C15.805 13.24 15.8 13.215 15.79 13.19C15.785 13.18 15.785 13.18 15.78 13.17C15.775 13.16 15.775 13.16 15.775 13.15C15.765 13.125 15.75 13.1 15.74 13.07C15.73 13.045 15.72 13.03 15.715 13.005C15.655 12.845 15.59 12.69 15.515 12.535C15.51 12.525 15.505 12.52 15.505 12.515C15.5 12.505 15.5 12.495 15.495 12.485C15.41 12.31 15.33 12.14 15.235 11.97C15.23 11.965 15.23 11.96 15.225 11.955C15.22 11.945 15.22 11.94 15.215 11.935C14.83 11.275 14.35 10.69 13.795 10.17C13.79 10.165 13.785 10.16 13.78 10.155C13.775 10.15 13.77 10.145 13.765 10.14C13.745 10.12 13.725 10.1 13.7 10.085C13.695 10.075 13.685 10.075 13.68 10.065C13.505 9.905 13.325 9.755 13.13 9.61C13.115 9.6 13.105 9.59 13.09 9.575C13.075 9.565 13.06 9.55 13.045 9.54C13.01 9.52 12.98 9.495 12.945 9.475C12.92 9.46 12.89 9.44 12.86 9.42C12.82 9.39 12.78 9.365 12.74 9.335C12.675 9.285 12.605 9.235 12.535 9.19C12.54 9.06 12.54 8.93 12.555 8.795C12.56 8.755 12.56 8.725 12.56 8.685C12.565 8.615 12.57 8.54 12.58 8.47C12.595 8.35 12.62 8.235 12.645 8.115C12.655 8.085 12.655 8.05 12.665 8.02C12.79 7.41 12.99 6.815 13.28 6.26C13.285 6.255 13.29 6.245 13.29 6.235C13.295 6.23 13.295 6.225 13.295 6.22C13.585 6.335 13.87 6.47 14.145 6.625C16.3 7.87 17.575 10.19 17.5 12.645C17.895 11.96 18.165 11.195 18.285 10.38C17.755 8.44 16.49 6.74 14.68 5.695C14.42 5.54 14.145 5.41 13.87 5.295C13.95 5.195 14.03 5.095 14.115 5C14.135 4.98 14.155 4.955 14.175 4.93C14.2 4.905 14.22 4.88 14.24 4.855C14.275 4.815 14.305 4.775 14.34 4.74C14.455 4.62 14.575 4.51 14.7 4.395L14.725 4.37C14.775 4.325 14.82 4.28 14.87 4.24C15.005 4.185 15.12 4.095 15.23 4.005ZM4.5 9.5C4.5 5.355 7.855 2 12 2C16.14 2 19.5 5.355 19.5 9.5C19.5 13.64 16.14 17 12 17C7.855 17 4.5 13.64 4.5 9.5ZM22.5 17.8V21.7C22.5 22.14 22.14 22.5 21.7 22.5H2.3C1.86 22.5 1.5 22.14 1.5 21.7V17.8C1.5 17.36 1.86 17 2.3 17H2.925C3.64 17 4.345 17.22 4.915 17.655C5.935 18.44 8.72 19 12 19C15.28 19 18.065 18.44 19.085 17.655C19.655 17.22 20.36 17 21.075 17H21.7C22.14 17 22.5 17.36 22.5 17.8Z" fill="#13334C"/>
</svg>
