<svg width="24" height="24" viewBox="0 0 24 24" fill="none" xmlns="http://www.w3.org/2000/svg">
<path d="M22.485 6.83006C22.365 4.96006 21.545 3.40006 20.175 2.44006C18.805 1.48006 17.06 1.24006 15.26 1.77006C13.5 2.28506 11.9 3.47506 10.745 5.12506C9.59 6.77006 9.02 8.68506 9.14 10.5151C9.19 11.2951 9.36 12.0151 9.645 12.6651L8.69 17.8651C8.4 17.7951 8.085 17.9051 7.905 18.1651L5.895 21.0301C5.655 21.3701 5.74 21.8351 6.08 22.0751L6.49 22.3601C6.83 22.6001 7.295 22.5151 7.535 22.1751L9.545 19.3101C9.725 19.0501 9.72 18.7201 9.56 18.4701L14.175 15.8351C14.29 15.8401 14.41 15.8451 14.525 15.8451C15.125 15.8451 15.745 15.7551 16.37 15.5701C18.13 15.0551 19.73 13.8651 20.885 12.2151C22.03 10.5751 22.6 8.66006 22.485 6.83006ZM9.835 17.1601L10.425 13.9551C10.72 14.3151 11.065 14.6351 11.455 14.9051C11.835 15.1751 12.25 15.3851 12.685 15.5401L9.835 17.1601ZM20.06 11.6451C19.035 13.1051 17.625 14.1601 16.085 14.6151C14.585 15.0551 13.145 14.8651 12.025 14.0851C9.685 12.4451 9.48 8.68506 11.565 5.70006C12.59 4.24006 14 3.18506 15.54 2.73006C16.07 2.57506 16.595 2.49506 17.1 2.49506C18.02 2.49506 18.88 2.75506 19.6 3.26006C20.715 4.04006 21.385 5.33006 21.485 6.89506C21.59 8.49506 21.08 10.1851 20.06 11.6451ZM6.635 13.1401C7.27 12.2351 7.05 10.9901 6.145 10.3551C5.795 10.1101 5.395 9.99506 5 9.99506C4.37 9.99506 3.75 10.2901 3.36 10.8501C2.725 11.7551 2.945 13.0001 3.85 13.6351C4.2 13.8801 4.6 13.9951 4.995 13.9951C5.625 13.9901 6.245 13.6951 6.635 13.1401ZM5.815 12.5651C5.63 12.8301 5.32 12.9901 4.995 12.9901C4.79 12.9901 4.59 12.9251 4.425 12.8101C3.975 12.4951 3.865 11.8701 4.18 11.4151C4.365 11.1501 4.675 10.9901 5 10.9901C5.205 10.9901 5.405 11.0551 5.57 11.1701C6.02 11.4901 6.13 12.1151 5.815 12.5651Z" fill="#13334C"/>
</svg>
