<svg width="24" height="24" viewBox="0 0 24 24" fill="none" xmlns="http://www.w3.org/2000/svg">
<path d="M18.79 3.09001C18.565 2.93001 18.25 2.98501 18.095 3.21501L12.48 11.235L8.95501 12.9C8.95501 12.9 8.95501 12.9 8.95001 12.9C8.94001 12.905 8.93001 12.91 8.92001 12.915C8.91501 12.915 8.91501 12.92 8.91001 12.92L4.69001 15.46C4.57501 15.53 4.49001 15.645 4.46001 15.78C4.43001 15.915 4.45501 16.05 4.53001 16.165L6.90001 19.755C6.90501 19.76 6.90501 19.765 6.91001 19.77C6.91501 19.775 6.91501 19.78 6.92001 19.78L6.92501 19.785C6.92501 19.79 6.93001 19.79 6.93001 19.795C6.93501 19.8 6.94001 19.81 6.94501 19.815C6.95001 19.82 6.95001 19.82 6.95501 19.825L6.96001 19.83C6.96001 19.83 6.96001 19.83 6.96501 19.835C6.97001 19.84 6.97501 19.845 6.98501 19.85C6.99001 19.855 6.99501 19.86 7.00001 19.865C7.00001 19.865 7.00501 19.865 7.00501 19.87C7.00501 19.87 7.01001 19.87 7.01001 19.875C7.01501 19.88 7.02001 19.88 7.02001 19.885C7.02501 19.89 7.03001 19.895 7.04001 19.9C7.04501 19.9 7.04501 19.905 7.05001 19.905C7.05501 19.91 7.06001 19.91 7.06501 19.915C7.07001 19.92 7.07501 19.92 7.08001 19.925C7.08501 19.93 7.09001 19.93 7.09501 19.935C7.10001 19.935 7.10501 19.94 7.11001 19.94C7.11501 19.94 7.12001 19.945 7.12001 19.945C7.13001 19.95 7.13501 19.95 7.14501 19.955C7.15001 19.955 7.15501 19.96 7.15501 19.96C7.16001 19.96 7.16001 19.96 7.16501 19.965C7.17501 19.97 7.18501 19.97 7.19501 19.975C7.20001 19.975 7.20501 19.98 7.21001 19.98H7.21501L11.395 20.98C11.435 20.99 11.47 20.995 11.51 20.995C11.605 20.995 11.7 20.97 11.78 20.915C11.895 20.84 11.975 20.725 12 20.59L12.945 15.755C12.945 15.75 12.945 15.745 12.945 15.74C12.945 15.73 12.95 15.72 12.95 15.71V15.705L13.305 11.825L18.915 3.79001C19.075 3.56001 19.02 3.25001 18.79 3.09001ZM11.59 17.425L8.63001 18.48L9.68501 16.975L11.8 16.355L11.59 17.425ZM8.72001 14.2L8.86001 16.4L7.81001 17.9L7.79501 14.755L8.72001 14.2ZM9.69001 13.655L11.325 12.885L9.78001 15.09L9.69001 13.655ZM6.80001 15.355L6.81001 17.8L5.65001 16.045L6.80001 15.355ZM9.07501 19.38L11.365 18.565L11.11 19.87L9.07501 19.38ZM11.98 15.26L10.6 15.665L12.145 13.46L11.98 15.26ZM20.145 20.64C19.24 21.275 17.995 21.055 17.36 20.15C16.725 19.245 16.945 18 17.85 17.365C18.755 16.73 20 16.95 20.635 17.855C21.27 18.76 21.05 20.005 20.145 20.64Z" fill="#13334C"/>
</svg>
