<svg width="24" height="24" viewBox="0 0 24 24" fill="none" xmlns="http://www.w3.org/2000/svg">
<path d="M15.6099 19.7401L14.4849 19.2701C14.1749 19.1401 13.9399 18.8801 13.8399 18.5601C13.7449 18.2651 13.7799 17.9451 13.9249 17.6751L13.7849 17.3951C13.6049 17.0401 13.6199 16.6251 13.8299 16.2851C14.0399 15.9451 14.3999 15.7451 14.7999 15.7451C14.8099 15.7451 14.8199 15.7451 14.8299 15.7451L15.1799 15.7551L15.2349 15.6851C15.3749 15.5051 15.5549 15.3751 15.7649 15.3051C15.7799 15.0701 15.8649 14.8401 16.0199 14.6501C16.2349 14.3851 16.5599 14.2301 16.9049 14.2301H16.9099L17.0499 14.0151C17.2599 13.6951 17.6149 13.5001 17.9999 13.5001C18.3849 13.5001 18.7399 13.6901 18.9499 14.0151L19.0899 14.2301H19.0949C19.3949 14.2301 19.6799 14.3501 19.8949 14.5551C19.9099 14.5251 19.9199 14.4951 19.9349 14.4651C19.9499 14.4351 19.9649 14.4051 19.9749 14.3701C19.9949 14.3201 20.0199 14.2701 20.0399 14.2151C20.0549 14.1851 20.0649 14.1551 20.0799 14.1201C20.0999 14.0651 20.1249 14.0151 20.1449 13.9601C20.1549 13.9301 20.1699 13.9051 20.1799 13.8751C20.2049 13.8151 20.2299 13.7501 20.2499 13.6901C20.2599 13.6701 20.2649 13.6501 20.2749 13.6301C20.3049 13.5451 20.3349 13.4651 20.3649 13.3801C20.3699 13.3701 20.3749 13.3551 20.3749 13.3451C20.3999 13.2751 20.4249 13.2001 20.4449 13.1301C20.4549 13.1051 20.4599 13.0801 20.4699 13.0501C20.4899 12.9901 20.5049 12.9351 20.5249 12.8751C20.5349 12.8451 20.5449 12.8151 20.5499 12.7851C20.5649 12.7301 20.5799 12.6751 20.5999 12.6201C20.6099 12.5901 20.6149 12.5601 20.6249 12.5301C20.6399 12.4751 20.6549 12.4201 20.6699 12.3601C20.6799 12.3301 20.6849 12.3051 20.6899 12.2751C20.7049 12.2101 20.7199 12.1501 20.7349 12.0851C20.7399 12.0651 20.7449 12.0401 20.7499 12.0201C20.7899 11.8501 20.8249 11.6751 20.8599 11.5051C20.8649 11.4851 20.8699 11.4651 20.8699 11.4401C20.8799 11.3751 20.8949 11.3101 20.9049 11.2451C20.9099 11.2151 20.9149 11.1901 20.9199 11.1601C20.9299 11.1001 20.9399 11.0401 20.9499 10.9851C20.9549 10.9551 20.9599 10.9251 20.9649 10.8951C20.9749 10.8351 20.9799 10.7751 20.9899 10.7201C20.9949 10.6901 20.9999 10.6651 20.9999 10.6351C21.0099 10.5701 21.0149 10.5101 21.0249 10.4451C21.0299 10.4201 21.0299 10.4001 21.0349 10.3751C21.0449 10.2901 21.0549 10.2051 21.0599 10.1251V10.1201C21.0699 10.0301 21.0749 9.9401 21.0799 9.8501C21.0799 9.8351 21.0799 9.8251 21.0799 9.8101C21.0849 9.7351 21.0899 9.6601 21.0949 9.5901C21.0949 9.5651 21.0949 9.5401 21.0999 9.5151C21.1049 9.4501 21.1049 9.3901 21.1099 9.3251C21.1099 9.2951 21.1099 9.2701 21.1099 9.2401C21.1099 9.1801 21.1149 9.1201 21.1149 9.0551C21.1149 9.0301 21.1149 9.0001 21.1149 8.9751C21.1149 8.9101 21.1149 8.8501 21.1149 8.7851C21.1149 8.7601 21.1149 8.7351 21.1149 8.7151C21.1149 8.6401 21.1149 8.5651 21.1099 8.4901C21.1099 8.4801 21.1099 8.4651 21.1099 8.4551C21.0799 7.3851 20.9299 6.3151 20.6599 5.2601V5.2551C20.6349 5.1651 20.6149 5.0751 20.5899 4.9851C20.5899 4.9801 20.5849 4.9701 20.5849 4.9651C20.5599 4.8751 20.5349 4.7851 20.5049 4.6901C20.5049 4.6901 20.5049 4.6901 20.5049 4.6851C20.4499 4.4951 20.3899 4.3101 20.3249 4.1251C20.3199 4.1151 20.3199 4.1101 20.3149 4.1001C20.2899 4.0201 20.2599 3.9401 20.2299 3.8601C20.2249 3.8401 20.2149 3.8201 20.2099 3.8051C20.1849 3.7351 20.1599 3.6651 20.1299 3.5951C20.1249 3.5751 20.1149 3.5551 20.1099 3.5351C20.0799 3.4551 20.0499 3.3801 20.0149 3.3001C20.0099 3.2901 20.0099 3.2801 20.0049 3.2751C19.9699 3.1851 19.9299 3.1001 19.8949 3.0101C19.8899 2.9951 19.8849 2.9851 19.8799 2.9701C19.8499 2.9001 19.8199 2.8251 19.7849 2.7551C19.7749 2.7301 19.7599 2.7001 19.7499 2.6751C19.7249 2.6151 19.6949 2.5601 19.6699 2.5001C19.6549 2.4701 19.6449 2.4401 19.6299 2.4151C19.5999 2.3551 19.5749 2.3001 19.5449 2.2401C19.5299 2.2151 19.5199 2.1901 19.5049 2.1601C19.4649 2.0751 19.4199 1.9951 19.3799 1.9151C19.3699 1.8951 19.3549 1.8751 19.3449 1.8551C19.2549 1.7201 19.1049 1.6301 18.9449 1.6101C18.8499 1.5951 18.7549 1.5851 18.6649 1.5751C18.6349 1.5701 18.6049 1.5701 18.5799 1.5651C18.5149 1.5601 18.4449 1.5501 18.3799 1.5451C18.3499 1.5401 18.3149 1.5401 18.2849 1.5351C18.2199 1.5301 18.1499 1.5251 18.0849 1.5201C18.0549 1.5201 18.0299 1.5151 17.9999 1.5151C17.8099 1.5001 17.6249 1.4901 17.4349 1.4851C17.4049 1.4851 17.3799 1.4851 17.3499 1.4801C17.2849 1.4801 17.2149 1.4751 17.1499 1.4751C17.1199 1.4751 17.0899 1.4751 17.0549 1.4751C16.9849 1.4751 16.9199 1.4751 16.8499 1.4751C16.8249 1.4751 16.7949 1.4751 16.7699 1.4751C16.5799 1.4751 16.3949 1.4801 16.2049 1.4901C16.1799 1.4901 16.1499 1.4951 16.1249 1.4951C16.0549 1.5001 15.9899 1.5001 15.9199 1.5051C15.8899 1.5051 15.8599 1.5101 15.8299 1.5101C15.7599 1.5151 15.6899 1.5201 15.6249 1.5251C15.5999 1.5251 15.5749 1.5301 15.5499 1.5301C15.3649 1.5451 15.1749 1.5651 14.9899 1.5901C14.9649 1.5951 14.9399 1.5951 14.9149 1.6001C14.8449 1.6101 14.7799 1.6201 14.7099 1.6301C14.6799 1.6351 14.6549 1.6401 14.6249 1.6451C14.5549 1.6551 14.4849 1.6651 14.4199 1.6801C14.3949 1.6851 14.3749 1.6901 14.3499 1.6901C13.6699 1.8051 12.9999 1.9701 12.3449 2.1801C11.7399 2.3751 11.1449 2.6101 10.5699 2.8851C10.5649 2.8851 10.5599 2.8901 10.5549 2.8901C10.4799 2.9251 10.3999 2.9651 10.3249 3.0001C10.3199 3.0051 10.3149 3.0051 10.3099 3.0101C10.2299 3.0501 10.1549 3.0901 10.0749 3.1301C10.0749 3.1301 10.0749 3.1301 10.0699 3.1301C9.74991 3.3001 9.43991 3.4801 9.12991 3.6751C9.11991 3.6801 9.11491 3.6851 9.10491 3.6901C9.03991 3.7301 8.97491 3.7751 8.90991 3.8151C8.89491 3.8251 8.88491 3.8301 8.86991 3.8401C8.80991 3.8801 8.74991 3.9201 8.68991 3.9651C8.67491 3.9751 8.65991 3.9851 8.64491 3.9951C8.58491 4.0351 8.52491 4.0801 8.46491 4.1251C8.45491 4.1351 8.43991 4.1401 8.42991 4.1501C8.35991 4.2001 8.29491 4.2501 8.22491 4.3001C8.21991 4.3001 8.21991 4.3051 8.21491 4.3051C8.06991 4.4151 7.92991 4.5251 7.78991 4.6401C7.77991 4.6451 7.76991 4.6551 7.76491 4.6601C7.70491 4.7101 7.64991 4.7551 7.58991 4.8051C7.57491 4.8201 7.55491 4.8351 7.53991 4.8501C7.48991 4.8901 7.43991 4.9351 7.39491 4.9801C7.37491 5.0001 7.35491 5.0151 7.33491 5.0351C7.28991 5.0751 7.24491 5.1151 7.19991 5.1601C7.17991 5.1801 7.15991 5.2001 7.13991 5.2201C7.09491 5.2601 7.04991 5.3051 7.00491 5.3451C6.98491 5.3651 6.96491 5.3851 6.94491 5.4001C6.89491 5.4451 6.84991 5.4951 6.79991 5.5451C6.78491 5.5601 6.76991 5.5751 6.75491 5.5901C6.62991 5.7151 6.50991 5.8451 6.38491 5.9801C6.36991 6.0001 6.34991 6.0201 6.33491 6.0351C6.29491 6.0801 6.24991 6.1301 6.20991 6.1751C6.18991 6.2001 6.16991 6.2251 6.14491 6.2501C6.10991 6.2951 6.06991 6.3351 6.03491 6.3801C6.01491 6.4051 5.98991 6.4351 5.96991 6.4601C5.93491 6.5001 5.89991 6.5451 5.86491 6.5901C5.84491 6.6201 5.81991 6.6451 5.79991 6.6751C5.76491 6.7201 5.72991 6.7651 5.69491 6.8051C5.67491 6.8301 5.65491 6.8601 5.62991 6.8851C5.59491 6.9351 5.55491 6.9801 5.51991 7.0301C5.50491 7.0551 5.48491 7.0751 5.46991 7.1001C5.41491 7.1751 5.36491 7.2451 5.30991 7.3201C5.25991 7.3951 5.20491 7.4701 5.15491 7.5451C5.13991 7.5701 5.12491 7.5951 5.10491 7.6201C5.06991 7.6701 5.03991 7.7201 5.00491 7.7701C4.98491 7.8001 4.96991 7.8301 4.94991 7.8551C4.91991 7.9001 4.88991 7.9501 4.85991 7.9951C4.83991 8.0251 4.82491 8.0551 4.80491 8.0851C4.77491 8.1301 4.74991 8.1801 4.71991 8.2251C4.69991 8.2551 4.68491 8.2851 4.66491 8.3151C4.63491 8.3651 4.60991 8.4151 4.57991 8.4651C4.56491 8.4951 4.54991 8.5201 4.53491 8.5501C4.50491 8.6051 4.47491 8.6601 4.44491 8.7151C4.43491 8.7351 4.41991 8.7601 4.40991 8.7801C4.32491 8.9401 4.24491 9.1001 4.16991 9.2601C4.15991 9.2801 4.14991 9.3001 4.14491 9.3151C4.11491 9.3751 4.08991 9.4401 4.05991 9.5001C4.04991 9.5251 4.03991 9.5501 4.02491 9.5751C3.99991 9.6301 3.97491 9.6901 3.94991 9.7451C3.93991 9.7701 3.92991 9.7951 3.91491 9.8251C3.88991 9.8801 3.86991 9.9401 3.84491 9.9951C3.83491 10.0201 3.82491 10.0451 3.81491 10.0701C3.78991 10.1301 3.76991 10.1901 3.74491 10.2501C3.73491 10.2701 3.72991 10.2951 3.71991 10.3151C3.69491 10.3851 3.66991 10.4551 3.64491 10.5251C3.63991 10.5351 3.63491 10.5451 3.63491 10.5601C3.57491 10.7301 3.51991 10.9051 3.46491 11.0751C3.46491 11.0801 3.46491 11.0851 3.45991 11.0851C3.43491 11.1651 3.40991 11.2451 3.38991 11.3251C3.38491 11.3401 3.37991 11.3551 3.37991 11.3701C3.35991 11.4401 3.33991 11.5101 3.31991 11.5851C3.31491 11.6001 3.30991 11.6201 3.30491 11.6351C3.28491 11.7051 3.26991 11.7751 3.24991 11.8451C3.24491 11.8601 3.23991 11.8751 3.23991 11.8901C3.21991 11.9651 3.20491 12.0401 3.18991 12.1151C3.18991 12.1251 3.18491 12.1351 3.18491 12.1451C3.10991 12.5001 3.04491 12.8551 2.99491 13.2101V13.2151C2.98491 13.3001 2.96991 13.3901 2.95991 13.4751C2.95991 13.4801 2.95991 13.4851 2.95991 13.4951C2.94991 13.5801 2.93991 13.6651 2.93491 13.7501C2.93491 13.7551 2.93491 13.7601 2.93491 13.7651C2.87491 14.4001 2.85491 15.0351 2.87991 15.6701C2.90491 16.3551 2.98491 17.0401 3.10491 17.7201C3.10991 17.7451 3.11491 17.7701 3.11991 17.7901C3.13491 17.8601 3.14491 17.9251 3.15991 17.9951C3.16491 18.0251 3.16991 18.0551 3.17991 18.0801C3.19491 18.1451 3.20991 18.2101 3.22491 18.2801C3.22991 18.3051 3.23491 18.3301 3.23991 18.3551C3.27991 18.5351 3.32491 18.7201 3.37491 18.9001C3.37991 18.9251 3.38991 18.9501 3.39491 18.9751C3.41491 19.0401 3.42991 19.1051 3.44991 19.1701C3.45991 19.2001 3.46491 19.2301 3.47491 19.2601C3.49491 19.3251 3.51491 19.3901 3.53491 19.4551C3.54491 19.4801 3.54991 19.5051 3.55991 19.5351C3.61491 19.7151 3.67491 19.8901 3.73991 20.0701C3.74991 20.0951 3.75991 20.1201 3.76991 20.1451C3.79491 20.2101 3.81491 20.2701 3.83991 20.3351C3.84991 20.3651 3.85991 20.3951 3.87491 20.4251C3.89991 20.4851 3.92491 20.5501 3.94991 20.6101C3.95991 20.6351 3.96991 20.6651 3.97991 20.6901C4.01491 20.7751 4.04991 20.8651 4.08491 20.9501C4.11991 21.0351 4.15991 21.1251 4.19991 21.2101C4.20991 21.2351 4.22491 21.2601 4.23491 21.2901C4.26491 21.3501 4.28991 21.4101 4.31991 21.4701C4.33491 21.5001 4.34991 21.5301 4.35991 21.5601C4.38991 21.6201 4.41991 21.6801 4.44491 21.7401C4.45991 21.7651 4.46991 21.7901 4.48491 21.8201C4.52491 21.9051 4.56991 21.9901 4.61491 22.0751C4.62491 22.0951 4.63991 22.1151 4.64991 22.1351C4.72991 22.2501 4.84991 22.3351 4.98491 22.3701C5.00491 22.3751 5.02991 22.3801 5.05491 22.3851C5.14491 22.3951 5.23991 22.4101 5.32991 22.4201C5.35991 22.4251 5.38491 22.4251 5.41491 22.4301C5.47991 22.4351 5.54491 22.4451 5.60991 22.4501C5.63991 22.4551 5.67491 22.4551 5.70491 22.4601C5.76991 22.4651 5.83491 22.4701 5.89991 22.4751C5.92991 22.4751 5.95991 22.4801 5.98491 22.4801C6.06491 22.4851 6.13991 22.4901 6.21991 22.4951C6.23491 22.4951 6.24991 22.4951 6.25991 22.5001C6.35491 22.5051 6.44991 22.5101 6.54491 22.5151C6.55491 22.5151 6.56491 22.5151 6.57491 22.5151C6.65991 22.5201 6.74491 22.5201 6.82491 22.5201C6.84491 22.5201 6.86491 22.5201 6.88991 22.5201C6.96491 22.5201 7.03991 22.5201 7.11491 22.5201C7.13491 22.5201 7.15491 22.5201 7.17491 22.5201C7.25991 22.5201 7.34491 22.5201 7.42991 22.5151C7.43991 22.5151 7.44491 22.5151 7.45491 22.5151C7.64991 22.5101 7.84491 22.5001 8.04491 22.4901C8.04491 22.4901 8.04491 22.4901 8.04991 22.4901C8.14491 22.4851 8.23991 22.4751 8.33491 22.4701C8.34491 22.4701 8.34991 22.4701 8.35991 22.4701C8.45491 22.4601 8.54491 22.4551 8.63991 22.4451H8.64491C9.03991 22.4051 9.42991 22.3501 9.81491 22.2801C10.4899 22.1551 11.1549 21.9901 11.7999 21.7751C11.8099 21.7701 11.8199 21.7701 11.8349 21.7651C11.9049 21.7401 11.9799 21.7151 12.0499 21.6901C12.0749 21.6801 12.0949 21.6751 12.1199 21.6651C12.1799 21.6451 12.2399 21.6201 12.2999 21.6001C12.3249 21.5901 12.3499 21.5801 12.3799 21.5701C12.4349 21.5501 12.4949 21.5251 12.5499 21.5051C12.5749 21.4951 12.5999 21.4851 12.6299 21.4751C12.6899 21.4501 12.7449 21.4301 12.8049 21.4051C12.8299 21.3951 12.8499 21.3851 12.8749 21.3751C12.9449 21.3451 13.0099 21.3151 13.0799 21.2851C13.0899 21.2801 13.1049 21.2751 13.1149 21.2701C13.1949 21.2351 13.2799 21.1951 13.3599 21.1601C13.3649 21.1601 13.3649 21.1551 13.3699 21.1551C13.4449 21.1201 13.5199 21.0851 13.5949 21.0451C13.6149 21.0351 13.6349 21.0251 13.6599 21.0151C13.7149 20.9851 13.7749 20.9601 13.8299 20.9301C13.8549 20.9151 13.8799 20.9051 13.9049 20.8901C13.9599 20.8601 14.0099 20.8351 14.0599 20.8051C14.0849 20.7901 14.1099 20.7751 14.1399 20.7601C14.1899 20.7301 14.2449 20.7001 14.2949 20.6751C14.3199 20.6601 14.3449 20.6451 14.3699 20.6351C14.4249 20.6001 14.4849 20.5701 14.5399 20.5351C14.5599 20.5251 14.5799 20.5151 14.5949 20.5001C14.7449 20.4101 14.8949 20.3151 15.0449 20.2201C15.0649 20.2051 15.0849 20.1951 15.0999 20.1801C15.1549 20.1451 15.2049 20.1101 15.2599 20.0751C15.2849 20.0601 15.3099 20.0401 15.3349 20.0251C15.3849 19.9901 15.4299 19.9601 15.4799 19.9251C15.5049 19.9051 15.5299 19.8901 15.5549 19.8701C15.5799 19.8551 15.5999 19.8351 15.6199 19.8201C15.6149 19.7801 15.6099 19.7601 15.6099 19.7401ZM14.6049 3.1601C14.6149 3.1601 14.6249 3.1551 14.6349 3.1551L14.6649 3.1501C14.7249 3.1401 14.7899 3.1301 14.8499 3.1201C14.8749 3.1151 14.8999 3.1101 14.9249 3.1101C14.9849 3.1001 15.0449 3.0951 15.1099 3.0851L15.1399 3.0801C15.1549 3.0801 15.1649 3.0751 15.1799 3.0751C15.3449 3.0551 15.5149 3.0351 15.6799 3.0201C15.6899 3.0201 15.7049 3.0201 15.7149 3.0151L15.7449 3.0101C15.8049 3.0051 15.8699 3.0001 15.9299 2.9951C15.9449 2.9951 15.9549 2.9951 15.9699 2.9901C16.7299 4.0451 17.8349 4.8201 19.0849 5.1701C19.0999 5.2301 19.1199 5.2901 19.1399 5.3601L19.1449 5.3701V5.3801C19.1699 5.4601 19.1899 5.5451 19.2099 5.6251V5.6301C19.3099 6.0151 19.3899 6.4051 19.4499 6.7951L19.1599 6.7351C17.2249 6.3301 15.5199 5.1351 14.4799 3.4601L14.3199 3.2051C14.4199 3.1901 14.5149 3.1751 14.6049 3.1601ZM9.54991 20.7901H9.54491C9.19991 20.8551 8.84991 20.9001 8.49991 20.9351H8.49491C8.41491 20.9451 8.32991 20.9501 8.24491 20.9601H8.23491H8.22491C8.15491 20.9651 8.09491 20.9701 8.02991 20.9751C7.26991 19.9201 6.16491 19.1451 4.91491 18.7951C4.90991 18.7801 4.90491 18.7701 4.90491 18.7551C4.88991 18.6951 4.86991 18.6351 4.85491 18.5801L4.84491 18.5451C4.83991 18.5351 4.83991 18.5201 4.83491 18.5101C4.78991 18.3501 4.74991 18.1851 4.71491 18.0201C4.70991 18.0051 4.70991 17.9901 4.70491 17.9751L4.69991 17.9501C4.68491 17.8901 4.67491 17.8301 4.65991 17.7701C4.65491 17.7451 4.64991 17.7201 4.64491 17.6901C4.63491 17.6301 4.61991 17.5701 4.60991 17.5051L4.60491 17.4751C4.60491 17.4651 4.59991 17.4551 4.59991 17.4401C4.58491 17.3501 4.56991 17.2551 4.55491 17.1601L4.84991 17.2201C6.78491 17.6251 8.48991 18.8201 9.52991 20.4951L9.68991 20.7501C9.63491 20.7751 9.59491 20.7851 9.54991 20.7901ZM13.6399 13.8851C13.4899 13.8851 13.3399 13.8401 13.2099 13.7501L12.1849 13.0351L11.0399 14.6751L12.0649 15.3901C12.4049 15.6301 12.4849 16.0951 12.2499 16.4351C12.1049 16.6451 11.8699 16.7551 11.6349 16.7551C11.4849 16.7551 11.3349 16.7101 11.2049 16.6201L10.1799 15.9001L9.46491 16.9251C9.31991 17.1351 9.08491 17.2451 8.84991 17.2451C8.69991 17.2451 8.54991 17.2001 8.41991 17.1101C8.07991 16.8701 7.99991 16.4051 8.23491 16.0651L8.94991 15.0401L7.92491 14.3251C7.58491 14.0851 7.50491 13.6201 7.73991 13.2801C7.97491 12.9401 8.44491 12.8601 8.78491 13.0951L9.80991 13.8101L10.9549 12.1701L9.92991 11.4551C9.58991 11.2151 9.50991 10.7501 9.74491 10.4101C9.97991 10.0701 10.4499 9.9901 10.7899 10.2251L11.8149 10.9401L12.9599 9.3001L11.9349 8.5851C11.5949 8.3451 11.5149 7.8801 11.7499 7.5401C11.9849 7.2001 12.4549 7.1201 12.7949 7.3551L13.8199 8.0701L14.5349 7.0451C14.7749 6.7051 15.2399 6.6251 15.5799 6.8601C15.9199 7.1001 15.9999 7.5651 15.7649 7.9051L15.0499 8.9301L16.0749 9.6451C16.4149 9.8851 16.4949 10.3501 16.2599 10.6901C16.1149 10.9001 15.8799 11.0101 15.6449 11.0101C15.4949 11.0101 15.3449 10.9651 15.2149 10.8751L14.1899 10.1601L13.0499 11.8051L14.0749 12.5201C14.4149 12.7601 14.4949 13.2251 14.2599 13.5651C14.1099 13.7751 13.8799 13.8851 13.6399 13.8851ZM17.9999 14.5001C18.0449 14.5001 18.0899 14.5201 18.1149 14.5651L18.5549 15.2301H19.0999C19.1899 15.2301 19.2549 15.3101 19.2349 15.3951L18.8199 17.4151L19.7599 16.2901C19.7899 16.2551 19.8249 16.2401 19.8649 16.2401C19.9049 16.2401 19.9449 16.2601 19.9749 16.2951L20.3399 16.7651L21.1949 16.7401H21.1999C21.3049 16.7401 21.3699 16.8501 21.3249 16.9401L20.9299 17.7251L21.1899 18.1401C21.2349 18.2151 21.2049 18.3101 21.1249 18.3401L19.2549 19.1251L19.3849 19.7201C19.4049 19.8101 19.3349 19.8901 19.2499 19.8901C19.2449 19.8901 19.2349 19.8901 19.2299 19.8901L18.3949 19.7551C18.3849 19.7551 18.3749 19.7501 18.3649 19.7501H18.2349V21.2651C18.2349 21.3951 18.1299 21.4951 18.0049 21.4951C17.8799 21.4951 17.7749 21.3901 17.7749 21.2651V19.7501H17.6449C17.6349 19.7501 17.6249 19.7501 17.6149 19.7551L16.7849 19.8901C16.7749 19.8901 16.7699 19.8901 16.7649 19.8901C16.6799 19.8901 16.6099 19.8101 16.6299 19.7201L16.7599 19.1251L14.8899 18.3401C14.8099 18.3051 14.7799 18.2101 14.8249 18.1401L15.0849 17.7251L14.6899 16.9401C14.6449 16.8451 14.7099 16.7401 14.8149 16.7401H14.8199L15.6749 16.7651L16.0399 16.2951C16.0699 16.2601 16.1099 16.2401 16.1499 16.2401C16.1899 16.2401 16.2299 16.2551 16.2549 16.2901L17.1949 17.4151L16.7799 15.3951C16.7599 15.3101 16.8299 15.2301 16.9149 15.2301H17.4599L17.8999 14.5651C17.9099 14.5201 17.9549 14.5001 17.9999 14.5001Z" fill="#13334C"/>
</svg>
