<svg width="24" height="24" viewBox="0 0 24 24" fill="none" xmlns="http://www.w3.org/2000/svg">
<g clip-path="url(#clip0_17945_10188)">
<path d="M16.5249 8.02C16.6149 7.895 16.6249 7.725 16.5449 7.595C16.2049 7.02 16.2099 6.28 16.6149 5.695L18.5349 2.95C18.6599 2.77 18.9099 2.725 19.0899 2.85L21.2999 4.4C21.4799 4.525 21.5249 4.775 21.3999 4.955L19.4849 7.7C19.0799 8.28 18.3849 8.54 17.7299 8.415C17.5799 8.385 17.4249 8.455 17.3399 8.58L11.8299 16.435C11.7399 16.56 11.7299 16.73 11.8099 16.86C11.9349 17.065 12.0099 17.295 12.0399 17.53C11.7149 17.71 11.4299 17.905 11.1649 18.08C10.4299 18.57 9.89987 18.925 8.65487 18.99C8.54987 18.995 8.44487 19 8.34987 19C7.96987 19 7.64987 18.96 7.36987 18.89L8.86987 16.745C9.27487 16.165 9.96987 15.905 10.6249 16.03C10.7749 16.06 10.9299 15.99 11.0149 15.865L16.5249 8.02ZM1.49987 6.5C1.49987 3.74 3.73987 1.5 6.49987 1.5C9.25987 1.5 11.4999 3.74 11.4999 6.5C11.4999 9.26 9.25987 11.5 6.49987 11.5C3.73987 11.5 1.49987 9.26 1.49987 6.5ZM7.92987 8.33C7.76987 8.455 7.59487 8.58 7.40987 8.685C5.96987 9.515 4.20487 9.48 2.81487 8.615C3.08487 9.08 3.44487 9.495 3.86487 9.825C5.15987 10.165 6.55987 10 7.76487 9.305C7.93987 9.2 8.10487 9.09 8.26487 8.97C8.29987 9.055 8.32487 9.14 8.35987 9.225C8.36487 9.24 8.36987 9.255 8.37487 9.27C8.37987 9.29 8.38487 9.305 8.39487 9.325C8.40487 9.36 8.41987 9.395 8.42987 9.43C8.46487 9.535 8.48987 9.645 8.50987 9.75C8.51987 9.8 8.52987 9.845 8.53987 9.895C8.55987 9.99 8.57487 10.085 8.58487 10.18C8.81487 10.05 9.03487 9.895 9.23987 9.725C9.23487 9.705 9.22987 9.68 9.22487 9.66C9.21987 9.64 9.21487 9.62 9.21487 9.605C9.20987 9.585 9.20487 9.565 9.20487 9.54C9.19487 9.5 9.18987 9.46 9.17987 9.42C9.17487 9.405 9.16987 9.39 9.16987 9.375C9.16487 9.36 9.15987 9.345 9.15987 9.33C9.15487 9.32 9.14987 9.305 9.14987 9.29C9.12487 9.2 9.09487 9.12 9.06987 9.035C9.06487 9.02 9.05987 9.005 9.05987 8.99C9.05487 8.97 9.04987 8.96 9.04487 8.94C9.04487 8.935 9.04487 8.935 9.03987 8.93C9.03487 8.925 9.03487 8.925 9.03487 8.92C9.02987 8.9 9.01987 8.885 9.01487 8.865C9.00987 8.85 9.00487 8.835 8.99987 8.825C8.95987 8.72 8.91487 8.615 8.86487 8.515C8.85987 8.51 8.85987 8.505 8.85987 8.5C8.85487 8.49 8.85487 8.49 8.84987 8.48C8.79487 8.365 8.73987 8.25 8.67487 8.14C8.67487 8.135 8.67487 8.135 8.66987 8.13C8.66487 8.125 8.66487 8.12 8.65987 8.12C8.40487 7.68 8.08487 7.29 7.71487 6.94C7.70987 6.935 7.70487 6.93 7.70487 6.93C7.69987 6.925 7.69487 6.92 7.69487 6.92C7.68487 6.91 7.66987 6.895 7.65487 6.88C7.64987 6.875 7.64487 6.875 7.63987 6.87C7.52487 6.765 7.39987 6.665 7.27487 6.57C7.26487 6.56 7.25987 6.555 7.24987 6.545C7.23987 6.54 7.22987 6.53 7.21987 6.525C7.19487 6.51 7.17487 6.495 7.14987 6.485C7.13487 6.475 7.10987 6.46 7.09487 6.45C7.06487 6.43 7.03987 6.41 7.01487 6.395C6.96987 6.365 6.92487 6.33 6.87487 6.3C6.87487 6.21 6.87987 6.125 6.88487 6.04C6.88487 6.015 6.88487 5.99 6.88987 5.965C6.88987 5.92 6.89987 5.87 6.89987 5.82C6.90987 5.74 6.92487 5.665 6.93987 5.585C6.94487 5.565 6.94487 5.54 6.94987 5.525C7.02987 5.115 7.16487 4.72 7.35987 4.355C7.36487 4.35 7.36487 4.345 7.36987 4.34C7.36987 4.335 7.36987 4.33 7.37487 4.33C7.56987 4.405 7.75987 4.495 7.94487 4.6C9.38487 5.43 10.2349 6.98 10.1849 8.615C10.4499 8.155 10.6299 7.645 10.7049 7.105C10.3499 5.81 9.50987 4.675 8.29987 3.98C8.12487 3.88 7.94487 3.79 7.75987 3.715C7.81487 3.645 7.86987 3.58 7.91987 3.52C7.92987 3.505 7.94487 3.49 7.95987 3.475C7.97487 3.46 7.98987 3.44 8.00487 3.425C8.02487 3.4 8.04987 3.37 8.06987 3.345C8.14487 3.265 8.22987 3.19 8.30987 3.115L8.32487 3.1C8.35987 3.07 8.38987 3.04 8.41987 3.01C8.50487 2.965 8.57987 2.905 8.65487 2.85C8.42987 2.715 8.18987 2.605 7.93487 2.51C7.91987 2.525 7.90487 2.54 7.88987 2.555C7.87487 2.57 7.85987 2.58 7.84487 2.595C7.82487 2.61 7.80987 2.63 7.78987 2.645C7.75987 2.67 7.72987 2.695 7.70487 2.72C7.69487 2.73 7.67987 2.745 7.66987 2.755C7.65987 2.765 7.64987 2.775 7.63987 2.79C7.62987 2.8 7.61987 2.81 7.61487 2.82C7.55487 2.885 7.49487 2.95 7.42987 3.015C7.41987 3.025 7.40987 3.035 7.39987 3.045C7.38987 3.055 7.37487 3.07 7.35987 3.085C7.35487 3.09 7.35487 3.09 7.34987 3.095C7.34987 3.1 7.34487 3.105 7.33987 3.105C7.32987 3.12 7.31487 3.135 7.30487 3.15C7.29487 3.16 7.28487 3.175 7.27487 3.185C7.20487 3.275 7.13487 3.365 7.06987 3.455C7.06987 3.46 7.05987 3.465 7.05987 3.465C7.05487 3.47 7.05487 3.475 7.04987 3.48C6.97987 3.585 6.90987 3.69 6.83987 3.8C6.83487 3.805 6.83487 3.81 6.83487 3.81L6.82987 3.815C6.82987 3.82 6.82487 3.82 6.82487 3.82C6.56987 4.26 6.39487 4.735 6.27987 5.225C6.27987 5.23 6.27487 5.235 6.27487 5.235C6.26987 5.24 6.26987 5.245 6.26987 5.245C6.26987 5.26 6.26487 5.28 6.25987 5.29C6.25487 5.3 6.25487 5.31 6.25487 5.315C6.21987 5.47 6.19487 5.625 6.17487 5.785C6.16987 5.795 6.16987 5.805 6.16987 5.815C6.16987 5.825 6.16487 5.84 6.16487 5.855C6.15987 5.885 6.15987 5.91 6.15987 5.935C6.15987 5.955 6.15987 5.98 6.15487 5.995C6.15487 6.03 6.14987 6.065 6.14487 6.1C6.13987 6.155 6.13487 6.21 6.13487 6.265C6.05487 6.305 5.97987 6.345 5.90487 6.385C5.87987 6.395 5.85987 6.405 5.83487 6.415C5.79487 6.435 5.74487 6.46 5.70487 6.475C5.63487 6.505 5.55987 6.53 5.48487 6.55C5.46487 6.56 5.43987 6.565 5.41987 6.575C5.02487 6.705 4.61487 6.785 4.19987 6.805C4.19487 6.805 4.18987 6.805 4.18987 6.805C4.18487 6.805 4.17987 6.805 4.17987 6.805C4.14987 6.6 4.12987 6.395 4.12987 6.175C4.12987 4.515 5.04487 3.005 6.48987 2.23C5.93487 2.23 5.40487 2.335 4.91987 2.535C3.97487 3.49 3.41487 4.785 3.41487 6.175C3.41487 6.38 3.42987 6.58 3.45487 6.775C3.36987 6.765 3.28487 6.75 3.19987 6.735C3.17987 6.73 3.15987 6.725 3.14487 6.725C3.12487 6.72 3.09987 6.715 3.08487 6.715C3.04987 6.71 3.01487 6.705 2.97987 6.695C2.87487 6.67 2.76987 6.64 2.65987 6.605C2.60987 6.59 2.55987 6.575 2.51487 6.56C2.42487 6.525 2.33487 6.49 2.24487 6.455C2.24487 6.465 2.24487 6.48 2.24487 6.495C2.24487 6.75 2.26987 7.005 2.30987 7.25C2.33487 7.255 2.35487 7.265 2.37987 7.27C2.39487 7.275 2.41487 7.28 2.42987 7.285C2.44987 7.295 2.46987 7.3 2.49487 7.31C2.53487 7.32 2.56987 7.335 2.60487 7.345C2.61487 7.35 2.61987 7.35 2.63487 7.35C2.63987 7.355 2.64487 7.355 2.64987 7.355C2.66487 7.36 2.68487 7.36 2.69987 7.365C2.70987 7.37 2.72487 7.37 2.73487 7.37C2.82487 7.395 2.90987 7.415 2.99487 7.43C3.00487 7.43 3.01987 7.435 3.03487 7.44C3.05487 7.445 3.07487 7.45 3.09487 7.45C3.09987 7.45 3.10487 7.455 3.10487 7.455H3.10987H3.11487H3.11987C3.13987 7.455 3.15987 7.46 3.17987 7.46C3.19487 7.465 3.20987 7.465 3.21987 7.465C3.32987 7.48 3.43987 7.495 3.55987 7.505C3.56487 7.505 3.56987 7.505 3.57987 7.51C3.58487 7.51 3.58987 7.515 3.59487 7.515C3.72487 7.525 3.84987 7.53 3.98487 7.535C3.98987 7.535 3.99487 7.535 3.99487 7.535C3.99987 7.535 4.00487 7.535 4.00487 7.535C4.51487 7.535 5.01487 7.45 5.49487 7.305C5.49987 7.305 5.49987 7.305 5.49987 7.305H5.50487C5.50987 7.305 5.51487 7.3 5.52487 7.3C5.53987 7.295 5.55487 7.29 5.56487 7.285C5.57487 7.285 5.57987 7.28 5.58987 7.275C5.73987 7.225 5.88987 7.17 6.03487 7.11C6.04487 7.105 6.05487 7.105 6.06487 7.1C6.07487 7.095 6.08987 7.095 6.09987 7.09C6.11987 7.08 6.14487 7.07 6.16987 7.055C6.18987 7.045 6.20987 7.035 6.22987 7.025C6.25987 7.01 6.28987 6.995 6.31987 6.985C6.37487 6.965 6.42487 6.94 6.47487 6.915C6.54987 6.96 6.62487 7.005 6.69487 7.055C6.70987 7.065 6.72987 7.075 6.74487 7.09C6.78987 7.12 6.82987 7.15 6.86987 7.18C6.92987 7.225 6.97987 7.275 7.03987 7.325C7.05987 7.345 7.07987 7.365 7.09987 7.38C7.40987 7.655 7.68987 7.97 7.90987 8.32C7.91487 8.325 7.91487 8.33 7.91487 8.33L7.91987 8.335L7.92987 8.33ZM23.5949 13.33H15.2299L12.9099 16.645C12.8749 16.695 12.8699 16.76 12.8899 16.815C12.9249 16.91 12.9549 17.005 12.9799 17.105C13.1649 17.035 13.3599 16.975 13.5699 16.92H13.5749C13.6149 16.91 13.6549 16.9 13.6999 16.89C13.6999 16.89 13.6999 16.89 13.7049 16.89C13.8299 16.86 13.9599 16.83 14.0899 16.81C14.0949 16.81 14.1049 16.805 14.1099 16.805C14.1399 16.8 14.1699 16.795 14.1999 16.79C14.2199 16.785 14.2449 16.785 14.2649 16.78C14.2899 16.775 14.3199 16.77 14.3499 16.765C14.3749 16.76 14.3999 16.755 14.4299 16.755C14.4549 16.75 14.4849 16.75 14.5099 16.745C14.5399 16.74 14.5699 16.74 14.5999 16.735C14.6249 16.73 14.6499 16.73 14.6749 16.725C14.7099 16.72 14.7399 16.72 14.7749 16.715C14.7999 16.715 14.8199 16.71 14.8449 16.71C14.8849 16.705 14.9199 16.705 14.9599 16.7C14.9799 16.7 14.9999 16.695 15.0199 16.695C15.0799 16.69 15.1399 16.685 15.1999 16.685C15.3549 16.675 15.5049 16.675 15.6499 16.675C15.7149 16.675 15.7799 16.675 15.8449 16.68C15.8649 16.68 15.8849 16.68 15.9049 16.68C15.9499 16.68 15.9999 16.685 16.0449 16.685C16.0649 16.685 16.0849 16.685 16.0999 16.69C16.1549 16.695 16.2099 16.695 16.2649 16.7C16.2699 16.7 16.2799 16.7 16.2849 16.7C16.3449 16.705 16.4049 16.71 16.4649 16.715C16.4799 16.715 16.4999 16.72 16.5149 16.72C16.5599 16.725 16.5999 16.73 16.6399 16.735C16.6549 16.735 16.6749 16.74 16.6899 16.74C16.7349 16.745 16.7849 16.755 16.8299 16.76C16.8399 16.76 16.8499 16.765 16.8549 16.765C16.9099 16.775 16.9649 16.785 17.0149 16.795C17.0299 16.8 17.0399 16.8 17.0549 16.805C17.0949 16.815 17.1349 16.82 17.1749 16.83C17.1899 16.835 17.2049 16.835 17.2199 16.84C17.2599 16.85 17.2999 16.86 17.3399 16.87C17.3499 16.87 17.3599 16.875 17.3699 16.875C17.4199 16.885 17.4699 16.9 17.5149 16.915C17.5249 16.92 17.5349 16.92 17.5449 16.925C17.5849 16.935 17.6199 16.945 17.6599 16.96C17.6749 16.965 17.6849 16.97 17.6999 16.97C17.7349 16.98 17.7749 16.995 17.8099 17.005C17.8199 17.01 17.8299 17.01 17.8349 17.015C17.8799 17.03 17.9249 17.045 17.9699 17.06C17.9749 17.06 17.9799 17.065 17.9849 17.065C18.0249 17.08 18.0599 17.095 18.0999 17.105C18.1099 17.11 18.1199 17.115 18.1299 17.115C18.1649 17.13 18.1999 17.14 18.2299 17.155C18.2399 17.16 18.2449 17.16 18.2549 17.165C18.2949 17.18 18.3399 17.2 18.3799 17.215C20.3899 16.48 22.2399 15.4 23.8549 14.055C24.1449 13.8 23.9749 13.33 23.5949 13.33ZM7.24487 17.335L8.05487 16.175C8.56987 15.44 9.40987 15.005 10.3099 15.005C10.3699 15.005 10.4249 14.975 10.4599 14.93L11.5799 13.33H11.2799H0.404871C0.0298709 13.33 -0.145129 13.8 0.144871 14.04C1.86987 15.48 3.86487 16.61 6.03987 17.35L7.24487 17.335ZM21.9799 19.33C20.4599 19.405 19.6899 18.995 18.8699 18.56C18.0099 18.1 17.0399 17.585 15.2449 17.675C13.4499 17.765 12.5349 18.38 11.7249 18.92C10.9549 19.435 10.2299 19.92 8.70987 20C7.18987 20.075 6.41987 19.665 5.59987 19.23C4.73987 18.77 3.76987 18.255 1.97487 18.345C1.69987 18.36 1.48987 18.595 1.49987 18.87C1.51487 19.145 1.74987 19.355 2.02487 19.345C3.54487 19.27 4.31487 19.68 5.13487 20.115C5.99487 20.575 6.96487 21.09 8.75987 21C10.5549 20.91 11.4699 20.295 12.2799 19.755C13.0499 19.24 13.7749 18.755 15.2949 18.675C16.8149 18.6 17.5849 19.01 18.4049 19.445C19.2649 19.905 20.2349 20.42 22.0299 20.33C22.3049 20.315 22.5149 20.08 22.5049 19.805C22.4849 19.525 22.2499 19.315 21.9799 19.33Z" fill="#13334C"/>
</g>
<defs>
<clipPath id="clip0_17945_10188">
<rect width="24" height="24" fill="white"/>
</clipPath>
</defs>
</svg>
