<svg width="24" height="24" viewBox="0 0 24 24" fill="none" xmlns="http://www.w3.org/2000/svg">
<path d="M5.85512 13.8649L5.29512 13.6749L6.30512 12.2349L6.67512 12.6949C6.99012 13.2749 6.51012 13.9649 5.85512 13.8649ZM4.67512 10.2049L3.94512 10.3749L4.04012 11.1149L3.34512 11.2349L3.47012 11.9299L2.74512 12.0949L2.83512 12.8349L4.80012 13.5049L5.97512 11.8249L4.67512 10.2049ZM20.5151 10.0499C19.3151 11.7599 17.7801 13.2749 16.3001 14.2049C15.6601 14.6049 15.0451 14.8899 14.4551 15.0599L9.23512 18.7749C9.26012 18.9549 9.22012 19.1499 9.11012 19.3099L7.10012 22.1849C6.86012 22.5249 6.39512 22.6049 6.05512 22.3699L5.64512 22.0849C5.30512 21.8449 5.22512 21.3799 5.46012 21.0399L7.47012 18.1749C7.63012 17.9449 7.90012 17.8349 8.16012 17.8599L9.82512 11.9199C9.76512 11.2849 9.81512 10.5799 9.97512 9.7999C10.3251 8.1099 11.2251 6.1099 12.3801 4.4599C13.6001 2.7149 14.6401 1.8299 15.7551 1.5799C16.8351 1.3399 17.9801 1.6949 19.4701 2.7399C20.9801 3.7949 21.7401 4.7549 21.9401 5.8399C22.1651 7.0049 21.7101 8.3449 20.5151 10.0499ZM9.29512 17.5099L12.5601 15.1849C12.1101 15.0949 11.6851 14.9199 11.2951 14.6449C10.9151 14.3799 10.6051 14.0499 10.3701 13.6649L9.29512 17.5099ZM20.9651 6.0149C20.8151 5.2049 20.1801 4.4499 18.9051 3.5549C17.8801 2.8349 17.1051 2.5049 16.4251 2.5049C16.2751 2.5049 16.1251 2.5199 15.9801 2.5549C15.1401 2.7449 14.2551 3.5299 13.2051 5.0349C11.8701 6.9449 10.6451 9.7499 10.8201 11.7899C10.8351 11.8449 10.8451 11.9049 10.8401 11.9649C10.9401 12.7449 11.2601 13.3949 11.8751 13.8249C13.1101 14.6899 14.6751 14.0499 15.7701 13.3599C17.1201 12.5099 18.5901 11.0599 19.7001 9.4749C20.7251 8.0049 21.1301 6.9049 20.9651 6.0149Z" fill="#13334C"/>
</svg>
