<svg width="24" height="24" viewBox="0 0 24 24" fill="none" xmlns="http://www.w3.org/2000/svg">
<path d="M19.475 11.3351L18.9 13.3801C18.775 13.8201 18.375 14.1101 17.94 14.1101C17.85 14.1101 17.76 14.1001 17.67 14.0751C17.14 13.9251 16.83 13.3751 16.975 12.8401L17.4 11.3151L15.985 9.70506L11.395 12.6201C11.23 12.7251 11.045 12.7751 10.86 12.7751C10.54 12.7751 10.23 12.6201 10.035 12.3401L8.905 10.6901C8.75 10.4651 8.695 10.1901 8.75 9.92506C8.805 9.66006 8.965 9.42506 9.195 9.28006L12 7.50006H8.515C8.48 7.50006 8.45 7.50006 8.415 7.49506L9.81 5.50006H14.5C14.79 5.50006 15.06 5.62506 15.25 5.84006L19.265 10.4051C19.485 10.6601 19.565 11.0101 19.475 11.3351ZM9.11 3.89006C8.885 3.73006 8.57 3.78506 8.415 4.01506L3.83 10.5701L2.93 9.94006C2.75 9.81506 2.5 9.86006 2.375 10.0401L1.975 10.6151C1.85 10.7951 1.895 11.0451 2.075 11.1701L4.695 13.0001C4.875 13.1251 5.125 13.0801 5.25 12.9001L5.65 12.3251C5.775 12.1451 5.73 11.8951 5.55 11.7701L4.65 11.1401L9.23 4.58506C9.39 4.36006 9.335 4.05006 9.11 3.89006ZM19.26 3.72506C18.44 3.15506 17.42 3.33506 16.85 4.15006C16.275 4.96506 16.465 5.99006 17.285 6.56006C18.105 7.13006 19.115 6.95006 19.685 6.13006C20.255 5.31006 20.075 4.30006 19.26 3.72506ZM8.8 19.0451C8.8 21.1951 7.05 22.9451 4.9 22.9451C2.75 22.9451 1 21.1951 1 19.0451C1 16.8951 2.75 15.1451 4.9 15.1451C7.05 15.1451 8.8 16.8951 8.8 19.0451ZM7.8 19.0451C7.8 17.4451 6.5 16.1451 4.9 16.1451C3.3 16.1451 2 17.4451 2 19.0451C2 20.6451 3.3 21.9451 4.9 21.9451C6.5 21.9451 7.8 20.6451 7.8 19.0451ZM23 19.0451C23 21.1951 21.25 22.9451 19.1 22.9451C16.95 22.9451 15.2 21.1951 15.2 19.0451C15.2 16.8951 16.95 15.1451 19.1 15.1451C21.25 15.1451 23 16.8951 23 19.0451ZM22 19.0451C22 17.4451 20.7 16.1451 19.1 16.1451C17.5 16.1451 16.2 17.4451 16.2 19.0451C16.2 20.6451 17.5 21.9451 19.1 21.9451C20.7 21.9451 22 20.6451 22 19.0451ZM15.11 14.8151L13.625 13.2401C13.245 12.8401 12.615 12.8201 12.21 13.1951C11.81 13.5751 11.79 14.2051 12.165 14.6101L13.085 15.5901L11.65 17.5901L9.385 13.0601C9.14 12.5651 8.54 12.3651 8.045 12.6101C7.55 12.8551 7.35 13.4551 7.595 13.9501L10.595 19.9501V19.9551L11.595 21.9551C11.77 22.3051 12.125 22.5101 12.49 22.5101C12.64 22.5101 12.795 22.4751 12.935 22.4051C13.43 22.1601 13.63 21.5601 13.385 21.0651L12.66 19.6101L15.185 16.0851C15.475 15.6951 15.44 15.1651 15.11 14.8151Z" fill="#13334C"/>
</svg>
