<svg width="24" height="24" viewBox="0 0 24 24" fill="none" xmlns="http://www.w3.org/2000/svg">
<path d="M14.4951 9.345C14.5501 9.515 14.4901 9.705 14.3451 9.81L12.2451 11.335C12.1001 11.44 11.9001 11.44 11.7551 11.335L9.65512 9.81C9.51012 9.705 9.45012 9.515 9.50512 9.345L10.3051 6.875C10.3601 6.705 10.5201 6.59 10.7001 6.59H13.3001C13.4801 6.59 13.6401 6.705 13.6951 6.875L14.4951 9.345ZM12.0001 1.5C7.86012 1.5 4.50012 4.86 4.50012 9C4.50012 9.875 4.65012 10.72 4.92512 11.5H7.37512L7.82012 10.37C7.88012 10.22 7.83512 10.045 7.71012 9.94L5.66512 8.265C5.79512 7.11 6.24012 6.05 6.90512 5.165L8.65512 5.15C8.79512 5.15 8.92512 5.07 8.99012 4.94L9.97512 2.945C10.6101 2.73 11.2901 2.615 12.0001 2.615C12.7101 2.615 13.3901 2.73 14.0251 2.945L15.0101 4.95C15.0701 5.08 15.2001 5.16 15.3451 5.16L17.0951 5.175C17.7601 6.06 18.2001 7.12 18.3351 8.275L16.2901 9.95C16.1651 10.055 16.1201 10.225 16.1801 10.38L16.6251 11.51H19.0751C19.3501 10.73 19.5001 9.885 19.5001 9.01C19.5001 4.86 16.1401 1.5 12.0001 1.5ZM22.5051 21.99C22.5051 22.265 22.2801 22.49 22.0051 22.49C21.7301 22.49 21.5051 22.265 21.5051 21.99V20.5H2.50512V22.01C2.50512 22.285 2.28012 22.51 2.00512 22.51C1.73012 22.51 1.50512 22.285 1.50512 22.01L1.49512 13.41C1.49512 13.17 1.59012 12.945 1.76012 12.775C1.93012 12.605 2.15512 12.51 2.39512 12.51L4.87012 12.505C4.91012 12.495 4.95512 12.485 5.00012 12.485C5.04512 12.485 5.09012 12.49 5.13012 12.505L8.38512 12.5C8.42512 12.49 8.46012 12.485 8.50012 12.485C8.54012 12.485 8.58012 12.49 8.61512 12.5H11.9001C11.9351 12.495 11.9651 12.49 12.0001 12.49C12.0351 12.49 12.0701 12.495 12.1001 12.5L15.4201 12.495C15.4451 12.49 15.4701 12.49 15.5001 12.49C15.5251 12.49 15.5501 12.495 15.5751 12.495L18.9451 12.49C18.9601 12.49 18.9801 12.485 19.0001 12.485C19.0201 12.485 19.0351 12.485 19.0501 12.49L21.5901 12.485C21.8301 12.485 22.0551 12.58 22.2251 12.75C22.3951 12.92 22.4901 13.145 22.4901 13.385L22.5051 21.99ZM21.4951 13.49H19.5001V16H21.5001L21.4951 13.49ZM11.5001 13.5L9.00012 13.505V16H11.5001V13.5ZM12.5001 16H15.0001V13.495L12.5001 13.5V16ZM8.00012 13.505L5.50012 13.51V16H8.00012V13.505ZM5.50012 17V19.5H8.00012V17H5.50012ZM9.00012 19.5H11.5001V17H9.00012V19.5ZM12.5001 19.5H15.0001V17H12.5001V19.5ZM16.0001 19.5H18.5001V17H16.0001V19.5ZM18.5001 16V13.495L16.0001 13.5V16H18.5001ZM2.49512 13.51L2.50012 16H4.50012V13.51H2.49512ZM2.50512 19.5H4.50012V17H2.50012L2.50512 19.5ZM21.5051 19.5L21.5001 17H19.5001V19.5H21.5051Z" fill="#13334C"/>
</svg>
