<svg width="24" height="24" viewBox="0 0 24 24" fill="none" xmlns="http://www.w3.org/2000/svg">
<path d="M7.16507 12.7251C6.70007 13.3001 5.87007 13.4501 5.23507 13.0751C4.73507 12.7751 4.47507 12.2451 4.50007 11.7101H1.45507C1.38007 11.7101 1.32007 11.6501 1.32007 11.5751V11.2051C1.32007 10.9251 1.54507 10.7001 1.82507 10.7001H3.58007L2.14507 9.70007C1.91007 9.53507 1.86007 9.20007 2.04007 8.97007C2.21007 8.76007 2.51507 8.73007 2.73507 8.88507L4.15507 9.88007L3.55507 8.23007C3.46007 7.97007 3.59507 7.68007 3.85507 7.58507L4.20007 7.46007C4.27007 7.43507 4.34507 7.47007 4.37007 7.54007L5.41007 10.4001C5.87007 10.2101 6.41507 10.2501 6.85007 10.5551C7.56507 11.0501 7.71507 12.0451 7.16507 12.7251ZM20.2651 2.39007C17.4401 0.415069 13.0351 1.83507 10.4201 5.57007C8.15507 8.80507 7.98007 12.7151 9.81507 14.9851C9.92507 15.1251 9.93507 15.3201 9.83007 15.4651L5.81507 21.2001C5.69007 21.3801 5.73007 21.6301 5.91507 21.7551L6.90007 22.4451C7.08007 22.5701 7.33007 22.5301 7.45507 22.3451L11.4551 16.6301C11.5601 16.4801 11.7501 16.4201 11.9201 16.4851C14.6901 17.4951 18.3601 15.9951 20.6501 12.7251C23.2601 8.99507 23.0901 4.37007 20.2651 2.39007Z" fill="#13334C"/>
</svg>
