<svg width="24" height="24" viewBox="0 0 24 24" fill="none" xmlns="http://www.w3.org/2000/svg">
<path d="M8.455 20.955C7.765 20.955 7.075 20.755 6.475 20.33C4.895 19.225 4.525 17.015 5.65 15.405C5.97 14.95 6.6 14.84 7.055 15.165C7.5 15.485 7.585 16.115 7.275 16.57C6.8 17.275 6.95 18.22 7.625 18.69C8.305 19.165 9.255 18.975 9.75 18.27L20.875 3.20504C21.04 2.98004 21.355 2.93004 21.58 3.09004C21.81 3.25004 21.87 3.56004 21.715 3.79504L11.385 19.425C10.69 20.42 9.575 20.955 8.455 20.955ZM1.5 12C1.5 13.105 2.395 14 3.5 14C4.605 14 5.5 13.105 5.5 12C5.5 10.895 4.605 10 3.5 10C2.395 10 1.5 10.895 1.5 12Z" fill="#13334C"/>
</svg>
