<svg width="24" height="24" viewBox="0 0 24 24" fill="none" xmlns="http://www.w3.org/2000/svg">
<path d="M8.575 1.34992C9.235 0.404921 10.415 0.194921 11.36 0.859921C12.305 1.51992 12.515 2.69992 11.85 3.64492C11.185 4.58992 10.02 4.80492 9.075 4.13992C8.13 3.47492 7.91 2.29492 8.575 1.34992ZM18.18 5.54992L15.5 6.44492L12.815 5.54992C12.81 5.54992 12.805 5.54992 12.805 5.54492C12.79 5.53992 12.77 5.53492 12.755 5.52992C12.74 5.52492 12.725 5.51992 12.71 5.51992C12.695 5.51492 12.68 5.51492 12.665 5.50992C12.645 5.50492 12.63 5.50492 12.61 5.49992C12.6 5.49992 12.585 5.49992 12.575 5.49492C12.555 5.49492 12.535 5.48992 12.515 5.48992H12.51H9.61L5.51 4.66992V2.10492L5.665 2.07992C6.21 1.98992 6.58 1.47992 6.495 0.934921C6.405 0.389921 5.895 0.0199214 5.35 0.104921L4.34 0.269921C3.855 0.344921 3.5 0.764921 3.5 1.25492V5.49992C3.5 5.97492 3.835 6.38492 4.305 6.47992L8.5 7.31992V11.4899C8.5 11.7549 8.605 12.0099 8.795 12.1949C8.985 12.3849 9.235 12.4899 9.5 12.4899H12.5C12.765 12.4899 13.02 12.3849 13.205 12.1949C13.395 12.0049 13.5 11.7549 13.5 11.4899V7.88492L15.185 8.44492C15.29 8.47992 15.395 8.49492 15.5 8.49492C15.605 8.49492 15.715 8.47992 15.815 8.44492L18.815 7.44492C19.34 7.26992 19.62 6.70492 19.445 6.17992C19.27 5.65992 18.705 5.37492 18.18 5.54992ZM14.495 13.4999H9.505C8.955 13.4999 8.505 13.9499 8.505 14.4999C8.505 15.0499 8.955 15.4999 9.505 15.4999H13.02L11.575 19.1099C11.37 19.6249 11.62 20.2049 12.13 20.4099C12.25 20.4599 12.38 20.4799 12.5 20.4799C12.895 20.4799 13.27 20.2399 13.43 19.8499L15.425 14.8699C15.55 14.5599 15.51 14.2149 15.325 13.9399C15.14 13.6649 14.83 13.4999 14.495 13.4999ZM9.5 16.1849C8.95 16.1849 8.5 16.6349 8.5 17.1849V19.0699L6.715 21.3349C6.375 21.7699 6.45 22.3999 6.88 22.7399C7.065 22.8849 7.28 22.9549 7.5 22.9549C7.795 22.9549 8.09 22.8249 8.285 22.5749L10.285 20.0349C10.425 19.8599 10.5 19.6399 10.5 19.4149V17.1849C10.5 16.6349 10.05 16.1849 9.5 16.1849ZM19.005 0.484921C18.175 0.484921 17.505 1.15492 17.505 1.98492C17.505 2.81492 18.175 3.48492 19.005 3.48492C19.835 3.48492 20.505 2.81492 20.505 1.98492C20.505 1.15492 19.83 0.484921 19.005 0.484921Z" fill="#13334C"/>
</svg>
