<svg width="24" height="24" viewBox="0 0 24 24" fill="none" xmlns="http://www.w3.org/2000/svg">
<path d="M13.6801 17.4499L10.2401 22.3649C10.0451 22.6449 9.73506 22.7899 9.42006 22.7899C9.22006 22.7899 9.02006 22.7299 8.85006 22.6099C8.39506 22.2949 8.28506 21.6699 8.60506 21.2149L11.4701 17.1199L7.37006 14.2499C6.92006 13.9349 6.81006 13.3099 7.12506 12.8549C7.44006 12.4049 8.06506 12.2949 8.52006 12.6099L13.4351 16.0499C13.8851 16.3699 13.9951 16.9949 13.6801 17.4499ZM8.43506 16.2199C7.98506 15.9049 7.36006 16.0149 7.04006 16.4649L3.60006 21.3799C3.28506 21.8299 3.39506 22.4549 3.84506 22.7749C4.02006 22.8949 4.22006 22.9549 4.42006 22.9549C4.73506 22.9549 5.04506 22.8049 5.24006 22.5299L8.68006 17.6149C9.00006 17.1599 8.89006 16.5349 8.43506 16.2199ZM17.3651 1.71989C16.4201 1.05989 15.2401 1.26489 14.5801 2.20989C13.9201 3.15489 14.1351 4.33989 15.0801 4.99989C16.0251 5.65989 17.1951 5.44989 17.8551 4.50489C18.5151 3.55989 18.3151 2.37989 17.3651 1.71989ZM20.8901 5.40489C20.4401 5.08989 19.8151 5.19989 19.4951 5.64989L17.7751 8.10489L16.1551 6.96989C16.1501 6.96489 16.1451 6.95989 16.1351 6.95489L13.6801 5.23489C13.6751 5.22989 13.6701 5.22489 13.6601 5.22489L11.2201 3.51489C11.0051 3.36489 10.7351 3.30489 10.4751 3.34989C10.2151 3.39489 9.98006 3.54489 9.83006 3.75989L6.64506 8.30989C6.33006 8.75989 6.44006 9.38489 6.89006 9.70489C7.34006 10.0199 7.96506 9.90989 8.28506 9.45989L8.64506 8.94489C8.82506 9.39989 9.13506 9.79989 9.56506 10.0899C10.3851 10.6399 11.4251 10.6399 12.2801 10.1699C12.3101 10.1549 12.3301 10.1249 12.3351 10.0899C12.4501 9.12489 12.0601 8.15489 11.2401 7.60489C10.8251 7.32489 10.3551 7.18989 9.88006 7.18489L10.8951 5.73989L11.7151 6.31489L11.3651 6.81489C11.4651 6.86989 11.5651 6.92489 11.6601 6.98989C12.6851 7.67989 13.2301 8.90489 13.0801 10.1849C13.0501 10.4599 12.8851 10.7049 12.6401 10.8349C12.1201 11.1199 11.5401 11.2699 10.9601 11.2699C10.3051 11.2699 9.68006 11.0799 9.14506 10.7199C9.02006 10.6349 8.90006 10.5399 8.79006 10.4399C8.72506 10.4099 8.66506 10.3849 8.59506 10.3649C7.63006 10.0399 6.63506 10.4999 5.87506 10.9699C5.86506 10.9749 5.86006 10.9749 5.85006 10.9799C3.80006 11.9499 2.29006 11.1099 2.23006 11.0749C2.05006 10.9699 1.82506 10.9849 1.66506 11.1149C1.50506 11.2449 1.44006 11.4599 1.50006 11.6599L1.90006 12.9149C1.93506 13.0299 2.01006 13.1249 2.11506 13.1899C2.42006 13.3799 2.78006 13.4749 3.16506 13.4749C3.26006 13.4749 3.35506 13.4699 3.45006 13.4599C3.50506 13.4549 3.56006 13.4449 3.61506 13.4349C4.32006 13.2999 4.91506 12.8649 5.44006 12.4799C5.58006 12.3799 5.71006 12.2799 5.84006 12.1899C6.46506 11.7649 7.50506 11.0549 8.28006 11.3099C8.53006 11.3949 8.76506 11.5549 9.01006 11.7299C9.03506 11.7549 9.06506 11.7749 9.09006 11.7949L11.5501 13.5149C11.7201 13.6349 11.9201 13.6949 12.1251 13.6949C12.1851 13.6949 12.2401 13.6899 12.3001 13.6799C12.5601 13.6349 12.7951 13.4849 12.9451 13.2699L15.8101 9.17489L17.4501 10.3249C17.6251 10.4449 17.8251 10.5049 18.0251 10.5049C18.3401 10.5049 18.6501 10.3549 18.8451 10.0799L21.1401 6.80489C21.4501 6.34489 21.3401 5.72489 20.8901 5.40489Z" fill="#13334C"/>
</svg>
