<svg width="24" height="24" viewBox="0 0 24 24" fill="none" xmlns="http://www.w3.org/2000/svg">
<path d="M22 22.5H2C1.725 22.5 1.5 22.275 1.5 22C1.5 21.725 1.725 21.5 2 21.5H22C22.275 21.5 22.5 21.725 22.5 22C22.5 22.275 22.275 22.5 22 22.5ZM22.265 2.59001C22.04 2.43001 21.725 2.48501 21.57 2.71501L11.225 17.47C11.11 17.63 10.9 17.685 10.725 17.6L3.15 13.935C3.015 13.87 2.855 13.87 2.72 13.935C2.585 14 2.485 14.12 2.445 14.27L1.535 16.885C1.475 17.13 1.61 17.385 1.845 17.47L9.89 20.47C9.945 20.49 10.005 20.5 10.065 20.5C10.225 20.5 10.38 20.425 10.475 20.285L22.385 3.28501C22.545 3.06001 22.49 2.75001 22.265 2.59001ZM20.275 19H17.775C17.36 19 17.025 19.335 17.025 19.75C17.025 20.165 17.36 20.5 17.775 20.5H20.275C20.69 20.5 21.025 20.165 21.025 19.75C21.025 19.335 20.685 19 20.275 19Z" fill="#13334C"/>
</svg>
