<svg width="24" height="24" viewBox="0 0 24 24" fill="none" xmlns="http://www.w3.org/2000/svg">
<path d="M21.8599 3.09012C21.6349 2.93012 21.3199 2.99012 21.1649 3.21512L12.7649 15.2601C12.7649 15.2651 12.7599 15.2651 12.7599 15.2701C12.7549 15.2751 12.7499 15.2851 12.7449 15.2901C12.5499 15.4501 11.4949 15.6901 9.8199 15.5501C8.7549 15.4601 6.71991 15.1551 4.99991 14.0901C4.04991 13.5051 3.31491 13.6451 2.86991 13.8701C2.13991 14.2351 1.60491 15.1151 1.50991 16.1201C1.39991 17.2551 2.0449 18.4201 3.2349 19.2351C3.5499 19.4501 4.65991 19.9601 6.04991 20.3701C7.0149 20.6551 8.3349 20.9551 9.6199 20.9551C9.9649 20.9551 10.3099 20.9351 10.6449 20.8851C11.6449 20.7401 12.3599 20.1451 12.7099 19.1651C12.7149 19.1501 12.7199 19.1401 12.7199 19.1251C12.7349 19.0701 13.4949 16.2851 13.6349 15.7601L21.9849 3.78512C22.1399 3.56012 22.0849 3.25012 21.8599 3.09012ZM12.4099 16.4551L12.2249 17.1401C12.1849 17.2801 12.1499 17.4151 12.1199 17.5351C11.9099 17.6351 11.3199 17.7501 10.4149 17.7451L10.7049 16.6001C11.3649 16.6001 11.9499 16.5501 12.4099 16.4551ZM8.8249 19.9201C8.2949 19.8701 7.7549 19.7751 7.2449 19.6551L7.55991 18.4151C8.1099 18.5301 8.6449 18.6151 9.1449 18.6651L8.8249 19.9201ZM8.57991 17.5851C8.35491 17.5501 8.0949 17.5051 7.80991 17.4451L8.0999 16.3151C8.6399 16.4251 9.1799 16.5001 9.68991 16.5451L9.3999 17.6851C9.1399 17.6601 8.8649 17.6301 8.57991 17.5851ZM7.12491 16.0801L6.83991 17.2101C6.37491 17.0801 5.8699 16.9151 5.34991 16.7051L5.64491 15.5551C6.1199 15.7601 6.6199 15.9351 7.12491 16.0801ZM3.31491 14.7701C3.42991 14.7101 3.55991 14.6801 3.69491 14.6801C3.92991 14.6801 4.18991 14.7701 4.47491 14.9451C4.55491 14.9951 4.63991 15.0451 4.71991 15.0901L4.41491 16.2851C3.86991 16.0151 3.31991 15.6901 2.78491 15.3051C2.93491 15.0651 3.11491 14.8701 3.31491 14.7701ZM2.4999 16.3251C3.03991 16.6901 3.59991 17.0051 4.16491 17.2751L3.86491 18.4501C3.83991 18.4351 3.81491 18.4201 3.79991 18.4101C3.1449 17.9601 2.47991 17.1851 2.4999 16.3251ZM4.79491 18.8751L5.09991 17.6801C5.59991 17.8751 6.09991 18.0401 6.58991 18.1751L6.2799 19.3951C5.7149 19.2301 5.20491 19.0451 4.79491 18.8751ZM11.7699 18.8251C11.5449 19.4501 11.1299 19.8001 10.4999 19.8951C10.2899 19.9251 10.0699 19.9451 9.84991 19.9501L10.1599 18.7351C10.2799 18.7401 10.3949 18.7401 10.5099 18.7401C10.9549 18.7401 11.3499 18.7151 11.6749 18.6651C11.7249 18.6601 11.7699 18.6501 11.8199 18.6401C11.7999 18.7251 11.7849 18.7801 11.7699 18.8251ZM18.9999 21.0001C17.8949 21.0001 16.9999 20.1051 16.9999 19.0001C16.9999 17.8951 17.8949 17.0001 18.9999 17.0001C20.1049 17.0001 20.9999 17.8951 20.9999 19.0001C20.9999 20.1051 20.1049 21.0001 18.9999 21.0001Z" fill="#13334C"/>
</svg>
