<svg width="24" height="24" viewBox="0 0 24 24" fill="none" xmlns="http://www.w3.org/2000/svg">
<path fill-rule="evenodd" clip-rule="evenodd" d="M22.625 9.60496L22.545 13.21C22.535 13.755 22.085 14.185 21.545 14.185C21.535 14.185 21.53 14.185 21.52 14.185C20.97 14.17 20.53 13.715 20.545 13.16L20.615 10.09L19.415 9.24996L16.545 13.35C16.395 13.565 16.16 13.715 15.9 13.76C15.84 13.77 15.785 13.775 15.725 13.775C15.52 13.775 15.32 13.715 15.15 13.595L12.69 11.87C12.475 11.72 12.325 11.485 12.28 11.225C12.235 10.965 12.295 10.695 12.445 10.48L14.61 7.38996L12.425 8.56496C11.94 8.82496 11.33 8.64496 11.07 8.15996C10.81 7.67496 10.99 7.06496 11.475 6.80496L15.41 4.68496C15.745 4.50496 16.15 4.52996 16.455 4.74496L22.2 8.76496C22.475 8.95496 22.635 9.27496 22.625 9.60496ZM14.58 14.415L10.485 11.55C10.15 11.315 9.70502 11.31 9.36502 11.53L4.86002 14.48C4.40002 14.78 4.27002 15.4 4.57002 15.865C4.76002 16.16 5.08002 16.32 5.41002 16.32C5.60002 16.32 5.79002 16.265 5.95502 16.155L9.89502 13.575L13.435 16.055C13.885 16.37 14.51 16.26 14.83 15.81C15.145 15.355 15.035 14.735 14.58 14.415ZM12.045 16.295C11.595 15.98 10.97 16.09 10.65 16.54L7.26002 21.38C6.94502 21.83 7.05502 22.455 7.50502 22.775C7.68002 22.895 7.88002 22.955 8.08002 22.955C8.39502 22.955 8.70502 22.805 8.90002 22.53L12.29 17.69C12.605 17.235 12.495 16.61 12.045 16.295ZM18.685 5.06996C19.63 5.72996 20.8 5.51996 21.46 4.57496C22.12 3.62996 21.915 2.44996 20.97 1.78996C20.025 1.12996 18.845 1.33496 18.185 2.27996C17.52 3.22496 17.74 4.40996 18.685 5.06996ZM3.40002 10.58C2.57002 10.58 1.90002 11.25 1.90002 12.08C1.90002 12.91 2.57002 13.58 3.40002 13.58C4.23002 13.58 4.90002 12.91 4.90002 12.08C4.90002 11.25 4.22502 10.58 3.40002 10.58Z" fill="#13334C"/>
</svg>
