<svg width="24" height="24" viewBox="0 0 24 24" fill="none" xmlns="http://www.w3.org/2000/svg">
<path d="M6.75998 7.69489C6.39998 7.27489 6.44498 6.64489 6.86498 6.28489L9.99498 3.57989C10.34 3.27989 10.845 3.25489 11.22 3.51989L13.88 5.38489L16.135 6.96489L18.39 8.54489L20.36 8.79989C20.91 8.86989 21.295 9.36989 21.225 9.91989C21.16 10.4249 20.73 10.7899 20.235 10.7899C20.19 10.7899 20.15 10.7849 20.105 10.7799L17.895 10.4949C17.735 10.4749 17.58 10.4149 17.45 10.3199L15.81 9.17489L12.94 13.2699C12.79 13.4849 12.555 13.6349 12.295 13.6799C12.235 13.6899 12.18 13.6949 12.12 13.6949C11.915 13.6949 11.715 13.6349 11.545 13.5149L9.08498 11.7949C8.86998 11.6449 8.71998 11.4099 8.67498 11.1499C8.62998 10.8899 8.68998 10.6199 8.83998 10.4049L11.71 6.30989L10.71 5.60989L8.16998 7.79989C7.75498 8.15989 7.11998 8.11489 6.75998 7.69489ZM15.085 4.99989C16.03 5.65989 17.2 5.44989 17.86 4.50489C18.52 3.55989 18.315 2.37989 17.37 1.71989C16.425 1.05989 15.245 1.26489 14.585 2.20989C13.925 3.15489 14.14 4.33989 15.085 4.99989ZM21.445 16.3449C21.445 15.5149 20.775 14.8449 19.945 14.8449C19.115 14.8449 18.445 15.5149 18.445 16.3449C18.445 17.1749 19.115 17.8449 19.945 17.8449C20.775 17.8449 21.445 17.1699 21.445 16.3449ZM6.74998 19.0849C6.85998 19.0499 7.11498 18.8899 7.28498 18.7799C7.54498 18.6149 7.85998 18.4199 8.21998 18.2649L8.67998 17.6099C8.99498 17.1599 8.88498 16.5349 8.43498 16.2149C7.98498 15.8999 7.35998 16.0099 7.03998 16.4599L5.45498 18.7199C5.64998 18.7699 5.83498 18.8299 6.00998 18.8899C6.25998 18.9749 6.59498 19.0799 6.74998 19.0849ZM12 19.7949C11.68 19.7949 11.305 19.6199 10.915 19.4349C10.425 19.2049 9.91498 18.9649 9.36498 18.9949C8.77498 19.0249 8.26998 19.3449 7.81998 19.6249C7.47998 19.8399 7.15498 20.0399 6.87498 20.0749C6.54498 20.1149 6.11998 19.9749 5.71498 19.8449C5.19498 19.6749 4.65498 19.5049 4.12498 19.5999C3.18998 19.7749 2.48498 20.3999 1.86498 20.9549C1.79998 21.0099 1.73998 21.0699 1.67498 21.1249C1.46998 21.3099 1.44998 21.6249 1.62998 21.8299C1.72998 21.9399 1.86498 21.9999 2.00498 21.9999C2.11998 21.9999 2.23998 21.9599 2.33498 21.8749C2.39998 21.8199 2.46498 21.7599 2.52998 21.6999C3.07498 21.2099 3.64498 20.7049 4.30498 20.5849C4.58998 20.5349 4.98498 20.6599 5.40998 20.7949C5.91998 20.9599 6.44498 21.1299 6.98998 21.0649C7.49498 21.0049 7.93498 20.7349 8.35498 20.4699C8.73498 20.2349 9.08998 20.0099 9.41998 19.9899C9.71998 19.9749 10.095 20.1499 10.49 20.3349C10.965 20.5599 11.46 20.7899 12 20.7899C12.54 20.7899 13.035 20.5599 13.51 20.3349C13.685 20.2549 13.85 20.1749 14.01 20.1149L13.055 19.4499C12.675 19.6299 12.31 19.7949 12 19.7949ZM22.33 21.1249C22.28 21.0799 22.23 21.0349 22.175 20.9899C21.605 20.4799 20.825 19.7799 19.88 19.6049C19.725 19.5749 19.57 19.5699 19.415 19.5799C19.43 19.6399 19.445 19.6999 19.455 19.7599C19.505 20.0349 19.495 20.3149 19.43 20.5799C19.525 20.5699 19.615 20.5699 19.7 20.5849C20.365 20.7099 21.025 21.2999 21.51 21.7299C21.565 21.7799 21.62 21.8249 21.67 21.8699C21.875 22.0549 22.195 22.0349 22.375 21.8249C22.56 21.6249 22.54 21.3099 22.33 21.1249ZM18.06 19.2899L13.43 16.0549L8.51498 12.6149C8.06498 12.2999 7.43998 12.4099 7.11998 12.8599C6.80498 13.3099 6.91498 13.9349 7.36498 14.2549L12.28 17.6949L16.91 20.9299C17.085 21.0499 17.285 21.1099 17.48 21.1099C17.795 21.1099 18.105 20.9599 18.3 20.6849C18.625 20.2299 18.515 19.6099 18.06 19.2899Z" fill="#13334C"/>
</svg>
