<svg width="24" height="24" viewBox="0 0 24 24" fill="none" xmlns="http://www.w3.org/2000/svg">
<path fill-rule="evenodd" clip-rule="evenodd" d="M5 14.5001C3.895 14.5001 3 13.6051 3 12.5001C3 11.3951 3.895 10.5001 5 10.5001C6.105 10.5001 7 11.3951 7 12.5001C7 13.6051 6.105 14.5001 5 14.5001ZM20.265 2.38006C17.44 0.405059 13.035 1.82506 10.42 5.56006C8.155 8.79506 7.98 12.7051 9.815 14.9751C9.925 15.1151 9.935 15.3101 9.83 15.4551L5.815 21.1901C5.69 21.3701 5.73 21.6201 5.915 21.7451L6.9 22.4351C7.08 22.5601 7.33 22.5201 7.455 22.3351L11.455 16.6201C11.56 16.4701 11.75 16.4101 11.92 16.4751C14.69 17.4851 18.36 15.9851 20.65 12.7151C23.26 8.98506 23.09 4.36006 20.265 2.38006Z" fill="#13334C"/>
</svg>
