<svg width="24" height="24" viewBox="0 0 24 24" fill="none" xmlns="http://www.w3.org/2000/svg">
<path fill-rule="evenodd" clip-rule="evenodd" d="M22.485 8.925C22.38 7.26 21.65 5.875 20.425 5.02C19.205 4.165 17.65 3.95 16.05 4.42C14.49 4.875 13.07 5.935 12.045 7.395C11.025 8.855 10.515 10.55 10.62 12.175C10.655 12.69 10.745 13.175 10.895 13.63L10.755 17.865C10.475 17.81 10.17 17.92 9.995 18.17L7.985 21.035C7.745 21.375 7.83 21.84 8.17 22.08L8.58 22.365C8.92 22.605 9.385 22.52 9.625 22.18L11.635 19.315C11.81 19.065 11.81 18.745 11.665 18.5L15.595 16.92C16.07 16.905 16.56 16.825 17.055 16.68C18.615 16.225 20.035 15.165 21.06 13.705C22.085 12.24 22.59 10.545 22.485 8.925ZM11.845 15.32C12.09 15.605 12.37 15.86 12.685 16.08C13 16.3 13.335 16.475 13.685 16.61L11.775 17.38L11.845 15.32ZM20.245 13.13C19.02 14.88 17.195 15.885 15.515 15.92C15.505 15.92 15.5 15.92 15.49 15.92C14.685 15.93 13.915 15.72 13.26 15.26C12.605 14.8 12.145 14.15 11.88 13.39C11.875 13.38 11.875 13.37 11.87 13.365C11.325 11.775 11.645 9.72 12.875 7.97C14.12 6.19 15.985 5.18 17.69 5.18C18.47 5.18 19.22 5.39 19.86 5.84C20.825 6.515 21.405 7.635 21.495 8.99C21.58 10.385 21.135 11.855 20.245 13.13ZM16.5 1.9V3.285C16.26 3.33 16.015 3.385 15.775 3.46C14 3.98 12.385 5.175 11.235 6.82C10.235 8.25 9.675 9.885 9.62 11.5H7.96C7.72 10.085 6.485 9 5 9C3.515 9 2.28 10.085 2.04 11.5H1.9C1.68 11.5 1.5 11.32 1.5 11.1V1.9C1.5 1.68 1.68 1.5 1.9 1.5H16.1C16.32 1.5 16.5 1.68 16.5 1.9ZM6.145 10.36C5.24 9.725 3.995 9.945 3.36 10.85C2.725 11.755 2.945 13 3.85 13.635C4.755 14.27 6 14.05 6.635 13.145C7.27 12.24 7.05 10.995 6.145 10.36ZM4.585 11.715C4.325 12.085 3.975 12.355 3.58 12.51C3.52 12.35 3.49 12.175 3.49 12.005C3.755 11.88 3.99 11.685 4.17 11.43C4.35 11.175 4.45 10.885 4.48 10.595C4.64 10.535 4.815 10.505 4.985 10.505C4.975 10.92 4.845 11.345 4.585 11.715ZM5.815 12.575C5.635 12.83 5.535 13.12 5.505 13.415C5.345 13.475 5.17 13.505 5 13.505C5.015 13.085 5.145 12.66 5.405 12.29C5.665 11.92 6.015 11.65 6.405 11.495C6.465 11.655 6.495 11.83 6.495 12C6.23 12.125 5.995 12.315 5.815 12.575Z" fill="#13334C"/>
</svg>
