<svg width="24" height="24" viewBox="0 0 24 24" fill="none" xmlns="http://www.w3.org/2000/svg">
<path d="M11.995 2C6.47 2 1.995 6.475 1.995 12C1.995 17.52 6.47 22 11.995 22C17.515 22 21.995 17.52 21.995 12C21.995 6.475 17.52 2 11.995 2ZM6.42499 13.83L5.15999 17.05C4.11999 15.64 3.5 13.89 3.5 12C3.5 11.67 3.51999 11.345 3.55499 11.03L6.27999 13.26C6.44499 13.395 6.505 13.625 6.42499 13.83ZM7.54 6.875L5.20499 6.895C6.23 5.535 7.65 4.495 9.295 3.94L7.98499 6.595C7.89999 6.765 7.73 6.875 7.54 6.875ZM12 20.5C11.01 20.5 10.065 20.33 9.18499 20.02L11.745 18.515C11.9 18.42 12.095 18.42 12.255 18.515L14.815 20.025C13.93 20.33 12.985 20.5 12 20.5ZM15.12 13.295L12.32 15.33C12.125 15.47 11.86 15.47 11.67 15.33L8.87 13.295C8.675 13.155 8.595 12.905 8.67 12.675L9.74 9.385C9.81499 9.155 10.025 9.005 10.265 9.005H13.725C13.965 9.005 14.175 9.16 14.25 9.385L15.32 12.675C15.4 12.905 15.315 13.15 15.12 13.295ZM16.01 6.595L14.695 3.935C16.345 4.485 17.77 5.53 18.795 6.89L16.455 6.87C16.265 6.875 16.09 6.765 16.01 6.595ZM18.835 17.05L17.565 13.825C17.485 13.625 17.545 13.395 17.715 13.255L20.445 11.02C20.48 11.34 20.5 11.665 20.5 11.995C20.5 13.89 19.88 15.64 18.835 17.05Z" fill="#13334C"/>
</svg>
