<svg width="24" height="24" viewBox="0 0 24 24" fill="none" xmlns="http://www.w3.org/2000/svg">
<path fill-rule="evenodd" clip-rule="evenodd" d="M10.5502 9.59993C10.6202 9.67993 10.6852 9.76493 10.7502 9.84993C9.13015 11.2949 7.91015 11.8699 7.30015 11.4799C7.22015 11.4249 7.14515 11.3649 7.08015 11.2949C7.27515 10.4499 7.60515 9.62493 8.08015 8.85993C8.28515 8.52993 8.51015 8.22993 8.75015 7.93993L8.75515 7.94493L8.76015 7.94993L8.77015 7.95493C8.77515 7.95993 8.78015 7.96493 8.79015 7.96993C9.41515 8.39493 9.97015 8.90993 10.4552 9.48993C10.4852 9.52493 10.5152 9.55993 10.5502 9.59993ZM4.54015 6.96993C5.25015 7.18993 5.73015 7.92993 6.00515 8.50993C6.14015 8.79493 6.24015 9.11493 6.32515 9.42993C6.50515 8.99993 6.72015 8.58493 6.97015 8.17993C7.16515 7.86493 7.37515 7.56993 7.60015 7.28993C7.45015 7.21993 7.30015 7.16493 7.15015 7.10993C7.12515 7.09993 7.09515 7.08993 7.07015 7.07993C7.04015 7.06993 7.00515 7.05493 6.97515 7.04493C6.91515 7.01993 6.85015 6.99493 6.78515 6.97493C6.59515 6.90993 6.40015 6.85993 6.20515 6.81493C6.11515 6.79493 6.03015 6.76993 5.94015 6.74993C5.77015 6.71493 5.59515 6.68493 5.42515 6.65993C5.67515 6.24493 5.96515 5.85993 6.28515 5.49993C6.32515 5.50993 6.36515 5.51993 6.40015 5.52993C6.43515 5.53993 6.46515 5.54493 6.50015 5.55493C6.54015 5.56493 6.57515 5.57493 6.61515 5.57993C6.68515 5.59493 6.76015 5.60993 6.83015 5.63493C6.85515 5.64493 6.88515 5.64993 6.91015 5.65993C6.93515 5.66493 6.96015 5.67493 6.98515 5.68493C7.00515 5.69493 7.03015 5.69993 7.05015 5.70993C7.20515 5.75993 7.36015 5.81493 7.51515 5.86993C7.54015 5.87993 7.56515 5.88993 7.59515 5.89493C7.62515 5.90493 7.65515 5.91493 7.68515 5.92493C7.69015 5.92993 7.70015 5.92993 7.70515 5.93493C7.71015 5.93993 7.72015 5.93993 7.72515 5.94493C7.75515 5.95993 7.79015 5.97493 7.82015 5.98993C7.84515 5.99993 7.87015 6.01493 7.89515 6.02493C8.08515 6.10493 8.27015 6.18493 8.45515 6.27993C8.46515 6.28493 8.47515 6.28993 8.48015 6.28993C8.49015 6.29493 8.50515 6.29993 8.51515 6.30493C8.72015 6.40993 8.92515 6.51993 9.12515 6.63993C9.13015 6.64493 9.13515 6.64493 9.14015 6.64993C9.15015 6.65493 9.15515 6.65993 9.16515 6.66493C9.95015 7.14993 10.6402 7.75493 11.2502 8.43993C11.2552 8.44493 11.2602 8.45493 11.2702 8.45993C11.2752 8.46493 11.2802 8.46993 11.2852 8.47993C11.3052 8.50493 11.3302 8.52993 11.3502 8.55993C11.3552 8.56993 11.3652 8.57993 11.3702 8.58493C11.4802 8.71493 11.5852 8.84493 11.6902 8.97493C12.5752 8.08993 13.4402 7.11493 14.1552 6.27993C12.6452 4.72993 10.5652 3.84493 8.36515 3.84993C9.20515 3.39493 10.1402 3.09493 11.1302 2.97993C12.5802 3.41993 13.9102 4.20493 14.9952 5.26993C15.0852 5.15993 15.1702 5.05493 15.2502 4.95993C15.5152 4.63493 15.7252 4.37993 15.8652 4.22993C16.3052 3.73493 16.7552 3.38493 17.1852 3.18493C15.7902 2.21493 14.1052 1.62493 12.2752 1.57493C8.48515 1.46493 5.17515 3.69993 3.73015 6.95993C4.00015 6.88493 4.27515 6.88493 4.54015 6.96993ZM21.3952 11.0199C21.2802 10.8649 21.1552 10.7849 21.0052 10.7599C20.5152 10.6899 19.7802 11.2349 19.2952 11.5949C19.1502 11.7049 19.0102 11.8049 18.8902 11.8899C18.4602 12.1749 18.0252 12.4749 17.6052 12.7649C17.0952 13.1149 16.5702 13.4799 16.0402 13.8249C15.8702 13.9349 15.6302 13.8999 15.5152 13.7349C15.3952 13.5599 15.4402 13.3199 15.6152 13.2049C16.5202 12.6149 17.3302 11.8099 18.1152 11.0349L18.2052 10.9449C19.1552 10.0099 20.2302 8.94493 20.6052 7.73993C20.7352 7.32493 20.6202 6.80993 20.2052 6.67493C19.5052 6.44493 18.9502 7.01493 18.2402 7.84993C18.1002 8.01493 17.9702 8.16993 17.8352 8.30993C16.1402 10.0899 14.3852 11.4099 14.3102 11.4649C14.1402 11.5899 13.8952 11.5549 13.7752 11.3749C13.6752 11.2299 13.7002 11.0299 13.8202 10.9049C14.9752 9.65493 16.7552 7.61993 17.2302 7.05993L17.3252 6.94993C17.7852 6.40993 18.8652 5.13993 18.7502 4.35493C18.7202 4.15493 18.6102 3.99993 18.4102 3.86993C17.6902 3.40993 16.7052 4.41993 16.4252 4.73993C16.3002 4.87993 16.0902 5.13493 15.8302 5.44993C14.9352 6.52993 13.2752 8.53993 11.6202 10.0849C9.45515 12.1049 7.91015 12.7699 6.89515 12.1199C6.13015 11.6299 5.89015 10.7199 5.68015 9.91993C5.57515 9.52493 5.48015 9.15493 5.33015 8.84493C5.03015 8.21493 4.67015 7.80493 4.32015 7.69993C4.11515 7.63493 3.90515 7.67493 3.67015 7.80993C3.18015 8.09493 3.24515 9.06993 3.29515 9.77993C3.31015 9.99493 3.32515 10.1949 3.32515 10.3699C3.32515 10.8249 3.31015 11.3249 3.29015 11.8499C3.22515 13.8199 3.14015 16.2749 4.07515 17.0649C4.22015 17.1899 4.25015 17.3999 4.14515 17.5599L3.09515 19.1499C2.98015 19.3249 3.02015 19.5599 3.18515 19.6899L4.63015 20.7999C4.93515 19.9049 5.61015 19.1599 6.48015 18.7749C6.60515 18.7199 6.74515 18.7349 6.85515 18.8149L10.1252 21.2199C11.1452 21.5599 13.0852 21.0199 15.4602 19.7299C17.0552 18.8649 19.2152 17.3999 19.7652 16.6749C19.7802 16.6599 19.7902 16.6449 19.8052 16.6299C19.8102 16.6249 20.4902 15.9749 20.1802 15.4799C19.7702 14.8249 18.7802 15.2399 17.2152 16.1799C16.8802 16.3799 16.5852 16.5549 16.3552 16.6599C16.1852 16.7349 15.9852 16.6849 15.8802 16.5349C15.7602 16.3549 15.8152 16.1149 15.9952 16.0049C17.3702 15.1599 18.7902 14.2849 20.0102 13.2049C20.0902 13.1349 20.1802 13.0599 20.2752 12.9799C21.1102 12.2599 21.8152 11.5849 21.3952 11.0199ZM5.27515 21.2449L5.27015 21.2699L7.54515 23.0149C7.71015 23.1399 7.94015 23.1199 8.08015 22.9749L9.39015 21.5899L6.60015 19.5349C5.94015 19.8899 5.45515 20.5149 5.27515 21.2449Z" fill="#13334C"/>
</svg>
