<svg width="24" height="24" viewBox="0 0 24 24" fill="none" xmlns="http://www.w3.org/2000/svg">
<path fill-rule="evenodd" clip-rule="evenodd" d="M9.18506 7.74C9.18506 8.58 8.50006 9.265 7.66006 9.265C6.82006 9.265 6.13506 8.58 6.13506 7.74C6.13506 6.9 6.82006 6.215 7.66006 6.215C8.50006 6.215 9.18506 6.9 9.18506 7.74ZM10.0751 15.62C9.62506 15.305 9.00006 15.415 8.68006 15.865L6.76006 18.61L2.28006 20.965C1.74006 21.09 1.40506 21.625 1.53006 22.165C1.63506 22.63 2.05006 22.94 2.50506 22.94C2.58006 22.94 2.65506 22.93 2.73006 22.915L7.58506 20.475C7.86506 20.315 8.04006 20.275 8.18006 20.075L10.3201 17.015C10.6351 16.565 10.5251 15.94 10.0751 15.62ZM20.9451 3H17.0601C17.2651 2.11 18.0251 1.5 19.0051 1.5C19.9851 1.5 20.7401 2.11 20.9451 3ZM16.5001 16.1L16.5201 21.945C16.5201 22.495 16.0701 22.945 15.5201 22.945C14.9701 22.945 14.5201 22.495 14.5201 21.945L14.5001 16.755L9.75506 14.68C9.25006 14.46 9.02006 13.87 9.24006 13.365C9.46006 12.86 10.0501 12.63 10.5551 12.85L15.9001 15.185C16.2651 15.345 16.5001 15.705 16.5001 16.1ZM20.9501 4C20.7451 4.89 19.9951 5.5 19.0151 5.5C18.0351 5.5 17.2701 4.89 17.0601 4H20.9501ZM19.8751 13.385C19.9351 13.935 19.5451 14.43 18.9951 14.49C18.9551 14.495 18.9201 14.495 18.8801 14.495C18.3801 14.495 17.9451 14.12 17.8901 13.61L17.5051 10.235L15.5251 13.07C15.3351 13.345 15.0251 13.495 14.7051 13.495C14.5751 13.495 14.4401 13.47 14.3151 13.415L11.4901 12.22C11.2101 12.1 11.0001 11.865 10.9201 11.575C10.8351 11.285 10.8901 10.975 11.0601 10.725L13.9051 6.67L12.4751 6.03L9.81006 7.06C9.57506 6.31 8.95506 5.73 8.18006 5.545L12.1401 4.01C12.3901 3.915 12.6651 3.92 12.9101 4.03L18.6101 6.585C18.6101 6.585 18.6151 6.585 18.6151 6.59C18.9051 6.72 19.1251 7.01 19.1851 7.32C19.1851 7.325 19.1851 7.335 19.1901 7.34C19.1901 7.35 19.1901 7.355 19.1951 7.365C19.1951 7.375 19.2001 7.38 19.2001 7.39L19.8751 13.385Z" fill="#13334C"/>
</svg>
