<svg width="24" height="24" viewBox="0 0 24 24" fill="none" xmlns="http://www.w3.org/2000/svg">
<path d="M11.353 22.9561C11.184 22.9559 11.0177 22.9129 10.8698 22.831C10.7219 22.7491 10.5972 22.631 10.5073 22.4878C10.4174 22.3446 10.3652 22.181 10.3558 22.0122C10.3463 21.8434 10.3797 21.675 10.453 21.5226L12.1415 18.0096L12.5115 15.3486C12.5271 15.2165 12.5689 15.0887 12.6345 14.973C12.7001 14.8572 12.7881 14.7557 12.8935 14.6743C12.9988 14.593 13.1193 14.5335 13.2479 14.4993C13.3765 14.4652 13.5106 14.457 13.6424 14.4754C13.7742 14.4937 13.901 14.5381 14.0154 14.6061C14.1298 14.6741 14.2295 14.7642 14.3086 14.8712C14.3878 14.9782 14.4447 15.0999 14.4762 15.2292C14.5077 15.3584 14.5131 15.4927 14.492 15.6241L14.1 18.4396C14.0857 18.5423 14.0555 18.6422 14.0105 18.7356L12.255 22.3891C12.1734 22.559 12.0454 22.7024 11.8858 22.8027C11.7262 22.9031 11.5415 22.9562 11.353 22.9561ZM20.8405 9.00611L16.745 6.13711C16.6577 6.07604 16.5611 6.02928 16.459 5.99861L13.6965 5.16911L13.4105 5.07561C13.3657 5.06126 13.3199 5.05023 13.2735 5.04261L10.7315 4.27961L10 3.03061C9.82375 3.33035 9.58023 3.58502 9.28867 3.77453C8.99712 3.96404 8.66551 4.0832 8.32002 4.12261L9.20602 5.63111C9.33412 5.84822 9.53949 6.00894 9.78102 6.08111L11.827 6.69561L10.277 11.4136C10.2361 11.5384 10.2201 11.6701 10.2301 11.8011C10.2401 11.9321 10.2757 12.0598 10.3351 12.177C10.3944 12.2942 10.4763 12.3985 10.5759 12.4841C10.6756 12.5697 10.7912 12.6347 10.916 12.6756L13.766 13.6101C13.8666 13.643 13.9717 13.6599 14.0775 13.6601C14.2882 13.6601 14.4935 13.5935 14.6641 13.4698C14.8347 13.3462 14.9619 13.1718 15.0275 12.9716L16.518 8.42161L19.6905 10.6426C19.9079 10.7889 20.174 10.8441 20.4316 10.7963C20.6893 10.7484 20.9178 10.6013 21.0681 10.3867C21.2184 10.172 21.2785 9.90697 21.2354 9.6485C21.1922 9.39004 21.0494 9.15882 20.8375 9.00461L20.8405 9.00611ZM17.38 1.93111C17.2449 1.55929 17.0024 1.23592 16.6835 1.00189C16.3645 0.767866 15.9833 0.633698 15.588 0.616362C15.1928 0.599025 14.8013 0.699299 14.463 0.904498C14.1248 1.1097 13.855 1.4106 13.6878 1.76915C13.5206 2.1277 13.4635 2.52779 13.5237 2.9188C13.5839 3.30982 13.7587 3.67419 14.026 3.96584C14.2933 4.25748 14.6412 4.46329 15.0255 4.55724C15.4098 4.65118 15.8133 4.62904 16.185 4.49361C16.6832 4.31211 17.0889 3.94024 17.313 3.45973C17.5371 2.97922 17.5612 2.42939 17.38 1.93111ZM5.28602 18.9276L7.96252 15.1056L10.4125 15.4921C10.6746 15.5333 10.9422 15.4688 11.1567 15.3127C11.3711 15.1566 11.5148 14.9216 11.556 14.6596C11.5973 14.3976 11.5327 14.1299 11.3766 13.9154C11.2205 13.701 10.9856 13.5573 10.7235 13.5161L7.65502 13.0331C7.47004 13.0039 7.28058 13.0272 7.1082 13.1004C6.93583 13.1736 6.78747 13.2937 6.68002 13.4471L3.65002 17.7806C3.57183 17.888 3.51582 18.01 3.48528 18.1393C3.45473 18.2686 3.45027 18.4027 3.47213 18.5337C3.494 18.6648 3.54176 18.7902 3.61264 18.9025C3.68351 19.0149 3.77606 19.1121 3.8849 19.1883C3.99374 19.2645 4.11667 19.3182 4.24651 19.3464C4.37636 19.3746 4.51052 19.3766 4.64115 19.3523C4.77178 19.328 4.89627 19.278 5.00733 19.2051C5.1184 19.1321 5.21382 19.0378 5.28802 18.9276H5.28602ZM9.47102 1.37761C9.36964 1.09876 9.18784 0.856244 8.94862 0.68073C8.7094 0.505217 8.4235 0.404591 8.12708 0.39158C7.83066 0.378569 7.53704 0.453758 7.28336 0.607636C7.02968 0.761515 6.82733 0.98717 6.70191 1.25606C6.57649 1.52495 6.53363 1.825 6.57875 2.11825C6.62387 2.4115 6.75495 2.68479 6.9554 2.90354C7.15585 3.12229 7.41668 3.27668 7.70488 3.34718C7.99309 3.41768 8.29573 3.40112 8.57452 3.29961C8.75985 3.23224 8.93008 3.129 9.07546 2.99578C9.22085 2.86257 9.33855 2.70199 9.42181 2.52324C9.50508 2.3445 9.55229 2.15108 9.56073 1.95407C9.56917 1.75706 9.53869 1.56032 9.47102 1.37511V1.37761Z" fill="#13334C"/>
</svg>
