<svg width="24" height="24" viewBox="0 0 24 24" fill="none" xmlns="http://www.w3.org/2000/svg">
<path fill-rule="evenodd" clip-rule="evenodd" d="M22.485 6.895C22.38 5.23 21.65 3.845 20.425 2.99C19.205 2.135 17.65 1.92 16.05 2.39C14.49 2.845 13.07 3.905 12.045 5.365C11.025 6.825 10.515 8.52 10.62 10.145C10.655 10.66 10.745 11.145 10.895 11.6L10.755 15.835C10.475 15.78 10.17 15.89 9.995 16.14L7.985 19.005C7.745 19.345 7.83 19.81 8.17 20.05L8.58 20.335C8.92 20.575 9.385 20.49 9.625 20.15L11.635 17.285C11.81 17.035 11.81 16.715 11.665 16.47L15.595 14.89C16.07 14.875 16.56 14.795 17.055 14.65C18.615 14.195 20.035 13.135 21.06 11.675C22.085 10.215 22.59 8.52 22.485 6.895ZM11.845 13.29C12.09 13.575 12.37 13.83 12.685 14.05C13 14.27 13.335 14.445 13.685 14.58L11.775 15.35L11.845 13.29ZM20.245 11.105C19.02 12.855 17.195 13.86 15.515 13.895C15.505 13.895 15.5 13.895 15.49 13.895C14.685 13.905 13.915 13.695 13.26 13.235C12.605 12.775 12.145 12.125 11.88 11.365C11.875 11.355 11.875 11.345 11.87 11.34C11.325 9.75 11.645 7.695 12.875 5.945C14.12 4.16 15.98 3.15 17.685 3.15C18.465 3.15 19.215 3.36 19.855 3.81C20.82 4.485 21.4 5.605 21.49 6.96C21.58 8.355 21.135 9.83 20.245 11.105ZM22 22.5H2C1.725 22.5 1.5 22.275 1.5 22C1.5 21.725 1.725 21.5 2 21.5H22C22.275 21.5 22.5 21.725 22.5 22C22.5 22.275 22.275 22.5 22 22.5ZM15.56 1.5C13.87 2.05 12.335 3.215 11.23 4.795C10.08 6.44 9.51 8.365 9.625 10.21C9.655 10.655 9.72 11.085 9.825 11.5H7.95C7.71 10.085 6.475 9 4.99 9C3.505 9 2.27 10.085 2.03 11.5H1.9C1.68 11.5 1.5 11.32 1.5 11.1V1.9C1.5 1.68 1.68 1.5 1.9 1.5H15.56ZM5 14C3.895 14 3 13.105 3 12C3 10.895 3.895 10 5 10C6.105 10 7 10.895 7 12C7 13.105 6.105 14 5 14Z" fill="#13334C"/>
</svg>
