<svg width="24" height="24" viewBox="0 0 24 24" fill="none" xmlns="http://www.w3.org/2000/svg">
<path d="M19.48 8.9L18.905 10.945C18.78 11.385 18.38 11.675 17.945 11.675C17.855 11.675 17.765 11.665 17.675 11.64C17.145 11.49 16.835 10.94 16.98 10.405L17.405 8.88L15.99 7.27L11.4 10.185C11.235 10.29 11.05 10.34 10.865 10.34C10.545 10.34 10.235 10.185 10.04 9.905L8.91 8.255C8.755 8.03 8.7 7.755 8.755 7.49C8.81 7.225 8.97 6.99 9.2 6.845L12.01 5.06H8.525C8.49 5.06 8.46 5.06 8.425 5.055L9.82 3.06H14.5C14.79 3.06 15.06 3.185 15.25 3.4L19.265 7.965C19.49 8.225 19.57 8.575 19.48 8.9ZM9.11 1.455C8.885 1.295 8.57 1.35 8.415 1.58L3.835 8.13L2.935 7.5C2.755 7.375 2.505 7.42 2.38 7.6L1.98 8.175C1.855 8.355 1.9 8.605 2.08 8.73L4.705 10.56C4.885 10.685 5.135 10.64 5.26 10.46L5.66 9.885C5.785 9.705 5.74 9.455 5.56 9.33L4.66 8.7L9.235 2.15C9.39 1.925 9.335 1.61 9.11 1.455ZM19.26 1.29C18.44 0.719999 17.42 0.899999 16.85 1.715C16.275 2.53 16.465 3.555 17.285 4.125C18.105 4.695 19.115 4.515 19.685 3.695C20.26 2.88 20.08 1.86 19.26 1.29ZM10.605 17.51C10.605 17.51 10.61 17.515 10.605 17.51L11.605 19.515C11.78 19.865 12.135 20.07 12.5 20.07C12.65 20.07 12.805 20.035 12.945 19.965C13.44 19.72 13.64 19.12 13.395 18.625L12.67 17.17L15.195 13.645C15.475 13.255 15.44 12.725 15.11 12.375L13.63 10.8C13.25 10.4 12.62 10.38 12.215 10.755C11.815 11.135 11.795 11.765 12.17 12.17L13.09 13.15L11.655 15.15L9.39 10.62C9.145 10.125 8.545 9.925 8.05 10.17C7.555 10.415 7.355 11.015 7.6 11.51L10.605 17.51ZM1 16.61C1 14.46 2.75 12.71 4.9 12.71C7.05 12.71 8.8 14.46 8.8 16.61C8.8 18.76 7.05 20.51 4.9 20.51C2.75 20.51 1 18.76 1 16.61ZM2 16.61C2 18.21 3.3 19.51 4.9 19.51C6.5 19.51 7.8 18.21 7.8 16.61C7.8 15.01 6.5 13.71 4.9 13.71C3.3 13.71 2 15.01 2 16.61ZM15.2 16.61C15.2 14.46 16.95 12.71 19.1 12.71C21.25 12.71 23 14.46 23 16.61C23 18.76 21.25 20.51 19.1 20.51C16.95 20.51 15.2 18.76 15.2 16.61ZM16.2 16.61C16.2 18.21 17.5 19.51 19.1 19.51C20.7 19.51 22 18.21 22 16.61C22 15.01 20.7 13.71 19.1 13.71C17.5 13.71 16.2 15.01 16.2 16.61ZM22 21.5H2C1.725 21.5 1.5 21.725 1.5 22C1.5 22.275 1.725 22.5 2 22.5H22C22.275 22.5 22.5 22.275 22.5 22C22.5 21.725 22.275 21.5 22 21.5Z" fill="#13334C"/>
</svg>
