<svg width="24" height="24" viewBox="0 0 24 24" fill="none" xmlns="http://www.w3.org/2000/svg">
<path fill-rule="evenodd" clip-rule="evenodd" d="M20.065 4.83006C19.405 5.77506 18.235 5.99006 17.29 5.32506C16.345 4.66506 16.125 3.48006 16.79 2.53506C17.45 1.59006 18.63 1.38006 19.575 2.04506C20.52 2.70506 20.73 3.88506 20.065 4.83006ZM11.715 21.9751L14.335 16.4851C14.545 16.0451 14.405 15.5151 14.005 15.2351L10.73 12.9401C10.28 12.6251 9.65497 12.7351 9.33497 13.1851C9.01997 13.6351 9.12997 14.2601 9.57997 14.5801L12.165 16.3901L9.90997 21.1151C9.66997 21.6151 9.88497 22.2101 10.38 22.4501C10.52 22.5151 10.665 22.5501 10.81 22.5501C11.185 22.5451 11.54 22.3351 11.715 21.9751ZM5.13497 22.6451L9.14997 18.5101C9.32997 18.3251 9.42997 18.0751 9.42997 17.8151V16.2151C9.42997 15.6651 8.97997 15.2151 8.42997 15.2151C7.87997 15.2151 7.42997 15.6651 7.42997 16.2151V17.4051L3.69997 21.2551C3.31497 21.6501 3.32497 22.2851 3.71997 22.6701C3.91497 22.8601 4.16497 22.9501 4.41497 22.9501C4.67997 22.9501 4.93997 22.8501 5.13497 22.6451ZM18.77 8.10006C18.77 8.08006 18.77 8.06006 18.77 8.04006C18.77 8.02506 18.765 8.01006 18.765 7.99506C18.765 7.98006 18.76 7.96006 18.76 7.94506V7.94006C18.755 7.92006 18.75 7.90006 18.745 7.88006C18.745 7.87006 18.74 7.86006 18.74 7.85006C18.74 7.85006 18.74 7.85006 18.74 7.84506C18.735 7.82006 18.725 7.80006 18.715 7.77506C18.71 7.76506 18.71 7.75506 18.705 7.75006C18.7 7.73506 18.69 7.72007 18.685 7.70506C18.625 7.56506 18.535 7.44506 18.425 7.35006C18.42 7.34506 18.42 7.34506 18.415 7.34006C18.395 7.32006 18.37 7.30506 18.35 7.29006L15.895 5.57006C15.885 5.56506 15.875 5.56006 15.865 5.55006C15.85 5.54006 15.835 5.53006 15.815 5.52006C15.8 5.51506 15.79 5.50506 15.775 5.50006C15.76 5.49006 15.745 5.48506 15.725 5.47506C15.71 5.47006 15.695 5.46506 15.68 5.46006C15.665 5.45506 15.65 5.44506 15.63 5.44006C15.615 5.43506 15.6 5.43006 15.585 5.42506C15.57 5.42006 15.555 5.41506 15.535 5.41006C15.52 5.40506 15.505 5.40506 15.485 5.40006C15.47 5.39506 15.455 5.39506 15.435 5.39006C15.42 5.39006 15.4 5.38506 15.38 5.38506C15.365 5.38506 15.35 5.38006 15.335 5.38006C15.315 5.38006 15.295 5.38006 15.275 5.38006C15.265 5.38006 15.255 5.38006 15.245 5.38006L8.85997 5.78506C8.38497 5.81506 8.00497 6.17506 7.93497 6.62506C8.77497 6.63506 9.51997 7.07006 9.96497 7.72006L13.3 7.51006L12.63 8.46507L10.4 9.07006C10.4 9.09006 10.4 9.10506 10.4 9.12506C10.4 9.84007 10.1 10.4801 9.61997 10.9351C9.79497 11.0701 10.01 11.1501 10.235 11.1501C10.32 11.1501 10.41 11.1401 10.5 11.1151L10.91 11.0051C10.865 11.1551 10.855 11.3101 10.88 11.4651C10.925 11.7251 11.075 11.9601 11.29 12.1101L13.75 13.8301C13.92 13.9501 14.12 14.0101 14.325 14.0101C14.385 14.0101 14.44 14.0051 14.5 13.9951C14.76 13.9501 14.995 13.8001 15.145 13.5851L18.585 8.67006C18.59 8.66006 18.6 8.65006 18.605 8.63506C18.615 8.62006 18.625 8.60506 18.635 8.59007C18.645 8.57506 18.65 8.56006 18.655 8.55006C18.665 8.53506 18.67 8.52006 18.675 8.50506C18.68 8.49007 18.685 8.47506 18.69 8.46507C18.695 8.45006 18.705 8.43006 18.71 8.41506C18.715 8.40006 18.715 8.39006 18.72 8.37506C18.725 8.35506 18.73 8.34006 18.735 8.32006C18.74 8.31006 18.74 8.29506 18.74 8.28506C18.745 8.26506 18.75 8.24506 18.75 8.22006C18.75 8.21006 18.75 8.20006 18.755 8.19006C18.755 8.17006 18.76 8.14506 18.76 8.12506C18.77 8.12506 18.77 8.11006 18.77 8.10006ZM7.90497 7.63006C7.07497 7.63006 6.40497 8.30007 6.40497 9.13006C6.40497 9.96006 7.07497 10.6301 7.90497 10.6301C8.73497 10.6301 9.40497 9.96006 9.40497 9.13006C9.40497 8.30007 8.73497 7.63006 7.90497 7.63006Z" fill="#13334C"/>
</svg>
