<svg width="24" height="24" viewBox="0 0 24 24" fill="none" xmlns="http://www.w3.org/2000/svg">
<path fill-rule="evenodd" clip-rule="evenodd" d="M4.01 18.1301C4.11 17.5801 4.565 17.4401 5.04 17.3251C6.745 16.9151 8.52 16.5151 9.895 15.3601C11.405 14.0851 17.495 5.22513 18.94 3.20013C19.12 2.94513 19.505 2.99513 19.765 3.04513C20.17 3.12513 20.52 3.33013 20.79 3.64013C20.915 3.78513 21.095 4.06513 20.97 4.26013C20.85 4.44513 20.565 4.41013 20.38 4.39013C19.905 4.33513 19.35 4.36513 19.055 4.78513L12.17 14.6151C11.565 15.4751 11.195 16.4401 10.945 17.4601C10.775 18.1451 10.66 18.8451 10.36 19.4901C9.07 22.2951 3.52 20.8051 4.01 18.1301ZM7 12.0001C7 10.8951 6.105 10.0001 5 10.0001C3.895 10.0001 3 10.8951 3 12.0001C3 13.1051 3.895 14.0001 5 14.0001C6.105 14.0001 7 13.1051 7 12.0001Z" fill="#13334C"/>
</svg>
