<svg width="24" height="24" viewBox="0 0 24 24" fill="none" xmlns="http://www.w3.org/2000/svg">
<path d="M22.2401 3.09001C22.0151 2.93001 21.7001 2.98501 21.5451 3.21501L11.2001 17.97C11.0851 18.13 10.8751 18.185 10.7001 18.1L3.13007 14.435C2.99507 14.37 2.83507 14.37 2.70007 14.435C2.56507 14.5 2.46507 14.62 2.42507 14.77L1.51507 17.385C1.45507 17.63 1.59007 17.885 1.82507 17.97L9.87007 20.97C9.92507 20.99 9.98507 21 10.0451 21C10.2051 21 10.3601 20.925 10.4551 20.785L22.3651 3.78501C22.5251 3.56001 22.4701 3.25001 22.2401 3.09001Z" fill="#13334C"/>
<path d="M20.25 19.5H17.75C17.335 19.5 17 19.835 17 20.25C17 20.665 17.335 21 17.75 21H20.25C20.665 21 21 20.665 21 20.25C21 19.835 20.665 19.5 20.25 19.5Z" fill="#13334C"/>
</svg>
