<svg width="24" height="24" viewBox="0 0 24 24" fill="none" xmlns="http://www.w3.org/2000/svg">
<path d="M15.495 21.6649C15.545 22.1149 15.19 22.4999 14.75 22.4999H9.25001C8.81001 22.4999 8.45501 22.1199 8.50501 21.6649C8.54501 21.2799 8.88501 20.9999 9.27001 20.9999C9.99001 20.9999 10.6 20.4599 10.685 19.7449L11.155 15.8549C11.18 15.6549 11.35 15.5049 11.55 15.5049H12.445C12.645 15.5049 12.82 15.6549 12.84 15.8549L13.31 19.7449C13.395 20.4599 14.005 20.9999 14.725 20.9999C15.115 20.9999 15.455 21.2849 15.495 21.6649ZM9.50001 10.7699V6.93495C9.50001 6.85495 9.47501 6.77495 9.43001 6.70495L7.50001 3.94995C7.02501 3.26995 6.09001 3.10495 5.41001 3.57995L4.51001 4.20995C4.33001 4.33495 4.28501 4.58495 4.41001 4.76495L8.77001 10.9999C8.99501 11.3199 9.50001 11.1599 9.50001 10.7699ZM19.49 4.21495L18.59 3.58495C17.91 3.10995 16.975 3.27495 16.5 3.95495L14.575 6.70995C14.53 6.77494 14.505 6.85495 14.505 6.93995V10.7749C14.505 11.1649 15.01 11.3249 15.235 11.0049L19.595 4.77995C19.715 4.58995 19.67 4.33995 19.49 4.21495ZM10.5 13.0549C10.5 13.0699 10.5 13.0849 10.5 13.0999C10.5 13.1099 10.5 13.1199 10.5 13.1249C10.5 13.1449 10.505 13.1599 10.505 13.1799C10.505 13.1849 10.505 13.1899 10.505 13.1949C10.51 13.2149 10.51 13.2349 10.515 13.2549V13.2599C10.535 13.3799 10.57 13.4949 10.62 13.5999V13.6049C10.63 13.6249 10.64 13.6449 10.645 13.6649C10.645 13.6699 10.65 13.6749 10.655 13.6799C10.665 13.6949 10.67 13.7099 10.68 13.7249C10.685 13.7349 10.69 13.7399 10.695 13.7499C10.7 13.7599 10.71 13.7749 10.715 13.7849C10.72 13.7949 10.73 13.8049 10.735 13.8149C10.74 13.8249 10.745 13.8349 10.755 13.8399C10.755 13.8399 10.755 13.8449 10.76 13.8449L10.765 13.8549C10.765 13.8599 10.77 13.8599 10.77 13.8649C10.775 13.8699 10.775 13.8749 10.78 13.8799C10.785 13.8849 10.79 13.8949 10.795 13.8999L10.8 13.9049C10.805 13.9149 10.815 13.9249 10.82 13.9299C10.82 13.9299 10.82 13.9349 10.825 13.9349C10.83 13.9399 10.835 13.9499 10.84 13.9549C10.845 13.9599 10.85 13.9649 10.855 13.9749C10.86 13.9799 10.865 13.9899 10.87 13.9949C10.875 13.9999 10.88 14.0049 10.885 14.0149C10.89 14.0199 10.895 14.0249 10.9 14.0299C10.905 14.0399 10.915 14.0449 10.92 14.0499C10.925 14.0549 10.93 14.0599 10.935 14.0649C10.935 14.0649 10.94 14.0649 10.94 14.0699C10.945 14.0749 10.945 14.0749 10.95 14.0799C10.96 14.0899 10.965 14.0949 10.975 14.1049C10.98 14.1099 10.98 14.1099 10.985 14.1149C10.995 14.1249 11.005 14.1299 11.015 14.1399C11.02 14.1449 11.025 14.1499 11.03 14.1549C11.035 14.1549 11.035 14.1599 11.04 14.1599C11.045 14.1649 11.055 14.1699 11.06 14.1749C11.065 14.1799 11.07 14.1799 11.075 14.1849C11.08 14.1899 11.085 14.1949 11.09 14.1999C11.095 14.1999 11.095 14.2049 11.1 14.2049C11.11 14.2099 11.12 14.2199 11.125 14.2249C11.125 14.2249 11.13 14.2249 11.13 14.2299C11.135 14.2349 11.14 14.2349 11.145 14.2399C11.15 14.2449 11.155 14.2449 11.16 14.2499C11.17 14.2549 11.18 14.2649 11.19 14.2699C11.195 14.2699 11.195 14.2749 11.2 14.2749C11.21 14.2799 11.215 14.2849 11.225 14.2899C11.235 14.2949 11.25 14.3049 11.26 14.3099C11.27 14.3149 11.285 14.3249 11.295 14.3299C11.305 14.3349 11.31 14.3399 11.32 14.3449C11.335 14.3549 11.35 14.3599 11.365 14.3649C11.37 14.3649 11.375 14.3699 11.38 14.3699C11.39 14.3749 11.405 14.3799 11.415 14.3849C11.42 14.3899 11.43 14.3899 11.435 14.3949H11.44C11.445 14.3949 11.445 14.3949 11.45 14.3999C11.45 14.3999 11.45 14.3999 11.455 14.3999C11.475 14.4049 11.49 14.4149 11.51 14.4199H11.515C11.52 14.4199 11.52 14.4199 11.525 14.4249C11.54 14.4299 11.56 14.4349 11.575 14.4399C11.58 14.4399 11.585 14.4449 11.59 14.4449C11.605 14.4499 11.62 14.4549 11.64 14.4549C11.64 14.4549 11.64 14.4549 11.645 14.4549C11.65 14.4549 11.66 14.4599 11.665 14.4599C11.68 14.4649 11.69 14.4649 11.705 14.4699H11.71C11.72 14.4699 11.725 14.4749 11.735 14.4749C11.745 14.4749 11.76 14.4799 11.77 14.4799H11.775C11.78 14.4799 11.78 14.4799 11.785 14.4799C11.795 14.4799 11.8 14.4799 11.81 14.4849C11.82 14.4849 11.83 14.4849 11.84 14.4899C11.845 14.4899 11.85 14.4899 11.855 14.4899C11.865 14.4899 11.87 14.4899 11.88 14.4899C11.89 14.4899 11.9 14.4899 11.905 14.4899C11.91 14.4899 11.92 14.4899 11.925 14.4899C11.935 14.4899 11.94 14.4899 11.95 14.4899C11.955 14.4899 11.96 14.4899 11.96 14.4899H11.97C11.98 14.4899 11.985 14.4899 11.995 14.4899C12 14.4899 12.01 14.4899 12.015 14.4899C12.025 14.4899 12.035 14.4899 12.04 14.4899C12.05 14.4899 12.055 14.4899 12.065 14.4899C12.07 14.4899 12.075 14.4899 12.08 14.4899C12.09 14.4899 12.1 14.4899 12.11 14.4849C12.12 14.4849 12.125 14.4849 12.135 14.4799C12.14 14.4799 12.14 14.4799 12.145 14.4799H12.15C12.16 14.4799 12.175 14.4749 12.185 14.4749C12.195 14.4749 12.2 14.4699 12.21 14.4699H12.215C12.23 14.4699 12.24 14.4649 12.255 14.4599C12.26 14.4599 12.27 14.4549 12.275 14.4549C12.275 14.4549 12.275 14.4549 12.28 14.4549C12.295 14.4499 12.31 14.4499 12.33 14.4449C12.335 14.4449 12.34 14.4399 12.345 14.4399C12.365 14.4349 12.38 14.4299 12.4 14.4249C12.405 14.4249 12.405 14.4249 12.41 14.4199H12.415C12.435 14.4149 12.45 14.4099 12.47 14.3999C12.47 14.3999 12.47 14.3999 12.475 14.3999C12.48 14.3999 12.48 14.3999 12.485 14.3949H12.49C12.495 14.3899 12.505 14.3899 12.51 14.3849C12.52 14.3799 12.535 14.3749 12.545 14.3699C12.55 14.3699 12.555 14.3649 12.56 14.3649C12.575 14.3599 12.59 14.3499 12.605 14.3449C12.615 14.3399 12.62 14.3349 12.63 14.3299C12.64 14.3249 12.655 14.3199 12.665 14.3099C12.675 14.3049 12.69 14.2949 12.7 14.2899C12.71 14.2849 12.715 14.2799 12.725 14.2749C12.73 14.2749 12.73 14.2699 12.735 14.2699C12.745 14.2649 12.755 14.2549 12.765 14.2499C12.77 14.2449 12.775 14.2449 12.78 14.2399C12.785 14.2349 12.79 14.2349 12.795 14.2299C12.795 14.2299 12.8 14.2299 12.8 14.2249C12.81 14.2199 12.82 14.2099 12.825 14.2049C12.83 14.2049 12.83 14.1999 12.835 14.1999C12.84 14.1949 12.845 14.1899 12.85 14.1849C12.855 14.1799 12.86 14.1799 12.865 14.1749C12.87 14.1699 12.88 14.1649 12.885 14.1599L12.89 14.1549C12.895 14.1499 12.9 14.1449 12.905 14.1399C12.91 14.1349 12.92 14.1299 12.925 14.1199C12.93 14.1149 12.93 14.1149 12.935 14.1099C12.94 14.1049 12.94 14.1049 12.945 14.0999C12.955 14.0899 12.965 14.0849 12.97 14.0749C12.975 14.0699 12.975 14.0699 12.98 14.0649C12.98 14.0649 12.985 14.0649 12.985 14.0599C12.99 14.0549 12.995 14.0499 13 14.0449C13.005 14.0399 13.015 14.0299 13.02 14.0249C13.025 14.0199 13.03 14.0149 13.035 14.0099C13.04 14.0049 13.045 13.9999 13.05 13.9899C13.055 13.9849 13.06 13.9749 13.065 13.9699C13.07 13.9649 13.075 13.9599 13.08 13.9499C13.085 13.9449 13.09 13.9349 13.095 13.9299C13.095 13.9299 13.095 13.9249 13.1 13.9249C13.105 13.9149 13.115 13.9049 13.12 13.8999L13.125 13.8949C13.13 13.8899 13.135 13.8799 13.14 13.8749C13.145 13.8699 13.145 13.8649 13.15 13.8599C13.15 13.8549 13.155 13.8549 13.155 13.8499L13.16 13.8399L13.165 13.8349C13.17 13.8249 13.175 13.8149 13.185 13.8099C13.19 13.7999 13.2 13.7899 13.205 13.7799C13.21 13.7699 13.22 13.7549 13.225 13.7449C13.23 13.7349 13.235 13.7299 13.24 13.7199C13.25 13.7049 13.255 13.6899 13.265 13.6749C13.27 13.6699 13.27 13.6649 13.275 13.6599C13.285 13.6399 13.295 13.6199 13.3 13.5999V13.5949C13.345 13.4899 13.38 13.3749 13.405 13.2549V13.2499C13.41 13.2299 13.41 13.2099 13.415 13.1899C13.415 13.1849 13.415 13.1799 13.415 13.1749C13.415 13.1599 13.42 13.1399 13.42 13.1199C13.42 13.1099 13.42 13.0999 13.42 13.0949C13.42 13.0799 13.42 13.0649 13.42 13.0499C13.42 13.0399 13.42 13.0249 13.42 13.0149C13.42 13.0099 13.42 12.9999 13.42 12.9949V8.23995V3.03995C13.42 2.22495 12.78 1.52995 11.96 1.50995C11.11 1.48495 10.42 2.16495 10.42 3.00995V8.23995V12.9949C10.42 13.0049 10.42 13.0099 10.42 13.0149C10.5 13.0299 10.5 13.0399 10.5 13.0549Z" fill="#13334C"/>
</svg>
