<svg width="24" height="24" viewBox="0 0 24 24" fill="none" xmlns="http://www.w3.org/2000/svg">
<path d="M22.44 11.505L22.07 9.98995C22.035 9.84495 21.935 9.71995 21.795 9.65495C21.66 9.58995 21.5 9.58995 21.365 9.65495L15.49 12.5L7.905 1.72495C7.745 1.49995 7.435 1.44495 7.21 1.60495C6.985 1.76495 6.93 2.07495 7.09 2.29995L15.45 14.18C15.545 14.315 15.7 14.3899 15.86 14.3899C15.92 14.3899 15.975 14.38 16.035 14.36L22.13 12.09C22.365 12 22.5 11.75 22.44 11.505ZM16.275 19.0949C16.105 19.0399 15.99 18.8899 15.99 18.7149V17.275C15.99 16.335 15.19 15.68 14.345 15.455C13.255 15.165 12.285 14.96 11.22 14.5949C10.16 14.2299 9.095 13.73 8.575 12.68C8.16 11.84 7.925 9.39495 7.85 8.22995C7.85 8.22495 7.85 8.22495 7.85 8.21995C7.87 8.06495 7.815 7.90495 7.665 7.84995C7.065 7.63995 6.5 8.08495 6.5 8.65495V8.73995C6.5 8.92995 6.345 9.08495 6.155 9.08495H3.71C2.825 9.08495 2.085 9.75495 1.995 10.635L1.99 17.155C1.985 18.1299 2.64 18.5599 3.4 18.5599L3.63 18.57C2.385 18.6649 1.805 19.57 1.52 20.235C1.42 20.46 1.59 20.7149 1.835 20.7149H2C2 20.7299 2 20.745 2 20.76C2 21.725 2.785 22.51 3.75 22.51C4.715 22.51 5.5 21.725 5.5 20.76C5.5 20.745 5.5 20.7299 5.5 20.7149H6C6 20.7299 6 20.745 6 20.76C6 21.725 6.785 22.51 7.75 22.51C8.715 22.51 9.5 21.725 9.5 20.76C9.5 20.745 9.5 20.7299 9.5 20.7149H10C10 20.7299 10 20.745 10 20.76C10 21.725 10.785 22.51 11.75 22.51C12.715 22.51 13.5 21.725 13.5 20.76C13.5 20.745 13.5 20.7299 13.5 20.7149H13.555H14.005C14.005 20.7299 14.005 20.745 14.005 20.76C14.005 21.7649 14.86 22.58 15.88 22.5049C16.74 22.445 17.44 21.7449 17.5 20.8799C17.55 20.0499 17.02 19.33 16.275 19.0949ZM3.745 21.51C3.33 21.51 2.995 21.175 2.995 20.76C2.995 20.745 2.995 20.7299 2.995 20.7149H4.49001C4.49001 20.7299 4.49001 20.745 4.49001 20.76C4.495 21.175 4.16 21.51 3.745 21.51ZM7.745 21.51C7.33 21.51 6.995 21.175 6.995 20.76C6.995 20.745 6.995 20.7299 6.995 20.7149H8.49C8.49 20.7299 8.49 20.745 8.49 20.76C8.495 21.175 8.16 21.51 7.745 21.51ZM11.745 21.51C11.33 21.51 10.995 21.175 10.995 20.76C10.995 20.745 10.995 20.7299 10.995 20.7149H12.49C12.49 20.7299 12.49 20.745 12.49 20.76C12.495 21.175 12.16 21.51 11.745 21.51ZM14.495 18.61C14.495 18.83 14.315 19.01 14.095 19.01H5.395C5.175 19.01 4.995 18.83 4.995 18.61V18.41C4.995 18.19 5.175 18.01 5.395 18.01H14.095C14.315 18.01 14.495 18.19 14.495 18.41V18.61ZM15.75 21.51C15.335 21.51 15 21.175 15 20.76C15 20.745 15 20.725 15 20.71L16.495 20.705C16.495 20.7199 16.5 20.74 16.5 20.7549C16.5 21.1749 16.16 21.51 15.75 21.51Z" fill="#13334C"/>
</svg>
