<svg width="24" height="24" viewBox="0 0 24 24" fill="none" xmlns="http://www.w3.org/2000/svg">
<path d="M21.2048 5.08508L22.0498 5.75508C22.2298 5.89508 22.2548 6.16008 22.0998 6.33508C21.2198 7.33008 18.5698 10.4201 18.4798 11.6101C18.3898 12.7501 19.5898 13.3451 19.4448 14.5701C19.3048 15.7351 18.3748 16.7201 17.4998 17.3901C15.4498 18.9551 12.4848 20.0751 9.89985 20.0251C7.01985 19.9701 4.14485 18.6651 1.94485 16.8551C1.58985 16.5651 1.92485 16.0001 2.34985 16.1751C2.74485 16.3351 4.06985 16.8801 4.47985 17.0051C7.16485 17.8201 9.20485 17.3951 11.6648 15.9401C13.8198 14.6601 15.3648 12.6051 16.8148 10.6101C18.1198 8.82008 19.3598 6.98508 20.6298 5.17008C20.7598 4.98008 21.0248 4.94508 21.2048 5.08508ZM6.99985 12.0001C6.99985 10.8951 6.10485 10.0001 4.99985 10.0001C3.89485 10.0001 2.99985 10.8951 2.99985 12.0001C2.99985 13.1051 3.89485 14.0001 4.99985 14.0001C6.10485 14.0001 6.99985 13.1051 6.99985 12.0001Z" fill="#13334C"/>
</svg>
