<svg width="24" height="24" viewBox="0 0 24 24" fill="none" xmlns="http://www.w3.org/2000/svg">
<path d="M6.51498 11.715C6.58498 12.035 6.67998 12.35 6.79498 12.655C6.91998 12.98 7.06998 13.295 7.24998 13.595C7.44498 13.93 7.67498 14.24 7.92998 14.535C8.95498 15.69 10.39 16.41 11.985 16.41C13.15 16.405 14.28 16.02 15.205 15.31C15.51 15.08 15.79 14.82 16.045 14.535C16.305 14.245 16.535 13.93 16.735 13.6C16.915 13.3 17.065 12.985 17.19 12.66C17.31 12.355 17.4 12.04 17.47 11.72C17.54 11.41 17.585 11.1 17.605 10.78V10.75C17.615 10.6 17.62 10.45 17.62 10.3C17.62 10.15 17.615 9.99995 17.605 9.84995V9.83995C17.585 9.52495 17.54 9.20995 17.47 8.89995C17.4 8.57995 17.31 8.26495 17.19 7.95995C17.065 7.63495 16.915 7.31995 16.74 7.01995C16.545 6.68495 16.315 6.37495 16.06 6.08495C15.03 4.92495 13.585 4.19995 11.985 4.19995H11.98C10.38 4.19995 8.93498 4.92495 7.91498 6.08495C7.70998 6.31495 7.52498 6.55995 7.35998 6.81995C7.31498 6.88495 7.27498 6.95495 7.23498 7.01995C7.05998 7.31995 6.90998 7.63495 6.78498 7.95995C6.66998 8.26495 6.57498 8.57995 6.50498 8.89995C6.43998 9.20995 6.39498 9.51995 6.36998 9.83995C6.35998 9.98995 6.35498 10.145 6.35498 10.3V10.305C6.35498 10.465 6.35998 10.62 6.36998 10.78C6.40498 11.09 6.44998 11.405 6.51498 11.715ZM12.455 5.16995C13.275 5.25995 14.055 5.57995 14.705 6.09495H12.455V5.16995ZM12.455 7.02995H15.62C15.84 7.31995 16.025 7.63495 16.18 7.96995H12.455V7.02995ZM12.455 8.90495H16.515C16.595 9.20995 16.645 9.52495 16.67 9.84495H12.455V8.90495ZM12.455 10.78H16.67C16.645 11.095 16.59 11.41 16.51 11.715H12.455V10.78ZM12.455 12.655H16.17C16.015 12.985 15.825 13.3 15.605 13.595H12.455V12.655ZM12.455 14.53H14.675C14.03 15.03 13.26 15.34 12.455 15.43V14.53ZM11.52 15.43C10.715 15.335 9.95498 15.025 9.31498 14.53H11.52V15.43ZM11.52 13.59H8.38498C8.16498 13.3 7.97498 12.985 7.81998 12.65H11.52V13.59ZM11.52 11.715H7.47998C7.39998 11.41 7.34498 11.095 7.31998 10.78H11.52V11.715ZM11.52 5.16995V6.08995H9.28498C9.92998 5.58495 10.705 5.26495 11.52 5.16995ZM8.36998 7.02995H11.52V7.96995H7.80998C7.96498 7.63495 8.14998 7.31995 8.36998 7.02995ZM7.47498 8.90495H11.52V9.84495H7.31998C7.34498 9.52495 7.39498 9.20995 7.47498 8.90495Z" fill="#13334C"/>
<path d="M6.13991 17.71L6.80491 17.555C6.94991 17.52 7.07991 17.43 7.15991 17.3C7.23991 17.17 7.26491 17.015 7.22991 16.87C7.21491 16.795 7.17991 16.73 7.13991 16.665C7.09991 16.6 7.03991 16.55 6.97991 16.515C6.91491 16.475 6.84491 16.45 6.76991 16.435C6.69491 16.425 6.61991 16.425 6.54991 16.44L5.80491 16.61L4.39491 10.485C4.38991 10.47 4.38991 10.455 4.38491 10.445C4.20491 9.70498 2.81991 4.06498 2.73991 3.74498C2.71991 3.66998 2.69491 3.62998 2.66491 3.61498C2.54991 3.39998 2.38991 3.26998 2.23991 3.30498C2.08991 3.33998 1.99991 3.52498 1.98991 3.76998C1.96991 3.79498 1.96491 3.83998 1.97991 3.91998C2.04991 4.23998 3.27491 9.91998 3.43491 10.665C3.43491 10.68 3.43991 10.69 3.44491 10.705L4.85991 16.835L4.11491 17.005C3.96991 17.04 3.83991 17.13 3.75991 17.26C3.67991 17.39 3.65491 17.545 3.68991 17.69C3.72491 17.835 3.81491 17.965 3.94491 18.045C4.07491 18.125 4.22991 18.15 4.37491 18.115L5.03991 17.96L5.57991 20.295C5.60991 20.42 5.68991 20.53 5.79991 20.6C5.90991 20.67 6.04491 20.69 6.16991 20.66L6.32491 20.625C6.38991 20.61 6.44491 20.585 6.49991 20.545C6.55491 20.51 6.59491 20.46 6.62991 20.405C6.66491 20.35 6.68491 20.29 6.69991 20.225C6.70991 20.16 6.70991 20.095 6.69491 20.035L6.13991 17.71Z" fill="#13334C"/>
<path d="M22.9899 16.3249L17.6399 13.6749C17.6149 13.6649 17.5899 13.6549 17.5649 13.6549C17.5399 13.6549 17.5099 13.6549 17.4849 13.6649C17.4599 13.6749 17.4349 13.6849 17.4149 13.7049C17.3949 13.7249 17.3799 13.7449 17.3649 13.7699C17.0899 14.3549 16.7249 14.8949 16.2799 15.3649C16.0099 15.6499 15.7099 15.9149 15.3899 16.1399C14.3999 16.8549 13.2049 17.2399 11.9849 17.2399H11.9749C10.7549 17.2399 9.55992 16.8549 8.56992 16.1399C7.71992 15.5299 7.03992 14.7149 6.59992 13.7649C6.58992 13.7399 6.56992 13.7199 6.54992 13.6999C6.52992 13.6799 6.50492 13.6699 6.47992 13.6599C6.45492 13.6499 6.42992 13.6499 6.39992 13.6499C6.37492 13.6499 6.34492 13.6599 6.32492 13.6699L5.79492 13.9349L6.28492 16.0799L6.60992 15.9999C6.85992 15.9449 7.11992 15.9849 7.33992 16.1199C7.55492 16.2549 7.70992 16.4699 7.76992 16.7199C7.82992 16.9699 7.78992 17.2299 7.65492 17.4499C7.51992 17.6699 7.30992 17.8249 7.05992 17.8899L6.71492 17.9749L6.99992 19.2199C8.25992 18.4749 8.84492 17.4999 8.87992 17.3299C8.91492 17.1549 8.97492 17.2299 8.99492 17.3049C9.01492 17.3799 9.21492 18.5999 9.02992 19.1049C8.84992 19.6099 9.08492 20.1299 9.49992 20.1299H14.4399C14.8549 20.1299 15.0949 19.6099 14.9149 19.1049C14.7349 18.5999 14.9299 17.3799 14.9499 17.3049C14.9699 17.2299 15.0249 17.1499 15.0649 17.3299C15.0999 17.5049 15.7049 18.5049 17.0049 19.2549C17.4949 19.5149 18.0299 19.6699 18.5849 19.7149C19.1399 19.7599 19.6899 19.6899 20.2149 19.5149C20.4049 19.4499 20.5799 19.3349 20.7099 19.1849L23.0199 16.5449C23.0349 16.5299 23.0449 16.5099 23.0499 16.4899C23.0549 16.4699 23.0549 16.4449 23.0549 16.4249C23.0499 16.4049 23.0399 16.3849 23.0299 16.3649C23.0249 16.3449 23.0099 16.3299 22.9899 16.3249Z" fill="#13334C"/>
<path d="M4.62499 18.4749L4.32999 18.5449C4.07999 18.6049 3.81499 18.5649 3.59499 18.4299C3.37499 18.2949 3.21999 18.0799 3.15999 17.8299C3.12999 17.7049 3.12499 17.5749 3.14499 17.4499C3.16499 17.3249 3.20999 17.2049 3.27499 17.0949C3.33999 16.9849 3.42999 16.8899 3.52999 16.8149C3.63499 16.7399 3.74999 16.6849 3.87499 16.6549L4.18999 16.5799L3.80999 14.9199L0.97999 16.3249C0.95999 16.3349 0.94499 16.3499 0.92999 16.3649C0.91499 16.3799 0.90499 16.3999 0.89999 16.4249C0.89499 16.4499 0.89499 16.4699 0.89999 16.4899C0.90499 16.5099 0.91499 16.5299 0.92999 16.5499L3.23999 19.1899C3.37499 19.3399 3.54499 19.4549 3.73499 19.5199C4.11499 19.6449 4.50499 19.7199 4.90499 19.7299L4.62499 18.4749Z" fill="#13334C"/>
</svg>
