<svg width="24" height="24" viewBox="0 0 24 24" fill="none" xmlns="http://www.w3.org/2000/svg">
<path fill-rule="evenodd" clip-rule="evenodd" d="M19.61 12.5901L21.855 14.4201C21.95 14.4951 22 14.6101 22 14.7301V20.1001C22 20.3201 21.82 20.5001 21.6 20.5001H21V22.6001C21 22.8201 20.82 23.0001 20.6 23.0001H19.4C19.18 23.0001 19 22.8201 19 22.6001V20.5001H18.47C18.265 20.5001 18.105 20.3751 18.04 20.1851C17.98 20.0001 17.885 19.8301 17.765 19.6751C17.43 19.2401 16.905 19.0001 16.355 19.0001L2.4 18.9801C2.18 18.9801 2 18.8001 2 18.5801V12.9001C2 12.6801 2.18 12.5001 2.4 12.5001H19.355C19.445 12.5001 19.535 12.5301 19.61 12.5901ZM5.88 11.5001L6.32 10.3751C6.38 10.2251 6.335 10.0501 6.21 9.95013L4.165 8.27513C4.295 7.12013 4.74 6.06013 5.405 5.17513L7.155 5.16013C7.295 5.16013 7.425 5.08013 7.49 4.95013L8.475 2.95513C9.11 2.74013 9.79 2.62513 10.5 2.62513C11.21 2.62513 11.89 2.74013 12.525 2.95513L13.51 4.95013C13.57 5.07513 13.7 5.16013 13.845 5.16013L15.595 5.17513C16.26 6.06013 16.7 7.12013 16.835 8.27513L14.79 9.95013C14.665 10.0551 14.62 10.2251 14.68 10.3751L15.12 11.5001H17.575C17.85 10.7201 18 9.88013 18 9.00513C18 4.86513 14.64 1.50513 10.5 1.50513C6.36 1.50513 3 4.86513 3 9.00513C3 9.88013 3.15 10.7201 3.425 11.5001H5.88ZM10.255 11.3401C10.4 11.4451 10.6 11.4451 10.745 11.3401L12.845 9.81513C12.99 9.71013 13.05 9.52013 12.995 9.35013L12.195 6.88013C12.14 6.71013 11.98 6.59513 11.8 6.59513H9.2C9.02 6.59513 8.86 6.71013 8.805 6.88013L8.005 9.35013C7.95 9.52013 8.01 9.71013 8.155 9.81513L10.255 11.3401Z" fill="#13334C"/>
</svg>
