<svg width="24" height="24" viewBox="0 0 24 24" fill="none" xmlns="http://www.w3.org/2000/svg">
<path fill-rule="evenodd" clip-rule="evenodd" d="M5 9.99991C6.105 9.99991 7 10.8949 7 11.9999C7 13.1049 6.105 13.9999 5 13.9999C3.895 13.9999 3 13.1049 3 11.9999C3 10.8949 3.895 9.99991 5 9.99991ZM21.455 6.44491C21.455 6.45991 21.45 6.47491 21.45 6.48491C21.35 7.09991 21.115 7.70491 20.73 8.24991C20.12 9.12491 19.31 9.61491 18.19 9.78991C18.125 9.79991 18.07 9.83491 18.03 9.88991C18.015 9.90991 18.005 9.92491 17.995 9.94991C17.945 10.0649 17.89 10.1849 17.825 10.3049C17.705 10.5399 17.57 10.7749 17.435 10.9699C17.425 10.9849 17.415 10.9999 17.405 11.0149C17.065 11.4999 16.535 11.8649 15.85 12.0899C15.805 12.1049 15.76 12.1199 15.71 12.1299C15.7 12.1349 15.685 12.1399 15.675 12.1399C15.495 12.1899 15.31 12.2299 15.115 12.2649C15.08 12.2699 15.045 12.2749 15.01 12.2799C15.005 12.2799 14.995 12.2799 14.99 12.2849C14.915 12.2949 14.845 12.3049 14.765 12.3099C14.755 12.3099 14.75 12.3099 14.74 12.3099C14.7 12.3149 14.665 12.3149 14.625 12.3199H14.62C14.585 12.3249 14.545 12.3249 14.51 12.3299C14.5 12.3299 14.495 12.3299 14.485 12.3299C14.445 12.3299 14.41 12.3349 14.37 12.3349C14.365 12.3349 14.36 12.3349 14.36 12.3349C14.325 12.3349 14.29 12.3349 14.255 12.3399C14.245 12.3399 14.24 12.3399 14.23 12.3399C14.19 12.3399 14.155 12.3399 14.12 12.3399H14.115C14.11 12.3399 14.1 12.3399 14.095 12.3399C14.07 12.3399 14.045 12.3399 14.025 12.3399C14.015 12.3399 14.005 12.3399 13.99 12.3399C13.97 12.3399 13.945 12.3399 13.925 12.3399C13.915 12.3399 13.905 12.3399 13.89 12.3399C13.865 12.3399 13.845 12.3399 13.82 12.3349C13.81 12.3349 13.805 12.3349 13.795 12.3349C13.765 12.3349 13.735 12.3299 13.705 12.3299C13.695 12.3299 13.685 12.3299 13.675 12.3299C13.655 12.3299 13.635 12.3249 13.615 12.3249C13.605 12.3249 13.59 12.3249 13.58 12.3199C13.56 12.3199 13.545 12.3149 13.525 12.3149C13.515 12.3149 13.505 12.3149 13.49 12.3099C13.47 12.3049 13.45 12.3049 13.425 12.2999C13.42 12.2999 13.41 12.2999 13.405 12.2949C13.38 12.2899 13.35 12.2849 13.325 12.2799C13.315 12.2799 13.305 12.2749 13.295 12.2749C13.285 12.2749 13.275 12.2699 13.265 12.2699L6.27 22.2849C6.175 22.4249 6.02 22.4999 5.86 22.4999C5.76 22.4999 5.66 22.4699 5.575 22.4099C5.35 22.2499 5.295 21.9399 5.45 21.7149L12.46 11.7049C12.245 11.3449 12.055 10.8349 11.93 10.3749C11.92 10.3299 11.905 10.2849 11.895 10.2399C11.705 9.43491 11.605 8.28991 12.23 7.40491C12.44 7.09991 12.75 6.74991 13.03 6.48991C13.08 6.43991 13.11 6.37991 13.115 6.31491C13.115 6.29491 13.115 6.27491 13.11 6.25491C13.055 5.97491 13.025 5.70991 13.025 5.44991C13.015 4.87491 13.135 4.34491 13.39 3.83991C13.39 3.83991 13.39 3.83491 13.395 3.83491C13.4 3.82491 13.405 3.81991 13.405 3.81491C13.485 3.65491 13.585 3.49491 13.69 3.33991C13.785 3.20491 13.89 3.07491 13.995 2.95491C15.185 1.60991 17.09 1.16491 18.735 1.78991C19.06 1.91491 19.375 2.07991 19.67 2.28491C20.88 3.13491 21.52 4.49491 21.5 5.87491V5.87991C21.5 6.05991 21.485 6.25491 21.455 6.44491ZM20.09 7.39491C20.85 6.03491 20.545 4.31991 19.37 3.30491C19.335 3.27491 19.295 3.23991 19.255 3.20991C19.25 3.20491 19.245 3.19991 19.24 3.19491C19.195 3.15991 19.15 3.12491 19.105 3.09491C19.06 3.06491 19.01 3.02991 18.965 2.99991C18.96 2.99491 18.95 2.98991 18.945 2.98991C18.905 2.96491 18.865 2.93991 18.82 2.91491C18.82 2.91491 18.815 2.91491 18.815 2.90991C17.46 2.15491 15.745 2.45991 14.725 3.63491C14.695 3.67491 14.66 3.70991 14.63 3.74991C14.625 3.75491 14.62 3.75991 14.62 3.76491C14.585 3.80991 14.55 3.85491 14.52 3.89991C14.41 4.05491 14.32 4.21491 14.25 4.37491C14.025 4.87991 13.98 5.41491 14.105 6.04991C14.115 6.09491 14.12 6.13991 14.125 6.18491C14.155 6.56491 14.015 6.93991 13.725 7.20991C13.495 7.42491 13.235 7.71991 13.06 7.96991C13.06 7.96991 13.06 7.96991 13.06 7.97491C13.04 8.00491 13.02 8.03491 13 8.06491C12.995 8.07491 12.99 8.08991 12.98 8.09991C12.97 8.11991 12.955 8.13991 12.945 8.16491C12.94 8.17991 12.93 8.18991 12.925 8.20491C12.915 8.22491 12.905 8.24491 12.9 8.26491C12.895 8.27991 12.89 8.29491 12.885 8.30991C12.875 8.32991 12.87 8.34991 12.865 8.36991C12.86 8.38491 12.855 8.39991 12.85 8.41491C12.845 8.43491 12.84 8.45491 12.83 8.47991C12.825 8.49491 12.82 8.50991 12.82 8.52491C12.815 8.54491 12.81 8.56991 12.805 8.58991C12.8 8.60491 12.8 8.61991 12.795 8.63491C12.79 8.65991 12.785 8.67991 12.785 8.70491C12.785 8.71991 12.78 8.73491 12.78 8.74991C12.775 8.77991 12.775 8.80991 12.77 8.83991C12.77 8.84991 12.77 8.85991 12.765 8.86991C12.76 8.90991 12.76 8.94991 12.76 8.98491C12.76 8.99491 12.76 9.00991 12.76 9.01991C12.76 9.04991 12.76 9.07491 12.76 9.10491C12.76 9.11991 12.76 9.13491 12.76 9.14991C12.76 9.17491 12.76 9.19991 12.76 9.22491C12.76 9.23991 12.76 9.25991 12.765 9.27491C12.765 9.29991 12.77 9.31991 12.77 9.34491C12.77 9.35991 12.775 9.37991 12.775 9.39491C12.775 9.41991 12.78 9.43991 12.78 9.46491C12.78 9.47991 12.785 9.49991 12.785 9.51491C12.79 9.53991 12.79 9.55991 12.795 9.58491C12.795 9.59991 12.8 9.61991 12.8 9.63491C12.805 9.65991 12.81 9.68491 12.81 9.70991C12.815 9.72491 12.815 9.73991 12.82 9.75491C12.825 9.77991 12.83 9.80991 12.835 9.83491C12.835 9.84491 12.84 9.85991 12.84 9.86991C12.85 9.90991 12.855 9.94491 12.865 9.98491C12.865 9.98991 12.87 9.99991 12.87 10.0049C12.88 10.0349 12.885 10.0699 12.895 10.0999C12.9 10.1149 12.9 10.1249 12.905 10.1399C12.91 10.1649 12.92 10.1899 12.925 10.2099C12.93 10.2249 12.935 10.2399 12.935 10.2549C12.94 10.2749 12.95 10.2999 12.955 10.3199C12.96 10.3349 12.965 10.3499 12.97 10.3649C12.975 10.3849 12.985 10.4049 12.99 10.4249C12.995 10.4399 13 10.4549 13.005 10.4649C13.01 10.4849 13.02 10.5049 13.025 10.5249C13.03 10.5399 13.035 10.5499 13.04 10.5649C13.045 10.5849 13.055 10.6049 13.06 10.6249C13.065 10.6349 13.07 10.6499 13.075 10.6599C13.085 10.6799 13.09 10.6999 13.1 10.7199C13.105 10.7299 13.11 10.7399 13.11 10.7499C13.12 10.7749 13.13 10.8049 13.145 10.8299V10.8349C13.155 10.8649 13.17 10.8899 13.18 10.9149C13.185 10.9249 13.185 10.9299 13.19 10.9399C13.2 10.9599 13.205 10.9749 13.215 10.9899C13.22 10.9999 13.225 11.0099 13.23 11.0149C13.235 11.0299 13.245 11.0449 13.25 11.0549C13.255 11.0649 13.26 11.0699 13.265 11.0799C13.27 11.0899 13.275 11.0949 13.28 11.1049C13.34 11.2149 13.45 11.2899 13.575 11.3099C13.58 11.3099 13.585 11.3099 13.59 11.3099C13.595 11.3099 13.6 11.3099 13.61 11.3099C13.625 11.3099 13.645 11.3149 13.66 11.3149C13.665 11.3149 13.675 11.3149 13.68 11.3149C13.7 11.3149 13.725 11.3199 13.75 11.3199H13.755C13.78 11.3199 13.805 11.3249 13.835 11.3249C13.84 11.3249 13.85 11.3249 13.855 11.3249C13.875 11.3249 13.9 11.3249 13.92 11.3299C13.93 11.3299 13.935 11.3299 13.945 11.3299C13.97 11.3299 13.995 11.3299 14.02 11.3299C14.025 11.3299 14.03 11.3299 14.035 11.3299C14.065 11.3299 14.1 11.3299 14.13 11.3299C14.135 11.3299 14.145 11.3299 14.15 11.3299C14.175 11.3299 14.2 11.3299 14.23 11.3299C14.24 11.3299 14.25 11.3299 14.26 11.3299C14.285 11.3299 14.31 11.3299 14.34 11.3299C14.35 11.3299 14.355 11.3299 14.365 11.3299C14.4 11.3299 14.435 11.3249 14.47 11.3249C14.475 11.3249 14.48 11.3249 14.485 11.3249C14.515 11.3249 14.545 11.3199 14.58 11.3199C14.59 11.3199 14.605 11.3199 14.615 11.3149C14.64 11.3099 14.67 11.3099 14.695 11.3049C14.705 11.3049 14.72 11.3049 14.73 11.2999C14.77 11.2949 14.805 11.2899 14.845 11.2849C14.88 11.2799 14.925 11.2749 14.965 11.2649C15.455 11.1849 16.215 10.9699 16.595 10.4249C16.77 10.1799 16.96 9.82991 17.08 9.54491C17.09 9.51991 17.1 9.49491 17.115 9.46991C17.13 9.43491 17.15 9.40491 17.17 9.36991C17.36 9.06491 17.665 8.84991 18.025 8.78991C18.03 8.78991 18.035 8.78991 18.04 8.78491C18.06 8.77991 18.085 8.77491 18.105 8.77491C18.135 8.76991 18.165 8.76491 18.195 8.75991C18.2 8.75991 18.205 8.75491 18.215 8.75491C18.26 8.74491 18.305 8.73491 18.345 8.72491C18.395 8.71491 18.44 8.69991 18.49 8.68491C18.51 8.67991 18.53 8.67491 18.545 8.66491C18.57 8.65491 18.6 8.64991 18.625 8.63991C18.635 8.63491 18.645 8.63491 18.65 8.62991C19.18 8.44491 19.58 8.12991 19.915 7.65491C19.945 7.60991 19.98 7.55991 20.01 7.51491C20.015 7.50991 20.015 7.50491 20.02 7.49991C20.04 7.47991 20.065 7.43991 20.09 7.39491ZM18.525 3.91491C17.49 3.18991 16.055 3.43991 15.33 4.47991C15.035 4.89991 14.965 5.28991 15.075 5.86991C15.225 6.63491 14.97 7.41491 14.395 7.94991C14.215 8.11491 14 8.36491 13.87 8.54991C13.735 8.73991 13.715 9.14491 13.81 9.63491C13.84 9.78991 13.88 9.93991 13.925 10.0699C13.98 10.2449 14.145 10.3599 14.325 10.3499C14.44 10.3449 14.565 10.3349 14.695 10.3149C15.205 10.2449 15.625 10.0699 15.765 9.87491C15.895 9.68491 16.055 9.39991 16.15 9.17491C16.455 8.44991 17.1 7.94491 17.875 7.82491C18.455 7.73491 18.795 7.53491 19.09 7.10991C19.81 6.07491 19.56 4.64491 18.525 3.91491Z" fill="#13334C"/>
</svg>
