<svg width="24" height="24" viewBox="0 0 24 24" fill="none" xmlns="http://www.w3.org/2000/svg">
<path fill-rule="evenodd" clip-rule="evenodd" d="M11.79 18.32C11.18 18.425 10.555 18.655 9.95 19.005C9.845 19.065 9.775 19.175 9.765 19.295C9.745 19.505 9.685 19.71 9.555 19.895L8.145 21.905C7.71 22.525 6.825 22.67 6.185 22.22C5.545 21.77 5.375 20.895 5.815 20.27L7.225 18.26C7.355 18.08 7.525 17.95 7.715 17.86C7.825 17.805 7.91 17.705 7.93 17.58C8.045 16.95 8.055 16.335 7.97 15.77C7.94 15.58 8.155 15.455 8.31 15.56L11.85 18.05C11.96 18.125 11.92 18.295 11.79 18.32ZM19.795 2.81495C16.225 0.309952 11.09 1.46995 8.335 5.39995C6.795 7.59995 6.33 10.195 6.84 12.5C6.88 12.675 6.98 12.825 7.13 12.93L14.63 18.19C14.76 18.28 14.915 18.32 15.075 18.3C17.425 18 19.725 16.68 21.275 14.47C24.025 10.54 23.365 5.31995 19.795 2.81495ZM5.5 12C5.5 10.895 4.605 9.99995 3.5 9.99995C2.395 9.99995 1.5 10.895 1.5 12C1.5 13.105 2.395 14 3.5 14C4.605 14 5.5 13.105 5.5 12Z" fill="#13334C"/>
</svg>
