<svg width="24" height="24" viewBox="0 0 24 24" fill="none" xmlns="http://www.w3.org/2000/svg">
<path fill-rule="evenodd" clip-rule="evenodd" d="M5.67503 4.35989C4.77003 3.72489 3.52503 3.94489 2.89003 4.84989C2.25503 5.75489 2.47503 6.99989 3.38003 7.63489C4.28503 8.26989 5.53003 8.04989 6.16503 7.14489C6.80003 6.23989 6.58003 4.99489 5.67503 4.35989ZM4.12003 5.71489C3.86003 6.08489 3.51003 6.35489 3.11503 6.50989C3.05503 6.34989 3.02503 6.17489 3.02503 6.00489C3.29003 5.87989 3.52503 5.68489 3.70503 5.42989C3.88503 5.17489 3.98503 4.88489 4.01503 4.59489C4.18003 4.52989 4.35003 4.49989 4.52503 4.49989C4.51003 4.91989 4.38003 5.34489 4.12003 5.71489ZM5.34503 6.57489C5.16503 6.82989 5.06503 7.11989 5.03503 7.41489C4.87503 7.47489 4.70003 7.50489 4.53003 7.50489C4.54503 7.08489 4.67503 6.65989 4.93503 6.28989C5.19503 5.91989 5.54503 5.64989 5.93503 5.49489C5.99503 5.65489 6.02503 5.82989 6.02503 5.99989C5.76503 6.12489 5.52503 6.31489 5.34503 6.57489ZM19.47 22.0699L18.5 7.99989C18.5 4.41989 15.59 1.51489 12 1.51489C9.88503 1.51489 8.00003 2.52489 6.81503 4.08989C7.24503 4.60989 7.50503 5.27489 7.50503 5.99989C7.50503 7.32989 6.64003 8.45489 5.44003 8.84989L4.53003 22.0699C4.51503 22.2999 4.69503 22.4999 4.93003 22.4999H19.075C19.305 22.4999 19.485 22.3049 19.47 22.0699ZM6.50003 19.4999C5.95003 19.4999 5.50003 19.0499 5.50003 18.4999C5.50003 17.9499 5.95003 17.4999 6.50003 17.4999C7.05003 17.4999 7.50003 17.9499 7.50003 18.4999C7.50003 19.0499 7.05003 19.4999 6.50003 19.4999ZM7.00003 12.9999C6.46503 12.9999 6.03003 12.5799 6.00003 12.0499C6.00003 12.0349 5.99503 12.0149 5.99503 11.9999C5.99503 11.4499 6.44503 10.9999 6.99503 10.9999C7.54503 10.9999 7.99503 11.4499 7.99503 11.9999C8.00003 12.5499 7.55503 12.9999 7.00003 12.9999ZM16 11.9999C16 11.4499 16.45 10.9999 17 10.9999C17.55 10.9999 18 11.4499 18 11.9999C18 12.5499 17.55 12.9999 17 12.9999C16.45 12.9999 16 12.5499 16 11.9999ZM17.5 19.4999C16.95 19.4999 16.5 19.0499 16.5 18.4999C16.5 17.9499 16.95 17.4999 17.5 17.4999C18.05 17.4999 18.5 17.9499 18.5 18.4999C18.5 19.0499 18.05 19.4999 17.5 19.4999Z" fill="#13334C"/>
</svg>
