<svg width="24" height="24" viewBox="0 0 24 24" fill="none" xmlns="http://www.w3.org/2000/svg">
<path fill-rule="evenodd" clip-rule="evenodd" d="M15.04 11.25H12.75V9.895C13.41 10.28 14.18 10.495 15 10.495H15.125C15.09 10.745 15.06 10.995 15.04 11.25ZM18 10.5H16.645C16.6 10.745 16.565 10.995 16.545 11.25H20.47C20.49 11.495 20.505 11.745 20.505 12C20.505 12.255 20.495 12.505 20.47 12.75H16.545C16.705 14.54 17.41 16.17 18.505 17.47C18.18 17.855 17.825 18.21 17.44 18.53C16.08 16.955 15.21 14.955 15.045 12.75H12.75V20.465C12.505 20.485 12.255 20.5 12 20.5C11.745 20.5 11.495 20.49 11.25 20.465V12.75H8.96C8.795 14.95 7.925 16.955 6.565 18.53C6.18 18.21 5.825 17.855 5.5 17.47C6.595 16.17 7.3 14.54 7.46 12.75H3.535C3.515 12.505 3.5 12.255 3.5 12C3.5 11.745 3.51 11.495 3.535 11.25H7.46C7.3 9.46 6.595 7.83 5.5 6.53C5.825 6.145 6.18 5.79 6.565 5.47C7.925 7.045 8.795 9.045 8.96 11.25H11.25V8.485C10.775 7.77 10.5 6.915 10.5 6C10.5 4.29 11.455 2.8 12.865 2.04C12.58 2.015 12.29 2 12 2C6.475 2 2 6.475 2 12C2 17.52 6.475 22 12 22C17.52 22 22 17.52 22 12C22 10.895 21.82 9.835 21.49 8.84C20.665 9.85 19.41 10.5 18 10.5ZM21.5 6C21.5 7.93 19.93 9.5 18 9.5H15C13.07 9.5 11.5 7.93 11.5 6C11.5 4.07 13.07 2.5 15 2.5H18C19.93 2.5 21.5 4.07 21.5 6ZM15.755 4.375H15.07V6.515C15.07 6.865 14.785 7.08 14.4 7.08C14.02 7.08 13.735 6.865 13.735 6.515V4.375H13.045V6.54C13.045 7.28 13.61 7.695 14.4 7.695C15.19 7.695 15.755 7.28 15.755 6.54V4.375ZM17.73 4.375H17.08L16.27 4.89V5.5L17.02 5.03H17.04V7.65H17.73V4.375ZM19.935 4.375H19.285L18.475 4.89V5.5L19.225 5.03H19.245V7.65H19.935V4.375Z" fill="#13334C"/>
</svg>
