<svg width="24" height="24" viewBox="0 0 24 24" fill="none" xmlns="http://www.w3.org/2000/svg">
<path fill-rule="evenodd" clip-rule="evenodd" d="M17.5 12.5001C14.74 12.5001 12.5 14.7401 12.5 17.5001C12.5 20.2601 14.74 22.5001 17.5 22.5001C20.26 22.5001 22.5 20.2601 22.5 17.5001C22.5 14.7401 20.26 12.5001 17.5 12.5001ZM18.94 15.5901C18.755 15.4851 18.565 15.3951 18.37 15.3201C18.365 15.3251 18.365 15.3251 18.365 15.3301C18.365 15.3351 18.36 15.3401 18.36 15.3451C18.165 15.7151 18.03 16.1101 17.95 16.5201C17.945 16.5401 17.945 16.5651 17.94 16.5801C17.925 16.6551 17.91 16.7351 17.895 16.8151C17.89 16.8651 17.885 16.9151 17.885 16.9601C17.885 16.9851 17.885 17.0051 17.88 17.0301C17.87 17.1201 17.87 17.2051 17.87 17.2901C17.915 17.3201 17.965 17.3501 18.01 17.3851C18.035 17.4051 18.06 17.4251 18.09 17.4451C18.11 17.4551 18.13 17.4701 18.145 17.4801C18.17 17.4901 18.19 17.5051 18.215 17.5251C18.225 17.5301 18.235 17.5401 18.245 17.5451C18.25 17.5501 18.26 17.5601 18.27 17.5701C18.395 17.6651 18.515 17.7701 18.635 17.8701C18.64 17.8751 18.645 17.8801 18.65 17.8801C18.665 17.8901 18.68 17.9051 18.695 17.9201C18.695 17.9251 18.7 17.9251 18.705 17.9301C18.71 17.9301 18.71 17.9351 18.715 17.9401C19.08 18.2901 19.405 18.6801 19.66 19.1201C19.66 19.1201 19.665 19.1251 19.665 19.1301C19.665 19.1351 19.665 19.1351 19.67 19.1401C19.735 19.2501 19.79 19.3701 19.845 19.4851C19.845 19.4901 19.85 19.4951 19.85 19.5051C19.85 19.5101 19.855 19.5151 19.855 19.5201C19.905 19.6201 19.945 19.7251 19.985 19.8301C19.99 19.8451 19.995 19.8551 20.005 19.8751C20.01 19.8951 20.02 19.9101 20.025 19.9251C20.03 19.9301 20.03 19.9301 20.03 19.9351C20.035 19.9401 20.035 19.9401 20.035 19.9451C20.04 19.9651 20.045 19.9751 20.05 19.9951C20.05 20.0051 20.055 20.0251 20.06 20.0401C20.085 20.1251 20.115 20.2101 20.14 20.2951C20.145 20.3051 20.145 20.3201 20.15 20.3351C20.155 20.3501 20.16 20.3651 20.16 20.3801C20.165 20.3951 20.165 20.4101 20.17 20.4251C20.18 20.4651 20.19 20.5051 20.195 20.5451C20.2 20.5701 20.2 20.5901 20.205 20.6101C20.21 20.6301 20.21 20.6501 20.215 20.6651C20.22 20.6851 20.225 20.7101 20.23 20.7301C20.03 20.9001 19.81 21.0551 19.58 21.1851C19.57 21.0901 19.555 20.9951 19.535 20.9001C19.525 20.8501 19.51 20.8001 19.505 20.7501C19.48 20.6451 19.455 20.5351 19.425 20.4301C19.415 20.3951 19.4 20.3601 19.39 20.3251C19.385 20.3051 19.375 20.2901 19.37 20.2701C19.365 20.2551 19.36 20.2401 19.355 20.2251C19.325 20.1401 19.295 20.0551 19.26 19.9751C19.1 20.0901 18.935 20.2051 18.755 20.3051C17.55 21.0001 16.15 21.1651 14.855 20.8251C14.435 20.4951 14.075 20.0801 13.805 19.6151C15.2 20.4751 16.96 20.5151 18.4 19.6851C18.585 19.5801 18.755 19.4601 18.92 19.3301L18.915 19.3251V19.3201C18.915 19.3201 18.91 19.3151 18.91 19.3101C18.685 18.9551 18.41 18.6451 18.1 18.3651C18.08 18.3451 18.055 18.3251 18.04 18.3101C17.985 18.2601 17.93 18.2101 17.87 18.1651C17.83 18.1351 17.785 18.1051 17.745 18.0751C17.725 18.0651 17.71 18.0501 17.69 18.0401C17.62 17.9901 17.545 17.9401 17.47 17.8951C17.42 17.9251 17.37 17.9451 17.315 17.9701C17.285 17.9801 17.255 17.9951 17.225 18.0101C17.205 18.0201 17.185 18.0301 17.17 18.0401C17.145 18.0501 17.12 18.0651 17.1 18.0751C17.09 18.0801 17.08 18.0801 17.065 18.0851C17.055 18.0901 17.045 18.0901 17.035 18.0951C16.89 18.1551 16.74 18.2101 16.59 18.2601C16.585 18.2651 16.57 18.2651 16.565 18.2701C16.555 18.2751 16.54 18.2801 16.52 18.2851C16.515 18.2901 16.51 18.2901 16.5 18.2901H16.495C16.49 18.2901 16.49 18.2901 16.49 18.2901C16.01 18.4401 15.505 18.5201 14.995 18.5201C14.99 18.5201 14.99 18.5201 14.985 18.5201C14.985 18.5201 14.98 18.5201 14.975 18.5201C14.84 18.5201 14.715 18.5101 14.585 18.5001C14.58 18.5001 14.575 18.5001 14.565 18.5001C14.56 18.4951 14.555 18.4951 14.545 18.4951C14.43 18.4851 14.32 18.4701 14.205 18.4501C14.195 18.4501 14.18 18.4501 14.16 18.4451C14.14 18.4451 14.12 18.4401 14.105 18.4401H14.1H14.095C14.09 18.4401 14.09 18.4401 14.085 18.4401C14.065 18.4351 14.045 18.4351 14.025 18.4301C14.015 18.4251 14 18.4251 13.985 18.4201C13.895 18.4051 13.81 18.3801 13.725 18.3601C13.715 18.3601 13.7 18.3551 13.69 18.3551C13.675 18.3501 13.66 18.3501 13.645 18.3451C13.64 18.3451 13.635 18.3451 13.625 18.3401C13.615 18.3401 13.605 18.3351 13.6 18.3351C13.56 18.3251 13.525 18.3151 13.49 18.3001C13.465 18.2951 13.445 18.2851 13.425 18.2751C13.41 18.2701 13.395 18.2651 13.375 18.2551C13.355 18.2501 13.33 18.2401 13.305 18.2351C13.26 17.9901 13.24 17.7351 13.24 17.4801C13.24 17.4701 13.24 17.4551 13.24 17.4401C13.33 17.4801 13.42 17.5101 13.51 17.5451C13.56 17.5601 13.61 17.5751 13.655 17.5901C13.76 17.6251 13.865 17.6601 13.975 17.6851C14.01 17.6901 14.045 17.7001 14.08 17.7051C14.1 17.7101 14.125 17.7101 14.14 17.7151C14.155 17.7201 14.18 17.7201 14.195 17.7251C14.275 17.7401 14.365 17.7551 14.445 17.7701C14.425 17.5701 14.405 17.3701 14.405 17.1701C14.405 15.7751 14.965 14.4801 15.91 13.5251C16.395 13.3301 16.925 13.2251 17.48 13.2251C16.035 14.0001 15.12 15.5101 15.12 17.1701C15.12 17.3851 15.14 17.5951 15.17 17.8001C15.17 17.8001 15.175 17.8001 15.18 17.8001C15.18 17.8001 15.185 17.8001 15.19 17.8001C15.605 17.7801 16.015 17.7001 16.41 17.5701C16.43 17.5651 16.455 17.5551 16.48 17.5451C16.555 17.5251 16.625 17.5001 16.7 17.4701C16.745 17.4501 16.79 17.4301 16.83 17.4101C16.85 17.4001 16.875 17.3901 16.895 17.3801C16.975 17.3401 17.05 17.3051 17.13 17.2601C17.13 17.2051 17.135 17.1501 17.14 17.0951C17.14 17.0601 17.145 17.0251 17.15 16.9951C17.155 16.9751 17.155 16.9501 17.155 16.9351C17.155 16.9101 17.155 16.8851 17.16 16.8551C17.16 16.8451 17.165 16.8301 17.165 16.8151C17.165 16.8001 17.165 16.7901 17.17 16.7851C17.19 16.6301 17.215 16.4751 17.25 16.3151C17.25 16.3101 17.25 16.2951 17.255 16.2901C17.26 16.2751 17.26 16.2601 17.265 16.2451C17.265 16.2401 17.265 16.2351 17.265 16.2351C17.27 16.2301 17.27 16.2251 17.27 16.2251C17.385 15.7301 17.56 15.2551 17.815 14.8151C17.815 14.8151 17.82 14.8151 17.82 14.8101V14.8051C17.825 14.8001 17.825 14.8001 17.83 14.7951C17.895 14.6851 17.97 14.5751 18.04 14.4751C18.045 14.4701 18.045 14.4651 18.05 14.4551C18.055 14.4551 18.055 14.4501 18.06 14.4451C18.125 14.3501 18.195 14.2651 18.265 14.1751C18.275 14.1651 18.285 14.1501 18.29 14.1401C18.3 14.1251 18.315 14.1101 18.325 14.0951C18.325 14.0901 18.33 14.0901 18.33 14.0851C18.33 14.0801 18.335 14.0801 18.335 14.0751C18.345 14.0601 18.36 14.0451 18.375 14.0351C18.385 14.0251 18.395 14.0151 18.405 14.0051C18.465 13.9351 18.525 13.8751 18.585 13.8051C18.59 13.7951 18.605 13.7901 18.61 13.7801C18.62 13.7701 18.63 13.7551 18.64 13.7451C18.65 13.7351 18.66 13.7251 18.67 13.7151C18.695 13.6901 18.725 13.6651 18.755 13.6401C18.775 13.6251 18.79 13.6051 18.81 13.5901C18.825 13.5801 18.84 13.5651 18.855 13.5501C18.87 13.5401 18.885 13.5201 18.9 13.5051C19.15 13.5951 19.395 13.7051 19.62 13.8451C19.545 13.9001 19.47 13.9651 19.39 14.0101C19.36 14.0351 19.325 14.0651 19.295 14.1001L19.28 14.1151C19.2 14.1901 19.12 14.2651 19.04 14.3451C19.015 14.3701 18.995 14.3951 18.97 14.4201C18.96 14.4351 18.94 14.4551 18.925 14.4701C18.91 14.4851 18.895 14.5001 18.885 14.5151C18.83 14.5801 18.775 14.6451 18.725 14.7101C18.91 14.7851 19.09 14.8751 19.265 14.9801C20.47 15.6751 21.315 16.8101 21.665 18.1001C21.59 18.6451 21.41 19.1551 21.145 19.6101C21.23 17.9651 20.38 16.4201 18.94 15.5901ZM12.715 13.5651C13.185 13.2601 13.595 12.8801 14.065 12.5801C14.46 12.3251 14.88 12.1101 15.32 11.9401C15.41 11.9051 16.33 11.6051 16.33 11.6101C16.33 11.5901 16.325 11.5701 16.325 11.5501C16.32 11.4901 16.32 11.4351 16.32 11.3751C16.32 11.3651 16.32 11.3551 16.32 11.3451C16.32 11.2851 16.32 11.2251 16.32 11.1651C16.32 2.63513 11.355 1.58513 9.89501 1.51513C9.67001 1.50513 9.52501 1.50513 9.50001 1.50513C9.47501 1.50513 9.33001 1.50513 9.10501 1.51513C7.64501 1.58513 2.68001 2.63013 2.68001 11.1651C2.68001 12.6601 2.29001 13.9151 1.63001 14.5901C1.35501 14.8751 1.55001 15.3501 1.95001 15.3601C3.00001 15.3751 4.39501 15.1351 5.52501 14.0051C5.69501 13.8351 5.86001 13.6901 6.02501 13.5551C6.19001 13.4251 6.42001 13.4251 6.58501 13.5501C7.41501 14.1951 8.42001 14.5701 9.50501 14.5701C10.64 14.5751 11.765 14.1851 12.715 13.5651ZM9.50001 13.4401C7.31001 13.4401 5.53001 11.4001 5.53001 8.89513C5.53001 7.66013 5.96001 6.54013 6.66001 5.72013C6.88501 5.46013 7.30001 5.53013 7.43001 5.85013C7.87001 6.94013 9.17501 8.61013 13.025 8.86013C13.28 8.87513 13.475 9.10013 13.45 9.35513C13.25 11.6401 11.555 13.4401 9.50001 13.4401Z" fill="#13334C"/>
</svg>
