<svg width="24" height="24" viewBox="0 0 24 24" fill="none" xmlns="http://www.w3.org/2000/svg">
<path d="M6.5167 11.0954C6.5861 11.4146 6.67985 11.7281 6.7972 12.033C6.9222 12.3574 7.07385 12.6711 7.2507 12.9705C7.44775 13.3039 7.6761 13.6178 7.9327 13.908C8.9557 15.063 10.3952 15.7824 11.9892 15.7824C13.1545 15.7796 14.2865 15.393 15.2102 14.6824C15.5153 14.4522 15.797 14.1925 16.0512 13.907C16.3097 13.6174 16.5399 13.3038 16.7387 12.9705C16.9165 12.6712 17.0691 12.3576 17.1947 12.033C17.3124 11.7281 17.4069 11.4146 17.4772 11.0954C17.5452 10.7866 17.5906 10.4734 17.6132 10.1579V10.1274C17.6232 9.9791 17.6282 9.8291 17.6282 9.67745C17.6282 9.52745 17.6227 9.37745 17.6132 9.22745V9.21795C17.5916 8.90265 17.5472 8.5893 17.4802 8.28045C17.4112 7.9613 17.318 7.6479 17.2012 7.34295C17.0773 7.0186 16.9268 6.705 16.7512 6.40545C16.5552 6.07225 16.3278 5.7585 16.0722 5.46845C15.0437 4.30945 13.5977 3.58545 11.9957 3.58545H11.9887C10.3887 3.58545 8.9457 4.30945 7.9232 5.47095C7.7201 5.7015 7.5349 5.9472 7.3692 6.20595C7.3267 6.27295 7.2847 6.33995 7.2447 6.40595C7.06895 6.7054 6.9184 7.019 6.7947 7.34345C6.67775 7.64835 6.58435 7.9618 6.5152 8.28095C6.44865 8.5899 6.4044 8.9032 6.3827 9.21845C6.3722 9.36845 6.3667 9.52245 6.3667 9.67695V9.68195C6.3667 9.84195 6.3722 9.99945 6.3837 10.1559C6.4054 10.4719 6.44985 10.7859 6.5167 11.0954ZM12.4567 4.54795C13.2782 4.63912 14.0578 4.9589 14.7067 5.47095H12.4567V4.54795ZM12.4567 6.40795H15.6222C15.8407 6.7002 16.0282 7.0144 16.1817 7.34545H12.4567V6.40795ZM12.4567 8.28295H16.5152C16.594 8.5904 16.6462 8.90405 16.6712 9.22045H12.4567V8.28295ZM12.4567 10.1579H16.6697C16.6433 10.4742 16.5899 10.7877 16.5102 11.0949H12.4567V10.1579ZM12.4567 12.0324H16.1717C16.0164 12.3637 15.827 12.6779 15.6067 12.9699H12.4567V12.0324ZM12.4567 13.9074H14.6787C14.035 14.4063 13.2661 14.7178 12.4567 14.8074V13.9074ZM11.5192 14.8074C10.7152 14.7149 9.95205 14.4036 9.3127 13.9074H11.5192V14.8074ZM11.5192 12.9699H8.3852C8.1647 12.678 7.97535 12.3638 7.8202 12.0324H11.5202L11.5192 12.9699ZM11.5192 11.0949H7.4817C7.4018 10.7877 7.34825 10.4742 7.3217 10.1579H11.5217L11.5192 11.0949ZM11.5192 4.54945V5.47045H9.2852C9.93 4.96213 10.7035 4.64324 11.5192 4.54945ZM8.3692 6.40795H11.5192V7.34545H7.8097C7.9632 7.0145 8.1505 6.7003 8.3687 6.40795H8.3692ZM7.4767 8.28295H11.5197V9.22045H7.3197C7.34515 8.90405 7.3975 8.59045 7.4762 8.28295H7.4767Z" fill="#13334C"/>
<path d="M2.30164 6.33498C2.21269 6.07598 2.15413 5.80748 2.12714 5.53498C2.25032 5.40153 2.31605 5.22498 2.31014 5.04348C2.30464 4.83698 2.34464 4.21398 2.59014 3.80348C2.76464 3.51098 2.70014 3.12548 2.44514 2.94248C2.19014 2.75948 1.84214 2.84848 1.66764 3.14248C1.16764 3.97798 1.18814 5.02548 1.19214 5.14248C1.19354 5.22983 1.21347 5.31583 1.25062 5.39488C1.28777 5.47393 1.3413 5.54418 1.40764 5.60098C1.43922 5.95513 1.51532 6.30388 1.63414 6.63898L1.63964 6.65198L7.72615 20.949C7.7482 21.0041 7.78385 21.0527 7.82975 21.0904C7.8756 21.1281 7.9303 21.1536 7.98865 21.1645C8.06215 21.1777 8.138 21.1667 8.20465 21.133C8.2929 21.0863 8.36055 21.0083 8.3942 20.9143C8.4279 20.8203 8.4252 20.7171 8.38665 20.625L2.30164 6.33498Z" fill="#13334C"/>
<path d="M22.9887 15.7025L17.6387 13.05C17.6149 13.0379 17.5889 13.0306 17.5622 13.0286C17.5355 13.0266 17.5088 13.0299 17.4834 13.0383C17.458 13.0468 17.4345 13.0601 17.4143 13.0776C17.3941 13.0952 17.3776 13.1165 17.3657 13.1405C17.0927 13.7275 16.7271 14.2667 16.2827 14.7375C16.0125 15.0249 15.7147 15.2851 15.3937 15.5145C14.4027 16.2301 13.2112 16.615 11.9887 16.6145H11.9787C10.7565 16.6147 9.56522 16.2299 8.57422 15.5145C7.72332 14.9067 7.04402 14.0892 6.60222 13.1415C6.59057 13.1174 6.57422 13.0958 6.55412 13.0781C6.53402 13.0605 6.51052 13.047 6.48512 13.0386C6.45972 13.0301 6.43287 13.0269 6.40617 13.029C6.37947 13.0311 6.35347 13.0386 6.32972 13.051L6.12622 13.151L8.10522 17.7645C8.61722 17.2645 8.86822 16.8195 8.89122 16.708C8.92772 16.532 8.98422 16.608 9.00422 16.685C9.02422 16.762 9.22272 17.981 9.04072 18.485C8.85872 18.989 9.09722 19.5095 9.51322 19.5095H14.4552C14.8717 19.5095 15.1102 18.9895 14.9282 18.485C14.7462 17.9805 14.9442 16.7605 14.9647 16.685C14.9852 16.6095 15.0412 16.532 15.0777 16.708C15.1142 16.884 15.7162 17.8855 17.0172 18.635C17.5062 18.895 18.0432 19.0521 18.5951 19.0967C19.1471 19.1414 19.7024 19.0725 20.2267 18.8945C20.4184 18.8296 20.5896 18.7154 20.7232 18.5635L23.0332 15.926C23.0483 15.9096 23.0593 15.89 23.0653 15.8686C23.0713 15.8472 23.0721 15.8247 23.0678 15.8029C23.0635 15.7811 23.054 15.7607 23.0403 15.7432C23.0266 15.7258 23.0089 15.7118 22.9887 15.7025Z" fill="#13334C"/>
<path d="M0.982117 15.7025C0.962182 15.7117 0.944677 15.7255 0.930987 15.7427C0.917292 15.7598 0.907787 15.78 0.903227 15.8015C0.898667 15.823 0.899177 15.8452 0.904712 15.8665C0.910242 15.8878 0.920657 15.9074 0.935117 15.924L3.24562 18.5615C3.37925 18.7134 3.55047 18.8276 3.74212 18.8925C4.46756 19.1374 5.24727 19.1732 5.99212 18.996L3.94762 14.231L0.982117 15.7025Z" fill="#13334C"/>
</svg>
