<svg width="24" height="24" viewBox="0 0 24 24" fill="none" xmlns="http://www.w3.org/2000/svg">
<path d="M12 2C6.475 2 2 6.475 2 12C2 17.525 6.475 22 12 22C17.525 22 22 17.525 22 12C22 6.475 17.525 2 12 2ZM5.99 5.99C7.535 4.445 9.575 3.565 11.75 3.505C10.73 3.535 9.75 3.745 8.85 4.105C6.96 6.01 5.845 8.605 5.845 11.39C5.845 11.795 5.875 12.195 5.92 12.59C5.75 12.57 5.58 12.535 5.415 12.505C5.375 12.495 5.34 12.49 5.3 12.48C5.26 12.47 5.215 12.465 5.175 12.455C5.105 12.445 5.035 12.43 4.97 12.415C4.755 12.365 4.545 12.3 4.33 12.23C4.235 12.2 4.135 12.17 4.04 12.135C3.86 12.07 3.68 12 3.5 11.925C3.52 9.685 4.4 7.58 5.99 5.99ZM11.865 3.5C11.84 3.5 11.81 3.5 11.785 3.5C11.81 3.5 11.84 3.5 11.865 3.5ZM18.01 18.01C16.405 19.615 14.27 20.5 12 20.5C9.73 20.5 7.595 19.615 5.99 18.01C4.61 16.63 3.765 14.865 3.555 12.955C3.575 13.14 3.605 13.325 3.635 13.51C3.68 13.525 3.725 13.54 3.77 13.555C3.805 13.565 3.84 13.575 3.87 13.59C3.915 13.605 3.955 13.62 4 13.635C4.075 13.66 4.15 13.685 4.225 13.705C4.245 13.71 4.26 13.715 4.28 13.72C4.29 13.725 4.305 13.725 4.315 13.73C4.345 13.74 4.38 13.745 4.41 13.75C4.43 13.755 4.455 13.76 4.475 13.765C4.65 13.81 4.825 13.85 5 13.885C5.025 13.89 5.05 13.895 5.075 13.905C5.115 13.915 5.155 13.925 5.195 13.93C5.205 13.93 5.21 13.935 5.22 13.935H5.23H5.24H5.245C5.285 13.94 5.325 13.945 5.36 13.95C5.39 13.955 5.42 13.955 5.445 13.96C5.67 13.995 5.89 14.025 6.12 14.045C6.13 14.045 6.145 14.045 6.155 14.05C6.165 14.05 6.18 14.055 6.19 14.055C6.445 14.075 6.7 14.09 6.965 14.095C6.97 14.095 6.98 14.095 6.985 14.095C6.995 14.095 7 14.095 7.01 14.095C8.025 14.095 9.03 13.925 9.995 13.63C10 13.63 10 13.63 10.005 13.63H10.015C10.025 13.63 10.04 13.625 10.05 13.62C10.08 13.61 10.11 13.6 10.135 13.59C10.15 13.585 10.17 13.575 10.185 13.57C10.485 13.47 10.785 13.365 11.075 13.24C11.095 13.23 11.115 13.225 11.135 13.215C11.16 13.205 11.185 13.2 11.205 13.19C11.25 13.17 11.3 13.145 11.345 13.12C11.385 13.1 11.42 13.08 11.46 13.06C11.52 13.03 11.58 13.005 11.64 12.98C11.745 12.935 11.85 12.89 11.945 12.835C12.095 12.925 12.245 13.02 12.385 13.12C12.42 13.145 12.455 13.165 12.49 13.19C12.575 13.245 12.66 13.305 12.74 13.365C12.855 13.455 12.965 13.55 13.075 13.65C13.115 13.685 13.16 13.725 13.2 13.76C13.825 14.315 14.375 14.94 14.825 15.645C14.83 15.655 14.835 15.66 14.84 15.665L14.845 15.675L14.85 15.68L14.855 15.685C14.53 15.94 14.19 16.185 13.82 16.395C10.945 18.055 7.415 17.98 4.63 16.255C5.175 17.19 5.89 18.01 6.73 18.675C9.32 19.355 12.125 19.025 14.535 17.635C14.89 17.43 15.22 17.205 15.54 16.97C15.61 17.135 15.665 17.305 15.725 17.475C15.735 17.505 15.745 17.535 15.755 17.565C15.765 17.6 15.78 17.635 15.795 17.67C15.82 17.74 15.845 17.81 15.865 17.88C15.93 18.095 15.98 18.31 16.025 18.525C16.045 18.625 16.07 18.72 16.09 18.82C16.125 19.01 16.155 19.2 16.175 19.39C16.64 19.125 17.075 18.82 17.48 18.48C17.47 18.435 17.46 18.395 17.45 18.35C17.44 18.315 17.435 18.275 17.425 18.24C17.415 18.195 17.41 18.155 17.4 18.11C17.385 18.03 17.37 17.95 17.35 17.875C17.34 17.845 17.335 17.815 17.325 17.785C17.32 17.755 17.31 17.73 17.3 17.7C17.29 17.675 17.285 17.65 17.275 17.625C17.225 17.45 17.17 17.28 17.115 17.11C17.105 17.08 17.095 17.05 17.09 17.025C17.08 16.99 17.07 16.96 17.06 16.925C17.055 16.915 17.055 16.91 17.05 16.9C17.045 16.89 17.045 16.885 17.04 16.875C17.025 16.84 17.01 16.805 16.995 16.77C16.985 16.74 16.97 16.715 16.96 16.685C16.88 16.475 16.795 16.265 16.695 16.06C16.69 16.05 16.685 16.04 16.68 16.03C16.675 16.015 16.67 16.005 16.665 15.99C16.555 15.76 16.445 15.53 16.315 15.305C16.31 15.3 16.31 15.295 16.305 15.285C16.3 15.275 16.295 15.265 16.29 15.26C15.78 14.38 15.135 13.6 14.4 12.905C14.395 12.9 14.385 12.89 14.38 12.885C14.375 12.88 14.365 12.87 14.36 12.865C14.335 12.84 14.305 12.815 14.275 12.79C14.265 12.78 14.255 12.775 14.245 12.765C14.01 12.555 13.77 12.35 13.515 12.16C13.495 12.145 13.48 12.13 13.465 12.115C13.445 12.1 13.425 12.085 13.405 12.07C13.36 12.04 13.315 12.01 13.27 11.985C13.235 11.965 13.195 11.94 13.16 11.915C13.105 11.875 13.05 11.84 12.995 11.8C12.905 11.735 12.815 11.67 12.72 11.61C12.725 11.435 12.73 11.26 12.745 11.085C12.75 11.035 12.75 10.99 12.755 10.94C12.76 10.845 12.77 10.745 12.78 10.65C12.8 10.49 12.835 10.335 12.865 10.18C12.875 10.14 12.88 10.095 12.89 10.055C13.055 9.24 13.325 8.45 13.71 7.71C13.715 7.7 13.72 7.69 13.725 7.68C13.73 7.675 13.73 7.665 13.735 7.66C14.12 7.815 14.5 7.99 14.87 8.2C17.745 9.86 19.445 12.955 19.345 16.23C19.875 15.315 20.235 14.295 20.39 13.21C19.685 10.625 17.995 8.355 15.585 6.965C15.235 6.76 14.87 6.585 14.505 6.43C14.61 6.295 14.72 6.165 14.83 6.035C14.855 6.005 14.88 5.975 14.91 5.945C14.94 5.91 14.97 5.875 14.995 5.845C15.04 5.795 15.085 5.74 15.13 5.69C15.285 5.53 15.445 5.38 15.61 5.23L15.64 5.2C15.705 5.14 15.77 5.08 15.835 5.025C15.98 4.9 16.13 4.78 16.285 4.665C15.83 4.395 15.35 4.17 14.845 3.99C14.815 4.02 14.78 4.05 14.75 4.075C14.72 4.1 14.69 4.13 14.66 4.155C14.625 4.185 14.59 4.22 14.555 4.25C14.495 4.3 14.44 4.35 14.385 4.405C14.365 4.425 14.34 4.45 14.32 4.47C14.295 4.49 14.275 4.515 14.255 4.54C14.24 4.56 14.22 4.575 14.205 4.595C14.08 4.725 13.96 4.855 13.84 4.99C13.82 5.01 13.8 5.035 13.78 5.055C13.755 5.08 13.73 5.105 13.705 5.135C13.7 5.14 13.695 5.145 13.69 5.155C13.685 5.16 13.68 5.17 13.675 5.175C13.65 5.205 13.625 5.235 13.605 5.265C13.585 5.29 13.57 5.315 13.55 5.335C13.41 5.51 13.27 5.69 13.14 5.875C13.135 5.885 13.125 5.895 13.12 5.9C13.11 5.91 13.105 5.92 13.095 5.935C12.95 6.145 12.81 6.36 12.675 6.58C12.67 6.59 12.665 6.595 12.66 6.605L12.655 6.61C12.655 6.615 12.65 6.615 12.65 6.62C12.14 7.5 11.79 8.45 11.56 9.435C11.56 9.445 11.555 9.45 11.555 9.46C11.55 9.47 11.55 9.475 11.55 9.485C11.545 9.515 11.535 9.55 11.53 9.58C11.525 9.595 11.525 9.615 11.52 9.63C11.455 9.94 11.4 10.25 11.36 10.565C11.355 10.585 11.355 10.605 11.35 10.63C11.345 10.655 11.34 10.68 11.34 10.705C11.335 10.76 11.335 10.81 11.33 10.865C11.33 10.905 11.33 10.95 11.325 10.99C11.32 11.06 11.31 11.125 11.305 11.195C11.295 11.305 11.28 11.415 11.28 11.525C11.125 11.61 10.97 11.69 10.815 11.765C10.77 11.785 10.725 11.81 10.68 11.83C10.595 11.87 10.505 11.915 10.42 11.95C10.275 12.01 10.13 12.06 9.98 12.105C9.935 12.12 9.89 12.135 9.845 12.15C9.055 12.415 8.235 12.575 7.405 12.61C7.395 12.61 7.385 12.61 7.38 12.61C7.37 12.61 7.36 12.61 7.355 12.61C7.295 12.2 7.255 11.785 7.255 11.355C7.255 8.035 9.085 5.015 11.975 3.465C11.98 3.465 11.98 3.465 11.985 3.465C14.255 3.465 16.39 4.35 17.995 5.955C19.6 7.56 20.5 9.73 20.5 12C20.5 14.27 19.615 16.405 18.01 18.01ZM3.5 12.2C3.5 12.23 3.5 12.26 3.505 12.285C3.505 12.26 3.505 12.23 3.5 12.2ZM3.51 12.4C3.51 12.44 3.515 12.48 3.515 12.515C3.515 12.475 3.51 12.44 3.51 12.4ZM3.52 12.595C3.525 12.64 3.525 12.69 3.53 12.735C3.53 12.685 3.525 12.64 3.52 12.595ZM3.535 12.78C3.54 12.835 3.545 12.89 3.55 12.95C3.545 12.89 3.54 12.835 3.535 12.78Z" fill="#13334C"/>
</svg>
