<svg width="24" height="24" viewBox="0 0 24 24" fill="none" xmlns="http://www.w3.org/2000/svg">
<path fill-rule="evenodd" clip-rule="evenodd" d="M21.49 8.835C21.82 9.83 22 10.895 22 12C22 17.52 17.52 22 12 22C6.475 22 2 17.52 2 12C2 6.475 6.475 2 12 2C13.105 2 14.165 2.18 15.16 2.51C14.295 3.215 13.7 4.235 13.54 5.39C13.41 5.55 13.285 5.715 13.165 5.885C13.16 5.895 13.15 5.905 13.145 5.91C13.135 5.92 13.13 5.93 13.12 5.945C12.975 6.155 12.835 6.37 12.7 6.59C12.695 6.6 12.69 6.605 12.685 6.615L12.68 6.62C12.68 6.625 12.675 6.625 12.675 6.63C12.165 7.51 11.815 8.46 11.585 9.445C11.585 9.455 11.58 9.46 11.575 9.47C11.57 9.48 11.57 9.49 11.57 9.495C11.565 9.525 11.555 9.56 11.55 9.59C11.545 9.605 11.545 9.625 11.54 9.64C11.475 9.95 11.42 10.26 11.38 10.575C11.375 10.595 11.375 10.615 11.37 10.64C11.365 10.665 11.36 10.69 11.36 10.715C11.355 10.77 11.355 10.82 11.35 10.875C11.35 10.915 11.35 10.96 11.345 11C11.34 11.07 11.33 11.135 11.325 11.205C11.315 11.315 11.3 11.425 11.3 11.535C11.145 11.62 10.99 11.7 10.835 11.775C10.79 11.795 10.745 11.82 10.7 11.84C10.615 11.88 10.525 11.925 10.44 11.96C10.295 12.02 10.15 12.07 10 12.115C9.955 12.13 9.91 12.145 9.865 12.16C9.075 12.425 8.255 12.585 7.425 12.62C7.415 12.62 7.405 12.62 7.4 12.62C7.39 12.62 7.38 12.62 7.375 12.62C7.315 12.21 7.275 11.795 7.275 11.365C7.275 8.045 9.105 5.025 11.995 3.475C10.885 3.475 9.825 3.69 8.855 4.08C6.965 5.985 5.85 8.58 5.85 11.365C5.85 11.77 5.88 12.17 5.925 12.565C5.755 12.545 5.585 12.51 5.42 12.48C5.38 12.47 5.345 12.465 5.305 12.455C5.265 12.445 5.22 12.44 5.18 12.43C5.11 12.42 5.04 12.405 4.975 12.39C4.76 12.34 4.55 12.275 4.335 12.205C4.24 12.175 4.14 12.145 4.045 12.11C3.865 12.045 3.685 11.975 3.505 11.9C3.505 11.925 3.505 11.95 3.505 11.975C3.505 12.49 3.55 12.995 3.64 13.485C3.685 13.5 3.73 13.515 3.775 13.53C3.81 13.54 3.845 13.55 3.875 13.565C3.92 13.58 3.96 13.595 4.005 13.61C4.08 13.635 4.155 13.66 4.23 13.68C4.25 13.685 4.265 13.69 4.285 13.695C4.295 13.7 4.31 13.7 4.32 13.705C4.35 13.715 4.385 13.72 4.415 13.725C4.435 13.73 4.46 13.735 4.48 13.74C4.655 13.785 4.83 13.825 5.005 13.86C5.03 13.865 5.055 13.87 5.08 13.88C5.12 13.89 5.16 13.9 5.2 13.905C5.21 13.905 5.215 13.91 5.225 13.91H5.235H5.245H5.25C5.29 13.915 5.33 13.92 5.365 13.925C5.395 13.93 5.425 13.93 5.45 13.935C5.675 13.97 5.895 14 6.125 14.02C6.135 14.02 6.15 14.02 6.16 14.025C6.17 14.025 6.185 14.03 6.195 14.03C6.45 14.05 6.705 14.065 6.97 14.07C6.975 14.07 6.985 14.07 6.99 14.07C7 14.07 7.005 14.07 7.015 14.07C8.03 14.07 9.035 13.9 10 13.605C10.005 13.605 10.005 13.605 10.01 13.605H10.02C10.03 13.605 10.045 13.6 10.055 13.595C10.085 13.585 10.115 13.575 10.14 13.565C10.155 13.56 10.175 13.555 10.19 13.545C10.49 13.445 10.79 13.34 11.08 13.215C11.1 13.205 11.12 13.2 11.14 13.19C11.165 13.18 11.19 13.175 11.21 13.165C11.255 13.145 11.305 13.12 11.35 13.095C11.39 13.075 11.425 13.055 11.465 13.035C11.525 13.005 11.585 12.98 11.645 12.955C11.75 12.91 11.855 12.865 11.95 12.81C12.1 12.9 12.25 12.995 12.39 13.095C12.425 13.12 12.46 13.14 12.495 13.165C12.58 13.22 12.665 13.28 12.745 13.34C12.86 13.43 12.97 13.525 13.08 13.625C13.12 13.66 13.165 13.7 13.205 13.735C13.83 14.29 14.38 14.915 14.83 15.62C14.835 15.625 14.84 15.635 14.845 15.64L14.85 15.65L14.855 15.655L14.86 15.66C14.535 15.915 14.195 16.16 13.825 16.37C10.95 18.03 7.42 17.955 4.635 16.23C5.18 17.165 5.895 17.985 6.735 18.65C9.325 19.33 12.13 19 14.54 17.61C14.895 17.405 15.225 17.18 15.545 16.945C15.615 17.11 15.67 17.28 15.73 17.45C15.74 17.48 15.75 17.51 15.76 17.54C15.77 17.575 15.785 17.61 15.8 17.645C15.825 17.715 15.85 17.785 15.87 17.855C15.935 18.07 15.985 18.285 16.03 18.5C16.05 18.6 16.075 18.695 16.095 18.795C16.13 18.985 16.16 19.175 16.18 19.365C16.645 19.1 17.08 18.795 17.485 18.455C17.475 18.41 17.465 18.37 17.455 18.325C17.445 18.29 17.44 18.25 17.43 18.215C17.42 18.17 17.415 18.13 17.405 18.085C17.39 18.005 17.375 17.925 17.355 17.85C17.345 17.82 17.34 17.79 17.33 17.76C17.325 17.73 17.315 17.705 17.305 17.675C17.295 17.65 17.29 17.625 17.28 17.6C17.23 17.425 17.175 17.255 17.12 17.085C17.11 17.055 17.1 17.025 17.095 17C17.085 16.965 17.075 16.935 17.065 16.9C17.06 16.89 17.06 16.885 17.055 16.875C17.05 16.865 17.05 16.86 17.045 16.85C17.03 16.815 17.015 16.78 17 16.745C16.99 16.715 16.975 16.69 16.965 16.66C16.885 16.45 16.8 16.24 16.7 16.035C16.695 16.025 16.69 16.015 16.685 16.005C16.68 15.99 16.675 15.98 16.67 15.965C16.56 15.735 16.45 15.505 16.32 15.28C16.315 15.275 16.315 15.27 16.31 15.26C16.305 15.25 16.3 15.24 16.295 15.235C15.785 14.355 15.14 13.575 14.405 12.88C14.4 12.875 14.39 12.865 14.385 12.86C14.38 12.855 14.37 12.845 14.365 12.84C14.34 12.815 14.31 12.79 14.28 12.765C14.27 12.755 14.26 12.75 14.25 12.74C14.015 12.53 13.775 12.325 13.52 12.135C13.5 12.12 13.485 12.105 13.47 12.09C13.45 12.075 13.43 12.06 13.41 12.045C13.365 12.015 13.32 11.985 13.275 11.96C13.24 11.94 13.2 11.915 13.165 11.89C13.11 11.85 13.055 11.815 13.005 11.775C12.915 11.71 12.825 11.645 12.73 11.585C12.735 11.41 12.74 11.235 12.755 11.06C12.76 11.01 12.76 10.965 12.765 10.915C12.77 10.82 12.78 10.72 12.79 10.625C12.81 10.465 12.845 10.31 12.875 10.155C12.885 10.115 12.89 10.07 12.9 10.03C13.065 9.215 13.335 8.425 13.72 7.685C13.725 7.675 13.73 7.665 13.735 7.655C13.74 7.65 13.74 7.64 13.745 7.635C13.77 7.645 13.795 7.655 13.82 7.665C14.425 9.175 15.825 10.285 17.5 10.47C18.745 12.09 19.42 14.11 19.355 16.205C19.885 15.29 20.245 14.27 20.4 13.185C20.125 12.18 19.705 11.225 19.15 10.35C20.08 10.1 20.895 9.565 21.49 8.835ZM18 4.635C17.63 4.635 17.375 4.92 17.375 5.315C17.375 5.715 17.635 5.995 18 5.995C18.37 5.995 18.635 5.715 18.635 5.315C18.63 4.92 18.37 4.635 18 4.635ZM21.5 6C21.5 7.935 19.935 9.5 18 9.5C16.065 9.5 14.5 7.935 14.5 6C14.5 4.065 16.065 2.5 18 2.5C19.935 2.5 21.5 4.065 21.5 6ZM19.46 5.33C19.46 4.47 18.79 3.975 17.995 3.975C17.16 3.975 16.56 4.525 16.56 5.345C16.56 6.115 17.085 6.65 17.825 6.65C17.935 6.65 18.04 6.63 18.14 6.605L17.17 8.03H18.02L18.945 6.66C19.29 6.145 19.455 5.75 19.46 5.33Z" fill="#13334C"/>
</svg>
