<svg width="24" height="24" viewBox="0 0 24 24" fill="none" xmlns="http://www.w3.org/2000/svg">
<path d="M21.015 19.4951C20.95 19.6801 20.925 19.8751 20.835 20.0501C20.59 20.5451 19.855 20.7651 19.38 20.4951C19.18 20.3801 19.025 20.2051 18.855 20.0551C18.65 19.8751 18.435 19.7051 18.215 19.5351C17.94 19.3201 17.675 19.1251 17.31 19.1401C16.71 19.1601 16.24 19.6251 15.645 19.6901C14.83 19.7801 14.805 18.7901 14.62 18.2351C14.475 17.8051 14.4 17.3151 14.785 16.9851C15.06 16.7501 15.455 16.7201 15.735 16.4901C15.975 16.2901 16.065 15.9651 16.305 15.7651C16.615 15.5101 17.08 15.4651 17.43 15.2601C17.65 15.1301 18.08 14.8251 18.29 15.1351C18.36 15.2351 18.33 15.3751 18.32 15.4951C18.28 15.8551 18.64 15.9551 18.895 16.1001C19.22 16.2851 19.28 15.6801 19.29 15.4751C19.295 15.3351 19.325 15.1101 19.495 15.0751C19.735 15.0301 19.88 15.5951 19.965 15.7451C20.155 16.1001 20.39 16.4401 20.66 16.7401C20.95 17.0651 21.29 17.3751 21.455 17.7851C21.575 18.0801 21.465 18.3701 21.355 18.6551C21.24 18.9401 21.115 19.2101 21.015 19.4951ZM20.13 21.9451C19.855 21.8851 19.625 21.5751 19.6 21.3051C19.57 20.9451 19.97 21.0551 20.19 21.0251C20.325 21.0051 20.455 20.9151 20.57 21.0301C20.66 21.1201 20.66 21.2901 20.64 21.4001C20.6 21.6501 20.43 22.0151 20.13 21.9451ZM13.435 16.0551L8.51996 12.6151C8.06996 12.3001 7.44496 12.4101 7.12496 12.8601C6.80996 13.3101 6.91996 13.9351 7.36996 14.2551L11.465 17.1251L8.59996 21.2151C8.28496 21.6701 8.39496 22.2901 8.84496 22.6101C9.01996 22.7301 9.21996 22.7901 9.41496 22.7901C9.72996 22.7901 10.04 22.6401 10.235 22.3651L13.675 17.4501C13.995 16.9951 13.885 16.3701 13.435 16.0551ZM8.67996 17.6101L5.23996 22.5251C5.04496 22.8051 4.73496 22.9501 4.41996 22.9501C4.21996 22.9501 4.01996 22.8901 3.84496 22.7701C3.39496 22.4551 3.28496 21.8301 3.59996 21.3751L7.03996 16.4601C7.35496 16.0101 7.97996 15.9001 8.43496 16.2151C8.88996 16.5351 8.99996 17.1601 8.67996 17.6101ZM21.135 6.80011L18.84 10.0751C18.645 10.3551 18.335 10.5001 18.02 10.5001C17.82 10.5001 17.62 10.4401 17.445 10.3201L15.805 9.17011L12.94 13.2651C12.79 13.4801 12.555 13.6301 12.295 13.6751C12.235 13.6851 12.18 13.6901 12.12 13.6901C11.915 13.6901 11.715 13.6301 11.545 13.5101L9.08496 11.7901C9.05496 11.7701 9.02996 11.7501 9.00496 11.7251C8.75996 11.5501 8.52496 11.3901 8.27496 11.3051C7.49996 11.0451 6.45996 11.7601 5.83496 12.1851C5.70496 12.2751 5.57496 12.3701 5.43496 12.4751C4.90996 12.8601 4.31996 13.2951 3.60996 13.4301C3.55496 13.4401 3.49996 13.4501 3.44496 13.4551C3.34996 13.4651 3.25496 13.4701 3.15996 13.4701C2.77496 13.4701 2.41496 13.3701 2.10996 13.1851C2.00996 13.1201 1.93496 13.0251 1.89496 12.9101L1.49496 11.6551C1.42996 11.4601 1.49496 11.2401 1.65996 11.1101C1.81996 10.9801 2.04496 10.9651 2.22496 11.0701C2.28496 11.1051 3.79496 11.9451 5.84496 10.9751C5.85496 10.9701 5.85996 10.9651 5.86996 10.9651C6.62996 10.4951 7.62996 10.0351 8.58996 10.3601C9.02496 10.5051 9.38496 10.7701 9.69996 11.0001L9.74996 11.0351C10.13 11.1851 10.54 11.2651 10.955 11.2651C11.535 11.2651 12.115 11.1151 12.635 10.8301C12.88 10.6951 13.04 10.4551 13.075 10.1801C13.225 8.90011 12.68 7.67511 11.655 6.98511C11.56 6.92011 11.46 6.86011 11.36 6.81011L11.71 6.31011L10.89 5.73511L9.87496 7.18011C10.35 7.18511 10.82 7.32511 11.235 7.60011C12.055 8.15011 12.44 9.12011 12.33 10.0851C12.325 10.1201 12.305 10.1501 12.275 10.1651C11.42 10.6351 10.38 10.6401 9.55996 10.0851C9.12996 9.79511 8.82496 9.39511 8.63996 8.94011L8.27996 9.45511C7.96496 9.90511 7.33996 10.0151 6.88496 9.70011C6.43496 9.38511 6.32496 8.76011 6.63996 8.30511L9.82496 3.75511C10.14 3.30511 10.765 3.19511 11.22 3.51011L13.66 5.22011C13.665 5.22511 13.675 5.22511 13.68 5.23011L16.135 6.95011C16.14 6.95511 16.145 6.96011 16.155 6.96511L17.775 8.10011L19.495 5.64511C19.81 5.19511 20.435 5.08511 20.89 5.40011C21.34 5.72011 21.45 6.34511 21.135 6.80011ZM14.58 2.21011C15.24 1.26511 16.42 1.05511 17.365 1.72011C18.31 2.38011 18.52 3.56011 17.855 4.50511C17.19 5.45011 16.025 5.66511 15.08 5.00011C14.135 4.33511 13.92 3.15511 14.58 2.21011Z" fill="#13334C"/>
</svg>
