<svg width="24" height="24" viewBox="0 0 24 24" fill="none" xmlns="http://www.w3.org/2000/svg">
<path fill-rule="evenodd" clip-rule="evenodd" d="M6.145 10.3599C5.24 9.72488 3.995 9.94488 3.36 10.8499C2.725 11.7549 2.945 12.9999 3.85 13.6349C4.755 14.2699 6 14.0499 6.635 13.1449C7.27 12.2399 7.05 10.9949 6.145 10.3599ZM4.59 11.7149C4.33 12.0849 3.98 12.3549 3.585 12.5099C3.525 12.3499 3.495 12.1749 3.495 12.0049C3.76 11.8799 3.995 11.6849 4.175 11.4299C4.355 11.1749 4.455 10.8849 4.485 10.5949C4.645 10.5349 4.82 10.5049 4.99 10.5049C4.98 10.9199 4.85 11.3449 4.59 11.7149ZM5.82 12.5749C5.64 12.8299 5.54 13.1199 5.51 13.4149C5.35 13.4749 5.175 13.5049 5.005 13.5049C5.02 13.0849 5.15 12.6599 5.41 12.2899C5.67 11.9199 6.02 11.6499 6.41 11.4949C6.47 11.6549 6.5 11.8299 6.5 11.9999C6.235 12.1249 6 12.3149 5.82 12.5749ZM22.36 6.52988C22.025 5.19488 21.09 3.97988 19.58 2.91988C18.07 1.85988 16.61 1.39988 15.24 1.53988C13.635 1.70988 12.18 2.70488 10.92 4.50488C9.645 6.32988 8.95 8.40488 8.97 10.3549C8.98 11.1999 9.12 11.9849 9.385 12.6749L8.435 17.8499C8.145 17.7799 7.83 17.8899 7.65 18.1499L5.64 21.0149C5.4 21.3549 5.485 21.8199 5.825 22.0599L6.235 22.3449C6.575 22.5849 7.04 22.4999 7.28 22.1599L9.29 19.2949C9.47 19.0349 9.465 18.7049 9.305 18.4549L13.9 15.8349C14.64 15.8449 15.425 15.7149 16.225 15.4299C18.065 14.7799 19.78 13.4199 21.055 11.5999C22.31 9.79988 22.75 8.09488 22.36 6.52988ZM13.975 12.6649C13.66 13.1149 13.035 13.2249 12.58 12.9099C12.13 12.5949 12.02 11.9699 12.335 11.5149C12.65 11.0599 13.275 10.9549 13.73 11.2699C14.18 11.5899 14.29 12.2149 13.975 12.6649ZM11.89 6.29988C12.205 5.84988 12.83 5.73988 13.285 6.05488C13.735 6.36988 13.845 6.99488 13.53 7.44988C13.215 7.90488 12.59 8.00988 12.135 7.69488C11.685 7.37488 11.575 6.75488 11.89 6.29988ZM10.285 9.46988C10.6 9.01988 11.225 8.90988 11.68 9.22488C12.13 9.53988 12.24 10.1649 11.925 10.6199C11.61 11.0699 10.985 11.1799 10.53 10.8649C10.075 10.5449 9.965 9.92488 10.285 9.46988ZM9.58 17.1449L10.15 14.0399C10.435 14.3949 10.765 14.7099 11.14 14.9749C11.51 15.2349 11.91 15.4349 12.335 15.5799L9.58 17.1449ZM14.32 3.70488C14.635 3.25488 15.26 3.14488 15.715 3.45988C16.165 3.77488 16.275 4.39988 15.96 4.85488C15.645 5.30488 15.02 5.41488 14.565 5.09988C14.11 4.78488 14 4.15988 14.32 3.70488ZM14.64 8.22488C14.955 7.77488 15.58 7.66488 16.035 7.97988C16.485 8.29488 16.595 8.91988 16.28 9.37488C15.965 9.82488 15.34 9.93488 14.885 9.61988C14.435 9.29988 14.325 8.67988 14.64 8.22488ZM16.6 13.8949C16.285 14.3449 15.66 14.4549 15.205 14.1399C14.755 13.8249 14.645 13.1999 14.96 12.7449C15.275 12.2949 15.9 12.1849 16.355 12.4999C16.81 12.8199 16.92 13.4399 16.6 13.8949ZM16.945 4.93488C17.26 4.48488 17.885 4.37488 18.34 4.68988C18.795 5.00488 18.9 5.62988 18.585 6.08488C18.27 6.53488 17.645 6.64488 17.19 6.32988C16.735 6.01488 16.63 5.38488 16.945 4.93488ZM19.03 11.2999C18.715 11.7499 18.09 11.8599 17.635 11.5449C17.185 11.2299 17.075 10.6049 17.39 10.1499C17.705 9.69988 18.33 9.58988 18.785 9.90488C19.235 10.2249 19.345 10.8449 19.03 11.2999ZM20.635 8.12988C20.32 8.57988 19.695 8.68988 19.24 8.37488C18.79 8.05988 18.68 7.43488 18.995 6.97988C19.31 6.52988 19.935 6.41988 20.39 6.73488C20.845 7.05488 20.955 7.67488 20.635 8.12988Z" fill="#13334C"/>
</svg>
