<svg width="24" height="24" viewBox="0 0 24 24" fill="none" xmlns="http://www.w3.org/2000/svg">
<path fill-rule="evenodd" clip-rule="evenodd" d="M5 14C3.895 14 3 13.105 3 12C3 10.895 3.895 9.99998 5 9.99998C6.105 9.99998 7 10.895 7 12C7 13.105 6.105 14 5 14ZM5.37 20.34L4.98 20.855C4.675 21.29 5.18 21.725 5.62 22.035C6.055 22.34 6.64 22.665 6.945 22.23L7.3 21.685L5.37 20.34ZM7.565 21.265L9.575 18.165L7.905 16.995L5.675 19.94L7.565 21.265ZM19.265 2.34998C17.14 0.929979 14.245 1.41998 12.7 3.44998C12.165 4.15998 11.85 4.95998 11.75 5.77998L10.89 10.69C10.565 12.56 9.83 14.33 8.74 15.885L8.2 16.595L9.84 17.745L10.335 16.98C11.415 15.44 12.825 14.155 14.455 13.21L18.785 10.71C19.465 10.36 20.075 9.84498 20.545 9.17498C22.105 6.94498 21.54 3.86498 19.265 2.34998Z" fill="#13334C"/>
</svg>
