<svg width="24" height="24" viewBox="0 0 24 24" fill="none" xmlns="http://www.w3.org/2000/svg">
<path d="M10.5001 19.5151L5.42007 15.9601C5.24007 15.8351 4.99007 15.8751 4.86507 16.0601L4.06007 17.2051C3.68007 17.7501 3.81007 18.4951 4.35507 18.8751L8.12507 21.5151C8.67007 21.8951 9.41507 21.7651 9.79507 21.2201L10.6001 20.0751C10.7251 19.8951 10.6801 19.6451 10.5001 19.5151Z" fill="#13334C"/>
<path d="M18.5801 7.48509L13.1451 3.67509C13.1351 3.67009 13.1301 3.66509 13.1201 3.66009C11.9001 2.81009 10.3501 2.74509 9.3051 3.48009L8.1301 4.30509C7.4401 4.79009 6.5251 4.95009 5.5951 4.75509C4.5351 4.53009 3.5251 4.88009 2.9951 5.65509C1.0951 8.42009 2.1901 12.4851 5.4451 14.7651L5.6551 14.9101L5.6601 14.9151L6.6501 13.8601C6.6901 13.8151 6.7251 13.7651 6.7401 13.7051C6.7551 13.6551 6.7551 13.6001 6.7451 13.5501L5.7701 8.02009C5.7351 7.82009 5.8651 7.63509 6.0651 7.60009L9.3801 7.01509C9.5801 6.98009 9.7651 7.11009 9.8001 7.31009L9.9951 8.42509C10.0451 8.70509 10.3851 8.82509 10.5951 8.63009L11.4201 7.88509C11.8351 7.51009 12.4551 7.47509 12.9101 7.79509L17.3651 10.9151C17.8801 11.2751 18.0301 11.9751 17.7051 12.5151L15.3101 16.5251C15.2601 16.6051 15.1851 16.6651 15.0951 16.6901L11.9551 17.5651C11.8501 17.5951 11.7651 17.6801 11.7301 17.7851L11.3851 18.9051C12.9701 19.8151 15.0801 20.2401 16.7301 19.9051C18.1301 19.6201 19.3651 18.8801 20.1851 17.7101L20.9801 16.5701C22.9051 13.8251 21.8301 9.76009 18.5801 7.48509Z" fill="#13334C"/>
<path d="M7.4251 14.9951C7.2751 14.8901 7.2551 14.6751 7.3801 14.5451C7.5401 14.3751 7.6501 14.1801 7.7051 13.9651C7.7551 13.7751 7.7651 13.5701 7.7301 13.3751L6.9351 8.86509C6.8951 8.64509 7.0401 8.44009 7.2601 8.40009L8.5351 8.17509C8.7551 8.13509 8.9601 8.28009 9.0001 8.50009L9.0151 8.59509C9.1301 9.25009 9.6951 9.72509 10.3601 9.72509C10.6951 9.72509 11.0201 9.60009 11.2701 9.37509L12.0951 8.63009C12.1401 8.59009 12.1951 8.58009 12.2301 8.58009C12.2601 8.58009 12.3001 8.58509 12.3451 8.61509L16.8001 11.7351C16.8851 11.7951 16.9101 11.9101 16.8551 12.0001L14.6701 15.6501C14.6151 15.7401 14.5351 15.8051 14.4351 15.8301L11.6901 16.5901C11.4151 16.6651 11.1801 16.8251 11.0101 17.0401C10.8751 17.2051 10.6401 17.2451 10.4651 17.1201L7.4251 14.9951Z" fill="#13334C"/>
</svg>
