<svg width="24" height="24" viewBox="0 0 24 24" fill="none" xmlns="http://www.w3.org/2000/svg">
<path d="M14.73 20.9999C14.01 20.9999 13.4 20.4599 13.315 19.7449L12.845 15.8549C12.82 15.6549 12.65 15.5049 12.45 15.5049H11.555C11.355 15.5049 11.18 15.6549 11.16 15.8549L10.69 19.7449C10.605 20.4599 9.99496 20.9999 9.27496 20.9999C8.88996 20.9999 8.54996 21.2849 8.50996 21.6649C8.45996 22.1149 8.81496 22.4999 9.25496 22.4999H14.755C15.195 22.4999 15.55 22.1199 15.5 21.6649C15.455 21.2849 15.115 20.9999 14.73 20.9999Z" fill="#13334C"/>
<path d="M9.50001 10.77V6.935C9.50001 6.855 9.47501 6.77501 9.43001 6.70501L7.50001 3.95C7.02501 3.27 6.09001 3.105 5.41001 3.58L4.51001 4.21C4.33001 4.335 4.28501 4.58501 4.41001 4.76501L8.77001 11C8.99501 11.32 9.50001 11.16 9.50001 10.77Z" fill="#13334C"/>
<path d="M19.49 4.21489L18.59 3.58489C17.91 3.10989 16.975 3.27489 16.5 3.95489L14.575 6.70989C14.53 6.77489 14.505 6.85489 14.505 6.93989V10.7749C14.505 11.1649 15.01 11.3249 15.235 11.0049L19.595 4.77989C19.715 4.58989 19.67 4.33989 19.49 4.21489Z" fill="#13334C"/>
<path d="M10.5002 13.0549C10.5002 13.0699 10.5002 13.0849 10.5002 13.0999C10.5002 13.1099 10.5002 13.1199 10.5002 13.1249C10.5002 13.1449 10.5052 13.1599 10.5052 13.1799C10.5052 13.1849 10.5052 13.1899 10.5052 13.1949C10.5102 13.2149 10.5102 13.2349 10.5152 13.2549V13.2599C10.5352 13.3799 10.5702 13.4949 10.6202 13.5999V13.6049C10.6302 13.6249 10.6402 13.6449 10.6452 13.6649C10.6452 13.6699 10.6502 13.6749 10.6552 13.6799C10.6652 13.6949 10.6702 13.7099 10.6802 13.7249C10.6852 13.7349 10.6902 13.7399 10.6952 13.7499C10.7002 13.7599 10.7102 13.7749 10.7152 13.7849C10.7202 13.7949 10.7302 13.8049 10.7352 13.8149C10.7402 13.8249 10.7452 13.8349 10.7552 13.8399C10.7552 13.8399 10.7552 13.8449 10.7602 13.8449L10.7652 13.8549C10.7652 13.8599 10.7702 13.8599 10.7702 13.8649C10.7752 13.8699 10.7752 13.8749 10.7802 13.8799C10.7852 13.8849 10.7902 13.8949 10.7952 13.8999L10.8002 13.9049C10.8052 13.9149 10.8152 13.9249 10.8202 13.9299C10.8202 13.9299 10.8202 13.9349 10.8252 13.9349C10.8302 13.9399 10.8352 13.9499 10.8402 13.9549C10.8452 13.9599 10.8502 13.9649 10.8552 13.9749C10.8602 13.9799 10.8652 13.9899 10.8702 13.9949C10.8752 13.9999 10.8802 14.0049 10.8852 14.0149C10.8902 14.0199 10.8952 14.0249 10.9002 14.0299C10.9052 14.0399 10.9152 14.0449 10.9202 14.0499C10.9252 14.0549 10.9302 14.0599 10.9352 14.0649C10.9352 14.0649 10.9402 14.0649 10.9402 14.0699C10.9452 14.0749 10.9452 14.0749 10.9502 14.0799C10.9602 14.0899 10.9652 14.0949 10.9752 14.1049C10.9802 14.1099 10.9802 14.1099 10.9852 14.1149C10.9952 14.1249 11.0052 14.1299 11.0152 14.1399C11.0202 14.1449 11.0252 14.1499 11.0302 14.1549C11.0352 14.1549 11.0352 14.1599 11.0402 14.1599C11.0452 14.1649 11.0552 14.1699 11.0602 14.1749C11.0652 14.1799 11.0702 14.1799 11.0752 14.1849C11.0802 14.1899 11.0852 14.1949 11.0902 14.1999C11.0952 14.1999 11.0952 14.2049 11.1002 14.2049C11.1102 14.2099 11.1202 14.2199 11.1252 14.2249C11.1252 14.2249 11.1302 14.2249 11.1302 14.2299C11.1352 14.2349 11.1402 14.2349 11.1452 14.2399C11.1502 14.2449 11.1552 14.2449 11.1602 14.2499C11.1702 14.2549 11.1802 14.2649 11.1902 14.2699C11.1952 14.2699 11.1952 14.2749 11.2002 14.2749C11.2102 14.2799 11.2152 14.2849 11.2252 14.2899C11.2352 14.2949 11.2502 14.3049 11.2602 14.3099C11.2702 14.3149 11.2852 14.3249 11.2952 14.3299C11.3052 14.3349 11.3102 14.3399 11.3202 14.3449C11.3352 14.3549 11.3502 14.3599 11.3652 14.3649C11.3702 14.3649 11.3752 14.3699 11.3802 14.3699C11.3902 14.3749 11.4052 14.3799 11.4152 14.3849C11.4202 14.3899 11.4302 14.3899 11.4352 14.3949H11.4402C11.4452 14.3949 11.4452 14.3949 11.4502 14.3999C11.4502 14.3999 11.4502 14.3999 11.4552 14.3999C11.4752 14.4049 11.4902 14.4149 11.5102 14.4199H11.5152C11.5202 14.4199 11.5202 14.4199 11.5252 14.4249C11.5402 14.4299 11.5602 14.4349 11.5752 14.4399C11.5802 14.4399 11.5852 14.4449 11.5902 14.4449C11.6052 14.4499 11.6202 14.4549 11.6402 14.4549C11.6402 14.4549 11.6402 14.4549 11.6452 14.4549C11.6502 14.4549 11.6602 14.4599 11.6652 14.4599C11.6802 14.4649 11.6902 14.4649 11.7052 14.4699H11.7102C11.7202 14.4699 11.7252 14.4749 11.7352 14.4749C11.7452 14.4749 11.7602 14.4799 11.7702 14.4799H11.7752C11.7802 14.4799 11.7802 14.4799 11.7852 14.4799C11.7952 14.4799 11.8002 14.4799 11.8102 14.4849C11.8202 14.4849 11.8302 14.4849 11.8402 14.4899C11.8452 14.4899 11.8502 14.4899 11.8552 14.4899C11.8652 14.4899 11.8702 14.4899 11.8802 14.4899C11.8902 14.4899 11.9002 14.4899 11.9052 14.4899C11.9102 14.4899 11.9202 14.4899 11.9252 14.4899C11.9352 14.4899 11.9402 14.4899 11.9502 14.4899C11.9552 14.4899 11.9602 14.4899 11.9602 14.4899H11.9702C11.9802 14.4899 11.9852 14.4899 11.9952 14.4899C12.0002 14.4899 12.0102 14.4899 12.0152 14.4899C12.0252 14.4899 12.0352 14.4899 12.0402 14.4899C12.0502 14.4899 12.0552 14.4899 12.0652 14.4899C12.0702 14.4899 12.0752 14.4899 12.0802 14.4899C12.0902 14.4899 12.1002 14.4899 12.1102 14.4849C12.1202 14.4849 12.1252 14.4849 12.1352 14.4799C12.1402 14.4799 12.1402 14.4799 12.1452 14.4799H12.1502C12.1602 14.4799 12.1752 14.4749 12.1852 14.4749C12.1952 14.4749 12.2002 14.4699 12.2102 14.4699H12.2152C12.2302 14.4699 12.2402 14.4649 12.2552 14.4599C12.2602 14.4599 12.2702 14.4549 12.2752 14.4549C12.2752 14.4549 12.2752 14.4549 12.2802 14.4549C12.2952 14.4499 12.3102 14.4499 12.3302 14.4449C12.3352 14.4449 12.3402 14.4399 12.3452 14.4399C12.3652 14.4349 12.3802 14.4299 12.4002 14.4249C12.4052 14.4249 12.4052 14.4249 12.4102 14.4199H12.4152C12.4352 14.4149 12.4502 14.4099 12.4702 14.3999C12.4702 14.3999 12.4702 14.3999 12.4752 14.3999C12.4802 14.3999 12.4802 14.3999 12.4852 14.3949H12.4902C12.4952 14.3899 12.5052 14.3899 12.5102 14.3849C12.5202 14.3799 12.5352 14.3749 12.5452 14.3699C12.5502 14.3699 12.5552 14.3649 12.5602 14.3649C12.5752 14.3599 12.5902 14.3499 12.6052 14.3449C12.6152 14.3399 12.6202 14.3349 12.6302 14.3299C12.6402 14.3249 12.6552 14.3199 12.6652 14.3099C12.6752 14.3049 12.6902 14.2949 12.7002 14.2899C12.7102 14.2849 12.7152 14.2799 12.7252 14.2749C12.7302 14.2749 12.7302 14.2699 12.7352 14.2699C12.7452 14.2649 12.7552 14.2549 12.7652 14.2499C12.7702 14.2449 12.7752 14.2449 12.7802 14.2399C12.7852 14.2349 12.7902 14.2349 12.7952 14.2299C12.7952 14.2299 12.8002 14.2299 12.8002 14.2249C12.8102 14.2199 12.8202 14.2099 12.8252 14.2049C12.8302 14.2049 12.8302 14.1999 12.8352 14.1999C12.8402 14.1949 12.8452 14.1899 12.8502 14.1849C12.8552 14.1799 12.8602 14.1799 12.8652 14.1749C12.8702 14.1699 12.8802 14.1649 12.8852 14.1599L12.8902 14.1549C12.8952 14.1499 12.9002 14.1449 12.9052 14.1399C12.9102 14.1349 12.9202 14.1299 12.9252 14.1199C12.9302 14.1149 12.9302 14.1149 12.9352 14.1099C12.9402 14.1049 12.9402 14.1049 12.9452 14.0999C12.9552 14.0899 12.9652 14.0849 12.9702 14.0749C12.9752 14.0699 12.9752 14.0699 12.9802 14.0649C12.9802 14.0649 12.9852 14.0649 12.9852 14.0599C12.9902 14.0549 12.9952 14.0499 13.0002 14.0449C13.0052 14.0399 13.0152 14.0299 13.0202 14.0249C13.0252 14.0199 13.0302 14.0149 13.0352 14.0099C13.0402 14.0049 13.0452 13.9999 13.0502 13.9899C13.0552 13.9849 13.0602 13.9749 13.0652 13.9699C13.0702 13.9649 13.0752 13.9599 13.0802 13.9499C13.0852 13.9449 13.0902 13.9349 13.0952 13.9299C13.0952 13.9299 13.0952 13.9249 13.1002 13.9249C13.1052 13.9149 13.1152 13.9049 13.1202 13.8999L13.1252 13.8949C13.1302 13.8899 13.1352 13.8799 13.1402 13.8749C13.1452 13.8699 13.1452 13.8649 13.1502 13.8599C13.1502 13.8549 13.1552 13.8549 13.1552 13.8499L13.1602 13.8399L13.1652 13.8349C13.1702 13.8249 13.1752 13.8149 13.1852 13.8099C13.1902 13.7999 13.2002 13.7899 13.2052 13.7799C13.2102 13.7699 13.2202 13.7549 13.2252 13.7449C13.2302 13.7349 13.2352 13.7299 13.2402 13.7199C13.2502 13.7049 13.2552 13.6899 13.2652 13.6749C13.2702 13.6699 13.2702 13.6649 13.2752 13.6599C13.2852 13.6399 13.2952 13.6199 13.3002 13.5999V13.5949C13.3452 13.4899 13.3802 13.3749 13.4052 13.2549V13.2499C13.4102 13.2299 13.4102 13.2099 13.4152 13.1899C13.4152 13.1849 13.4152 13.1799 13.4152 13.1749C13.4152 13.1599 13.4202 13.1399 13.4202 13.1199C13.4202 13.1099 13.4202 13.0999 13.4202 13.0949C13.4202 13.0799 13.4202 13.0649 13.4202 13.0499C13.4202 13.0399 13.4202 13.0249 13.4202 13.0149C13.4202 13.0099 13.4202 12.9999 13.4202 12.9949V8.23995V3.03995C13.4202 2.22495 12.7802 1.52995 11.9602 1.50995C11.1102 1.48495 10.4202 2.16495 10.4202 3.00995V8.23995V12.9949C10.4202 13.0049 10.4202 13.0099 10.4202 13.0149C10.5002 13.0299 10.5002 13.0399 10.5002 13.0549Z" fill="#13334C"/>
<path d="M21.335 17.6749L18.24 15.4049C18.1 15.2999 17.905 15.2999 17.765 15.4049L14.67 17.6749C14.45 17.8349 14.45 18.1649 14.67 18.3249L15.74 19.1099L17.77 20.5999C17.91 20.7049 18.105 20.7049 18.245 20.5999L20.115 19.2249L20.53 18.9199L21.34 18.3249C21.555 18.1649 21.555 17.8349 21.335 17.6749ZM18 19.4999C17.175 19.4999 16.505 18.8299 16.5 18.0049C16.58 17.9999 16.665 17.9999 16.745 17.9999C17.685 17.9999 18.575 18.2349 19.355 18.6449C19.115 19.1499 18.6 19.4999 18 19.4999ZM19.5 18.0449C18.67 17.6349 17.735 17.3999 16.745 17.3999C16.705 17.3999 16.665 17.3999 16.625 17.3999C16.855 16.8699 17.385 16.4999 18 16.4999C18.845 16.4999 19.525 17.1949 19.5 18.0449Z" fill="#13334C"/>
</svg>
