<svg width="24" height="24" viewBox="0 0 24 24" fill="none" xmlns="http://www.w3.org/2000/svg">
<path d="M22.3601 6.52988C22.0251 5.19488 21.0901 3.97988 19.5801 2.91988C18.0701 1.85988 16.6101 1.39988 15.2401 1.53988C13.6351 1.70988 12.1801 2.70488 10.9201 4.50488C9.64509 6.32988 8.95009 8.40488 8.97009 10.3549C8.98009 11.1999 9.12009 11.9849 9.38509 12.6749L8.43509 17.8499C8.14509 17.7799 7.83009 17.8899 7.65009 18.1499L5.64009 21.0149C5.40009 21.3549 5.48509 21.8199 5.82509 22.0599L6.23509 22.3449C6.57509 22.5849 7.04009 22.4999 7.28009 22.1599L9.29009 19.2949C9.47009 19.0349 9.46509 18.7049 9.30509 18.4549L13.9001 15.8349C14.6401 15.8449 15.4251 15.7149 16.2251 15.4299C18.0651 14.7799 19.7801 13.4199 21.0551 11.5999C22.3101 9.79988 22.7501 8.09488 22.3601 6.52988ZM9.58009 17.1449L10.1501 14.0399C10.4351 14.3949 10.7651 14.7099 11.1401 14.9749C11.5101 15.2349 11.9101 15.4349 12.3351 15.5799L9.58009 17.1449Z" fill="#13334C"/>
<path d="M5.00001 10.99C5.20501 10.99 5.40501 11.055 5.57001 11.17C5.79001 11.325 5.93501 11.55 5.98001 11.815C6.02501 12.08 5.97001 12.345 5.81501 12.56C5.63001 12.825 5.32001 12.985 4.99501 12.985C4.79001 12.985 4.59001 12.92 4.42501 12.805C4.20501 12.65 4.06001 12.425 4.015 12.16C3.97 11.895 4.025 11.63 4.18001 11.415C4.37001 11.15 4.67501 10.99 5.00001 10.99ZM5.00001 9.98999C4.37001 9.98999 3.75 10.285 3.36 10.845C2.725 11.75 2.945 12.995 3.85 13.63C4.20001 13.875 4.60001 13.99 4.99501 13.99C5.62501 13.99 6.24501 13.695 6.63501 13.135C7.27001 12.23 7.05001 10.985 6.14501 10.35C5.80001 10.105 5.40001 9.98999 5.00001 9.98999Z" fill="#13334C"/>
</svg>
