<svg width="24" height="24" viewBox="0 0 24 24" fill="none" xmlns="http://www.w3.org/2000/svg">
<path d="M6.98365 12.2541C7.12371 11.1585 6.34907 10.1568 5.25345 10.0167C4.15783 9.87667 3.15611 10.6513 3.01605 11.7469C2.87599 12.8425 3.65063 13.8443 4.74625 13.9843C5.84187 14.1244 6.84359 13.3497 6.98365 12.2541Z" fill="#13334C"/>
<path d="M22.3601 6.51499C22.0251 5.17999 21.0901 3.96499 19.5801 2.90499C18.0701 1.84499 16.6101 1.38499 15.2401 1.52499C13.6351 1.69499 12.1801 2.68999 10.9201 4.48999C9.64509 6.31499 8.95009 8.38999 8.97009 10.34C8.98009 11.185 9.12009 11.97 9.38509 12.66L8.43509 17.835C8.14509 17.765 7.83009 17.875 7.65009 18.135L5.64009 21C5.40009 21.34 5.48509 21.805 5.82509 22.045L6.23509 22.33C6.57509 22.57 7.04009 22.485 7.28009 22.145L9.29009 19.28C9.47009 19.02 9.46509 18.69 9.30509 18.44L13.9001 15.82C14.6401 15.83 15.4251 15.7 16.2251 15.415C18.0651 14.765 19.7801 13.405 21.0551 11.585C22.3101 9.78999 22.7501 8.08499 22.3601 6.51499ZM13.9751 12.655C13.6601 13.105 13.0351 13.215 12.5801 12.9C12.1301 12.585 12.0201 11.96 12.3351 11.505C12.6501 11.05 13.2751 10.945 13.7301 11.26C14.1801 11.58 14.2901 12.2 13.9751 12.655ZM11.8901 6.28999C12.2051 5.83999 12.8301 5.72999 13.2851 6.04499C13.7351 6.35999 13.8451 6.98499 13.5301 7.43999C13.2151 7.89499 12.5901 7.99999 12.1351 7.68499C11.6851 7.36499 11.5751 6.73999 11.8901 6.28999ZM10.2851 9.45999C10.6001 9.00999 11.2251 8.89999 11.6801 9.21499C12.1301 9.52999 12.2401 10.155 11.9251 10.61C11.6101 11.06 10.9851 11.17 10.5301 10.855C10.0751 10.535 9.96509 9.90999 10.2851 9.45999ZM9.58009 17.135L10.1501 14.03C10.4351 14.385 10.7651 14.7 11.1401 14.965C11.5101 15.225 11.9101 15.425 12.3351 15.57L9.58009 17.135ZM14.3201 3.69499C14.6351 3.24499 15.2601 3.13499 15.7151 3.44999C16.1651 3.76499 16.2751 4.38999 15.9601 4.84499C15.6451 5.29499 15.0201 5.40499 14.5651 5.08999C14.1101 4.77499 14.0001 4.14499 14.3201 3.69499ZM14.6401 8.21499C14.9551 7.76499 15.5801 7.65499 16.0351 7.96999C16.4851 8.28499 16.5951 8.90999 16.2801 9.36499C15.9651 9.81499 15.3401 9.92499 14.8851 9.60999C14.4351 9.28999 14.3251 8.66499 14.6401 8.21499ZM16.6001 13.885C16.2851 14.335 15.6601 14.445 15.2051 14.13C14.7551 13.815 14.6451 13.19 14.9601 12.735C15.2751 12.285 15.9001 12.175 16.3551 12.49C16.8101 12.805 16.9201 13.43 16.6001 13.885ZM16.9451 4.92499C17.2601 4.47499 17.8851 4.36499 18.3401 4.67999C18.7951 4.99499 18.9001 5.61999 18.5851 6.07499C18.2701 6.52499 17.6451 6.63499 17.1901 6.31999C16.7351 6.00499 16.6301 5.37499 16.9451 4.92499ZM19.0301 11.285C18.7151 11.735 18.0901 11.845 17.6351 11.53C17.1851 11.215 17.0751 10.59 17.3901 10.135C17.7051 9.68499 18.3301 9.57499 18.7851 9.88999C19.2351 10.21 19.3451 10.835 19.0301 11.285ZM20.6351 8.11999C20.3201 8.56999 19.6951 8.67999 19.2401 8.36499C18.7901 8.04999 18.6801 7.42499 18.9951 6.96999C19.3101 6.51999 19.9351 6.40999 20.3901 6.72499C20.8451 7.03999 20.9551 7.66499 20.6351 8.11999Z" fill="#13334C"/>
</svg>
