<svg width="24" height="24" viewBox="0 0 24 24" fill="none" xmlns="http://www.w3.org/2000/svg">
<path d="M5.91998 12.2949C4.80498 12.4849 3.08998 12.7649 2.05498 12.9799C1.95498 12.9999 1.85997 13.0199 1.77497 13.0399C1.57997 13.0849 1.44497 13.2699 1.46497 13.4699C1.65997 15.5349 2.61498 19.5449 7.01998 20.2399C7.47498 20.2949 7.93498 20.3299 8.38998 20.3449C9.46999 20.3749 10.535 20.2949 11.495 20.1499C12.365 20.0199 13.415 19.8899 13.43 18.7799C13.435 18.3899 13.445 17.9599 13.455 17.5649L5.91998 12.2949Z" fill="#13334C"/>
<path d="M23.1149 8.65504L17.0749 4.42503C16.7499 4.19503 16.3599 4.07503 15.9599 4.07503C15.9099 4.07503 15.8599 4.05503 15.8299 4.01503L14.7699 2.60003C14.6099 2.43503 14.3249 2.55003 14.3249 2.78003V3.74003C14.3249 3.93503 14.1849 4.10003 13.9899 4.12503L9.6949 4.74003C9.4899 4.77003 9.4649 5.05003 9.6599 5.11503L11.1649 5.79004C11.3349 5.86504 11.3099 6.11004 11.1299 6.15504L10.3549 6.34504C10.1599 6.38504 10.1399 6.65504 10.3299 6.72004L10.7349 7.07004C10.8099 7.13504 10.8249 7.24504 10.7649 7.32504C10.4199 7.81504 9.2549 9.48504 8.2749 10.885L13.9299 14.84C14.2749 13.44 14.6799 11.73 14.9099 10.735C14.2799 10.295 13.6549 9.67504 13.2199 8.79504C13.1249 8.60504 13.2049 8.37004 13.3949 8.27504C13.5849 8.18004 13.8199 8.26004 13.9149 8.45004C14.2299 9.08504 14.6699 9.56504 15.1349 9.92504C16.0549 10.535 18.1049 10.215 18.9799 10.045C19.2599 9.99004 19.5449 10.015 19.8149 10.11C20.7099 10.44 21.8099 10.805 22.5799 10.205C22.8799 9.97004 23.5899 8.98504 23.1149 8.65504Z" fill="#13334C"/>
<path d="M2.26499 8.21006C2.10499 8.43506 2.15999 8.74506 2.38499 8.90506L17.6 19.5451L16.965 20.4451C16.835 20.6251 16.88 20.8751 17.06 21.0001L17.63 21.4051C17.81 21.5351 18.06 21.4901 18.19 21.3101L20.04 18.7001C20.17 18.5201 20.125 18.2701 19.945 18.1451L19.375 17.7401C19.195 17.6101 18.945 17.6551 18.815 17.8351L18.18 18.7351L2.95999 8.09006C2.73499 7.93006 2.41999 7.98506 2.26499 8.21006Z" fill="#13334C"/>
</svg>
