<svg width="24" height="24" viewBox="0 0 24 24" fill="none" xmlns="http://www.w3.org/2000/svg">
<path fill-rule="evenodd" clip-rule="evenodd" d="M14.9501 7.8699L16.5601 9.0399C16.6701 9.1199 16.8251 9.1199 16.9351 9.0399L18.5451 7.8699C18.6551 7.7899 18.7051 7.6449 18.6601 7.5149L18.0501 5.6199C18.0051 5.4899 17.8851 5.3999 17.7451 5.3999H15.7551C15.6151 5.3999 15.4951 5.4899 15.4501 5.6199L14.8351 7.5149C14.7951 7.6449 14.8401 7.7899 14.9501 7.8699Z" fill="#13334C"/>
<path d="M4.75 22.5C6.54493 22.5 8 21.0449 8 19.25C8 17.4551 6.54493 16 4.75 16C2.95507 16 1.5 17.4551 1.5 19.25C1.5 21.0449 2.95507 22.5 4.75 22.5Z" fill="#13334C"/>
<path fill-rule="evenodd" clip-rule="evenodd" d="M19.8001 20.0149H22.5001V18.9949H18.9951C19.3451 19.2599 19.6251 19.6099 19.8001 20.0149Z" fill="#13334C"/>
<path fill-rule="evenodd" clip-rule="evenodd" d="M8.99018 18.9949C8.99518 19.0799 9.00018 19.1649 9.00018 19.2499C9.00018 19.5099 8.97518 19.7699 8.93018 20.0149H15.2002C15.3752 19.6099 15.6552 19.2549 16.0052 18.9949H8.99018Z" fill="#13334C"/>
<path fill-rule="evenodd" clip-rule="evenodd" d="M3.98508 15.07C4.23508 15.025 4.49008 15 4.75008 15C5.79008 15 6.74508 15.375 7.48508 16H14.6001C14.8201 16 15.0001 15.82 15.0001 15.6V14.4C15.0001 14.18 14.8201 14 14.6001 14H6.17508L5.66008 11.495H9.00008C9.16508 11.495 9.32508 11.41 9.41508 11.275L10.4151 9.78C10.5701 9.55 10.5051 9.24 10.2751 9.085C10.0451 8.93 9.73508 8.995 9.58008 9.225L8.73008 10.5H5.45508L3.87508 2.815C3.83508 2.63 3.71008 2.5 3.56508 2.5H1.82008C1.61008 2.5 1.45508 2.77 1.51008 3.04L3.98508 15.07Z" fill="#13334C"/>
<path fill-rule="evenodd" clip-rule="evenodd" d="M22.1001 17H8.3551C8.5501 17.31 8.7051 17.65 8.8151 18.01H22.5001V17.4C22.5001 17.18 22.3201 17 22.1001 17Z" fill="#13334C"/>
<path fill-rule="evenodd" clip-rule="evenodd" d="M8.61999 21.0051C8.45499 21.3651 8.23999 21.7001 7.98499 22.0001H15.21C15.075 21.6951 15 21.3601 15 21.0051H8.61999Z" fill="#13334C"/>
<path fill-rule="evenodd" clip-rule="evenodd" d="M19.7902 22.0001H22.1002C22.3202 22.0001 22.5002 21.8201 22.5002 21.6001V21.0051H20.0002C20.0002 21.3601 19.9252 21.6951 19.7902 22.0001Z" fill="#13334C"/>
<path d="M17.5 22.5C18.3284 22.5 19 21.8284 19 21C19 20.1716 18.3284 19.5 17.5 19.5C16.6716 19.5 16 20.1716 16 21C16 21.8284 16.6716 22.5 17.5 22.5Z" fill="#13334C"/>
<path fill-rule="evenodd" clip-rule="evenodd" d="M16.75 13C19.925 13 22.5 10.425 22.5 7.25C22.5 4.075 19.925 1.5 16.75 1.5C13.575 1.5 11 4.075 11 7.25C11 10.425 13.575 13 16.75 13ZM12.845 4.315L14.19 4.305C14.3 4.305 14.395 4.24 14.445 4.145L15.2 2.615C15.69 2.45 16.21 2.36 16.75 2.36C17.29 2.36 17.815 2.45 18.3 2.615L19.055 4.145C19.105 4.245 19.2 4.305 19.31 4.305L20.655 4.315C21.165 4.99 21.505 5.805 21.605 6.69L20.04 7.975C19.945 8.055 19.91 8.185 19.955 8.305L20.685 10.155C20.11 10.935 19.305 11.54 18.37 11.865L16.9 11C16.81 10.945 16.7 10.945 16.61 11L15.14 11.865C14.21 11.535 13.405 10.935 12.825 10.155L13.555 8.305C13.6 8.19 13.565 8.055 13.47 7.975L11.905 6.69C11.995 5.805 12.335 4.99 12.845 4.315Z" fill="#13334C"/>
</svg>
