<svg width="24" height="24" viewBox="0 0 24 24" fill="none" xmlns="http://www.w3.org/2000/svg">
<path d="M20.5149 10.0499C19.3149 11.7599 17.7799 13.2749 16.2999 14.2049C15.6599 14.6049 15.0449 14.8899 14.4549 15.0599L9.23493 18.7749C9.25993 18.9549 9.21993 19.1499 9.10993 19.3099L7.09993 22.1849C6.85993 22.5249 6.39493 22.6049 6.05493 22.3699L5.64493 22.0849C5.30493 21.8449 5.22493 21.3799 5.45993 21.0399L7.46993 18.1749C7.62993 17.9449 7.89993 17.8349 8.15993 17.8599L9.82493 11.9199C9.76493 11.2849 9.81493 10.5799 9.97493 9.7999C10.3249 8.1099 11.2249 6.1099 12.3799 4.4599C13.5999 2.7149 14.6399 1.8299 15.7549 1.5799C16.8349 1.3399 17.9799 1.6949 19.4699 2.7399C20.9799 3.7949 21.7399 4.7549 21.9399 5.8399C22.1649 7.0049 21.7099 8.3449 20.5149 10.0499ZM9.29493 17.5099L12.5599 15.1849C12.1099 15.0949 11.6849 14.9199 11.2949 14.6449C10.9149 14.3799 10.6049 14.0499 10.3699 13.6649L9.29493 17.5099ZM20.9649 6.0149C20.8149 5.2049 20.1799 4.4499 18.9049 3.5549C17.8799 2.8349 17.1049 2.5049 16.4249 2.5049C16.2749 2.5049 16.1249 2.5199 15.9799 2.5549C15.1399 2.7449 14.2549 3.5299 13.2049 5.0349C11.8699 6.9449 10.6449 9.7499 10.8199 11.7899C10.8349 11.8449 10.8449 11.9049 10.8399 11.9649C10.9399 12.7449 11.2599 13.3949 11.8749 13.8249C13.1099 14.6899 14.6749 14.0499 15.7699 13.3599C17.1199 12.5099 18.5899 11.0599 19.6999 9.4749C20.7249 8.0049 21.1299 6.9049 20.9649 6.0149Z" fill="#13334C"/>
<path d="M6.73585 12.1626C6.82355 11.0616 6.00209 10.0979 4.90105 10.0102C3.80002 9.92252 2.83635 10.744 2.74865 11.845C2.66094 12.9461 3.48241 13.9097 4.58344 13.9974C5.68448 14.0851 6.64814 13.2637 6.73585 12.1626Z" fill="#13334C"/>
<path d="M6.745 13.4949H6.065C6.48 13.1299 6.745 12.5949 6.745 11.9999C6.745 10.8999 5.85 10.0049 4.75 10.0049C3.65 10.0049 2.755 10.8999 2.755 11.9999C2.755 13.0999 3.65 13.9949 4.75 13.9949H6.745C7.02 13.9949 7.245 14.2199 7.245 14.4949C7.245 14.7699 7.02 14.9949 6.745 14.9949H4.205C4.1 14.7049 3.825 14.4949 3.5 14.4949H2.5C2.085 14.4949 1.75 14.8299 1.75 15.2449C1.75 15.6599 2.085 15.9949 2.5 15.9949H3.5C3.825 15.9949 4.1 15.7849 4.205 15.4949H6.745C7.295 15.4949 7.745 15.0449 7.745 14.4949C7.745 13.9449 7.295 13.4949 6.745 13.4949Z" fill="#13334C"/>
</svg>
