<svg width="24" height="24" viewBox="0 0 24 24" fill="none" xmlns="http://www.w3.org/2000/svg">
<path fill-rule="evenodd" clip-rule="evenodd" d="M21.9501 11.8599C21.6851 11.4799 21.1551 11.3899 20.7801 11.6599C20.4051 11.9299 20.3401 12.4499 20.5951 12.8299C20.9901 13.4149 20.8651 14.2049 20.3051 14.5949C19.7401 14.9899 18.9451 14.8349 18.5351 14.2449L9.2551 1.68491C9.1151 1.49991 8.8551 1.45491 8.6651 1.58991C8.4751 1.72491 8.4251 1.98491 8.5501 2.17491L17.1651 15.2049C17.7451 16.0349 18.6751 16.4849 19.6101 16.4849C20.1851 16.4849 20.7601 16.3149 21.2601 15.9649C22.5801 15.0449 22.8851 13.1999 21.9501 11.8599Z" fill="#13334C"/>
<path fill-rule="evenodd" clip-rule="evenodd" d="M15.71 17.2798C15.71 16.3398 14.91 15.6848 14.065 15.4598C12.975 15.1698 11.865 14.9648 10.795 14.5998C9.73499 14.2348 8.66999 13.7348 8.14999 12.6848C7.73499 11.8448 7.49999 9.39984 7.42499 8.23484C7.42499 8.22984 7.42499 8.22984 7.42499 8.22484C7.42999 8.04984 7.35499 7.88484 7.18499 7.83984C6.60499 7.67484 6.07499 8.10984 6.07499 8.66484V8.74984C6.07499 8.93984 5.91999 9.09484 5.72999 9.09484H3.22C2.335 9.09484 1.595 9.76484 1.505 10.6448L1.5 17.5948C1.495 18.2148 1.765 18.6148 2.155 18.8248C1.75 19.2098 1.495 19.7598 1.495 20.3648C1.495 21.5348 2.45 22.4898 3.61999 22.4898C4.78999 22.4898 5.74499 21.5348 5.74499 20.3648C5.74499 20.0548 5.67999 19.7598 5.55999 19.4948L6.40999 19.0348C6.46499 19.0048 6.52499 18.9948 6.58999 18.9948H10.43C10.475 18.9948 10.515 18.9998 10.555 19.0148L11.445 19.4698C11.315 19.7448 11.245 20.0498 11.245 20.3698C11.245 21.5398 12.2 22.4948 13.37 22.4948C14.54 22.4948 15.495 21.5398 15.495 20.3698C15.495 19.7648 15.24 19.2198 14.835 18.8298C15.45 18.5398 15.71 17.8898 15.71 17.2798ZM3.61999 21.4898C2.99999 21.4898 2.495 20.9848 2.495 20.3648C2.495 19.7448 2.99999 19.2398 3.61999 19.2398C4.24 19.2398 4.74499 19.7448 4.74499 20.3648C4.74499 20.9848 4.24 21.4898 3.61999 21.4898ZM11.74 19.0148L11.745 18.9998H11.75C11.75 19.0048 11.745 19.0098 11.74 19.0148ZM13.37 21.4998C12.75 21.4998 12.245 20.9948 12.245 20.3748C12.245 19.7548 12.75 19.2498 13.37 19.2498C13.99 19.2498 14.495 19.7548 14.495 20.3748C14.495 20.9948 13.99 21.4998 13.37 21.4998Z" fill="#13334C"/>
</svg>
