<svg width="24" height="24" viewBox="0 0 24 24" fill="none" xmlns="http://www.w3.org/2000/svg">
<path fill-rule="evenodd" clip-rule="evenodd" d="M22.4899 6.38989C22.4049 5.02989 21.8049 3.88989 20.7999 3.18989C19.7999 2.48989 18.5249 2.31489 17.2149 2.69489C15.9449 3.06489 14.7899 3.92489 13.9599 5.10989C13.1299 6.29489 12.7199 7.67489 12.7999 8.99489C12.8749 10.1699 13.3299 11.1749 14.0999 11.8799L9.61988 18.2799C9.31988 18.1949 8.98988 18.3049 8.80488 18.5699L6.79488 21.4349C6.55488 21.7749 6.63988 22.2399 6.97988 22.4799L7.38988 22.7649C7.72988 23.0049 8.19488 22.9199 8.43488 22.5799L10.4449 19.7149C10.6299 19.4499 10.6199 19.0999 10.4399 18.8499L14.9199 12.4499C15.4749 12.7349 16.0899 12.8849 16.7349 12.8849C17.1699 12.8849 17.6199 12.8199 18.0749 12.6849C19.3449 12.3149 20.4999 11.4549 21.3299 10.2699C22.1599 9.08489 22.5749 7.70989 22.4899 6.38989ZM20.5099 9.70489C19.0849 11.7349 16.6449 12.4899 15.0599 11.3849C14.3099 10.8599 13.8649 9.99489 13.7949 8.93989C13.7249 7.84489 14.0749 6.68989 14.7749 5.68989C15.7549 4.29489 17.2149 3.49989 18.5449 3.49989C19.1499 3.49989 19.7299 3.66489 20.2249 4.00989C21.8049 5.11989 21.9349 7.66989 20.5099 9.70489Z" fill="#13334C"/>
<path fill-rule="evenodd" clip-rule="evenodd" d="M7.945 11.5H12.52C12.43 11.35 12.35 11.195 12.28 11.035C12.01 10.435 11.85 9.775 11.805 9.07C11.705 7.525 12.18 5.92 13.14 4.545C14.005 3.31 15.185 2.38 16.5 1.885C16.49 1.67 16.315 1.5 16.1 1.5H1.9C1.68 1.5 1.5 1.68 1.5 1.9V11.1C1.5 11.32 1.68 11.5 1.9 11.5H2.03C2.27 10.085 3.505 9 4.99 9C6.475 9 7.705 10.085 7.945 11.5Z" fill="#13334C"/>
<path d="M6.39934 13.4144C7.18039 12.6334 7.18039 11.3671 6.39934 10.586C5.6183 9.80501 4.35198 9.80501 3.57094 10.586C2.7899 11.3671 2.7899 12.6334 3.57094 13.4144C4.35198 14.1955 5.6183 14.1955 6.39934 13.4144Z" fill="#13334C"/>
</svg>
