<svg width="24" height="24" viewBox="0 0 24 24" fill="none" xmlns="http://www.w3.org/2000/svg">
<path fill-rule="evenodd" clip-rule="evenodd" d="M22.4748 7.01994C22.3098 5.56994 21.3748 4.29494 19.5298 3.00494C17.6798 1.70994 16.1598 1.26494 14.7448 1.60994C13.4648 1.91994 12.2898 2.88994 11.0448 4.66494C9.39477 7.02494 8.34477 9.47994 8.16977 10.6899C7.97977 11.9649 8.31977 16.5999 8.41977 17.8549C8.14977 17.8149 7.86477 17.9249 7.69477 18.1649L5.68477 21.0299C5.44477 21.3699 5.52977 21.8349 5.86977 22.0749L6.27977 22.3599C6.61977 22.5999 7.08477 22.5149 7.32477 22.1749L9.33477 19.3099C9.50477 19.0699 9.50977 18.7599 9.37477 18.5199C10.5948 18.1799 15.0648 16.9249 16.1948 16.3099C17.2698 15.7299 19.2198 13.9049 20.8748 11.5449C22.1148 9.77494 22.6248 8.33494 22.4748 7.01994ZM9.38977 17.4799C9.31977 16.5749 9.23477 15.2849 9.17477 14.0649L12.6748 16.5149C11.5098 16.8749 10.2648 17.2349 9.38977 17.4799ZM20.0548 10.9749C18.6998 12.9149 16.8348 14.8299 15.7198 15.4349C15.3948 15.6099 14.7098 15.8599 13.8748 16.1349L9.12477 12.8099C9.09977 11.9349 9.09977 11.2049 9.15477 10.8399C9.33977 9.58494 10.5048 7.17994 11.8598 5.23994C12.9548 3.67494 13.9448 2.82994 14.9748 2.58494C15.1998 2.52994 15.4298 2.50494 15.6648 2.50494C16.6098 2.50494 17.6748 2.93494 18.9498 3.82994C20.5398 4.94494 21.3448 5.99494 21.4748 7.13994C21.5998 8.18994 21.1498 9.40994 20.0548 10.9749Z" fill="#13334C"/>
<path d="M4.91399 13.414C5.69503 12.6329 5.69503 11.3666 4.91399 10.5856C4.13295 9.80451 2.86663 9.80451 2.08559 10.5856C1.30455 11.3666 1.30455 12.6329 2.08559 13.414C2.86663 14.195 4.13295 14.195 4.91399 13.414Z" fill="#13334C"/>
</svg>
