<svg width="24" height="24" viewBox="0 0 24 24" fill="none" xmlns="http://www.w3.org/2000/svg">
<path d="M10.0499 3.91504C10.8699 4.48504 11.8799 4.30504 12.4499 3.48504C13.0249 2.67004 12.8449 1.65004 12.0249 1.08004C11.2049 0.510038 10.1849 0.690038 9.61487 1.50504C9.04487 2.32004 9.23487 3.34504 10.0499 3.91504Z" fill="#13334C"/>
<path d="M22.9949 12.7201C22.6999 12.9401 22.3599 13.0951 21.9849 13.1701C21.8499 14.6401 20.6099 15.8001 19.0999 15.8001C17.4999 15.8001 16.1999 14.5001 16.1999 12.9001C16.1999 12.0101 16.5999 11.2151 17.2299 10.6851L18.9149 13.1451C19.0099 13.2851 19.1699 13.3601 19.3299 13.3601C19.4249 13.3601 19.5249 13.3301 19.6099 13.2701C19.8399 13.1151 19.8949 12.8051 19.7399 12.5751L18.0949 10.1751C18.4049 10.0601 18.7449 9.99512 19.0949 9.99512H19.0999C19.2099 9.63512 19.3949 9.30512 19.6449 9.03512C19.4649 9.01012 19.2849 8.99512 19.0949 8.99512C18.5349 8.99512 17.9999 9.11512 17.5149 9.33012L15.7149 6.70012C16.2199 6.58012 16.5549 6.09012 16.4699 5.57012C16.4099 5.20012 16.1549 4.91012 15.8249 4.79012L16.6299 3.64512C16.7899 3.42012 16.7349 3.10512 16.5049 2.95012C16.2799 2.79012 15.9649 2.84512 15.8099 3.07512L14.5549 4.87012L10.5649 5.51012L9.25488 4.59512C8.80488 4.28012 8.17988 4.39012 7.86488 4.84012L4.29488 9.92012C3.41488 11.1801 3.79988 12.9751 5.15488 13.9251C5.32988 14.0451 5.52988 14.1051 5.72988 14.1051C6.04488 14.1051 6.35488 13.9551 6.54988 13.6801L10.8999 7.47512L14.6249 6.88012L16.6649 9.85512C15.7749 10.5701 15.1999 11.6701 15.1999 12.9001C15.1999 15.0501 16.9499 16.8001 19.0999 16.8001C21.2499 16.8001 22.9999 15.0501 22.9999 12.9001C22.9999 12.8401 22.9999 12.7801 22.9949 12.7201Z" fill="#13334C"/>
<path d="M4.91489 15.145C2.76489 15.145 1.01489 16.895 1.01489 19.045C1.01489 21.195 2.76489 22.945 4.91489 22.945C7.06489 22.945 8.81489 21.195 8.81489 19.045C8.81489 16.895 7.06489 15.145 4.91489 15.145ZM4.91489 21.945C3.31489 21.945 2.01489 20.645 2.01489 19.045C2.01489 17.445 3.31489 16.145 4.91489 16.145C6.51489 16.145 7.81489 17.445 7.81489 19.045C7.81489 20.645 6.51489 21.945 4.91489 21.945Z" fill="#13334C"/>
<path d="M15.7198 17.6649L14.5048 16.9149L14.4998 12.4399C14.4998 11.9949 14.2048 11.6049 13.7798 11.4799L10.7798 10.5999C10.2498 10.4449 9.69484 10.7499 9.53984 11.2799C9.38484 11.8099 9.68984 12.3649 10.2198 12.5199L12.4998 13.1899V15.6799L9.02484 13.5349C8.55484 13.2449 7.93984 13.3899 7.64984 13.8599C7.35984 14.3299 7.50484 14.9449 7.97484 15.2349L14.6698 19.3649C14.8348 19.4649 15.0148 19.5149 15.1948 19.5149C15.5298 19.5149 15.8598 19.3449 16.0448 19.0399C16.3348 18.5699 16.1898 17.9549 15.7198 17.6649Z" fill="#13334C"/>
<path d="M21.5 12.2151C22.3284 12.2151 23 11.5435 23 10.7151C23 9.88666 22.3284 9.21509 21.5 9.21509C20.6716 9.21509 20 9.88666 20 10.7151C20 11.5435 20.6716 12.2151 21.5 12.2151Z" fill="#13334C"/>
</svg>
