<svg width="24" height="24" viewBox="0 0 24 24" fill="none" xmlns="http://www.w3.org/2000/svg">
<path fill-rule="evenodd" clip-rule="evenodd" d="M22 21.5H2C1.725 21.5 1.5 21.725 1.5 22C1.5 22.275 1.725 22.5 2 22.5H22C22.275 22.5 22.5 22.275 22.5 22C22.5 21.725 22.275 21.5 22 21.5Z" fill="#13334C"/>
<path fill-rule="evenodd" clip-rule="evenodd" d="M12.0502 5.39498C11.0302 6.85498 10.5202 8.54998 10.6252 10.175C10.6602 10.69 10.7502 11.175 10.9002 11.63L10.7602 15.865C10.4802 15.81 10.1752 15.92 10.0002 16.17L7.99019 19.035C7.75019 19.375 7.83519 19.84 8.17519 20.08L8.58519 20.365C8.92519 20.605 9.39019 20.52 9.63019 20.18L11.6402 17.315C11.8152 17.065 11.8152 16.745 11.6702 16.5L15.6002 14.92C16.0752 14.905 16.5652 14.825 17.0602 14.68C18.6202 14.225 20.0402 13.165 21.0652 11.705C22.0852 10.245 22.5952 8.54998 22.4902 6.92498C22.3852 5.25998 21.6552 3.87498 20.4302 3.01998C19.2102 2.16498 17.6552 1.94998 16.0552 2.41998C14.4952 2.87498 13.0752 3.93498 12.0502 5.39498ZM11.7752 15.375L11.8452 13.32C12.0902 13.605 12.3702 13.86 12.6852 14.08C13.0002 14.3 13.3352 14.475 13.6852 14.61L11.7752 15.375ZM17.6852 3.17998C18.4652 3.17998 19.2152 3.38998 19.8552 3.83998C20.8202 4.51498 21.4002 5.63498 21.4902 6.98998C21.5802 8.38498 21.1352 9.85498 20.2452 11.13C19.0202 12.88 17.1952 13.885 15.5152 13.92C15.5052 13.92 15.5002 13.92 15.4902 13.92C14.6852 13.93 13.9152 13.72 13.2602 13.26C12.6052 12.8 12.1452 12.15 11.8802 11.39C11.8752 11.38 11.8752 11.37 11.8702 11.365C11.3252 9.77498 11.6452 7.71998 12.8752 5.96998C14.1202 4.18498 15.9802 3.17998 17.6852 3.17998Z" fill="#13334C"/>
<path fill-rule="evenodd" clip-rule="evenodd" d="M7.96 11.5H9.825C9.725 11.095 9.655 10.67 9.63 10.235C9.515 8.455 10.04 6.605 11.11 5H4V9.165C4.315 9.055 4.65 8.995 5 8.995C6.485 8.995 7.725 10.08 7.96 11.5Z" fill="#13334C"/>
<path fill-rule="evenodd" clip-rule="evenodd" d="M4.00004 4H11.8801C12.5051 3.29 13.2251 2.695 14.0051 2.235L13.2851 1.6C13.2101 1.535 13.1201 1.5 13.0201 1.5H1.70004C1.52004 1.5 1.43004 1.715 1.56004 1.84L4.00004 4Z" fill="#13334C"/>
<path d="M6.78987 12.8889C7.28383 11.901 6.8834 10.6997 5.89547 10.2057C4.90754 9.71176 3.70623 10.1122 3.21227 11.1001C2.71831 12.088 3.11874 13.2894 4.10667 13.7833C5.0946 14.2773 6.29591 13.8768 6.78987 12.8889Z" fill="#13334C"/>
</svg>
