<svg width="24" height="24" viewBox="0 0 24 24" fill="none" xmlns="http://www.w3.org/2000/svg">
<path d="M7.37999 13.355C7.37499 13.355 7.36999 13.36 7.36499 13.36C7.36999 13.36 7.37499 13.355 7.37999 13.355Z" fill="#13334C"/>
<path d="M7.40001 13.3501C7.39501 13.3501 7.39501 13.3501 7.39001 13.3551C7.39501 13.3501 7.39501 13.3501 7.40001 13.3501Z" fill="#13334C"/>
<path d="M7.02502 13.695C7.09002 13.55 7.23502 13.43 7.33502 13.375C7.23502 13.43 7.08502 13.545 7.02502 13.695Z" fill="#13334C"/>
<path d="M13.825 18.415C13.835 18.41 13.85 18.4 13.86 18.395C13.85 18.4 13.84 18.405 13.825 18.415Z" fill="#13334C"/>
<path d="M13.875 18.385C13.885 18.38 13.895 18.37 13.905 18.365C13.895 18.375 13.885 18.38 13.875 18.385Z" fill="#13334C"/>
<path d="M6.52991 13.5801C6.52991 13.5751 6.53491 13.5701 6.53491 13.5601C6.53491 13.5701 6.53491 13.5751 6.52991 13.5801Z" fill="#13334C"/>
<path d="M13.9149 18.355C13.9299 18.345 13.9399 18.335 13.9499 18.325C13.9399 18.335 13.9249 18.35 13.9149 18.355Z" fill="#13334C"/>
<path d="M6.50488 13.7049C6.50488 13.6999 6.50488 13.6949 6.50988 13.6899C6.50488 13.6949 6.50488 13.6999 6.50488 13.7049Z" fill="#13334C"/>
<path d="M6.51501 13.645C6.51501 13.64 6.52001 13.63 6.52001 13.625C6.52001 13.63 6.51501 13.635 6.51501 13.645Z" fill="#13334C"/>
<path d="M7.35997 13.365C7.35497 13.37 7.34497 13.37 7.33997 13.375C7.34497 13.37 7.34997 13.365 7.35997 13.365Z" fill="#13334C"/>
<path d="M13.8901 18.9299C13.8651 18.9399 13.8451 18.9449 13.8201 18.9499C13.8451 18.9449 13.8651 18.9349 13.8901 18.9299Z" fill="#13334C"/>
<path d="M14.2851 18.6951C14.2601 18.7151 14.2351 18.7401 14.2101 18.7601C14.2351 18.7401 14.2601 18.7201 14.2851 18.6951Z" fill="#13334C"/>
<path d="M14.095 18.835C14.07 18.85 14.045 18.86 14.025 18.875C14.05 18.86 14.07 18.85 14.095 18.835Z" fill="#13334C"/>
<path d="M14.1901 18.7749C14.1651 18.7949 14.1401 18.8099 14.1101 18.8299C14.1401 18.8099 14.1651 18.7899 14.1901 18.7749Z" fill="#13334C"/>
<path d="M13.9999 18.885C13.9749 18.9 13.9449 18.91 13.9149 18.92C13.9449 18.91 13.9749 18.895 13.9999 18.885Z" fill="#13334C"/>
<path d="M18.24 3.09001C18.015 2.93001 17.7 2.98501 17.545 3.21501L8.28997 16.43C7.78497 15.97 7.34997 15.49 7.02997 15.03C6.70997 14.57 6.57497 14.23 6.52497 14.02C6.51997 14 6.51497 13.98 6.50997 13.96V13.955C6.50497 13.935 6.50497 13.92 6.49997 13.9C6.49997 13.895 6.49997 13.895 6.49997 13.89C6.49497 13.85 6.49497 13.805 6.49497 13.765C6.49497 13.745 6.49997 13.725 6.49997 13.705C6.49997 13.7 6.49997 13.695 6.50497 13.69C6.50497 13.675 6.50997 13.66 6.51497 13.645C6.51497 13.64 6.51997 13.63 6.51997 13.625C6.52497 13.61 6.52997 13.595 6.52997 13.58C6.52997 13.575 6.53497 13.57 6.53497 13.56C6.53997 13.54 6.54997 13.52 6.55997 13.5C6.71497 13.13 7.12497 12.86 7.38997 12.845C7.52497 12.84 7.64497 12.945 7.64997 13.085C7.65497 13.225 7.54997 13.34 7.40997 13.345C7.40497 13.345 7.39997 13.345 7.39497 13.35C7.38997 13.35 7.38997 13.35 7.38497 13.355C7.37997 13.355 7.37997 13.355 7.37497 13.36C7.36997 13.36 7.36497 13.365 7.35997 13.365C7.35997 13.365 7.35497 13.365 7.35497 13.37C7.34997 13.375 7.33997 13.375 7.33497 13.38C7.33497 13.38 7.33497 13.38 7.32997 13.38C7.22997 13.435 7.08497 13.55 7.01997 13.7C7.22997 13.705 7.50997 13.745 7.86497 13.835C8.20497 13.925 8.55997 14.05 8.92997 14.21L10.095 12.545C9.41997 12.225 8.75497 11.985 8.13497 11.845C6.08997 11.38 5.20497 12.135 4.86497 12.625C4.51997 13.115 4.11497 14.2 5.24997 15.965C5.70997 16.675 6.35997 17.405 7.13497 18.085L5.63997 20.22C5.47997 20.445 5.53497 20.76 5.76497 20.915C5.84997 20.975 5.94997 21.005 6.04997 21.005C6.20997 21.005 6.36497 20.93 6.45997 20.79L7.91497 18.71C8.04997 18.81 8.18497 18.91 8.32497 19.01C9.62997 19.925 11.025 20.58 12.24 20.855C12.69 20.955 13.085 21 13.425 21C14.645 21 15.24 20.455 15.51 20.075C15.855 19.585 16.26 18.5 15.125 16.735C14.485 15.74 13.465 14.71 12.245 13.825L11.1 15.46C12.04 16.145 12.83 16.92 13.345 17.665C13.565 17.98 13.695 18.24 13.775 18.44C13.79 18.435 13.805 18.425 13.82 18.42C13.82 18.42 13.825 18.42 13.825 18.415C13.835 18.41 13.85 18.4 13.86 18.395C13.865 18.395 13.87 18.39 13.87 18.39C13.88 18.385 13.89 18.375 13.9 18.37C13.905 18.365 13.91 18.365 13.91 18.36C13.925 18.35 13.935 18.34 13.945 18.33C14.025 18.25 14.045 18.165 14.01 18.055C13.97 17.925 14.04 17.785 14.175 17.74C14.305 17.7 14.445 17.77 14.49 17.905C14.585 18.205 14.51 18.49 14.285 18.7C14.26 18.72 14.235 18.745 14.21 18.765C14.205 18.77 14.2 18.775 14.19 18.78C14.165 18.8 14.14 18.815 14.11 18.835C14.105 18.84 14.1 18.84 14.095 18.845C14.07 18.86 14.045 18.87 14.025 18.885C14.02 18.89 14.01 18.89 14.005 18.895C13.98 18.91 13.95 18.92 13.92 18.93C13.91 18.935 13.9 18.935 13.89 18.94C13.865 18.95 13.845 18.955 13.82 18.96C13.81 18.96 13.805 18.965 13.795 18.965C13.63 19.015 13.23 19.06 12.505 18.87C11.57 18.625 10.495 18.095 9.46997 17.38C9.32997 17.28 9.19497 17.18 9.05997 17.08L18.36 3.79501C18.52 3.56001 18.465 3.25001 18.24 3.09001Z" fill="#13334C"/>
<path d="M6.53992 13.56C6.54492 13.54 6.55492 13.52 6.56492 13.5C6.54992 13.52 6.54492 13.54 6.53992 13.56Z" fill="#13334C"/>
<path d="M7.41502 13.345C7.41002 13.345 7.40502 13.345 7.40002 13.35C7.40502 13.345 7.41002 13.345 7.41502 13.345Z" fill="#13334C"/>
<path d="M6.50488 13.69C6.50488 13.675 6.50988 13.66 6.51488 13.645C6.50988 13.66 6.50988 13.675 6.50488 13.69Z" fill="#13334C"/>
<path d="M6.51 13.95C6.505 13.93 6.505 13.915 6.5 13.895C6.505 13.915 6.505 13.93 6.51 13.95Z" fill="#13334C"/>
<path d="M6.49512 13.76C6.49512 13.74 6.50012 13.72 6.50012 13.7C6.50012 13.725 6.50012 13.74 6.49512 13.76Z" fill="#13334C"/>
<path d="M6.52014 13.6251C6.52514 13.6101 6.53014 13.5951 6.53014 13.5801C6.52514 13.5951 6.52514 13.6101 6.52014 13.6251Z" fill="#13334C"/>
<path d="M7.38988 13.3501C7.38488 13.3501 7.38488 13.3501 7.37988 13.3551C7.38488 13.3551 7.38488 13.3551 7.38988 13.3501Z" fill="#13334C"/>
<path d="M6.49487 13.7649C6.48987 13.8049 6.49487 13.8499 6.49988 13.8899C6.49487 13.8449 6.49487 13.8049 6.49487 13.7649Z" fill="#13334C"/>
<path d="M6.51001 13.9551C6.51501 13.9751 6.52001 13.9951 6.52501 14.0151C6.52001 13.9951 6.51501 13.9751 6.51001 13.9551Z" fill="#13334C"/>
<path d="M7.36499 13.3601C7.36499 13.3601 7.35999 13.3601 7.35999 13.3651C7.35999 13.3651 7.36499 13.3601 7.36499 13.3601Z" fill="#13334C"/>
<path d="M13.8601 18.3949C13.8651 18.3949 13.8701 18.3899 13.8701 18.3899C13.8701 18.3899 13.8651 18.3899 13.8601 18.3949Z" fill="#13334C"/>
<path d="M13.795 18.955C13.805 18.955 13.81 18.95 13.82 18.95C13.815 18.95 13.805 18.955 13.795 18.955Z" fill="#13334C"/>
<path d="M14.2099 18.76C14.2049 18.765 14.1999 18.77 14.1899 18.775C14.1999 18.77 14.2049 18.765 14.2099 18.76Z" fill="#13334C"/>
<path d="M13.9 18.365C13.905 18.36 13.91 18.36 13.91 18.355C13.91 18.36 13.905 18.365 13.9 18.365Z" fill="#13334C"/>
<path d="M13.9199 18.9199C13.9099 18.9249 13.8999 18.9249 13.8899 18.9299C13.8999 18.9249 13.9099 18.9199 13.9199 18.9199Z" fill="#13334C"/>
<path d="M14.1101 18.825C14.1051 18.83 14.1001 18.83 14.0951 18.835C14.1001 18.83 14.1051 18.83 14.1101 18.825Z" fill="#13334C"/>
<path d="M14.0249 18.875C14.0199 18.88 14.0099 18.88 14.0049 18.885C14.0099 18.88 14.0149 18.875 14.0249 18.875Z" fill="#13334C"/>
<path d="M13.8201 18.4149C13.8201 18.4149 13.8251 18.4149 13.8251 18.4099C13.8251 18.4149 13.8201 18.4149 13.8201 18.4149Z" fill="#13334C"/>
</svg>
