<svg width="24" height="24" viewBox="0 0 24 24" fill="none" xmlns="http://www.w3.org/2000/svg">
<path d="M22.4799 19.9451C22.4799 19.8601 22.4799 19.7751 22.4699 19.6901C22.4649 19.6451 22.465 19.6001 22.46 19.5551C22.455 19.4801 22.445 19.4101 22.4349 19.3401C22.43 19.3051 22.4249 19.2651 22.4149 19.2301C22.4 19.1551 22.3899 19.0801 22.375 19.0101C22.375 19.0051 22.375 19.0001 22.3699 19.0001C22.3599 18.9501 22.35 18.9001 22.335 18.8501C22.33 18.8251 22.32 18.8001 22.3149 18.7751C22.3049 18.7451 22.2999 18.7151 22.2899 18.6851C22.2799 18.6551 22.2699 18.6251 22.2649 18.5951C22.2599 18.5701 22.25 18.5451 22.2449 18.5201C22.2349 18.4851 22.225 18.4501 22.21 18.4151C22.205 18.3951 22.195 18.3751 22.1899 18.3501C22.1749 18.3101 22.1649 18.2701 22.15 18.2301C22.145 18.2101 22.1399 18.1951 22.1299 18.1751C22.115 18.1301 22.1 18.0901 22.08 18.0451C22.075 18.0301 22.07 18.0151 22.0649 18.0001C22.0449 17.9551 22.03 17.9051 22.01 17.8601C22.005 17.8451 22 17.8351 21.9949 17.8201C21.9749 17.7701 21.955 17.7201 21.93 17.6701C21.9249 17.6601 21.9199 17.6501 21.9149 17.6401C21.8899 17.5851 21.8699 17.5351 21.8449 17.4801C21.84 17.4701 21.84 17.4651 21.835 17.4551C21.8099 17.4001 21.785 17.3401 21.7549 17.2851C21.75 17.2801 21.75 17.2751 21.7449 17.2701C21.715 17.2101 21.69 17.1501 21.66 17.0901C21.66 17.0851 21.655 17.0801 21.655 17.0801C21.625 17.0201 21.5949 16.9551 21.5599 16.8951C21.5599 16.8951 21.5599 16.8901 21.555 16.8901C21.52 16.8251 21.49 16.7601 21.455 16.6951C21.35 16.4951 21.24 16.2951 21.1199 16.0901C21.6799 14.8451 21.99 13.4601 21.99 12.0051C21.99 6.48013 17.5149 2.00513 11.99 2.00513C10.325 2.00513 8.74995 2.41513 7.36995 3.13513C7.37495 3.13513 7.37495 3.13013 7.37995 3.13013C7.09495 2.98513 6.81995 2.85513 6.54995 2.74013C6.48495 2.71013 6.41995 2.68513 6.35495 2.65513H6.34995C6.28495 2.63013 6.22495 2.60513 6.15995 2.58013C6.15495 2.58013 6.15495 2.57513 6.14995 2.57513C6.08995 2.55013 6.02995 2.53013 5.96995 2.50513C5.96495 2.50513 5.95995 2.50013 5.95495 2.50013C5.89995 2.48013 5.83995 2.45513 5.78495 2.43513C5.77495 2.43013 5.76995 2.43013 5.75995 2.42513C5.70495 2.40513 5.64995 2.38513 5.59995 2.37013C5.58995 2.36513 5.57995 2.36513 5.56995 2.36013C5.51995 2.34513 5.46995 2.32513 5.41995 2.31013C5.40495 2.30513 5.39495 2.30013 5.37995 2.30013C5.33495 2.28513 5.28495 2.27013 5.23995 2.26013C5.22495 2.25513 5.20995 2.25013 5.19495 2.24513C5.14995 2.23513 5.10995 2.22013 5.06495 2.21013C5.04495 2.20513 5.02995 2.20013 5.01495 2.19513C4.97495 2.18513 4.93495 2.17513 4.89495 2.16513C4.87495 2.16013 4.85495 2.15513 4.83495 2.15013C4.79995 2.14013 4.75995 2.13513 4.72495 2.12513C4.69995 2.12013 4.67995 2.11513 4.65495 2.11013C4.61995 2.10513 4.58995 2.09513 4.55495 2.09013C4.52995 2.08513 4.50495 2.08013 4.47495 2.07513C4.44495 2.07013 4.41995 2.06513 4.38995 2.06013C4.33495 2.05013 4.27995 2.04513 4.22495 2.03513C4.21995 2.03513 4.21995 2.03513 4.21495 2.03513C4.15995 2.03013 4.10995 2.02513 4.05495 2.02013C4.04995 2.02013 4.04495 2.02013 4.03995 2.02013C3.98495 2.01513 3.92995 2.01013 3.87495 2.01013C3.86995 2.01013 3.86495 2.01013 3.85995 2.01013C3.79995 2.00513 3.74495 2.00513 3.68495 2.00513H3.67995C3.64495 2.00513 3.60495 2.00513 3.56995 2.00513C3.55995 2.00513 3.55495 2.00513 3.54495 2.00513C3.51495 2.00513 3.47995 2.01013 3.44995 2.01013C3.44495 2.01013 3.43495 2.01013 3.42995 2.01013C3.39495 2.01513 3.35495 2.01513 3.31995 2.02013C3.31495 2.02013 3.30495 2.02013 3.29995 2.02013C3.26995 2.02513 3.23495 2.02513 3.20495 2.03013C3.19495 2.03013 3.18995 2.03013 3.17995 2.03513C3.14495 2.04013 3.10495 2.04513 3.06995 2.05513C3.06495 2.05513 3.05995 2.05513 3.05995 2.05513C3.02495 2.06013 2.99495 2.07013 2.95995 2.07513C2.94995 2.07513 2.94495 2.08013 2.93495 2.08013C2.85995 2.10013 2.78495 2.12013 2.71495 2.14013C2.70995 2.14513 2.69995 2.15013 2.68995 2.15013C2.65995 2.16013 2.62495 2.17513 2.59495 2.18513C2.58995 2.18513 2.58495 2.19013 2.57995 2.19013C2.54495 2.20513 2.50995 2.22013 2.47495 2.23513C2.46495 2.24013 2.45995 2.24513 2.44995 2.24513C2.41995 2.26013 2.38995 2.27513 2.35995 2.29013C2.35495 2.29513 2.34995 2.30013 2.34495 2.30013C2.30995 2.32013 2.27495 2.34013 2.24495 2.36013C2.23995 2.36513 2.22995 2.37013 2.22495 2.37013C2.19495 2.39013 2.16995 2.40513 2.13995 2.42513C2.12995 2.43013 2.12495 2.43513 2.11495 2.44013C2.08495 2.46513 2.04995 2.48513 2.01995 2.51513C2.01495 2.52013 2.00995 2.52013 2.00995 2.52513C1.97995 2.55013 1.95495 2.57013 1.92995 2.59513C1.91995 2.60013 1.91495 2.61013 1.90495 2.61513C1.87495 2.64513 1.84495 2.67513 1.81495 2.70513C1.34495 3.20513 1.19995 3.84513 1.20995 4.44013C1.21495 4.75513 1.25495 5.05513 1.31495 5.32013C1.50495 6.18513 1.93995 7.20513 2.61495 8.35013C2.62995 8.37513 2.64495 8.40013 2.65995 8.42013C2.23495 9.53513 1.99995 10.7401 1.99995 12.0001C1.99995 17.5251 6.47495 22.0001 12 22.0001C13.465 22.0001 14.86 21.6851 16.1149 21.1151C16.1399 21.1301 16.1649 21.1401 16.1899 21.1551C17.3699 21.7601 18.4149 22.1401 19.2899 22.2801C19.5049 22.3151 19.7449 22.3401 19.9949 22.3401C20.6449 22.3401 21.3499 22.1801 21.8699 21.6301C22.33 21.1401 22.475 20.5301 22.4799 19.9451C22.4799 19.9501 22.4799 19.9501 22.4799 19.9451ZM15.0199 5.85513C15.0649 5.80513 15.11 5.75013 15.155 5.70013C15.31 5.54013 15.47 5.39013 15.635 5.24013L15.6649 5.21013C15.7299 5.15013 15.795 5.09013 15.86 5.03513C16 4.91513 16.1649 4.78513 16.3149 4.67513C16.9249 5.03513 17.495 5.47513 18.01 5.99013C19.615 7.59513 20.5 9.73013 20.5 12.0001C20.5 12.4101 20.4699 12.8201 20.4149 13.2201C19.705 10.6401 18.0149 8.36513 15.61 6.97513C15.26 6.77013 14.895 6.59513 14.53 6.44013C14.635 6.30513 14.745 6.17513 14.855 6.04513C14.88 6.01513 14.905 5.98513 14.935 5.95513C14.965 5.92013 14.99 5.89013 15.0199 5.85513ZM4.63995 16.2551C4.14995 15.4051 3.80995 14.4801 3.63495 13.5101C3.67995 13.5251 3.72495 13.5401 3.76995 13.5551C3.80495 13.5651 3.83995 13.5751 3.86995 13.5901C3.91495 13.6051 3.95495 13.6201 3.99995 13.6351C4.07495 13.6601 4.14995 13.6851 4.22495 13.7051C4.24495 13.7101 4.25995 13.7151 4.27995 13.7201C4.28995 13.7251 4.30495 13.7251 4.31495 13.7301C4.34495 13.7401 4.37995 13.7451 4.40995 13.7501C4.42995 13.7551 4.45495 13.7601 4.47495 13.7651C4.64995 13.8101 4.82495 13.8501 4.99995 13.8851C5.02495 13.8901 5.04995 13.8951 5.07495 13.9051C5.11495 13.9151 5.15495 13.9251 5.19495 13.9301C5.20495 13.9301 5.20995 13.9351 5.21995 13.9351H5.22995H5.23995H5.24495C5.28495 13.9401 5.32495 13.9451 5.35995 13.9501C5.38995 13.9551 5.41995 13.9551 5.44495 13.9601C5.66995 13.9951 5.88995 14.0251 6.11995 14.0451C6.12995 14.0451 6.14495 14.0451 6.15495 14.0501C6.16495 14.0501 6.17995 14.0551 6.18995 14.0551C6.44495 14.0751 6.69995 14.0901 6.96495 14.0951C6.96995 14.0951 6.97995 14.0951 6.98495 14.0951C6.99495 14.0951 6.99995 14.0951 7.00995 14.0951C7.04995 14.0951 7.08495 14.0951 7.12495 14.0951C7.14995 14.1251 7.17995 14.1501 7.20495 14.1801C7.20995 14.1851 7.21995 14.1951 7.22495 14.2001C7.32495 14.3001 7.42495 14.4051 7.52495 14.5051C7.54995 14.5301 7.57495 14.5551 7.59995 14.5851C7.69495 14.6801 7.79495 14.7801 7.88995 14.8751C7.89495 14.8801 7.89995 14.8851 7.90995 14.8951C8.00995 14.9951 8.11495 15.0951 8.21995 15.1951C8.24995 15.2201 8.27495 15.2501 8.30495 15.2751C8.40495 15.3701 8.50995 15.4701 8.60995 15.5651C8.61495 15.5701 8.61495 15.5701 8.61995 15.5751C8.62495 15.5801 8.62495 15.5801 8.62995 15.5851C8.73495 15.6801 8.83495 15.7801 8.93995 15.8751C8.96995 15.9001 8.99495 15.9301 9.02495 15.9551C9.12995 16.0501 9.23495 16.1501 9.34495 16.2451C9.34995 16.2501 9.35995 16.2601 9.36495 16.2651C9.46495 16.3551 9.56995 16.4451 9.66995 16.5351C9.69995 16.5601 9.72495 16.5851 9.75495 16.6101C9.85995 16.7051 9.96995 16.8001 10.075 16.8901C10.085 16.8951 10.09 16.9051 10.1 16.9101C10.2 17.0001 10.305 17.0851 10.405 17.1701C10.43 17.1901 10.455 17.2151 10.48 17.2351C10.58 17.3201 10.68 17.4051 10.78 17.4851C8.68995 17.8251 6.49495 17.4051 4.63995 16.2551ZM3.49995 11.9251C3.50495 11.2851 3.57995 10.6551 3.72495 10.0451C3.80495 10.1551 3.87995 10.2601 3.95995 10.3701C3.96495 10.3801 3.97495 10.3901 3.97995 10.3951C4.05995 10.5001 4.13995 10.6101 4.21995 10.7151C4.30495 10.8251 4.38995 10.9351 4.47495 11.0451C4.48495 11.0551 4.48995 11.0651 4.49995 11.0801C4.58495 11.1851 4.66995 11.2951 4.75495 11.4051C4.84495 11.5151 4.92995 11.6251 5.01995 11.7351C5.02995 11.7501 5.04495 11.7651 5.05495 11.7751C5.13995 11.8801 5.22995 11.9851 5.31995 12.0901L5.32495 12.0951C5.41495 12.2051 5.50995 12.3101 5.59995 12.4201C5.61495 12.4351 5.62995 12.4551 5.64495 12.4701C5.66995 12.4951 5.69495 12.5251 5.71495 12.5501C5.60995 12.5301 5.50495 12.5101 5.39995 12.4901C5.35995 12.4801 5.32495 12.4751 5.28495 12.4651C5.24495 12.4551 5.19995 12.4501 5.15995 12.4401C5.08995 12.4301 5.01995 12.4151 4.95495 12.4001C4.73995 12.3501 4.52995 12.2851 4.31495 12.2151C4.21995 12.1851 4.11995 12.1551 4.02495 12.1201C3.85495 12.0751 3.67495 12.0051 3.49995 11.9251ZM12 20.5001C10.07 20.5001 8.23495 19.8601 6.73995 18.6801C8.51995 19.1351 10.455 19.1301 12.23 18.6201C12.25 18.6351 12.265 18.6451 12.285 18.6601C12.29 18.6651 12.29 18.6651 12.295 18.6701C12.405 18.7501 12.515 18.8351 12.625 18.9151C12.64 18.9251 12.655 18.9351 12.67 18.9501C12.785 19.0351 12.9 19.1151 13.01 19.1951L13.0149 19.2001C13.1249 19.2801 13.24 19.3551 13.35 19.4351C13.36 19.4451 13.375 19.4501 13.385 19.4601C13.5 19.5401 13.615 19.6151 13.725 19.6951C13.725 19.6951 13.73 19.6951 13.73 19.7001C13.84 19.7751 13.95 19.8501 14.0649 19.9201C14.075 19.9251 14.085 19.9351 14.0949 19.9401C14.21 20.0151 14.32 20.0851 14.435 20.1551C13.655 20.3801 12.835 20.5001 12 20.5001ZM20.525 20.0201C20.525 20.0201 20.525 20.0251 20.525 20.0201C20.525 20.0351 20.525 20.0451 20.5199 20.0601C20.5199 20.0651 20.5199 20.0701 20.5199 20.0701C20.5199 20.0801 20.5199 20.0901 20.5149 20.1001C20.5149 20.1051 20.5149 20.1101 20.5149 20.1151C20.5149 20.1251 20.51 20.1301 20.51 20.1401C20.51 20.1451 20.51 20.1501 20.5049 20.1551C20.5049 20.1651 20.5 20.1751 20.5 20.1801C20.5 20.1901 20.4949 20.1951 20.4949 20.2001C20.4949 20.2051 20.4949 20.2051 20.49 20.2101C20.49 20.2151 20.485 20.2201 20.485 20.2251C20.485 20.2301 20.4799 20.2301 20.4799 20.2351C20.4799 20.2401 20.475 20.2451 20.475 20.2501C20.475 20.2501 20.4749 20.2551 20.4699 20.2551C20.4699 20.2601 20.4649 20.2651 20.4649 20.2651C20.4649 20.2651 20.465 20.2701 20.46 20.2701C20.455 20.2751 20.455 20.2801 20.4499 20.2851C20.445 20.2901 20.445 20.2901 20.4399 20.2951C20.4399 20.2951 20.44 20.2951 20.4349 20.2951C20.43 20.3001 20.4249 20.3001 20.42 20.3051C20.4149 20.3101 20.4049 20.3151 20.4 20.3151C20.4 20.3151 20.4 20.3151 20.3949 20.3151C20.3899 20.3201 20.3799 20.3201 20.3699 20.3251H20.365C20.3449 20.3301 20.3249 20.3401 20.2999 20.3451H20.295C20.2699 20.3501 20.24 20.3551 20.21 20.3601C20.205 20.3601 20.205 20.3601 20.1999 20.3601C20.1849 20.3601 20.17 20.3651 20.155 20.3651H20.15C20.1299 20.3651 20.115 20.3701 20.0949 20.3701H20.0899C20.0749 20.3701 20.055 20.3701 20.035 20.3701C20.03 20.3701 20.025 20.3701 20.025 20.3701C20.01 20.3701 19.995 20.3701 19.9799 20.3701C19.9699 20.3701 19.9599 20.3701 19.9499 20.3701C19.9349 20.3701 19.92 20.3701 19.905 20.3701C19.895 20.3701 19.885 20.3701 19.875 20.3701C19.8599 20.3701 19.84 20.3701 19.8249 20.3651C19.815 20.3651 19.8049 20.3651 19.7899 20.3601C19.7699 20.3601 19.755 20.3551 19.735 20.3551C19.725 20.3551 19.7099 20.3501 19.6999 20.3501C19.68 20.3501 19.66 20.3451 19.6449 20.3401C19.6299 20.3401 19.62 20.3351 19.6049 20.3351C19.5849 20.3301 19.5649 20.3301 19.545 20.3251C19.5299 20.3251 19.5149 20.3201 19.5049 20.3201C19.485 20.3151 19.4649 20.3101 19.4399 20.3101C19.4249 20.3051 19.41 20.3051 19.3949 20.3001C19.375 20.2951 19.35 20.2901 19.33 20.2851C19.28 20.2751 19.2299 20.2601 19.1749 20.2501C19.17 20.2501 19.165 20.2451 19.16 20.2451C19.135 20.2401 19.11 20.2301 19.085 20.2251C19.065 20.2201 19.05 20.2151 19.035 20.2101C19.01 20.2051 18.985 20.1951 18.96 20.1851C18.94 20.1801 18.92 20.1751 18.9 20.1701C18.875 20.1601 18.8449 20.1551 18.82 20.1451C18.7999 20.1401 18.78 20.1301 18.76 20.1251C18.735 20.1151 18.705 20.1051 18.6749 20.0951C18.6549 20.0851 18.63 20.0801 18.61 20.0701C18.58 20.0601 18.555 20.0501 18.525 20.0401C18.5 20.0301 18.4799 20.0251 18.455 20.0151C18.4249 20.0051 18.3949 19.9951 18.365 19.9801C18.3399 19.9701 18.3149 19.9601 18.2899 19.9501C18.2599 19.9401 18.2299 19.9251 18.1999 19.9151C18.18 19.9051 18.16 19.9001 18.1399 19.8901C18.1299 19.8851 18.125 19.8851 18.115 19.8801C18.0999 19.8751 18.0849 19.8651 18.07 19.8601C18.025 19.8401 17.9799 19.8201 17.9349 19.8001C17.925 19.7951 17.915 19.7901 17.905 19.7901C17.85 19.7651 17.795 19.7401 17.74 19.7151C17.7249 19.7101 17.7099 19.7001 17.695 19.6951C17.6399 19.6701 17.5849 19.6451 17.525 19.6151C17.52 19.6151 17.5199 19.6101 17.5149 19.6101C17.455 19.5801 17.3899 19.5501 17.33 19.5201C17.315 19.5151 17.3049 19.5051 17.2899 19.5001C17.2249 19.4701 17.16 19.4351 17.0949 19.4001C17.0899 19.3951 17.085 19.3951 17.08 19.3901C17.005 19.3501 16.93 19.3151 16.86 19.2751C16.85 19.2701 16.845 19.2651 16.835 19.2601C16.76 19.2201 16.685 19.1801 16.61 19.1351C16.61 19.1351 16.61 19.1351 16.605 19.1351C16.605 19.1351 16.5999 19.1351 16.5999 19.1301C16.54 19.0951 16.4749 19.0601 16.4149 19.0251C16.32 18.9701 16.225 18.9151 16.13 18.8601C15.705 18.6101 15.275 18.3401 14.83 18.0401C14.825 18.0351 14.82 18.0351 14.8149 18.0301C14.7549 17.9901 14.695 17.9501 14.635 17.9101C14.625 17.9051 14.615 17.8951 14.6 17.8901C14.545 17.8501 14.485 17.8151 14.43 17.7751C14.415 17.7651 14.4 17.7551 14.385 17.7451C14.33 17.7051 14.275 17.6701 14.225 17.6301C14.21 17.6201 14.1899 17.6051 14.175 17.5951C14.12 17.5601 14.07 17.5201 14.0149 17.4801C13.9949 17.4651 13.98 17.4551 13.96 17.4401C13.91 17.4051 13.855 17.3651 13.805 17.3251C13.785 17.3101 13.7649 17.2951 13.745 17.2801C13.695 17.2401 13.6399 17.2051 13.5899 17.1651C13.57 17.1501 13.55 17.1351 13.53 17.1201C13.48 17.0801 13.425 17.0401 13.375 17.0001C13.355 16.9851 13.34 16.9751 13.32 16.9601C13.2649 16.9201 13.21 16.8801 13.16 16.8351C13.15 16.8251 13.135 16.8151 13.125 16.8051C12.945 16.6701 12.77 16.5301 12.59 16.3851C12.565 16.3651 12.545 16.3501 12.5199 16.3301C12.4799 16.2951 12.4399 16.2651 12.3949 16.2301C12.36 16.2051 12.33 16.1751 12.295 16.1501C12.255 16.1201 12.22 16.0851 12.18 16.0551C12.145 16.0251 12.11 15.9951 12.075 15.9651C12.04 15.9351 12 15.9051 11.965 15.8751C11.925 15.8451 11.89 15.8101 11.85 15.7801C11.815 15.7501 11.78 15.7201 11.745 15.6901C11.705 15.6551 11.665 15.6251 11.625 15.5901C11.59 15.5601 11.555 15.5301 11.525 15.5051C11.485 15.4701 11.445 15.4351 11.405 15.4001C11.37 15.3701 11.34 15.3451 11.305 15.3151C11.265 15.2801 11.22 15.2401 11.18 15.2051C11.15 15.1751 11.115 15.1501 11.085 15.1201C11.04 15.0801 11 15.0451 10.955 15.0051C10.925 14.9801 10.895 14.9501 10.865 14.9251C10.82 14.8851 10.775 14.8451 10.73 14.8051C10.7 14.7801 10.675 14.7551 10.6449 14.7301C10.595 14.6851 10.545 14.6401 10.5 14.5951C10.475 14.5751 10.45 14.5501 10.425 14.5301C10.37 14.4801 10.31 14.4251 10.255 14.3751C10.24 14.3601 10.22 14.3451 10.205 14.3301C10.13 14.2601 10.055 14.1901 9.98495 14.1201C9.90995 14.0501 9.83995 13.9801 9.76495 13.9101C9.74995 13.8951 9.72995 13.8801 9.71495 13.8601C9.65995 13.8051 9.60495 13.7551 9.54995 13.7001C9.52495 13.6751 9.49995 13.6551 9.47995 13.6301C9.43495 13.5851 9.38495 13.5401 9.33995 13.4901C9.31495 13.4651 9.28495 13.4351 9.25995 13.4101C9.21495 13.3651 9.17495 13.3251 9.12995 13.2801C9.09995 13.2501 9.07495 13.2251 9.04495 13.1951C9.00495 13.1551 8.96495 13.1151 8.92495 13.0751C8.89495 13.0451 8.86495 13.0151 8.83495 12.9851C8.79495 12.9451 8.75995 12.9051 8.71995 12.8651C8.68995 12.8351 8.65995 12.8001 8.62995 12.7701C8.59495 12.7301 8.55495 12.6951 8.51995 12.6551C8.48995 12.6201 8.45495 12.5901 8.42495 12.5551C8.40995 12.5401 8.39495 12.5201 8.37495 12.5051C8.35495 12.4851 8.33495 12.4651 8.31995 12.4451C8.28995 12.4101 8.25495 12.3751 8.22495 12.3451C8.18995 12.3101 8.15995 12.2751 8.12495 12.2401C8.08995 12.2051 8.05995 12.1701 8.02495 12.1351C7.99495 12.1001 7.96495 12.0701 7.92995 12.0351C7.89495 12.0001 7.85995 11.9601 7.82995 11.9251C7.80495 11.8951 7.77495 11.8651 7.74995 11.8351C7.71495 11.7951 7.67495 11.7551 7.63995 11.7151C7.61995 11.6951 7.60495 11.6751 7.58495 11.6551C7.48995 11.5451 7.38995 11.4401 7.29995 11.3301C7.24495 11.2651 7.18495 11.2001 7.12995 11.1351C7.11995 11.1251 7.10995 11.1151 7.10495 11.1051C7.05995 11.0501 7.01495 11.0001 6.96995 10.9451C6.95495 10.9301 6.94495 10.9151 6.92995 10.9001C6.88495 10.8501 6.84495 10.8001 6.79995 10.7451C6.78495 10.7301 6.76995 10.7101 6.75495 10.6951C6.71495 10.6451 6.66995 10.5951 6.62995 10.5451C6.61495 10.5251 6.59995 10.5101 6.58495 10.4901C6.54495 10.4401 6.49995 10.3901 6.45995 10.3401C6.44495 10.3251 6.42995 10.3051 6.41995 10.2901C6.37995 10.2401 6.33495 10.1851 6.29495 10.1351C6.28495 10.1201 6.26995 10.1051 6.25995 10.0901C6.21995 10.0351 6.17495 9.98513 6.13495 9.93013C6.12495 9.91513 6.11495 9.90513 6.10495 9.89013C6.06995 9.84513 6.03495 9.80013 5.99995 9.75513C5.98995 9.74513 5.98495 9.73513 5.97495 9.72513C5.96995 9.71513 5.95995 9.70513 5.95495 9.70013C5.90995 9.64013 5.86495 9.58513 5.81995 9.52513C5.81495 9.52013 5.81495 9.52013 5.80995 9.51513C5.36495 8.93013 4.96495 8.36013 4.61995 7.80513C4.61995 7.80513 4.61995 7.80513 4.61995 7.80013C4.57495 7.72513 4.52495 7.65013 4.47995 7.57513C4.47495 7.57013 4.46995 7.56013 4.46995 7.55513C4.42495 7.48013 4.37995 7.40513 4.33495 7.33013L4.32995 7.32513C4.29495 7.26013 4.25495 7.20013 4.21995 7.14013C4.20995 7.12513 4.19995 7.11013 4.19495 7.09513C4.16495 7.04013 4.13495 6.98513 4.10495 6.93013C4.09495 6.91513 4.08995 6.90013 4.07995 6.88513C4.05995 6.84513 4.03495 6.80513 4.01495 6.76513C3.99995 6.74013 3.98995 6.71513 3.97495 6.69013C3.95995 6.66513 3.94495 6.63513 3.93495 6.61013C3.90995 6.56013 3.88495 6.51013 3.85995 6.46513C3.85495 6.45013 3.84495 6.43513 3.83995 6.42013C3.82495 6.38513 3.80495 6.35513 3.78995 6.32013C3.78995 6.32013 3.78995 6.32013 3.78995 6.31513C3.69995 6.12513 3.61995 5.95013 3.55495 5.78513C3.55495 5.78513 3.55495 5.78013 3.54995 5.78013C3.53495 5.74013 3.51995 5.70013 3.50495 5.66513V5.66013C3.47995 5.59013 3.45495 5.52513 3.42995 5.46013C3.37495 5.30513 3.32995 5.16013 3.29995 5.03013C3.28495 4.96513 3.26995 4.90513 3.25495 4.84513C3.23995 4.77013 3.22495 4.69513 3.21995 4.63013C3.21495 4.61013 3.21495 4.58513 3.21495 4.56513V4.56013C3.21495 4.54013 3.20995 4.52013 3.20995 4.50013C3.20495 4.46013 3.20495 4.42513 3.20495 4.39013C3.20495 4.35513 3.20495 4.32513 3.20495 4.29513C3.20495 4.29013 3.20495 4.28513 3.20495 4.28513C3.20495 4.27513 3.20495 4.26513 3.20995 4.25013C3.20995 4.24513 3.20995 4.24013 3.20995 4.23513C3.20995 4.22513 3.20995 4.21513 3.21495 4.20513C3.21495 4.20013 3.21495 4.19513 3.21495 4.19013C3.21495 4.18013 3.21995 4.17513 3.21995 4.16513C3.21995 4.16013 3.21995 4.15513 3.22495 4.15013C3.22995 4.13513 3.22995 4.12513 3.23495 4.11513C3.23495 4.11013 3.23995 4.10513 3.23995 4.10013C3.23995 4.09513 3.24495 4.09013 3.24495 4.08513C3.24495 4.08013 3.24995 4.07513 3.24995 4.07013C3.24995 4.06513 3.25495 4.06513 3.25495 4.06013C3.25495 4.05513 3.25995 4.05013 3.25995 4.05013C3.25995 4.04513 3.26495 4.04513 3.26495 4.04013C3.26495 4.03513 3.26995 4.03513 3.26995 4.03013L3.27495 4.02513C3.27995 4.02013 3.27995 4.01513 3.28495 4.01513C3.32495 3.97013 3.46495 3.91513 3.73495 3.91513C3.75495 3.91513 3.77495 3.91513 3.79995 3.91513C3.80495 3.91513 3.80995 3.91513 3.81495 3.91513C3.83495 3.91513 3.85995 3.91513 3.88495 3.92013C3.90995 3.92013 3.93495 3.92513 3.95995 3.92513C3.96495 3.92513 3.96495 3.92513 3.96995 3.92513C3.99495 3.92513 4.01995 3.93013 4.04995 3.93513C4.07995 3.94013 4.10995 3.94513 4.13995 3.94513H4.14495C4.17495 3.95013 4.20495 3.95513 4.23995 3.96013C4.51995 4.06013 4.94995 4.18013 5.49995 4.40013C5.21995 4.64013 4.94995 4.89513 4.69995 5.17013C4.54995 5.12013 4.41495 5.08013 4.29495 5.04513C4.33495 5.16513 4.37995 5.30013 4.44495 5.45013C4.59495 5.81013 4.81995 6.27513 5.15995 6.85013C5.16995 6.87013 5.18495 6.89013 5.19495 6.90513C5.43495 6.58013 5.70495 6.27513 5.99495 5.98513C6.82495 5.15513 7.79995 4.51513 8.85995 4.09513C7.64995 5.32013 6.73995 6.84513 6.25495 8.50513C6.59995 8.98013 6.97995 9.46513 7.38995 9.96013C7.82995 7.22013 9.52495 4.82013 11.995 3.49513C12 3.49513 12 3.49513 12.005 3.49513C13 3.49513 13.97 3.66513 14.885 3.99013C14.855 4.02013 14.815 4.05513 14.785 4.08013C14.755 4.10513 14.7249 4.13513 14.695 4.16013C14.66 4.19013 14.6249 4.22513 14.5899 4.25513C14.53 4.30513 14.4749 4.35513 14.42 4.41013C14.4 4.43013 14.375 4.45513 14.355 4.47513C14.33 4.49513 14.3099 4.52013 14.2899 4.54513C14.275 4.56513 14.2549 4.58013 14.24 4.60013C14.115 4.73013 13.995 4.86013 13.875 4.99513C13.8549 5.01513 13.8349 5.04013 13.8149 5.06013C13.7899 5.08513 13.7649 5.11013 13.74 5.14013C13.735 5.14513 13.7299 5.15013 13.725 5.16013C13.72 5.16513 13.715 5.17513 13.71 5.18013C13.685 5.21013 13.66 5.24013 13.6399 5.27013C13.62 5.29513 13.605 5.32013 13.585 5.34013C13.445 5.51513 13.305 5.69513 13.175 5.88013C13.17 5.89013 13.16 5.90013 13.155 5.90513C13.145 5.91513 13.14 5.92513 13.13 5.94013C12.985 6.15013 12.845 6.36513 12.71 6.58513C12.705 6.59513 12.7 6.60013 12.695 6.61013L12.69 6.61513C12.69 6.62013 12.6849 6.62013 12.6849 6.62513C12.175 7.50513 11.825 8.45513 11.595 9.44013C11.595 9.45013 11.59 9.45513 11.59 9.46513C11.585 9.47513 11.585 9.48013 11.58 9.49013C11.575 9.52013 11.5649 9.55513 11.56 9.58513C11.555 9.60013 11.555 9.62013 11.55 9.63513C11.485 9.94513 11.43 10.2551 11.39 10.5701C11.385 10.5901 11.385 10.6101 11.38 10.6351C11.375 10.6601 11.37 10.6851 11.37 10.7101C11.365 10.7651 11.365 10.8151 11.36 10.8701C11.36 10.9101 11.36 10.9551 11.355 10.9951C11.35 11.0651 11.34 11.1301 11.335 11.2001C11.325 11.3101 11.31 11.4201 11.31 11.5301C11.155 11.6151 11 11.6951 10.845 11.7701C10.8 11.7901 10.755 11.8151 10.71 11.8351C10.625 11.8751 10.535 11.9201 10.45 11.9551C10.305 12.0151 10.16 12.0651 10.01 12.1101C9.96495 12.1251 9.91995 12.1401 9.87495 12.1551C9.75495 12.1951 9.62995 12.2351 9.50995 12.2701C9.87995 12.6451 10.265 13.0251 10.66 13.3951C10.81 13.3401 10.955 13.2801 11.105 13.2201C11.125 13.2101 11.145 13.2051 11.165 13.1951C11.19 13.1851 11.215 13.1801 11.235 13.1701C11.28 13.1501 11.33 13.1251 11.375 13.1001C11.415 13.0801 11.45 13.0601 11.49 13.0401C11.55 13.0101 11.61 12.9851 11.67 12.9601C11.775 12.9151 11.88 12.8701 11.975 12.8151C12.125 12.9051 12.275 13.0001 12.415 13.1001C12.45 13.1251 12.485 13.1451 12.5199 13.1701C12.6049 13.2251 12.6899 13.2851 12.7699 13.3451C12.885 13.4351 12.995 13.5301 13.105 13.6301C13.145 13.6651 13.19 13.7051 13.23 13.7401C13.855 14.2951 14.405 14.9201 14.855 15.6251C14.86 15.6351 14.865 15.6401 14.87 15.6451L14.875 15.6551L14.88 15.6601L14.885 15.6651C14.615 15.8751 14.3399 16.0751 14.0399 16.2601C14.4599 16.5751 14.875 16.8751 15.285 17.1501C15.38 17.0851 15.4749 17.0151 15.5649 16.9501C15.6349 17.1151 15.6899 17.2851 15.75 17.4551C15.75 17.4601 15.75 17.4601 15.755 17.4651C16.35 17.8501 16.9349 18.1901 17.49 18.4801C17.4949 18.4751 17.5 18.4701 17.5049 18.4651C17.495 18.4201 17.485 18.3801 17.475 18.3351C17.465 18.3001 17.4599 18.2601 17.4499 18.2251C17.44 18.1801 17.4349 18.1401 17.4249 18.0951C17.41 18.0151 17.395 17.9351 17.375 17.8601C17.365 17.8301 17.36 17.8001 17.35 17.7701C17.3449 17.7401 17.3349 17.7151 17.3249 17.6851C17.315 17.6601 17.3099 17.6351 17.2999 17.6101C17.25 17.4351 17.1949 17.2651 17.1399 17.0951C17.1299 17.0651 17.1199 17.0351 17.1149 17.0101C17.1049 16.9751 17.095 16.9451 17.085 16.9101C17.08 16.9001 17.08 16.8951 17.075 16.8851C17.07 16.8751 17.0699 16.8701 17.0649 16.8601C17.0499 16.8251 17.035 16.7901 17.0199 16.7551C17.0099 16.7251 16.995 16.7001 16.985 16.6701C16.905 16.4601 16.82 16.2501 16.7199 16.0451C16.7149 16.0351 16.71 16.0251 16.705 16.0151C16.7 16.0001 16.695 15.9901 16.6899 15.9751C16.5799 15.7451 16.4699 15.5151 16.3399 15.2901C16.3349 15.2851 16.335 15.2801 16.33 15.2701C16.325 15.2601 16.32 15.2501 16.3149 15.2451C15.8049 14.3651 15.16 13.5851 14.425 12.8901C14.42 12.8851 14.41 12.8751 14.405 12.8701C14.4 12.8651 14.39 12.8551 14.385 12.8501C14.36 12.8251 14.33 12.8001 14.3 12.7751C14.29 12.7651 14.28 12.7601 14.2699 12.7501C14.035 12.5401 13.7949 12.3351 13.5399 12.1451C13.5199 12.1301 13.5049 12.1151 13.49 12.1001C13.4699 12.0851 13.45 12.0701 13.43 12.0551C13.385 12.0251 13.34 11.9951 13.295 11.9701C13.2599 11.9501 13.22 11.9251 13.185 11.9001C13.13 11.8601 13.075 11.8251 13.0199 11.7851C12.9299 11.7201 12.84 11.6551 12.745 11.5951C12.75 11.4201 12.755 11.2451 12.7699 11.0701C12.775 11.0201 12.775 10.9751 12.78 10.9251C12.785 10.8301 12.795 10.7301 12.805 10.6351C12.825 10.4751 12.86 10.3201 12.8899 10.1651C12.9 10.1251 12.905 10.0801 12.9149 10.0401C13.0799 9.22513 13.35 8.43513 13.735 7.69513C13.74 7.68513 13.745 7.67513 13.75 7.66513C13.755 7.66013 13.755 7.65013 13.76 7.64513C14.145 7.80013 14.525 7.97513 14.8949 8.18513C17.7699 9.84513 19.4649 12.9501 19.365 16.2251C18.9949 16.8601 18.545 17.4501 18.01 17.9851C17.84 18.1551 17.66 18.3201 17.475 18.4751C17.4949 18.4851 17.515 18.4951 17.535 18.5051C18.13 18.8101 18.5999 19.0051 18.9699 19.1301C19.125 19.1851 19.2649 19.2251 19.385 19.2551C19.35 19.1401 19.2999 19.0051 19.24 18.8551C19.3449 18.7451 19.4499 18.6301 19.5499 18.5151L19.555 18.5101C19.6 18.4551 19.65 18.4001 19.695 18.3451C19.705 18.3351 19.715 18.3251 19.7199 18.3101C19.76 18.2601 19.8049 18.2051 19.8449 18.1551C19.8549 18.1401 19.865 18.1301 19.875 18.1151C19.9 18.0801 19.93 18.0451 19.955 18.0101C20.3549 18.8501 20.49 19.4251 20.5149 19.7801C20.5199 19.8251 20.5199 19.8651 20.5199 19.9051C20.5299 19.9701 20.5299 19.9951 20.525 20.0201Z" fill="#13334C"/>
</svg>
