<svg width="24" height="24" viewBox="0 0 24 24" fill="none" xmlns="http://www.w3.org/2000/svg">
<path fill-rule="evenodd" clip-rule="evenodd" d="M17.5001 1.5C14.7401 1.5 12.5001 3.74 12.5001 6.5C12.5001 9.26 14.7401 11.5 17.5001 11.5C20.2601 11.5 22.5001 9.26 22.5001 6.5C22.5001 3.74 20.2601 1.5 17.5001 1.5ZM19.7701 6.875C19.8501 7.77 20.2051 8.585 20.7501 9.235C20.5901 9.425 20.4101 9.605 20.2151 9.765C19.5351 8.98 19.1001 7.975 19.0201 6.875H17.8751V10.735C17.7501 10.745 17.6251 10.75 17.5001 10.75C17.3751 10.75 17.2501 10.745 17.1251 10.735V6.875H15.9801C15.9001 7.975 15.4601 8.98 14.7851 9.765C14.5901 9.605 14.4151 9.425 14.2501 9.235C14.7951 8.585 15.1501 7.77 15.2301 6.875H13.2701C13.2601 6.75 13.2551 6.625 13.2551 6.5C13.2551 6.375 13.2601 6.25 13.2701 6.125H15.2301C15.1501 5.23 14.7951 4.415 14.2501 3.765C14.4101 3.575 14.5901 3.395 14.7851 3.235C15.4651 4.02 15.9001 5.025 15.9801 6.125H17.1251V2.265C17.2501 2.255 17.3751 2.25 17.5001 2.25C17.6251 2.25 17.7501 2.255 17.8751 2.265V6.125H19.0201C19.1001 5.025 19.5401 4.02 20.2151 3.235C20.4101 3.395 20.5851 3.575 20.7501 3.765C20.2051 4.415 19.8501 5.23 19.7701 6.125H21.7301C21.7401 6.25 21.7451 6.375 21.7451 6.5C21.7451 6.625 21.7401 6.75 21.7301 6.875H19.7701Z" fill="#13334C"/>
<path fill-rule="evenodd" clip-rule="evenodd" d="M19.165 18.3749C19.06 18.2999 19 18.1799 19 18.0499V15.9999C19 14.9049 18.07 14.1499 17.09 13.8899C15.825 13.5499 14.535 13.3199 13.295 12.8899C12.065 12.4649 10.825 11.8849 10.225 10.6649C9.74502 9.68991 9.47002 6.84991 9.38002 5.49991C9.38002 5.49491 9.38002 5.49491 9.38002 5.48991C9.39002 5.28991 9.29502 5.09491 9.10502 5.03991C8.43002 4.84491 7.81502 5.35491 7.81502 5.99991V6.09991C7.81502 6.31991 7.63502 6.49991 7.41502 6.49991H4.49502C3.47002 6.49991 2.61002 7.27491 2.50502 8.29991L2.50002 15.8699C2.49502 16.9999 3.25502 17.4999 4.13502 17.4999L4.40002 17.5099C2.95502 17.6199 2.36502 18.6699 2.03002 19.4399C1.91502 19.7049 2.11002 19.9999 2.39502 19.9999H2.49502C2.49502 21.1049 3.39002 21.9999 4.49502 21.9999C5.60002 21.9999 6.49502 21.1049 6.49502 19.9999H6.99502C6.99502 21.1049 7.89002 21.9999 8.99502 21.9999C10.1 21.9999 10.995 21.1049 10.995 19.9999H11.495C11.495 21.1049 12.39 21.9999 13.495 21.9999C14.6 21.9999 15.495 21.1049 15.495 19.9999H15.995C15.995 21.1499 16.975 22.0799 18.14 21.9949C19.13 21.9249 19.93 21.1149 19.99 20.1199C20.04 19.4049 19.7 18.7599 19.165 18.3749ZM4.50002 20.9999C3.95002 20.9999 3.50002 20.5499 3.50002 19.9999H5.50002C5.50002 20.5499 5.05002 20.9999 4.50002 20.9999ZM9.00002 20.9999C8.45002 20.9999 8.00002 20.5499 8.00002 19.9999H10C10 20.5499 9.55002 20.9999 9.00002 20.9999ZM13.5 20.9999C12.95 20.9999 12.5 20.5499 12.5 19.9999H14.5C14.5 20.5499 14.05 20.9999 13.5 20.9999ZM6.40002 17.9999C6.18002 17.9999 6.00002 17.8199 6.00002 17.5999V17.3999C6.00002 17.1799 6.18002 16.9999 6.40002 16.9999H17.1C17.32 16.9999 17.5 17.1799 17.5 17.3999V17.5999C17.5 17.8199 17.32 17.9999 17.1 17.9999H6.40002ZM18 20.9999C17.45 20.9999 17 20.5499 17 19.9999H19C19 20.5499 18.55 20.9999 18 20.9999Z" fill="#13334C"/>
</svg>
