<svg width="24" height="24" viewBox="0 0 24 24" fill="none" xmlns="http://www.w3.org/2000/svg">
<path d="M19.3799 1.92495C19.2949 1.75995 19.1299 1.64495 18.9449 1.61995C13.6949 0.909947 8.39992 2.91495 5.31492 7.31995C2.22992 11.7249 2.15492 17.3849 4.61492 22.0749C4.69992 22.2399 4.86492 22.3549 5.04992 22.3799C10.2949 23.0899 15.5899 21.0849 18.6749 16.6799C21.7649 12.2749 21.8399 6.60995 19.3799 1.92495ZM16.2599 10.7099C16.1149 10.9199 15.8799 11.0299 15.6449 11.0299C15.4949 11.0299 15.3449 10.9849 15.2149 10.8949L14.1899 10.1799L13.0449 11.8199L14.0699 12.5349C14.4099 12.7749 14.4899 13.2399 14.2549 13.5799C14.1099 13.7899 13.8749 13.8999 13.6399 13.8999C13.4899 13.8999 13.3399 13.8549 13.2099 13.7649L12.1849 13.0499L11.0399 14.6899L12.0649 15.4049C12.4049 15.6449 12.4849 16.1099 12.2499 16.4499C12.1049 16.6599 11.8699 16.7699 11.6349 16.7699C11.4849 16.7699 11.3349 16.7249 11.2049 16.6349L10.1799 15.9199L9.46492 16.9449C9.31992 17.1549 9.08492 17.2649 8.84992 17.2649C8.69992 17.2649 8.54992 17.2199 8.41992 17.1299C8.07992 16.8899 7.99992 16.4249 8.23492 16.0849L8.94992 15.0499L7.92492 14.3349C7.58492 14.0949 7.50492 13.6299 7.73992 13.2899C7.97992 12.9499 8.44492 12.8699 8.78492 13.1049L9.80992 13.8199L10.9549 12.1799L9.92992 11.4649C9.58992 11.2249 9.50992 10.7599 9.74492 10.4199C9.98492 10.0799 10.4499 9.99995 10.7899 10.2349L11.8149 10.9499L12.9599 9.30995L11.9399 8.59995C11.5999 8.35995 11.5199 7.89495 11.7549 7.55495C11.9949 7.21495 12.4599 7.13495 12.7999 7.36995L13.8249 8.08495L14.5399 7.05995C14.7799 6.71995 15.2449 6.63995 15.5849 6.87495C15.9249 7.11495 16.0049 7.57995 15.7699 7.91995L15.0499 8.94995L16.0749 9.66495C16.4149 9.90495 16.4999 10.3699 16.2599 10.7099Z" fill="#13334C"/>
</svg>
