<svg width="24" height="24" viewBox="0 0 24 24" fill="none" xmlns="http://www.w3.org/2000/svg">
<g clip-path="url(#clip0_17945_10236)">
<path d="M5.45491 11.515C6.10991 10.645 6.81491 9.80004 7.54991 8.98504C6.97991 8.56504 6.39491 8.16504 5.79491 7.79004C5.08491 8.83504 4.64991 10.04 4.52991 11.29C4.83991 11.37 5.14991 11.445 5.45491 11.515Z" fill="#13334C"/>
<path d="M11.985 4.27002C11.615 4.27002 11.25 4.28002 10.885 4.30002C11.265 4.59002 11.635 4.87502 12.01 5.17002C12.38 4.88002 12.755 4.59002 13.135 4.30502C12.75 4.28002 12.37 4.27002 11.985 4.27002Z" fill="#13334C"/>
<path d="M19.4651 11.29C19.3451 10.04 18.9101 8.84005 18.2051 7.80005C17.6101 8.17505 17.0251 8.57005 16.4601 8.99005C17.1951 9.80005 17.8951 10.645 18.5501 11.515C18.8601 11.445 19.1651 11.37 19.4651 11.29Z" fill="#13334C"/>
<path d="M15.905 18.4C15.835 18.28 15.77 18.16 15.7 18.04C14.475 18.165 13.235 18.23 12 18.23C10.77 18.23 9.52998 18.165 8.30498 18.045C8.23498 18.165 8.16498 18.285 8.09998 18.405C9.26998 19.125 10.605 19.5 12 19.5C13.4 19.5 14.735 19.12 15.905 18.4Z" fill="#13334C"/>
<path d="M12 14.73C12.885 14.73 13.765 14.695 14.64 14.625C15.215 14.58 15.79 14.52 16.36 14.44C16.73 14.39 17.095 14.335 17.46 14.275C17.995 14.185 18.525 14.08 19.055 13.96C19.485 13.865 19.915 13.76 20.34 13.645C20.875 13.505 21.405 13.345 21.93 13.175C21.975 12.79 22 12.395 22 11.995C22 11.855 21.995 11.715 21.99 11.575C21.9 9.365 21.09 7.345 19.79 5.73C19.465 5.325 19.11 4.945 18.725 4.6C18.255 4.855 17.795 5.12 17.34 5.395C16.15 6.12 15 6.92 13.905 7.8C13.66 7.565 13.415 7.34 13.165 7.115C14.215 6.265 15.315 5.48 16.46 4.77C16.93 4.475 17.41 4.195 17.895 3.925C17.435 3.59 16.945 3.29 16.43 3.035C15.09 2.37 13.59 2 12 2C10.415 2 8.92 2.37 7.59 3.025C7.075 3.28 6.585 3.575 6.12 3.91C6.605 4.18 7.085 4.465 7.555 4.755C8.7 5.47 9.8 6.255 10.855 7.11C11.245 7.425 11.63 7.755 12.01 8.09C12.26 8.31 12.51 8.54 12.75 8.77C12.995 9 13.24 9.235 13.475 9.475C13.59 9.59 13.705 9.71 13.82 9.825C14.77 10.805 15.655 11.835 16.475 12.91C16.09 12.965 15.71 13.015 15.32 13.055C14.62 12.17 13.87 11.315 13.075 10.5C12.975 10.395 12.87 10.29 12.765 10.185C12.515 9.935 12.26 9.69 12.005 9.445C11.76 9.215 11.515 8.99 11.265 8.77C10.885 8.435 10.5 8.11 10.11 7.8C9.015 6.92 7.865 6.115 6.665 5.39C6.21 5.115 5.75 4.85 5.28 4.595C4.895 4.945 4.54 5.32 4.215 5.725C2.915 7.335 2.1 9.365 2.01 11.58C2.005 11.72 2 11.86 2 12C2 12.4 2.025 12.79 2.07 13.18C2.595 13.35 3.125 13.505 3.66 13.65C4.09 13.765 4.52 13.87 4.95 13.965C4.755 14.26 4.565 14.56 4.38 14.86C4.24 14.825 4.095 14.79 3.955 14.755C3.385 14.615 2.82 14.46 2.26 14.285C2.4 14.885 2.595 15.46 2.835 16.01C2.96 16.295 3.1 16.575 3.25 16.845C3.53 17.345 3.85 17.82 4.205 18.265C4.45 17.765 4.71 17.275 4.98 16.79C5.025 16.71 5.07 16.625 5.115 16.545C5.38 16.08 5.655 15.625 5.94 15.175C6.135 14.87 6.335 14.565 6.54 14.265C6.855 13.8 7.185 13.35 7.525 12.9C8.345 11.825 9.23 10.795 10.185 9.815C10.435 10.035 10.685 10.26 10.925 10.485C10.13 11.305 9.38 12.155 8.675 13.045C8.315 13.5 7.97 13.96 7.64 14.43C7.425 14.735 7.215 15.04 7.015 15.35C6.72 15.805 6.435 16.265 6.16 16.73C5.985 17.03 5.815 17.33 5.65 17.635C5.395 18.1 5.155 18.575 4.925 19.055C5.29 19.42 5.685 19.76 6.105 20.065C7.765 21.29 9.8 22 12 22C14.205 22 16.24 21.285 17.89 20.08C18.31 19.775 18.705 19.435 19.07 19.07C18.84 18.59 18.595 18.115 18.345 17.65C18.18 17.345 18.01 17.045 17.835 16.75C18.185 16.69 18.53 16.625 18.88 16.56C18.925 16.64 18.97 16.72 19.015 16.8C19.285 17.285 19.545 17.775 19.79 18.275C20.15 17.83 20.47 17.355 20.745 16.85C20.895 16.58 21.03 16.305 21.155 16.025C21.395 15.475 21.59 14.895 21.73 14.3C21.17 14.47 20.605 14.625 20.035 14.77C19.895 14.805 19.755 14.84 19.615 14.87C19.095 14.99 18.575 15.1 18.05 15.195C17.695 15.26 17.335 15.32 16.975 15.375C16.42 15.46 15.865 15.525 15.305 15.58C14.21 15.69 13.105 15.74 11.99 15.74C10.88 15.74 9.775 15.685 8.685 15.58C8.905 15.26 9.13 14.945 9.365 14.635C10.24 14.695 11.12 14.73 12 14.73ZM12.01 6.12C11.09 5.36 10.13 4.655 9.14 3.995C10.035 3.675 10.995 3.5 12 3.5C13.01 3.5 13.975 3.675 14.875 4C13.885 4.655 12.93 5.36 12.01 6.12ZM14.98 8.865C16.085 7.99 17.245 7.195 18.46 6.48C19.73 7.965 20.5 9.895 20.5 12C20.5 12.015 20.5 12.03 20.5 12.045C19.72 12.27 18.93 12.46 18.135 12.62C17.175 11.305 16.12 10.05 14.98 8.865ZM5.875 12.625C5.075 12.465 4.285 12.27 3.5 12.045C3.5 12.03 3.5 12.015 3.5 12C3.5 9.89 4.275 7.955 5.55 6.465C6.765 7.18 7.93 7.98 9.035 8.86C7.89 10.05 6.835 11.305 5.875 12.625ZM12.005 11.545C12.525 12.08 13.025 12.63 13.5 13.195C13 13.22 12.5 13.23 12 13.23C11.5 13.23 11.005 13.22 10.51 13.195C10.985 12.63 11.485 12.08 12.005 11.545ZM12 17.23C13.425 17.23 14.835 17.145 16.23 16.975C16.575 17.54 16.905 18.12 17.21 18.705C15.77 19.825 13.96 20.495 11.995 20.495C10.035 20.495 8.225 19.825 6.785 18.71C7.095 18.12 7.425 17.54 7.77 16.975C9.17 17.145 10.58 17.23 12 17.23Z" fill="#13334C"/>
</g>
<defs>
<clipPath id="clip0_17945_10236">
<rect width="24" height="24" fill="white"/>
</clipPath>
</defs>
</svg>
