<svg width="24" height="24" viewBox="0 0 24 24" fill="none" xmlns="http://www.w3.org/2000/svg">
<path d="M10.4 15.155C9.94999 14.84 9.32499 14.95 9.00499 15.4L7.68499 17.285L4.85499 16.19C4.33999 15.99 3.75999 16.245 3.55999 16.76C3.35999 17.275 3.61499 17.855 4.12999 18.055L7.68999 19.43C7.80999 19.475 7.92999 19.495 8.04999 19.495C8.36999 19.495 8.67999 19.34 8.86999 19.07L10.64 16.545C10.96 16.095 10.85 15.47 10.4 15.155Z" fill="#13334C"/>
<path d="M20.99 1.9501C20.33 1.0051 19.15 0.795103 18.205 1.4601C17.26 2.1251 17.05 3.3001 17.715 4.2451C18.375 5.1901 19.545 5.4051 20.49 4.7401C21.435 4.0751 21.65 2.8951 20.99 1.9501Z" fill="#13334C"/>
<path d="M18.92 6.47003L16.46 4.75003C16.435 4.73503 16.41 4.72003 16.385 4.70503C16.365 4.69503 16.345 4.68503 16.325 4.67503C16.31 4.67003 16.3 4.66003 16.285 4.65503C16.265 4.64503 16.245 4.64003 16.225 4.63003C16.215 4.62503 16.205 4.62003 16.195 4.62003C16.175 4.61503 16.155 4.61003 16.14 4.60503C16.125 4.60003 16.115 4.60003 16.1 4.59503C16.085 4.59003 16.065 4.59003 16.05 4.58503C16.035 4.58003 16.02 4.58003 16 4.57503C15.985 4.57503 15.975 4.57503 15.96 4.57003C15.94 4.57003 15.92 4.56503 15.9 4.56503C15.89 4.56503 15.88 4.56503 15.865 4.56503C15.845 4.56503 15.82 4.56503 15.8 4.56503C15.785 4.56503 15.765 4.57003 15.75 4.57003C15.73 4.57003 15.71 4.57503 15.695 4.58003C15.665 4.58503 15.64 4.59003 15.61 4.60003L9.52998 6.32503C9.51498 6.33003 9.49998 6.33503 9.48498 6.34003L11.005 7.98503L13.445 7.29003L12.745 8.28503H9.91998L8.38498 6.62503C7.38498 5.48503 6.74998 4.64003 6.73998 4.63003C6.73498 4.62503 6.73498 4.62503 6.72998 4.62003C6.04998 3.76503 6.38498 3.08003 7.25998 1.83503C7.34498 1.71503 7.36998 1.56503 7.33498 1.42503C7.26998 1.17503 7.10998 1.08503 6.42998 0.750033C6.21498 0.645033 5.95498 0.705033 5.80998 0.895033C5.16998 1.74503 3.97998 3.33003 5.43998 4.92003L7.63498 7.29003C7.84998 7.53503 7.70998 7.38003 7.95498 7.65003C7.98498 7.68003 8.01498 7.70503 8.04998 7.73003L8.75998 8.49503C8.52498 8.68003 8.36998 8.96503 8.36998 9.28503C8.36998 9.83503 8.81498 10.285 9.36998 10.285H10.415L11.4 11.35C11.48 11.44 11.59 11.49 11.7 11.505C11.845 11.525 11.995 11.48 12.105 11.375C12.31 11.185 12.32 10.87 12.13 10.67L11.775 10.285H13.08C13.21 10.515 13.27 10.78 13.265 11.05C13.265 11.055 13.265 11.06 13.265 11.065C13.25 11.415 13.12 11.745 12.885 12.005L14.325 13.015C14.495 13.135 14.695 13.195 14.9 13.195C14.96 13.195 15.015 13.19 15.075 13.18C15.335 13.135 15.57 12.985 15.72 12.77L19.16 7.85503C19.31 7.64003 19.37 7.37003 19.325 7.11003C19.28 6.85003 19.135 6.62003 18.92 6.47003Z" fill="#13334C"/>
<path d="M15.7251 15.2199L12.0701 12.6549C11.6201 12.3399 10.9951 12.4449 10.6751 12.8999C10.3601 13.3499 10.4651 13.9749 10.9201 14.2949L13.9951 16.4549L12.5301 21.685C12.3801 22.215 12.6901 22.77 13.2251 22.915C13.3151 22.94 13.4051 22.95 13.4951 22.95C13.9301 22.95 14.3351 22.66 14.4551 22.22L16.1101 16.3099C16.2251 15.8999 16.0701 15.4649 15.7251 15.2199Z" fill="#13334C"/>
</svg>
