<svg width="24" height="24" viewBox="0 0 24 24" fill="none" xmlns="http://www.w3.org/2000/svg">
<path d="M17.69 20.2699C17.465 20.1099 17.15 20.1649 16.995 20.3949L15.905 21.9549H6C5.725 21.9549 5.5 22.1799 5.5 22.4549C5.5 22.7299 5.725 22.9549 6 22.9549H16.165C16.33 22.9549 16.48 22.8749 16.575 22.7399L17.815 20.9649C17.975 20.7399 17.92 20.4299 17.69 20.2699Z" fill="#13334C"/>
<path d="M7.74993 8.3849C8.69492 9.0449 9.86492 8.8349 10.5249 7.8899C11.1849 6.9449 10.9799 5.7649 10.0349 5.1049C9.08992 4.4449 7.90993 4.6499 7.24993 5.5949C6.58493 6.5399 6.80493 7.7199 7.74993 8.3849Z" fill="#13334C"/>
<path d="M2.30993 14.35C2.23993 14.085 1.96493 13.925 1.69493 14C1.42993 14.07 1.26993 14.345 1.34493 14.615L3.49993 22.58C3.55993 22.8 3.75993 22.945 3.97493 22.95C4.01993 22.95 4.06493 22.945 4.10993 22.935C4.37493 22.865 4.53493 22.59 4.45993 22.32L2.30993 14.35Z" fill="#13334C"/>
<path d="M3.27498 14.09L3.60498 15.315L6.49498 13.02V16.95C6.49498 17.5 6.94497 17.95 7.49498 17.95H10.495C10.76 17.95 11.015 17.845 11.2 17.655C11.39 17.465 11.495 17.215 11.495 16.95V13.945L12.7 15.55C12.89 15.8 13.185 15.95 13.5 15.95H15.75L15.13 14.56C15.04 14.36 15 14.155 15 13.95H14L11.295 10.35C11.29 10.34 11.28 10.33 11.275 10.325C11.27 10.32 11.27 10.315 11.265 10.315C11.245 10.295 11.23 10.275 11.21 10.255C11.205 10.25 11.2 10.245 11.2 10.245C11.18 10.225 11.16 10.205 11.135 10.19L11.13 10.185C11.11 10.17 11.09 10.155 11.065 10.14C11.06 10.135 11.055 10.135 11.05 10.13C11.03 10.115 11.005 10.1 10.985 10.09C10.98 10.085 10.97 10.08 10.965 10.08C10.94 10.07 10.92 10.055 10.895 10.045C10.89 10.04 10.88 10.04 10.875 10.035C10.855 10.025 10.835 10.02 10.815 10.01C10.805 10.005 10.8 10.005 10.79 9.99996C10.765 9.98996 10.74 9.98496 10.715 9.97996C10.705 9.97996 10.7 9.97496 10.69 9.97496C10.665 9.96996 10.635 9.96496 10.61 9.96496C10.605 9.96496 10.6 9.96496 10.595 9.96496C10.565 9.95996 10.535 9.95996 10.505 9.95996H7.50498C7.47498 9.95996 7.44498 9.95996 7.40998 9.96496C7.39998 9.96496 7.38498 9.96996 7.37498 9.96996C7.35498 9.96996 7.33997 9.97496 7.31997 9.97996C7.30498 9.98496 7.28998 9.98496 7.27998 9.98996C7.26498 9.99496 7.24998 9.99996 7.23498 9.99996C7.21997 10.005 7.20498 10.01 7.18998 10.015C7.17498 10.02 7.15998 10.025 7.14998 10.03C7.13498 10.035 7.11998 10.04 7.10498 10.045C7.08998 10.05 7.07498 10.06 7.05998 10.065C7.04998 10.07 7.03498 10.075 7.02498 10.085C6.99998 10.1 6.97498 10.115 6.94998 10.13C6.93998 10.135 6.93498 10.145 6.92498 10.15C6.90998 10.16 6.89998 10.17 6.88497 10.18L2.84998 13.385C3.04498 13.56 3.19998 13.805 3.27498 14.09Z" fill="#13334C"/>
<path d="M22.4299 21.955H20.6099L16.9599 13.745C16.8499 13.495 16.5499 13.38 16.2999 13.49C16.0499 13.6 15.9349 13.9 16.0449 14.15L19.8299 22.655C19.9099 22.835 20.0899 22.95 20.2849 22.95H22.4299C22.7049 22.95 22.9299 22.725 22.9299 22.45C22.9299 22.175 22.7049 21.955 22.4299 21.955Z" fill="#13334C"/>
<path d="M7.495 18.95C6.945 18.95 6.495 19.4 6.495 19.95C6.495 20.4999 6.945 20.9499 7.495 20.9499H14.495C15.045 20.9499 15.495 20.4999 15.495 19.95C15.495 19.4 15.045 18.95 14.495 18.95H7.495Z" fill="#13334C"/>
</svg>
