<svg width="24" height="24" viewBox="0 0 24 24" fill="none" xmlns="http://www.w3.org/2000/svg">
<path d="M21.49 8.84C20.895 9.565 20.08 10.105 19.15 10.355C19.705 11.23 20.125 12.185 20.4 13.19C20.245 14.275 19.885 15.295 19.355 16.21C19.42 14.115 18.745 12.095 17.5 10.475C15.825 10.29 14.425 9.18 13.82 7.67C13.795 7.66 13.77 7.65 13.745 7.64C13.74 7.645 13.74 7.655 13.735 7.66C13.73 7.67 13.725 7.68 13.72 7.69C13.335 8.43 13.065 9.22 12.9 10.035C12.89 10.075 12.885 10.12 12.875 10.16C12.845 10.315 12.81 10.47 12.79 10.63C12.78 10.725 12.77 10.825 12.765 10.92C12.76 10.97 12.76 11.015 12.755 11.065C12.74 11.24 12.735 11.415 12.73 11.59C12.825 11.65 12.915 11.715 13.005 11.78C13.055 11.82 13.11 11.855 13.165 11.895C13.2 11.92 13.24 11.945 13.275 11.965C13.32 11.99 13.365 12.02 13.41 12.05C13.43 12.065 13.45 12.08 13.47 12.095C13.485 12.11 13.5 12.125 13.52 12.14C13.775 12.33 14.015 12.535 14.25 12.745C14.26 12.755 14.27 12.76 14.28 12.77C14.31 12.795 14.34 12.82 14.365 12.845C14.37 12.85 14.38 12.86 14.385 12.865C14.39 12.87 14.4 12.88 14.405 12.885C15.14 13.58 15.785 14.36 16.295 15.24C16.3 15.245 16.305 15.255 16.31 15.265C16.315 15.275 16.315 15.28 16.32 15.285C16.45 15.51 16.56 15.74 16.67 15.97C16.675 15.985 16.68 15.995 16.685 16.01C16.69 16.02 16.695 16.03 16.7 16.04C16.8 16.245 16.885 16.455 16.965 16.665C16.975 16.695 16.99 16.72 17 16.75C17.015 16.785 17.03 16.82 17.045 16.855C17.05 16.865 17.05 16.87 17.055 16.88C17.06 16.89 17.06 16.895 17.065 16.905C17.075 16.94 17.085 16.97 17.095 17.005C17.1 17.03 17.11 17.06 17.12 17.09C17.175 17.26 17.23 17.43 17.28 17.605C17.29 17.63 17.295 17.655 17.305 17.68C17.315 17.71 17.325 17.735 17.33 17.765C17.34 17.795 17.345 17.825 17.355 17.855C17.375 17.93 17.39 18.01 17.405 18.09C17.415 18.135 17.42 18.175 17.43 18.22C17.44 18.255 17.445 18.295 17.455 18.33C17.465 18.375 17.475 18.415 17.485 18.46C17.08 18.8 16.645 19.105 16.18 19.37C16.16 19.18 16.13 18.99 16.095 18.8C16.075 18.7 16.05 18.605 16.03 18.505C15.985 18.29 15.935 18.075 15.87 17.86C15.85 17.79 15.825 17.72 15.8 17.65C15.785 17.615 15.77 17.58 15.76 17.545C15.75 17.515 15.74 17.485 15.73 17.455C15.67 17.285 15.615 17.115 15.545 16.95C15.225 17.185 14.895 17.41 14.54 17.615C12.13 19 9.325 19.33 6.735 18.65C5.895 17.985 5.18 17.165 4.635 16.23C7.42 17.955 10.95 18.03 13.825 16.37C14.195 16.16 14.535 15.915 14.86 15.66L14.855 15.655L14.85 15.65L14.845 15.64C14.84 15.635 14.835 15.625 14.83 15.62C14.38 14.915 13.83 14.29 13.205 13.735C13.165 13.7 13.12 13.66 13.08 13.625C12.97 13.525 12.86 13.43 12.745 13.34C12.665 13.28 12.58 13.22 12.495 13.165C12.46 13.14 12.425 13.12 12.39 13.095C12.25 12.995 12.1 12.9 11.95 12.81C11.855 12.865 11.75 12.91 11.645 12.955C11.585 12.98 11.525 13.005 11.465 13.035C11.425 13.055 11.39 13.075 11.35 13.095C11.305 13.12 11.255 13.145 11.21 13.165C11.19 13.175 11.165 13.18 11.14 13.19C11.12 13.2 11.1 13.205 11.08 13.215C10.79 13.34 10.49 13.445 10.19 13.545C10.175 13.555 10.155 13.56 10.14 13.565C10.115 13.575 10.085 13.585 10.055 13.595C10.045 13.6 10.03 13.605 10.02 13.605H10.01C10.005 13.605 10.005 13.605 10 13.605C9.035 13.9 8.03 14.07 7.015 14.07C7.005 14.07 7 14.07 6.99 14.07C6.985 14.07 6.975 14.07 6.97 14.07C6.705 14.065 6.45 14.05 6.195 14.03C6.185 14.03 6.17 14.025 6.16 14.025C6.15 14.02 6.135 14.02 6.125 14.02C5.895 14 5.675 13.97 5.45 13.935C5.425 13.93 5.395 13.93 5.365 13.925C5.33 13.92 5.29 13.915 5.25 13.91H5.245H5.235H5.225C5.215 13.91 5.21 13.905 5.2 13.905C5.16 13.9 5.12 13.89 5.08 13.88C5.055 13.87 5.03 13.865 5.005 13.86C4.83 13.825 4.655 13.785 4.48 13.74C4.46 13.735 4.435 13.73 4.415 13.725C4.385 13.72 4.35 13.715 4.32 13.705C4.31 13.7 4.295 13.7 4.285 13.695C4.265 13.69 4.25 13.685 4.23 13.68C4.155 13.66 4.08 13.635 4.005 13.61C3.96 13.595 3.92 13.58 3.875 13.565C3.845 13.55 3.81 13.54 3.775 13.53C3.73 13.515 3.685 13.5 3.64 13.485C3.55 12.995 3.505 12.49 3.505 11.975C3.505 11.95 3.505 11.925 3.505 11.9C3.685 11.975 3.865 12.045 4.045 12.11C4.14 12.145 4.24 12.175 4.335 12.205C4.55 12.275 4.76 12.34 4.975 12.39C5.04 12.405 5.11 12.42 5.18 12.43C5.22 12.44 5.265 12.445 5.305 12.455C5.345 12.465 5.38 12.47 5.42 12.48C5.585 12.51 5.755 12.545 5.925 12.565C5.88 12.17 5.85 11.77 5.85 11.365C5.85 8.58 6.965 5.985 8.855 4.08C9.825 3.69 10.885 3.475 11.995 3.475C9.105 5.025 7.275 8.045 7.275 11.365C7.275 11.795 7.315 12.21 7.375 12.62C7.38 12.62 7.39 12.62 7.4 12.62C7.405 12.62 7.415 12.62 7.425 12.62C8.255 12.585 9.075 12.425 9.865 12.16C9.91 12.145 9.955 12.13 10 12.115C10.15 12.07 10.295 12.02 10.44 11.96C10.525 11.925 10.615 11.88 10.7 11.84C10.745 11.82 10.79 11.795 10.835 11.775C10.99 11.7 11.145 11.62 11.3 11.535C11.3 11.425 11.315 11.315 11.325 11.205C11.33 11.135 11.34 11.07 11.345 11C11.35 10.96 11.35 10.915 11.35 10.875C11.355 10.82 11.355 10.77 11.36 10.715C11.36 10.69 11.365 10.665 11.37 10.64C11.375 10.615 11.375 10.595 11.38 10.575C11.42 10.26 11.475 9.95 11.54 9.64C11.545 9.625 11.545 9.605 11.55 9.59C11.555 9.56 11.565 9.525 11.57 9.495C11.57 9.49 11.57 9.48 11.575 9.47C11.58 9.46 11.585 9.455 11.585 9.445C11.815 8.46 12.165 7.51 12.675 6.63C12.675 6.625 12.68 6.625 12.68 6.62L12.685 6.615C12.69 6.605 12.695 6.6 12.7 6.59C12.835 6.37 12.975 6.155 13.12 5.945C13.13 5.93 13.135 5.92 13.145 5.91C13.15 5.905 13.16 5.895 13.165 5.885C13.285 5.715 13.415 5.55 13.54 5.385C13.7 4.23 14.295 3.215 15.16 2.51C14.17 2.18 13.105 2 12 2C6.475 2 2 6.475 2 12C2 17.52 6.475 22 12 22C17.52 22 22 17.52 22 12C22 10.895 21.82 9.83 21.49 8.84Z" fill="#13334C"/>
<path d="M17.9851 9.48511C19.9201 9.48511 21.4851 7.92011 21.4851 5.98511C21.4851 4.05011 19.9201 2.48511 17.9851 2.48511C16.0501 2.48511 14.4851 4.05011 14.4851 5.98511C14.4851 7.92011 16.0551 9.48511 17.9851 9.48511ZM16.0001 5.42011C15.7601 5.28011 15.6801 4.97511 15.8151 4.73511C15.9551 4.49511 16.2601 4.41511 16.5001 4.55011L17.4801 5.11511V3.98511C17.4801 3.71011 17.7051 3.48511 17.9801 3.48511C18.2551 3.48511 18.4801 3.71011 18.4801 3.98511V5.12011L19.4601 4.55511C19.7001 4.41511 20.0051 4.50011 20.1451 4.74011C20.2851 4.98011 20.2001 5.28511 19.9601 5.42511L18.9801 5.99011L19.9601 6.55511C20.2001 6.69511 20.2801 7.00011 20.1451 7.24011C20.0501 7.40011 19.8851 7.49011 19.7101 7.49011C19.6251 7.49011 19.5401 7.47011 19.4601 7.42511L18.4801 6.85011V7.98511C18.4801 8.26011 18.2551 8.48511 17.9801 8.48511C17.7051 8.48511 17.4801 8.26011 17.4801 7.98511V6.85011L16.5001 7.42011C16.4201 7.46511 16.3351 7.48511 16.2501 7.48511C16.0751 7.48511 15.9101 7.39511 15.8151 7.23511C15.6751 6.99511 15.7601 6.69011 16.0001 6.55011L16.9801 5.98511L16.0001 5.42011Z" fill="#13334C"/>
</svg>
