<svg width="24" height="24" viewBox="0 0 24 24" fill="none" xmlns="http://www.w3.org/2000/svg">
<path fill-rule="evenodd" clip-rule="evenodd" d="M15.3265 12.4575C15.3633 12.5685 15.3638 12.6884 15.3278 12.7997C15.2919 12.9111 15.2213 13.008 15.1265 13.0765L12.3265 15.1105C12.2322 15.1796 12.1184 15.2168 12.0015 15.2168C11.8846 15.2168 11.7708 15.1796 11.6765 15.1105L8.8765 13.0765C8.78203 13.0077 8.71179 12.9107 8.67586 12.7995C8.63993 12.6883 8.64015 12.5686 8.6765 12.4575L9.7455 9.165C9.78173 9.05382 9.85224 8.95698 9.94692 8.88835C10.0416 8.81972 10.1556 8.78284 10.2725 8.783H13.7345C13.8513 8.78306 13.965 8.82003 14.0595 8.88864C14.154 8.95725 14.2243 9.05399 14.2605 9.165L15.3265 12.4575ZM22 12C22 17.522 17.522 22 12 22C6.478 22 2 17.522 2 12C2 6.478 6.477 2 12 2C17.523 2 22 6.477 22 12ZM17.719 13.258L20.4445 11.0255C20.2723 9.52545 19.7015 8.09888 18.7915 6.894L16.456 6.876C16.3633 6.87551 16.2727 6.84912 16.1942 6.79982C16.1158 6.75052 16.0526 6.68027 16.012 6.597L14.7 3.9395C12.9477 3.35352 11.0523 3.35352 9.3 3.9395L7.989 6.597C7.94808 6.68005 7.8849 6.75011 7.80651 6.79938C7.72812 6.84864 7.63758 6.87516 7.545 6.876L5.2085 6.894C4.29842 8.09902 3.72765 9.52577 3.5555 11.026L6.281 13.258C6.36316 13.3249 6.42196 13.4161 6.44892 13.5185C6.47588 13.621 6.4696 13.7294 6.431 13.828L5.1655 17.047C6.17932 18.4178 7.58029 19.4538 9.188 20.0215L11.747 18.515C11.824 18.4696 11.9117 18.4457 12.001 18.4457C12.0903 18.4457 12.178 18.4696 12.255 18.515L14.8135 20.022C16.4215 19.4543 17.8227 18.4181 18.8365 17.047L17.57 13.828C17.5313 13.7295 17.5249 13.6212 17.5516 13.5187C17.5784 13.4163 17.637 13.325 17.719 13.258Z" fill="#13334C"/>
</svg>
