<svg width="24" height="24" viewBox="0 0 24 24" fill="none" xmlns="http://www.w3.org/2000/svg">
<path fill-rule="evenodd" clip-rule="evenodd" d="M22.4349 6.83006C22.3149 4.96006 21.4949 3.40006 20.1249 2.44006C18.7549 1.48006 17.0099 1.24006 15.2099 1.77006C13.4499 2.28506 11.8499 3.47506 10.6949 5.12506C9.53993 6.77006 8.96993 8.68506 9.08993 10.5151C9.13993 11.2951 9.30993 12.0151 9.59493 12.6651L8.63993 17.8651C8.34993 17.7951 8.03493 17.9051 7.85493 18.1651L5.84493 21.0301C5.60493 21.3701 5.68993 21.8351 6.02993 22.0751L6.43993 22.3601C6.77993 22.6001 7.24493 22.5151 7.48493 22.1751L9.49493 19.3101C9.67493 19.0501 9.66993 18.7201 9.50993 18.4701L14.1249 15.8351C14.2399 15.8401 14.3599 15.8451 14.4749 15.8451C15.0749 15.8451 15.6949 15.7551 16.3199 15.5701C18.0799 15.0551 19.6799 13.8651 20.8349 12.2151C21.9799 10.5751 22.5499 8.66006 22.4349 6.83006ZM9.78493 17.1601L10.3749 13.9551C10.6699 14.3151 11.0149 14.6351 11.4049 14.9051C11.7849 15.1751 12.1999 15.3851 12.6349 15.5401L9.78493 17.1601ZM20.0099 11.6501C18.5799 13.6951 16.4399 14.8501 14.4799 14.8501C13.5799 14.8501 12.7149 14.6051 11.9749 14.0901C10.8599 13.3101 10.1899 12.0201 10.0899 10.4551C9.98993 8.85506 10.4949 7.16506 11.5199 5.70506C12.9499 3.66006 15.0899 2.50506 17.0499 2.50506C17.9499 2.50506 18.8149 2.75006 19.5549 3.26506C20.6699 4.04506 21.3399 5.33506 21.4399 6.90006C21.5399 8.50006 21.0299 10.1851 20.0099 11.6501Z" fill="#13334C"/>
<path d="M6.99317 12.1592C7.08088 11.0582 6.25941 10.0945 5.15838 10.0068C4.05734 9.9191 3.09368 10.7406 3.00597 11.8416C2.91827 12.9426 3.73973 13.9063 4.84077 13.994C5.94181 14.0817 6.90547 13.2602 6.99317 12.1592Z" fill="#13334C"/>
</svg>
