<svg width="24" height="24" viewBox="0 0 24 24" fill="none" xmlns="http://www.w3.org/2000/svg">
<path fill-rule="evenodd" clip-rule="evenodd" d="M15 12C15 9.5 15.92 7.22 17.435 5.47C17.82 5.79 18.175 6.145 18.5 6.53C17.25 8.01 16.5 9.92 16.5 12C16.5 14.08 17.255 15.99 18.5 17.47C18.175 17.855 17.82 18.21 17.435 18.53C15.92 16.78 15 14.5 15 12ZM6.565 5.47C6.18 5.79 5.825 6.145 5.5 6.53C6.75 8.01 7.5 9.92 7.5 12C7.5 14.08 6.745 15.99 5.5 17.47C5.825 17.855 6.18 18.21 6.565 18.53C8.08 16.78 9 14.5 9 12C9 9.5 8.08 7.22 6.565 5.47ZM12 22C17.525 22 22 17.525 22 12C22 6.475 17.525 2 12 2C6.475 2 2 6.475 2 12C2 17.525 6.475 22 12 22Z" fill="#13334C"/>
</svg>
