<svg width="24" height="24" viewBox="0 0 24 24" fill="none" xmlns="http://www.w3.org/2000/svg">
<path d="M18.4749 20.475H12.8999C12.6799 20.475 12.4999 20.295 12.4999 20.075V2C12.4999 1.995 12.4999 1.99 12.4999 1.98C12.4999 1.97 12.4999 1.96 12.4999 1.955C12.4999 1.945 12.4999 1.935 12.4949 1.93C12.4949 1.925 12.4949 1.915 12.4899 1.91C12.4899 1.9 12.4849 1.89 12.4849 1.88C12.4849 1.875 12.4799 1.87 12.4799 1.86C12.4749 1.85 12.4749 1.84 12.4699 1.83C12.4699 1.825 12.4649 1.82 12.4649 1.815C12.4599 1.805 12.4599 1.795 12.4549 1.79C12.4499 1.785 12.4499 1.775 12.4449 1.77C12.4399 1.76 12.4349 1.755 12.4299 1.745C12.4249 1.74 12.4199 1.73 12.4199 1.725C12.4149 1.72 12.4099 1.71 12.4049 1.705C12.3999 1.7 12.3949 1.69 12.3899 1.685C12.3849 1.68 12.3799 1.675 12.3749 1.665C12.3699 1.66 12.3649 1.655 12.3599 1.645C12.3549 1.64 12.3449 1.635 12.3399 1.625C12.3349 1.62 12.3299 1.615 12.3249 1.61C12.3149 1.605 12.3099 1.595 12.2999 1.59C12.2949 1.585 12.2949 1.585 12.2899 1.58C12.2899 1.58 12.2899 1.58 12.2849 1.58C12.2749 1.575 12.2649 1.565 12.2499 1.56C12.2449 1.56 12.2449 1.555 12.2399 1.555C12.2299 1.55 12.2149 1.545 12.2049 1.54C12.1999 1.54 12.1999 1.535 12.1949 1.535C12.1849 1.53 12.1749 1.525 12.1599 1.525C12.1549 1.525 12.1499 1.52 12.1449 1.52C12.1349 1.515 12.1249 1.515 12.1199 1.515C12.1149 1.515 12.1049 1.51 12.0999 1.51C12.0949 1.51 12.0849 1.51 12.0799 1.505C12.0699 1.505 12.0599 1.5 12.0549 1.5C12.0499 1.5 12.0399 1.5 12.0349 1.5C12.0249 1.5 12.0149 1.5 12.0049 1.5H11.9999C11.9949 1.5 11.9899 1.5 11.9799 1.5C11.9699 1.5 11.9599 1.5 11.9549 1.5C11.9449 1.5 11.9349 1.5 11.9299 1.505C11.9249 1.505 11.9149 1.505 11.9099 1.51C11.8999 1.51 11.8899 1.515 11.8799 1.515C11.8749 1.515 11.8699 1.52 11.8599 1.52C11.8499 1.525 11.8399 1.525 11.8299 1.53C11.8249 1.53 11.8199 1.535 11.8099 1.535C11.7999 1.54 11.7949 1.54 11.7849 1.545C11.7799 1.55 11.7699 1.55 11.7649 1.555C11.7599 1.56 11.7499 1.565 11.7449 1.565C11.7399 1.57 11.7299 1.575 11.7249 1.58C11.7199 1.585 11.7149 1.59 11.7049 1.59C11.6999 1.595 11.6899 1.6 11.6849 1.605C11.6799 1.61 11.6749 1.615 11.6699 1.62C11.6649 1.625 11.6549 1.63 11.6499 1.64C11.6449 1.645 11.6399 1.65 11.6349 1.655C11.6299 1.66 11.6249 1.665 11.6199 1.675C11.6149 1.68 11.6099 1.69 11.5999 1.7C11.5949 1.705 11.5949 1.71 11.5899 1.715L7.4199 7.67C7.7349 7.795 8.0199 7.985 8.2549 8.22L11.3149 3.85C11.3699 3.77 11.4949 3.81 11.4949 3.905V20.08C11.4949 20.3 11.3149 20.48 11.0949 20.48H5.5249C4.9849 20.48 4.5199 20.9 4.4999 21.445C4.4799 22.015 4.9349 22.48 5.4999 22.48H18.4999C19.0649 22.48 19.5199 22.01 19.4999 21.445C19.4799 20.9 19.0199 20.475 18.4749 20.475Z" fill="#13334C"/>
<path d="M6.5 11.49C7.32843 11.49 8 10.8184 8 9.98999C8 9.16156 7.32843 8.48999 6.5 8.48999C5.67157 8.48999 5 9.16156 5 9.98999C5 10.8184 5.67157 11.49 6.5 11.49Z" fill="#13334C"/>
</svg>
