<svg width="24" height="24" viewBox="0 0 24 24" fill="none" xmlns="http://www.w3.org/2000/svg">
<path fill-rule="evenodd" clip-rule="evenodd" d="M22.4851 8.92498C22.3801 7.25998 21.6501 5.87498 20.4251 5.01998C19.2051 4.16498 17.6501 3.94998 16.0501 4.41998C14.4901 4.87498 13.0701 5.93498 12.0451 7.39498C11.0251 8.85498 10.5151 10.55 10.6201 12.175C10.6551 12.69 10.7451 13.175 10.8951 13.63L10.7551 17.865C10.4751 17.81 10.1701 17.92 9.99506 18.17L7.98506 21.035C7.74506 21.375 7.83006 21.84 8.17006 22.08L8.58006 22.365C8.92006 22.605 9.38506 22.52 9.62506 22.18L11.6351 19.315C11.8101 19.065 11.8101 18.745 11.6651 18.5L15.5951 16.92C16.0701 16.905 16.5601 16.825 17.0551 16.68C18.6151 16.225 20.0351 15.165 21.0601 13.705C22.0851 12.24 22.5901 10.545 22.4851 8.92498ZM11.7751 17.375L11.8451 15.32C12.0901 15.605 12.3701 15.86 12.6851 16.08C13.0001 16.3 13.3351 16.475 13.6851 16.61L11.7751 17.375ZM20.2451 13.13C19.0201 14.88 17.1951 15.885 15.5151 15.92C15.5051 15.92 15.5001 15.92 15.4901 15.92C14.6851 15.93 13.9151 15.72 13.2601 15.26C12.6051 14.8 12.1451 14.15 11.8801 13.39C11.8751 13.38 11.8751 13.37 11.8701 13.365C11.3251 11.775 11.6451 9.71998 12.8751 7.96998C14.1201 6.18998 15.9851 5.17998 17.6901 5.17998C18.4701 5.17998 19.2201 5.38998 19.8601 5.83998C20.8251 6.51498 21.4051 7.63498 21.4951 8.98998C21.5801 10.385 21.1351 11.855 20.2451 13.13Z" fill="#13334C"/>
<path fill-rule="evenodd" clip-rule="evenodd" d="M9.62 11.5C9.675 9.885 10.235 8.25 11.235 6.82C12.385 5.175 14 3.98 15.775 3.46C16.015 3.39 16.26 3.33 16.5 3.285V1.9C16.5 1.68 16.32 1.5 16.1 1.5H1.9C1.68 1.5 1.5 1.68 1.5 1.9V11.1C1.5 11.32 1.68 11.5 1.9 11.5H2.04C2.28 10.085 3.515 9 5 9C6.485 9 7.72 10.085 7.96 11.5H9.62ZM2.5 2.9C2.5 2.68 2.68 2.5 2.9 2.5H3.9L2.5 4.495V2.9ZM2.5 8.78V7.035L5.675 2.5H6.9L2.5 8.78Z" fill="#13334C"/>
<path fill-rule="evenodd" clip-rule="evenodd" d="M6.14501 10.36C5.24001 9.725 3.995 9.945 3.36 10.85C2.725 11.755 2.945 13 3.85 13.635C4.75501 14.27 6.00001 14.05 6.63501 13.145C7.27001 12.24 7.05001 10.995 6.14501 10.36ZM4.58501 11.715C4.32501 12.085 3.975 12.355 3.58 12.51C3.52 12.35 3.49 12.175 3.49 12.005C3.755 11.88 3.99 11.685 4.17001 11.43C4.35001 11.175 4.45001 10.885 4.48001 10.595C4.64001 10.535 4.81501 10.505 4.98501 10.505C4.97501 10.92 4.84501 11.345 4.58501 11.715ZM6.49501 11.995C6.23001 12.12 5.99501 12.315 5.81501 12.57C5.63501 12.825 5.53501 13.115 5.50501 13.41C5.34501 13.47 5.17001 13.5 5.00001 13.5C5.01501 13.08 5.14501 12.655 5.40501 12.285C5.66501 11.915 6.01501 11.645 6.40501 11.49C6.46501 11.655 6.49501 11.825 6.49501 11.995Z" fill="#13334C"/>
</svg>
