<svg width="24" height="24" viewBox="0 0 24 24" fill="none" xmlns="http://www.w3.org/2000/svg">
<path d="M6.2651 14.7499C6.5532 14.9417 6.86435 15.0964 7.1911 15.2104L14.5931 4.63692C14.266 3.62235 13.5616 2.77223 12.6254 2.26229C11.6893 1.75235 10.593 1.62157 9.56325 1.89698C8.53345 2.1724 7.6488 2.83295 7.0922 3.7421C6.5356 4.65125 6.3496 5.73952 6.5726 6.78192C6.6158 6.99487 6.59625 7.21582 6.5164 7.41787C6.4365 7.61997 6.2997 7.79452 6.1226 7.92042C5.57975 8.31492 5.1404 8.83492 4.842 9.43602C4.54363 10.0371 4.39511 10.7015 4.40911 11.3724C4.42311 12.0433 4.59921 12.7009 4.9224 13.2891C5.2456 13.8772 5.70625 14.3784 6.2651 14.7499ZM8.6936 6.29642C8.81265 6.38432 8.9481 6.44752 9.09195 6.48227C9.23585 6.51697 9.3852 6.52257 9.53125 6.49872C9.6773 6.47482 9.8171 6.42197 9.9424 6.34322C10.0677 6.26447 10.176 6.16142 10.2608 6.04017C10.3457 5.91897 10.4054 5.78192 10.4365 5.63727C10.4676 5.49257 10.4694 5.34312 10.4419 5.19772C10.4143 5.05232 10.3579 4.91389 10.276 4.79061C10.1942 4.66734 10.0884 4.5617 9.9651 4.47992C9.927 4.4532 9.88705 4.42914 9.8456 4.40792C10.1742 4.32807 10.5194 4.35025 10.8351 4.4715C11.1508 4.59275 11.4221 4.80733 11.6127 5.08662C11.8034 5.36592 11.9045 5.69672 11.9024 6.03492C11.9004 6.37312 11.7954 6.70262 11.6013 6.97962C11.4073 7.25662 11.1334 7.46787 10.8163 7.58532C10.4991 7.70277 10.1537 7.72077 9.8261 7.63697C9.4985 7.55317 9.20415 7.37147 8.98235 7.11617C8.76055 6.86087 8.6218 6.54407 8.5846 6.20792C8.61845 6.23972 8.6542 6.26942 8.6916 6.29692L8.6936 6.29642Z" fill="#13334C"/>
<path d="M18.215 6.28181C17.6608 5.91141 17.0249 5.68101 16.362 5.61031L17.446 4.06031C17.5221 3.95163 17.5518 3.8172 17.5288 3.68658C17.5057 3.55596 17.4317 3.43986 17.323 3.36381C17.2143 3.28776 17.0799 3.25799 16.9493 3.28106C16.8187 3.30412 16.7026 3.37813 16.6265 3.48681L4.04051 21.4628C4.00282 21.5166 3.97609 21.5773 3.96185 21.6414C3.94761 21.7055 3.94614 21.7718 3.95751 21.8364C3.96889 21.9011 3.99289 21.9629 4.02815 22.0183C4.06341 22.0737 4.10923 22.1216 4.16301 22.1593C4.21679 22.197 4.27746 22.2237 4.34157 22.238C4.40567 22.2522 4.47196 22.2537 4.53663 22.2423C4.60131 22.2309 4.66311 22.2069 4.71851 22.1717C4.77391 22.1364 4.82182 22.0906 4.85951 22.0368L8.70251 16.5498C9.22146 17.0406 9.85806 17.3896 10.551 17.563C11.2439 17.7365 11.9698 17.7286 12.6588 17.5402C13.3478 17.3518 13.9767 16.9891 14.4849 16.4872C14.9931 15.9853 15.3636 15.3609 15.5605 14.6743C15.6179 14.4647 15.735 14.2763 15.8976 14.1321C16.0601 13.9878 16.2611 13.8939 16.476 13.8618C17.3121 13.7467 18.0934 13.3799 18.716 12.8101C19.3387 12.2404 19.7732 11.4947 19.9619 10.6721C20.1507 9.84946 20.0846 8.98891 19.7726 8.20471C19.4606 7.42056 18.9173 6.74986 18.215 6.28181ZM16.565 11.4373C16.2313 11.4373 15.905 11.3384 15.6275 11.1529C15.35 10.9675 15.1337 10.704 15.006 10.3956C14.8783 10.0873 14.8448 9.74796 14.9099 9.42061C14.9751 9.09326 15.1358 8.79256 15.3718 8.55656C15.6078 8.32056 15.9085 8.15986 16.2358 8.09471C16.5632 8.02961 16.9025 8.06306 17.2108 8.19076C17.5192 8.31851 17.7827 8.53476 17.9681 8.81226C18.1536 9.08981 18.2525 9.41606 18.2525 9.74981C18.2525 10.1974 18.0747 10.6266 17.7583 10.9431C17.4418 11.2595 17.0126 11.4373 16.565 11.4373Z" fill="#13334C"/>
</svg>
