<svg width="24" height="24" viewBox="0 0 24 24" fill="none" xmlns="http://www.w3.org/2000/svg">
<path d="M15.0849 4.99989C16.0299 5.65989 17.1999 5.44989 17.8599 4.50489C18.5199 3.55989 18.3149 2.37989 17.3699 1.71989C16.4249 1.05989 15.2449 1.26489 14.5849 2.20989C13.9249 3.15489 14.1399 4.33989 15.0849 4.99989Z" fill="#13334C"/>
<path d="M13.4349 16.055L8.51988 12.615C8.06988 12.3 7.44488 12.41 7.12488 12.86C6.80988 13.31 6.91988 13.935 7.36988 14.255L11.4649 17.125L8.59988 21.22C8.28488 21.675 8.39488 22.295 8.84488 22.615C9.01988 22.735 9.21988 22.795 9.41488 22.795C9.72988 22.795 10.0399 22.645 10.2349 22.37L13.6749 17.455C13.9949 16.995 13.8849 16.37 13.4349 16.055Z" fill="#13334C"/>
<path d="M8.43485 16.22C7.98486 15.905 7.35986 16.015 7.03986 16.465L3.59986 21.38C3.28486 21.83 3.39486 22.455 3.84486 22.775C4.01986 22.895 4.21986 22.955 4.41986 22.955C4.73486 22.955 5.04486 22.805 5.23986 22.53L8.67986 17.615C8.99986 17.16 8.88985 16.535 8.43485 16.22Z" fill="#13334C"/>
<path d="M17.7899 12.3498L16.6999 12.0248L16.5599 7.74981C16.5599 7.74481 16.5599 7.73481 16.5599 7.72981C16.5599 7.71981 16.5599 7.71481 16.5599 7.70481C16.5599 7.69481 16.5549 7.68481 16.5549 7.67481C16.5549 7.65981 16.5499 7.64481 16.5499 7.62981C16.5499 7.62481 16.5499 7.61981 16.5499 7.61481C16.5499 7.60481 16.5449 7.59481 16.5449 7.58981C16.5399 7.56981 16.5399 7.55481 16.5349 7.53981C16.5349 7.53481 16.5349 7.52981 16.5299 7.52481C16.5299 7.51481 16.5249 7.50981 16.5199 7.49981C16.5149 7.47981 16.5099 7.46481 16.4999 7.44481C16.4999 7.43981 16.4949 7.43481 16.4949 7.42981C16.4949 7.42481 16.4899 7.41981 16.4849 7.40981C16.4749 7.38981 16.4699 7.37481 16.4599 7.35481C16.4599 7.34981 16.4549 7.34481 16.4549 7.33981C16.4549 7.33481 16.4499 7.32981 16.4499 7.32981C16.4499 7.32981 16.4499 7.32481 16.4449 7.32481C16.4349 7.30481 16.4249 7.28981 16.4149 7.26981C16.4099 7.26481 16.4099 7.25981 16.4049 7.25481L16.3999 7.24981L16.3949 7.24481C16.3849 7.22481 16.3699 7.20981 16.3599 7.19481C16.3549 7.18981 16.3549 7.18481 16.3499 7.17981L16.3449 7.17481C16.3449 7.17481 16.3449 7.16981 16.3399 7.16981C16.3249 7.14981 16.3099 7.13481 16.2949 7.11981C16.2899 7.11481 16.2899 7.11481 16.2849 7.10981C16.2799 7.10481 16.2799 7.10481 16.2749 7.09981C16.2549 7.07981 16.2399 7.06481 16.2199 7.04481L16.2149 7.03981L16.2099 7.03481C16.1849 7.01481 16.1649 6.99981 16.1399 6.97981C16.1399 6.97981 16.1399 6.97981 16.1349 6.97981L13.6799 5.25981C13.6549 5.24481 13.6299 5.22481 13.6049 5.20981C13.5999 5.20481 13.5949 5.20481 13.5899 5.19981C13.5649 5.18481 13.5399 5.17481 13.5149 5.16481C13.5049 5.15981 13.4999 5.15981 13.4899 5.15481C13.4799 5.14981 13.4749 5.14981 13.4649 5.14481L9.61494 3.66981C9.18494 3.50481 8.69994 3.65481 8.43994 4.02981L6.14494 7.30481C5.82994 7.75481 5.93994 8.37981 6.38994 8.69981C6.56494 8.81981 6.76494 8.87981 6.96494 8.87981C7.27994 8.87981 7.58994 8.72981 7.78494 8.45481L9.62994 5.81981L11.5549 6.55481L8.84494 10.3998C8.83494 10.4148 8.82494 10.4298 8.81494 10.4448C8.74494 10.4148 8.66994 10.3848 8.59494 10.3548C7.62994 10.0298 6.63494 10.4898 5.87494 10.9598C5.86494 10.9648 5.85994 10.9648 5.84994 10.9698C3.79994 11.9398 2.28994 11.0998 2.22994 11.0648C2.04994 10.9598 1.82494 10.9748 1.66494 11.1048C1.50494 11.2348 1.43994 11.4498 1.49994 11.6498L1.89994 12.9048C1.93494 13.0198 2.00994 13.1148 2.11494 13.1798C2.41994 13.3698 2.77994 13.4648 3.16494 13.4648C3.25994 13.4648 3.35494 13.4598 3.44994 13.4498C3.50494 13.4448 3.55994 13.4348 3.61494 13.4248C4.31994 13.2898 4.91494 12.8548 5.43994 12.4698C5.57994 12.3698 5.70994 12.2698 5.83994 12.1798C6.46494 11.7548 7.50494 11.0448 8.27994 11.2998C8.52994 11.3848 8.76494 11.5398 9.00494 11.7148C9.03494 11.7398 9.05994 11.7648 9.09494 11.7848L11.5549 13.5048C11.7249 13.6248 11.9249 13.6848 12.1299 13.6848C12.1899 13.6848 12.2449 13.6798 12.3049 13.6698C12.5649 13.6248 12.7999 13.4748 12.9499 13.2598L14.6699 10.8048L14.7349 12.8048C14.7499 13.2348 15.0349 13.6098 15.4499 13.7298L18.4799 14.6298C18.5749 14.6598 18.6699 14.6698 18.7649 14.6698C19.1149 14.6698 19.4399 14.4848 19.6199 14.1848C19.4249 14.0998 19.2349 13.9998 19.0599 13.8748C18.4849 13.5048 18.0549 12.9648 17.7899 12.3498Z" fill="#13334C"/>
<path d="M21.29 10.5698C20.47 10.0198 19.43 10.0198 18.575 10.4898C18.545 10.5048 18.525 10.5348 18.52 10.5698C18.405 11.5348 18.795 12.5048 19.615 13.0548C20.435 13.6048 21.475 13.6048 22.33 13.1348C22.36 13.1198 22.38 13.0898 22.385 13.0548C22.495 12.0898 22.11 11.1248 21.29 10.5698Z" fill="#13334C"/>
</svg>
