<svg width="24" height="24" viewBox="0 0 24 24" fill="none" xmlns="http://www.w3.org/2000/svg">
<path d="M11.2202 15.73L6.30516 12.29C5.85516 11.975 5.23016 12.085 4.91016 12.535C4.59516 12.985 4.70516 13.61 5.15516 13.93L9.66016 17.085L9.80516 21.585C9.82516 22.125 10.2652 22.55 10.8052 22.55C10.8152 22.55 10.8252 22.55 10.8402 22.55C11.3902 22.53 11.8252 22.07 11.8052 21.52L11.6402 16.525C11.6352 16.205 11.4802 15.91 11.2202 15.73Z" fill="#13334C"/>
<path d="M5.88011 15.74C5.34011 15.615 4.80511 15.95 4.68011 16.485L3.44511 21.73C3.32011 22.27 3.65511 22.805 4.19011 22.93C4.26511 22.95 4.34511 22.955 4.42011 22.955C4.87511 22.955 5.28511 22.645 5.39511 22.185L6.62511 16.94C6.75011 16.405 6.41511 15.865 5.88011 15.74Z" fill="#13334C"/>
<path d="M12.8701 4.67494C13.8151 5.33494 14.9851 5.12494 15.6451 4.17994C16.3051 3.23494 16.1001 2.05494 15.1551 1.39494C14.2101 0.734942 13.0301 0.939942 12.3701 1.88494C11.7101 2.82994 11.9251 4.01494 12.8701 4.67494Z" fill="#13334C"/>
<path d="M17.5353 9.77998L16.5703 9.63498L14.1053 6.79998C14.1003 6.79498 14.0953 6.78998 14.0953 6.78998C14.0903 6.78498 14.0803 6.77498 14.0753 6.76498C14.0703 6.75998 14.0653 6.75498 14.0553 6.74998C14.0553 6.74998 14.0553 6.74998 14.0503 6.74998C14.0403 6.73998 14.0303 6.72998 14.0153 6.71998C14.0103 6.71498 14.0053 6.70998 14.0003 6.70498C13.9953 6.69998 13.9853 6.69498 13.9803 6.68998C13.9653 6.67998 13.9503 6.66498 13.9353 6.65498C13.9303 6.64998 13.9253 6.64998 13.9203 6.64498L13.3053 6.21498L9.00533 3.20498C8.65033 2.95998 8.18033 2.96498 7.83533 3.21998L5.30033 5.09498C4.85533 5.42498 4.76533 6.04998 5.09533 6.49498C5.42533 6.93998 6.05033 7.02998 6.49532 6.69998L8.45533 5.24498L9.50533 5.97998L6.63533 10.075C6.48533 10.29 6.42533 10.56 6.47032 10.82C6.51533 11.08 6.66533 11.315 6.88033 11.465L9.34033 13.185C9.51033 13.305 9.71033 13.365 9.91533 13.365C9.97533 13.365 10.0303 13.36 10.0903 13.35C10.3503 13.305 10.5853 13.155 10.7353 12.94L13.4403 9.07498L15.3053 11.22C15.4603 11.4 15.6753 11.52 15.9153 11.555L18.1253 11.885C18.1753 11.89 18.2253 11.895 18.2753 11.895C18.7353 11.895 19.1403 11.575 19.2453 11.125C18.4903 10.96 17.8603 10.455 17.5353 9.77998Z" fill="#13334C"/>
<path d="M19.7804 10.1851C20.6088 10.1851 21.2804 9.51349 21.2804 8.68506C21.2804 7.85663 20.6088 7.18506 19.7804 7.18506C18.952 7.18506 18.2804 7.85663 18.2804 8.68506C18.2804 9.51349 18.952 10.1851 19.7804 10.1851Z" fill="#13334C"/>
</svg>
