<svg width="24" height="24" viewBox="0 0 24 24" fill="none" xmlns="http://www.w3.org/2000/svg">
<path d="M3.5 14C4.60457 14 5.5 13.1046 5.5 12C5.5 10.8954 4.60457 10 3.5 10C2.39543 10 1.5 10.8954 1.5 12C1.5 13.1046 2.39543 14 3.5 14Z" fill="#13334C"/>
<path d="M22.48 17.2249L19.25 6.51489C19.245 6.49489 19.24 6.46989 19.245 6.44989L19.495 4.58989C19.505 4.50989 19.5 4.42989 19.475 4.34989C19.4 4.13989 19.21 4.01489 19 4.01489H4.49995C4.24995 4.01489 4.03995 4.19989 4.00495 4.44989L3.39495 9.00489C3.42995 9.00489 3.46495 8.99989 3.49995 8.99989C3.80995 8.99989 4.10495 9.04489 4.38495 9.13489L4.46995 8.49989H7.32995L6.14995 15.4999H3.53495L3.59995 14.9949C3.56495 14.9949 3.52995 14.9999 3.49495 14.9999C3.18495 14.9999 2.88995 14.9549 2.60995 14.8649L2.00495 19.4099C1.99495 19.4899 1.99995 19.5699 2.02495 19.6499C2.09995 19.8599 2.28995 19.9849 2.49995 19.9849H17C17.015 19.9849 17.03 19.9849 17.05 19.9849C17.055 19.9849 17.055 19.9849 17.06 19.9849C17.07 19.9849 17.085 19.9799 17.095 19.9799C17.1 19.9799 17.105 19.9799 17.11 19.9749C17.12 19.9699 17.135 19.9699 17.145 19.9649C17.15 19.9649 17.155 19.9599 17.16 19.9599C17.17 19.9549 17.18 19.9549 17.19 19.9499H17.195L22.195 17.8349C22.43 17.7299 22.55 17.4699 22.48 17.2249ZM5.56495 18.9849H3.06995L3.39995 16.4999H5.97995L5.56495 18.9849ZM15.925 5.01489H18.43L18.255 6.33489C18.245 6.38989 18.245 6.40489 18.24 6.43989L18.09 7.49989H15.51L15.925 5.01489ZM12.43 5.01489H14.91L14.49 7.49989H12.01L12.43 5.01489ZM14.325 8.49989L13.82 11.4999H11.34L11.845 8.49989H14.325ZM8.92995 5.01489H11.41L10.99 7.49989H8.50995L8.92995 5.01489ZM10.83 8.49989L10.325 11.4999H7.84495L8.34995 8.49989H10.83ZM4.60495 7.49989L4.93495 5.01489H7.91495L7.49995 7.49989H4.60495ZM9.06495 18.9849H6.58495L6.99995 16.4999H9.47995L9.06495 18.9849ZM7.16995 15.4999L7.67495 12.4999H10.155L9.64995 15.4999H7.16995ZM12.56 18.9849H10.08L10.5 16.4999H12.98L12.56 18.9849ZM10.665 15.4999L11.17 12.4999H13.65L13.145 15.4999H10.665ZM16.56 18.9849H13.57L13.99 16.4999H16.89L16.56 18.9849ZM17.025 15.4999H14.16L14.665 12.4999H17.425L17.025 15.4999ZM14.835 11.4999L15.34 8.49989H17.955L17.555 11.4999H14.835ZM17.61 18.6799L18.92 8.87989L21.39 17.0799L17.61 18.6799Z" fill="#13334C"/>
</svg>
