<svg width="24" height="24" viewBox="0 0 24 24" fill="none" xmlns="http://www.w3.org/2000/svg">
<path fill-rule="evenodd" clip-rule="evenodd" d="M6.145 10.3551C5.24 9.72006 3.995 9.94006 3.36 10.8451C2.725 11.7501 2.945 12.9951 3.85 13.6301C4.755 14.2651 6 14.0451 6.635 13.1401C7.27 12.2351 7.05 10.9851 6.145 10.3551ZM4.59 11.7051C4.33 12.0751 3.98 12.3451 3.585 12.5001C3.525 12.3401 3.495 12.1651 3.495 11.9951C3.76 11.8701 3.995 11.6751 4.175 11.4201C4.355 11.1651 4.455 10.8751 4.485 10.5851C4.645 10.5251 4.82 10.4951 4.99 10.4951C4.98 10.9101 4.85 11.3351 4.59 11.7051ZM5.82 12.5651C5.64 12.8201 5.54 13.1101 5.51 13.4051C5.35 13.4651 5.175 13.4951 5.005 13.4951C5.02 13.0751 5.15 12.6501 5.41 12.2801C5.67 11.9101 6.02 11.6401 6.41 11.4851C6.47 11.6451 6.5 11.8201 6.5 11.9901C6.235 12.1151 6 12.3051 5.82 12.5651ZM22.485 6.83006C22.365 4.96006 21.545 3.40006 20.175 2.44006C18.805 1.48006 17.06 1.24006 15.26 1.77006C13.5 2.28506 11.9 3.47506 10.745 5.12506C9.59 6.77006 9.02 8.68506 9.14 10.5151C9.19 11.2951 9.36 12.0151 9.645 12.6651L8.695 17.8551C8.415 17.8051 8.125 17.9151 7.95 18.1651L5.94 21.0301C5.7 21.3701 5.785 21.8351 6.125 22.0751L6.535 22.3601C6.875 22.6001 7.34 22.5151 7.58 22.1751L9.59 19.3101C9.775 19.0451 9.765 18.7001 9.59 18.4501L14.175 15.8351C14.29 15.8401 14.41 15.8451 14.525 15.8451C15.125 15.8451 15.745 15.7551 16.37 15.5701C18.13 15.0551 19.73 13.8651 20.885 12.2151C22.03 10.5751 22.6 8.66006 22.485 6.83006ZM9.835 17.1601L10.425 13.9551C10.72 14.3151 11.065 14.6351 11.455 14.9051C11.835 15.1751 12.25 15.3851 12.685 15.5401L9.835 17.1601ZM20.06 11.6451C19.035 13.1051 17.625 14.1601 16.085 14.6151C14.585 15.0551 13.145 14.8651 12.025 14.0851C9.685 12.4451 9.48 8.68506 11.565 5.70006C12.59 4.24006 14 3.18506 15.54 2.73006C16.07 2.57506 16.595 2.49506 17.1 2.49506C18.02 2.49506 18.88 2.75506 19.6 3.26006C20.715 4.04006 21.385 5.33006 21.485 6.89506C21.59 8.49506 21.08 10.1851 20.06 11.6451Z" fill="#13334C"/>
</svg>
