<svg width="24" height="24" viewBox="0 0 24 24" fill="none" xmlns="http://www.w3.org/2000/svg">
<path d="M21.49 8.84C20.665 9.85 19.41 10.5 18 10.5H16.645C16.6 10.745 16.565 10.995 16.545 11.25H20.47C20.49 11.495 20.505 11.745 20.505 12C20.505 12.255 20.495 12.505 20.47 12.75H16.545C16.705 14.54 17.41 16.17 18.505 17.47C18.18 17.855 17.825 18.21 17.44 18.53C16.08 16.955 15.21 14.955 15.045 12.75H12.75V20.465C12.505 20.485 12.255 20.5 12 20.5C11.745 20.5 11.495 20.49 11.25 20.465V12.75H8.96C8.795 14.95 7.925 16.955 6.565 18.53C6.18 18.21 5.825 17.855 5.5 17.47C6.595 16.17 7.3 14.54 7.46 12.75H3.535C3.515 12.505 3.5 12.255 3.5 12C3.5 11.745 3.51 11.495 3.535 11.25H7.46C7.3 9.46 6.595 7.83 5.5 6.53C5.825 6.145 6.18 5.79 6.565 5.47C7.925 7.045 8.795 9.045 8.96 11.25H11.25V8.485C10.775 7.77 10.5 6.915 10.5 6C10.5 4.29 11.455 2.8 12.865 2.04C12.58 2.015 12.29 2 12 2C6.475 2 2 6.475 2 12C2 17.52 6.475 22 12 22C17.52 22 22 17.52 22 12C22 10.895 21.82 9.835 21.49 8.84Z" fill="#13334C"/>
<path d="M12.75 9.89502V11.25H15.04C15.06 10.995 15.09 10.745 15.125 10.5H15C14.18 10.5 13.41 10.28 12.75 9.89502Z" fill="#13334C"/>
<path d="M11.5 6C11.5 7.93 13.07 9.5 15 9.5H18C19.93 9.5 21.5 7.93 21.5 6C21.5 4.07 19.93 2.5 18 2.5H15C13.07 2.5 11.5 4.07 11.5 6ZM18.045 6.835C18.295 6.975 18.565 7.045 18.855 7.045C19.02 7.045 19.15 7.01 19.245 6.935C19.335 6.865 19.385 6.77 19.385 6.655C19.385 6.4 19.16 6.275 18.71 6.275H18.535V5.72H18.71C18.885 5.72 19.03 5.69 19.14 5.625C19.255 5.56 19.31 5.465 19.31 5.34C19.31 5.1 19.155 4.98 18.85 4.98C18.74 4.98 18.62 5 18.495 5.04C18.37 5.08 18.26 5.13 18.17 5.185V4.555C18.395 4.435 18.635 4.38 18.89 4.38C19.23 4.38 19.5 4.46 19.705 4.625C19.905 4.79 20.005 5 20.005 5.26C20.005 5.625 19.84 5.875 19.505 6.015C19.685 6.06 19.825 6.145 19.925 6.265C20.025 6.39 20.075 6.55 20.075 6.74C20.075 7.01 19.975 7.23 19.77 7.395C19.565 7.56 19.285 7.645 18.925 7.645C18.565 7.645 18.275 7.59 18.055 7.48V6.835H18.045ZM15.405 5.21H16.13L16.54 5.955L16.985 5.21H17.705L16.855 6.415L17.655 7.62H16.935L16.51 6.865L16.055 7.62H15.35L16.21 6.405L15.405 5.21ZM12.915 6.835C13.165 6.975 13.435 7.045 13.725 7.045C13.89 7.045 14.02 7.01 14.115 6.935C14.205 6.865 14.255 6.77 14.255 6.655C14.255 6.4 14.03 6.275 13.58 6.275H13.4V5.72H13.575C13.75 5.72 13.895 5.69 14.005 5.625C14.12 5.56 14.175 5.465 14.175 5.34C14.175 5.1 14.02 4.98 13.715 4.98C13.605 4.98 13.485 5 13.36 5.04C13.235 5.08 13.125 5.13 13.035 5.185V4.555C13.26 4.435 13.5 4.38 13.755 4.38C14.095 4.38 14.365 4.46 14.57 4.625C14.77 4.79 14.87 5 14.87 5.26C14.87 5.625 14.705 5.875 14.37 6.015C14.55 6.06 14.69 6.145 14.79 6.265C14.89 6.39 14.94 6.55 14.94 6.74C14.94 7.01 14.84 7.23 14.635 7.395C14.43 7.56 14.15 7.645 13.79 7.645C13.43 7.645 13.14 7.59 12.92 7.48V6.835H12.915Z" fill="#13334C"/>
</svg>
