<svg width="24" height="24" viewBox="0 0 24 24" fill="none" xmlns="http://www.w3.org/2000/svg">
<path d="M11.4652 18.23C11.3152 17.7 10.7652 17.385 10.2352 17.535C9.70519 17.685 9.3902 18.235 9.5402 18.765L9.93519 20.185L8.1552 21.885C7.7552 22.265 7.7402 22.9 8.1252 23.3C8.3202 23.505 8.5852 23.61 8.8502 23.61C9.1002 23.61 9.3452 23.52 9.5402 23.335L11.7502 21.22C12.0152 20.965 12.1202 20.585 12.0202 20.23L11.4652 18.23Z" fill="#13334C"/>
<path d="M10.08 5.16005C11.025 5.82005 12.195 5.61005 12.855 4.66505C13.515 3.72005 13.31 2.54005 12.365 1.88005C11.42 1.22005 10.24 1.42505 9.58003 2.37005C8.92002 3.31505 9.13502 4.50005 10.08 5.16005Z" fill="#13334C"/>
<path d="M19.4951 6.49487L13.5002 6.49987H10.5002C10.4952 6.49987 10.4902 6.49987 10.4802 6.49987C10.4602 6.49987 10.4402 6.49987 10.4202 6.50487C10.4052 6.50487 10.3902 6.50987 10.3752 6.50987C10.3602 6.50987 10.3452 6.51487 10.3302 6.51487C10.3102 6.51987 10.2902 6.51987 10.2702 6.52487C10.2652 6.52487 10.2602 6.52487 10.2552 6.52987L6.97515 7.35487L5.42015 4.74487C4.96515 5.20487 4.33515 5.48987 3.64015 5.48987C3.60515 5.48987 3.57015 5.48987 3.53015 5.48487L5.63515 9.01987C5.82015 9.32987 6.15015 9.50987 6.49515 9.50987C6.57515 9.50987 6.66015 9.49987 6.74015 9.47987L9.50015 8.78487V12.4999C9.50015 12.7649 9.60515 13.0199 9.79515 13.2049C9.98515 13.3949 10.2352 13.4999 10.5002 13.4999H13.5002C13.7652 13.4999 14.0202 13.3949 14.2052 13.2049C14.3952 13.0149 14.5002 12.7649 14.5002 12.4999V8.49987L19.5001 8.49487C20.0501 8.49487 20.5002 8.04487 20.5002 7.49487C20.4951 6.93987 20.0501 6.49487 19.4951 6.49487Z" fill="#13334C"/>
<path d="M15.37 15.005C15.19 14.69 14.86 14.5 14.5 14.5H10.5C9.95 14.5 9.5 14.95 9.5 15.5C9.5 16.05 9.95 16.5 10.5 16.5H13.915L17.15 22.2C17.335 22.525 17.67 22.705 18.02 22.705C18.185 22.705 18.355 22.665 18.51 22.575C18.99 22.305 19.16 21.69 18.885 21.21L15.37 15.005Z" fill="#13334C"/>
<path d="M3.64514 4.48999C4.47357 4.48999 5.14514 3.81841 5.14514 2.98999C5.14514 2.16156 4.47357 1.48999 3.64514 1.48999C2.81671 1.48999 2.14514 2.16156 2.14514 2.98999C2.14514 3.81841 2.81671 4.48999 3.64514 4.48999Z" fill="#13334C"/>
</svg>
