<svg width="24" height="24" viewBox="0 0 24 24" fill="none" xmlns="http://www.w3.org/2000/svg">
<path d="M5.40005 14.5H7.10505C8.19005 13.55 9.09505 13.5 10.41 13.5H10.955L13.33 11.655C13.645 11.405 14.04 11.27 14.44 11.27C14.92 11.27 15.37 11.455 15.705 11.795C16.34 12.43 16.405 13.435 15.86 14.145L15.265 15.005C15.33 15.005 15.4 15.01 15.465 15.01C15.975 15.025 16.5 15.04 16.955 15.04C17.67 15.04 17.885 15.005 17.935 14.99C17.94 14.99 17.95 14.985 17.96 14.985C19.425 13.95 20.64 12.545 21.49 10.895C21.555 10.77 21.555 10.615 21.49 10.49C19.65 6.915 16.09 4.48999 12 4.48999C7.91005 4.48999 4.35005 6.915 2.50505 10.49C2.44005 10.615 2.44005 10.77 2.50505 10.895C3.23005 12.3 4.22005 13.53 5.40005 14.5ZM7.34005 7.625C7.88505 7.445 8.44005 7.295 9.00005 7.18V6.5C9.00005 6.22499 9.22505 5.99999 9.50005 5.99999C9.77505 5.99999 10 6.22499 10 6.5V7.01C10.5 6.94 11 6.9 11.5 6.885V5.99999C11.5 5.72499 11.725 5.49999 12 5.49999C12.275 5.49999 12.5 5.72499 12.5 5.99999V6.885C13 6.9 13.5 6.945 14 7.01V6.5C14 6.22499 14.225 5.99999 14.5 5.99999C14.775 5.99999 15 6.22499 15 6.5V7.18C15.56 7.295 16.115 7.445 16.66 7.625C16.92 7.71 17.065 7.995 16.975 8.255C16.89 8.515 16.605 8.66 16.345 8.57C15.905 8.425 15.455 8.3 15.005 8.2V9.5C15.005 9.775 14.78 10 14.505 10C14.23 10 14.005 9.775 14.005 9.5V8.02C13.51 7.95 13.005 7.9 12.505 7.885V9.5C12.505 9.775 12.28 10 12.005 10C11.73 10 11.505 9.775 11.505 9.5V7.885C11.005 7.905 10.5 7.95 10.005 8.02V9.5C10.005 9.775 9.78005 10 9.50505 10C9.23005 10 9.00505 9.775 9.00505 9.5V8.205C8.55005 8.305 8.10505 8.43 7.66505 8.575C7.61505 8.59 7.56005 8.6 7.50505 8.6C7.29505 8.6 7.10005 8.465 7.03005 8.26C6.93505 7.995 7.08005 7.715 7.34005 7.625Z" fill="#13334C"/>
<path d="M7.50013 15.5001H3.41013C3.19013 15.5001 3.01013 15.6801 3.01013 15.9001V19.1001C3.01013 19.3201 3.19013 19.5001 3.41013 19.5001L12.4301 19.4951C12.4751 19.4951 12.5251 19.4851 12.5651 19.4701L17.9701 18.0051C17.9901 18.0001 18.0101 17.9901 18.0301 17.9851C18.3251 17.8501 20.5951 16.7801 21.6801 16.2701C22.0101 16.1151 22.1851 15.7401 22.0901 15.3851C21.9801 14.9701 21.5551 14.7251 21.1401 14.8501C20.1651 15.1401 18.9401 15.7851 18.1601 15.9651C17.3801 16.1451 14.5801 15.9301 13.6551 16.0001C13.5301 16.0101 13.4551 15.8751 13.5201 15.7701L15.0501 13.5551C15.3051 13.2401 15.2801 12.7851 14.9951 12.5051C14.7101 12.2201 14.2601 12.1951 13.9451 12.4451L11.4101 14.4151C11.3401 14.4701 11.2501 14.5051 11.1601 14.5051H10.4201C9.06513 14.5001 8.46013 14.5401 7.50013 15.5001Z" fill="#13334C"/>
</svg>
