<svg width="24" height="24" viewBox="0 0 24 24" fill="none" xmlns="http://www.w3.org/2000/svg">
<path d="M3.05995 11.8598C3.09995 11.9198 3.13495 11.9798 3.17495 12.0348C3.17995 12.0398 3.18495 12.0448 3.18495 12.0548C3.21995 12.1048 3.25495 12.1548 3.28995 12.2098C3.29995 12.2248 3.30995 12.2398 3.31995 12.2548C3.34995 12.2948 3.37995 12.3398 3.40995 12.3798C3.41995 12.3948 3.43495 12.4098 3.44495 12.4298C3.47495 12.4698 3.50495 12.5098 3.53495 12.5548C3.54495 12.5698 3.55495 12.5848 3.56995 12.5998C3.60495 12.6448 3.63995 12.6898 3.67495 12.7348C3.68495 12.7448 3.68995 12.7548 3.69995 12.7648C3.78495 12.8748 3.87495 12.9848 3.96995 13.0948C3.97495 13.0998 3.97495 13.1048 3.97995 13.1048C4.01995 13.1548 4.06495 13.1998 4.10495 13.2498C4.11495 13.2598 4.12495 13.2698 4.12995 13.2798C4.16495 13.3198 4.20495 13.3648 4.24495 13.4048C4.25495 13.4148 4.26495 13.4248 4.27495 13.4348C4.31495 13.4748 4.35495 13.5198 4.38995 13.5598C4.39995 13.5698 4.40495 13.5748 4.41495 13.5848C4.45995 13.6348 4.50995 13.6848 4.55495 13.7298C4.82495 14.0048 5.10995 14.2598 5.39995 14.5048H7.09995C8.18495 13.5548 9.08995 13.5048 10.4049 13.5048H10.9499L13.3249 11.6598C13.6399 11.4098 14.0349 11.2748 14.4349 11.2748C14.9149 11.2748 15.3649 11.4598 15.6999 11.7998C16.3349 12.4348 16.3999 13.4398 15.8549 14.1498L15.2599 15.0098C15.3249 15.0098 15.3949 15.0148 15.4599 15.0148C15.9699 15.0298 16.4949 15.0448 16.9499 15.0448C17.6649 15.0448 17.8799 15.0098 17.9299 14.9948C17.9349 14.9948 17.9449 14.9898 17.9499 14.9898C18.0549 14.9148 18.1599 14.8398 18.2649 14.7598C18.2649 14.7598 18.2649 14.7598 18.2699 14.7598C18.5999 14.5098 18.9099 14.2398 19.2099 13.9548C19.2849 13.8798 19.3599 13.8098 19.4349 13.7348C19.4849 13.6848 19.5299 13.6398 19.5749 13.5898C19.5849 13.5798 19.5899 13.5748 19.5999 13.5648C19.6399 13.5248 19.6799 13.4798 19.7149 13.4398C19.7249 13.4298 19.7349 13.4198 19.7449 13.4048C19.7849 13.3648 19.8199 13.3198 19.8599 13.2798C19.8699 13.2698 19.8799 13.2598 19.8849 13.2498C19.9249 13.1998 19.9699 13.1548 20.0099 13.1048C20.0149 13.0998 20.0149 13.0948 20.0199 13.0948C20.1099 12.9848 20.1999 12.8798 20.2899 12.7648C20.2999 12.7548 20.3049 12.7448 20.3149 12.7348C20.3499 12.6898 20.3849 12.6448 20.4199 12.5998C20.4299 12.5848 20.4449 12.5698 20.4549 12.5548C20.4849 12.5148 20.5149 12.4748 20.5449 12.4348C20.5549 12.4198 20.5699 12.3998 20.5799 12.3848C20.6099 12.3448 20.6399 12.2998 20.6699 12.2598C20.6799 12.2448 20.6899 12.2298 20.6999 12.2148C20.7349 12.1648 20.7699 12.1148 20.8049 12.0648C20.8099 12.0598 20.8149 12.0548 20.8199 12.0448C20.8599 11.9848 20.8949 11.9298 20.9349 11.8698C20.9399 11.8598 20.9499 11.8498 20.9549 11.8348C20.9849 11.7898 21.0149 11.7398 21.0449 11.6948C21.0549 11.6748 21.0699 11.6548 21.0799 11.6348C21.1049 11.5948 21.1299 11.5548 21.1499 11.5148C21.1649 11.4948 21.1749 11.4698 21.1899 11.4498C21.2099 11.4098 21.2349 11.3748 21.2549 11.3348C21.2699 11.3148 21.2799 11.2898 21.2899 11.2698C21.3149 11.2298 21.3349 11.1848 21.3599 11.1448C21.3699 11.1248 21.3799 11.1048 21.3899 11.0848C21.4249 11.0248 21.4549 10.9648 21.4849 10.8998C21.4999 10.8698 21.5149 10.8348 21.5199 10.7998C21.5249 10.7748 21.5299 10.7498 21.5299 10.7248C21.5349 10.6648 21.5249 10.5998 21.5049 10.5448C21.4999 10.5348 21.4949 10.5248 21.4949 10.5148C21.4899 10.5098 21.4899 10.4998 21.4849 10.4948C21.3449 10.2248 21.1949 9.95985 21.0399 9.70485C21.0299 9.68985 21.0199 9.67485 21.0149 9.65985C20.9549 9.55985 20.8899 9.46485 20.8249 9.36485C20.8249 9.36485 20.8249 9.35985 20.8199 9.35985C20.5149 8.89985 20.1799 8.46985 19.8149 8.05985C19.6849 7.91486 19.5549 7.77486 19.4199 7.63986C18.7449 6.95986 17.9899 6.37486 17.1699 5.89486C17.0999 5.85486 17.0249 5.80986 16.9549 5.76986C16.8499 5.70986 16.7399 5.65486 16.6349 5.59986C16.5299 5.54486 16.4199 5.48986 16.3049 5.43986C16.1949 5.38986 16.0849 5.33986 15.9699 5.28986C15.8599 5.24486 15.7449 5.19486 15.6299 5.15486C15.5149 5.10986 15.3999 5.06986 15.2849 5.02986C15.1699 4.98986 15.0549 4.95486 14.9349 4.91986C14.8199 4.88486 14.6999 4.84986 14.5799 4.81986C13.7499 4.59986 12.8799 4.48486 11.9849 4.48486C10.3249 4.48486 8.74995 4.88486 7.34495 5.59986C7.23495 5.65486 7.12995 5.70986 7.02495 5.76986C6.91995 5.82986 6.81495 5.88986 6.70995 5.94986C6.60495 6.00986 6.50495 6.07486 6.39995 6.13986C5.98995 6.40486 5.59995 6.69486 5.22995 7.00986C4.94995 7.24986 4.68495 7.49986 4.42995 7.76486C4.34495 7.85486 4.25995 7.94485 4.17995 8.03485C3.93495 8.30985 3.69995 8.59485 3.47995 8.89485C3.44495 8.94485 3.40495 8.99485 3.36995 9.04485C3.04495 9.49985 2.74995 9.97985 2.49495 10.4798C2.45995 10.5448 2.44495 10.6148 2.44495 10.6848C2.44495 10.6998 2.44495 10.7198 2.44995 10.7348C2.45495 10.7848 2.46995 10.8398 2.49495 10.8848C2.52495 10.9448 2.55995 11.0098 2.58995 11.0698C2.59995 11.0898 2.60995 11.1098 2.61995 11.1248C2.64495 11.1648 2.66495 11.2098 2.68995 11.2498C2.69995 11.2698 2.71495 11.2948 2.72495 11.3148C2.74495 11.3548 2.76995 11.3948 2.78995 11.4298C2.80495 11.4498 2.81495 11.4748 2.82995 11.4948C2.85495 11.5348 2.87995 11.5748 2.89995 11.6148C2.90995 11.6348 2.92495 11.6548 2.93495 11.6748C2.96495 11.7248 2.99495 11.7698 3.02495 11.8148C3.04995 11.8398 3.05495 11.8498 3.05995 11.8598ZM18.4999 8.13485C18.8599 8.47485 19.1899 8.83985 19.4999 9.23485V12.1548C19.1899 12.5448 18.8599 12.9148 18.4999 13.2548V8.13485ZM7.33995 7.61986C7.88495 7.43986 8.43995 7.28986 8.99995 7.17486V6.49986C8.99995 6.22486 9.22495 5.99986 9.49995 5.99986C9.77495 5.99986 9.99995 6.22486 9.99995 6.49986V7.00486C10.4999 6.93986 10.9999 6.89486 11.4999 6.87986V5.99986C11.4999 5.72486 11.7249 5.49986 11.9999 5.49986C12.2749 5.49986 12.4999 5.72486 12.4999 5.99986V6.87986C12.9999 6.89486 13.4999 6.93986 13.9999 7.00486V6.49986C13.9999 6.22486 14.2249 5.99986 14.4999 5.99986C14.7749 5.99986 14.9999 6.22486 14.9999 6.49986V7.17486C15.5599 7.28986 16.1149 7.43986 16.6599 7.61986C16.9199 7.70486 17.0649 7.98986 16.9749 8.24985C16.8899 8.50985 16.6049 8.65485 16.3449 8.56485C15.9049 8.41985 15.4549 8.29485 15.0049 8.19485V9.49985C15.0049 9.77485 14.7799 9.99985 14.5049 9.99985C14.2299 9.99985 14.0049 9.77485 14.0049 9.49985V8.01486C13.5099 7.94486 13.0049 7.89486 12.5049 7.87986V9.49985C12.5049 9.77485 12.2799 9.99985 12.0049 9.99985C11.7299 9.99985 11.5049 9.77485 11.5049 9.49985V7.87986C11.0049 7.89986 10.4999 7.94486 10.0049 8.01486V9.49985C10.0049 9.77485 9.77995 9.99985 9.50495 9.99985C9.22995 9.99985 9.00495 9.77485 9.00495 9.49985V8.19485C8.54995 8.29485 8.10495 8.41985 7.65995 8.56485C7.60995 8.57985 7.55495 8.58985 7.49995 8.58985C7.28995 8.58985 7.09495 8.45485 7.02495 8.24985C6.93495 7.98986 7.07995 7.70486 7.33995 7.61986ZM4.49995 9.23485C4.80995 8.84485 5.13995 8.47485 5.49995 8.13485V13.2548C5.13995 12.9148 4.80995 12.5498 4.49995 12.1548V9.23485Z" fill="#13334C"/>
<path d="M22.0899 15.39C21.9799 14.975 21.5549 14.73 21.1399 14.855C20.1649 15.145 18.9399 15.79 18.1599 15.97C17.3799 16.15 14.5799 15.935 13.6549 16.005C13.5299 16.015 13.4549 15.88 13.5199 15.775L15.0499 13.56C15.3049 13.245 15.2799 12.79 14.9949 12.51C14.7099 12.225 14.2599 12.2 13.9449 12.45L11.4099 14.42C11.3399 14.475 11.2499 14.51 11.1599 14.51H10.4199C9.05989 14.51 8.45489 14.55 7.49489 15.51H3.40989C3.18989 15.51 3.00989 15.69 3.00989 15.91V19.11C3.00989 19.33 3.18989 19.51 3.40989 19.51L12.4299 19.505C12.4749 19.505 12.5249 19.495 12.5649 19.48L17.9699 18.015C17.9899 18.01 18.0099 18 18.0299 17.995C18.3249 17.86 20.5949 16.79 21.6799 16.28C22.0149 16.115 22.1849 15.74 22.0899 15.39Z" fill="#13334C"/>
</svg>
