<svg width="24" height="24" viewBox="0 0 24 24" fill="none" xmlns="http://www.w3.org/2000/svg">
<path fill-rule="evenodd" clip-rule="evenodd" d="M19.5151 9.50001C19.5151 10.05 19.0651 10.5 18.5151 10.5H16.2751C16.0701 10.5 15.8701 10.435 15.7001 10.32L14.4151 9.42001L11.5501 13.515C11.4001 13.73 11.1651 13.88 10.9051 13.925C10.8451 13.935 10.7901 13.94 10.7301 13.94C10.5251 13.94 10.3251 13.88 10.1551 13.76L7.70005 12.04C7.48505 11.89 7.33505 11.655 7.29005 11.395C7.24505 11.135 7.30505 10.865 7.45505 10.65L10.3101 6.57001L5.82505 4.60001C5.32005 4.38001 5.09005 3.79001 5.31005 3.28001C5.53005 2.77501 6.12005 2.54501 6.63005 2.76501L11.3001 4.81501C11.3601 4.84001 11.4201 4.87501 11.4701 4.91001L12.2851 5.48001L13.2051 6.12501L16.5901 8.49501H18.5101C19.0651 8.50001 19.5151 8.95001 19.5151 9.50001ZM12.3251 16.575C12.2551 16.475 12.1751 16.39 12.0751 16.325L7.12505 12.86C6.67505 12.545 6.05005 12.655 5.73005 13.105C5.41505 13.555 5.52505 14.18 5.97505 14.5L10.7751 17.865L13.9501 22.515C14.1451 22.795 14.4551 22.95 14.7751 22.95C14.9701 22.95 15.1701 22.895 15.3401 22.775C15.7951 22.46 15.9101 21.84 15.5951 21.385L12.3251 16.575ZM6.90505 16.325C6.40005 16.1 5.81005 16.33 5.58505 16.835L4.60505 19.255L1.84505 21.095C1.38505 21.4 1.26005 22.02 1.57005 22.48C1.76505 22.77 2.08005 22.925 2.40505 22.925C2.59505 22.925 2.79005 22.87 2.96005 22.755L5.96005 20.755C6.12005 20.65 6.24505 20.5 6.32005 20.33L7.41505 17.64C7.63505 17.14 7.41005 16.55 6.90505 16.325ZM13.6901 5.24501C14.6351 5.90501 15.8051 5.69501 16.4651 4.75001C17.1251 3.80501 16.9201 2.62501 15.9751 1.96501C15.0301 1.30501 13.8501 1.51001 13.1901 2.45501C12.5251 3.40001 12.7451 4.58501 13.6901 5.24501ZM23.0001 8.50001H21.2401C20.8251 8.50001 20.4901 8.83501 20.4901 9.25001V9.50001H23.7501V9.25001C23.7501 8.83501 23.4101 8.50001 23.0001 8.50001Z" fill="#13334C"/>
</svg>
