<svg width="24" height="24" viewBox="0 0 24 24" fill="none" xmlns="http://www.w3.org/2000/svg">
<path d="M7.155 8.795C7.49 8.6 7.835 8.5 8.185 8.5C8.85 5.91 11.205 3.995 13.995 3.995C14.885 3.995 15.735 4.19 16.495 4.54V1.9C16.495 1.68 16.315 1.5 16.095 1.5H1.9C1.68 1.5 1.5 1.68 1.5 1.9V11.1C1.5 11.32 1.68 11.5 1.9 11.5H6.19C6.135 10.67 6.105 9.405 7.155 8.795Z" fill="#13334C"/>
<path d="M10.365 10.2149C10.54 10.5799 10.64 10.9649 10.735 11.3299C10.85 11.7699 10.97 12.2249 11.165 12.3649C11.17 12.3649 11.17 12.3649 11.175 12.3649C11.3 12.3649 12.025 12.2749 13.85 10.4799C15.025 9.32487 16.15 7.95987 16.825 7.14487C17.06 6.86487 17.225 6.65987 17.345 6.52487C17.385 6.47987 17.425 6.43487 17.465 6.39487C16.565 5.52487 15.34 4.99487 13.995 4.99487C11.655 4.99487 9.69502 6.59987 9.14502 8.76987C9.55502 9.00487 9.99502 9.43987 10.365 10.2149Z" fill="#13334C"/>
<path fill-rule="evenodd" clip-rule="evenodd" d="M22.675 12.4C21.995 11.485 20.795 12.64 20.19 13.045C19.4 13.57 18.63 14.13 17.835 14.65C18.605 14.145 19.295 13.465 19.945 12.82C20.745 12.03 21.73 11.08 22.075 9.97503C22.225 9.49003 22.07 8.88503 21.545 8.71003C20.55 8.38003 19.845 9.53503 19.275 10.135C17.88 11.6 16.405 12.7 16.405 12.7C17.37 11.655 18.86 9.95003 19.23 9.51503C19.78 8.86503 21.3 7.17503 20.13 6.42503C19.41 5.96003 18.55 6.68503 18.095 7.19503C17.245 8.15503 12.485 14.405 10.64 13.225C9.83502 12.71 9.85502 11.48 9.46002 10.65C9.12002 9.94003 8.51002 9.16503 7.65502 9.66003C6.94002 10.075 7.21502 11.365 7.21502 12.035C7.21502 13.82 6.88502 16.5 7.75502 17.59C7.86002 17.725 7.86502 17.91 7.77002 18.05C7.55502 18.38 7.18502 18.935 6.95502 19.28C6.84002 19.455 6.88002 19.69 7.04502 19.82L10.985 22.845C11.15 22.97 11.38 22.95 11.52 22.805C11.875 22.43 12.525 21.745 12.825 21.425C12.92 21.325 13.065 21.285 13.2 21.315C15.49 21.825 20.57 18.41 21.325 17.42C21.325 17.42 22.085 16.715 21.685 16.08C20.955 14.915 18.91 16.605 18.13 16.94C19.285 16.23 20.465 15.5 21.485 14.6C22.03 14.125 23.295 13.235 22.675 12.4Z" fill="#13334C"/>
</svg>
