<svg width="24" height="24" viewBox="0 0 24 24" fill="none" xmlns="http://www.w3.org/2000/svg">
<path d="M8.34998 19.0051C8.09998 19.0051 7.87498 18.9901 7.66998 18.9551C5.75498 17.5951 4.49998 15.3601 4.49998 12.8301C4.49998 8.69008 7.85998 5.33008 12 5.33008C16.14 5.33008 19.5 8.69008 19.5 12.8301C19.5 14.4201 19.005 15.8951 18.16 17.1101C17.55 16.8701 16.805 16.6851 15.845 16.6651C15.84 16.6451 15.83 16.6251 15.825 16.6001C15.82 16.5751 15.81 16.5501 15.8 16.5251C15.8 16.5201 15.795 16.5151 15.795 16.5051C15.795 16.5001 15.79 16.4951 15.79 16.4851C15.78 16.4601 15.77 16.4301 15.755 16.4051C15.745 16.3851 15.735 16.3651 15.73 16.3451C15.67 16.1851 15.605 16.0301 15.535 15.8751C15.53 15.8701 15.53 15.8601 15.525 15.8551C15.52 15.8451 15.515 15.8351 15.515 15.8251C15.435 15.6501 15.35 15.4801 15.255 15.3101C15.255 15.3051 15.25 15.3001 15.25 15.2951C15.245 15.2901 15.245 15.2801 15.24 15.2751C14.86 14.6151 14.375 14.0301 13.82 13.5101C13.815 13.5051 13.81 13.5001 13.805 13.4951C13.8 13.4901 13.795 13.4851 13.79 13.4801C13.77 13.4601 13.75 13.4451 13.725 13.4251C13.72 13.4201 13.71 13.4151 13.705 13.4051C13.53 13.2451 13.35 13.0951 13.16 12.9501C13.145 12.9401 13.135 12.9301 13.12 12.9201C13.105 12.9101 13.09 12.8951 13.075 12.8851C13.045 12.8601 13.01 12.8401 12.975 12.8201C12.95 12.8051 12.92 12.7851 12.895 12.7701C12.855 12.7401 12.815 12.7101 12.775 12.6851C12.705 12.6351 12.64 12.5851 12.57 12.5401C12.575 12.4101 12.58 12.2751 12.59 12.1451C12.595 12.1101 12.595 12.0701 12.6 12.0351C12.605 11.9651 12.61 11.8901 12.62 11.8201C12.635 11.7001 12.66 11.5851 12.685 11.4701C12.69 11.4401 12.7 11.4051 12.705 11.3751C12.83 10.7651 13.03 10.1701 13.32 9.61508C13.325 9.61008 13.325 9.60008 13.33 9.59508C13.33 9.59008 13.335 9.58508 13.335 9.58008C13.625 9.69508 13.91 9.82508 14.185 9.98508C16.34 11.2301 17.615 13.5501 17.54 16.0101C17.935 15.3251 18.21 14.5601 18.325 13.7451C17.795 11.8051 16.53 10.1051 14.72 9.06008C14.455 8.91008 14.185 8.77508 13.91 8.66008C13.99 8.55508 14.07 8.46008 14.155 8.36508C14.175 8.34508 14.195 8.32008 14.215 8.30008C14.235 8.27508 14.26 8.25008 14.28 8.22508C14.315 8.18508 14.345 8.14508 14.38 8.11008C14.495 7.99008 14.62 7.87508 14.74 7.76508L14.765 7.74508C14.815 7.70008 14.86 7.65508 14.91 7.61508C15.02 7.52008 15.135 7.43008 15.25 7.34508C14.91 7.14508 14.55 6.97508 14.17 6.83508C14.145 6.85508 14.12 6.88008 14.1 6.90008C14.075 6.92008 14.055 6.94008 14.03 6.96008C14.005 6.98508 13.975 7.01008 13.95 7.03008C13.905 7.07008 13.865 7.10508 13.82 7.14508C13.805 7.16008 13.785 7.18008 13.77 7.19508C13.755 7.21008 13.735 7.23008 13.72 7.24508C13.71 7.26008 13.695 7.27008 13.68 7.28508C13.585 7.38008 13.495 7.48008 13.405 7.58008C13.39 7.59508 13.375 7.61508 13.36 7.63008C13.34 7.65008 13.32 7.67008 13.305 7.69008C13.3 7.69508 13.3 7.70008 13.295 7.70508C13.29 7.71008 13.285 7.71508 13.28 7.72008C13.26 7.74008 13.245 7.76508 13.225 7.79008C13.21 7.81008 13.2 7.82508 13.185 7.84508C13.08 7.97508 12.975 8.11008 12.875 8.25008C12.87 8.25508 12.865 8.26508 12.86 8.27008C12.855 8.28008 12.845 8.28508 12.84 8.29508C12.73 8.45508 12.625 8.61508 12.525 8.78008C12.52 8.78508 12.515 8.79508 12.515 8.80008L12.51 8.80508C12.51 8.80508 12.505 8.81008 12.505 8.81508C12.125 9.47508 11.86 10.1901 11.685 10.9301C11.685 10.9351 11.68 10.9451 11.68 10.9501C11.68 10.9551 11.675 10.9651 11.675 10.9701C11.67 10.9951 11.665 11.0201 11.66 11.0401C11.66 11.0501 11.655 11.0651 11.655 11.0751C11.605 11.3051 11.565 11.5401 11.535 11.7801C11.535 11.7951 11.53 11.8101 11.525 11.8251C11.52 11.8451 11.52 11.8651 11.515 11.8801C11.51 11.9201 11.51 11.9601 11.51 12.0001C11.51 12.0301 11.51 12.0651 11.505 12.0951C11.5 12.1451 11.495 12.1951 11.49 12.2451C11.48 12.3301 11.47 12.4101 11.47 12.4951C11.355 12.5601 11.24 12.6201 11.12 12.6751C11.085 12.6901 11.055 12.7051 11.02 12.7251C10.955 12.7551 10.89 12.7901 10.825 12.8151C10.715 12.8601 10.605 12.8951 10.495 12.9351C10.46 12.9451 10.43 12.9551 10.395 12.9701C9.80498 13.1651 9.18998 13.2901 8.56498 13.3151C8.55998 13.3151 8.54998 13.3151 8.54498 13.3151C8.53998 13.3151 8.52998 13.3151 8.52498 13.3151C8.47998 13.0051 8.44998 12.6951 8.44998 12.3751C8.44998 9.88508 9.81998 7.62008 11.99 6.46008C11.16 6.46008 10.36 6.62008 9.63498 6.91508C8.21998 8.34508 7.37998 10.2901 7.37998 12.3801C7.37998 12.6851 7.39998 12.9851 7.43498 13.2801C7.30498 13.2651 7.17998 13.2401 7.05498 13.2151C7.02498 13.2101 6.99998 13.2051 6.96998 13.2001C6.93998 13.1951 6.90498 13.1901 6.87498 13.1801C6.82498 13.1701 6.76998 13.1601 6.71998 13.1501C6.55998 13.1101 6.39998 13.0601 6.23998 13.0101C6.16498 12.9901 6.09498 12.9651 6.02498 12.9401C5.88998 12.8901 5.75498 12.8401 5.61998 12.7801C5.61998 12.8001 5.61998 12.8151 5.61998 12.8351C5.61998 13.2201 5.65498 13.6001 5.71998 13.9701C5.75498 13.9801 5.78998 13.9901 5.81998 14.0051C5.84498 14.0151 5.86998 14.0201 5.89498 14.0301C5.92998 14.0401 5.95998 14.0501 5.99498 14.0651C6.04998 14.0851 6.10498 14.1051 6.16498 14.1201C6.17998 14.1251 6.18998 14.1251 6.20498 14.1301C6.21498 14.1301 6.22498 14.1351 6.23498 14.1351C6.25998 14.1401 6.28498 14.1451 6.30998 14.1501C6.32498 14.1551 6.34498 14.1551 6.35998 14.1601C6.48998 14.1951 6.61998 14.2201 6.75498 14.2501C6.77498 14.2551 6.79498 14.2601 6.80998 14.2651C6.83998 14.2701 6.86998 14.2801 6.89998 14.2851C6.90498 14.2851 6.91498 14.2851 6.91998 14.2901H6.92498H6.92998H6.93498C6.96498 14.2951 6.99498 14.3001 7.02498 14.3001C7.04498 14.3001 7.06998 14.3051 7.08998 14.3101C7.25498 14.3351 7.42498 14.3601 7.59498 14.3751C7.60498 14.3751 7.61498 14.3751 7.62498 14.3801C7.63498 14.3801 7.64498 14.3851 7.65498 14.3851C7.84498 14.4001 8.03998 14.4101 8.23498 14.4151C8.23998 14.4151 8.24498 14.4151 8.24998 14.4151C8.25498 14.4151 8.25998 14.4151 8.26998 14.4151C9.02998 14.4151 9.78498 14.2901 10.51 14.0701C10.515 14.0701 10.515 14.0701 10.52 14.0701H10.525C10.535 14.0701 10.545 14.0651 10.55 14.0651C10.57 14.0601 10.595 14.0501 10.615 14.0401C10.63 14.0351 10.64 14.0301 10.655 14.0251C10.88 13.9501 11.105 13.8701 11.325 13.7801C11.34 13.7751 11.355 13.7701 11.37 13.7651C11.39 13.7601 11.405 13.7551 11.425 13.7451C11.46 13.7301 11.495 13.7101 11.53 13.6901C11.56 13.6751 11.585 13.6601 11.615 13.6451C11.66 13.6251 11.705 13.6051 11.75 13.5851C11.83 13.5501 11.905 13.5151 11.98 13.4751C12.095 13.5451 12.205 13.6151 12.31 13.6901C12.335 13.7101 12.365 13.7251 12.39 13.7451C12.455 13.7901 12.52 13.8301 12.58 13.8801C12.665 13.9451 12.75 14.0201 12.83 14.0901C12.86 14.1201 12.89 14.1451 12.925 14.1751C13.39 14.5901 13.805 15.0601 14.14 15.5901C14.145 15.5951 14.145 15.6001 14.15 15.6051L14.155 15.6101L14.16 15.6151L14.165 15.6201C13.92 15.8101 13.665 15.9951 13.39 16.1551C11.235 17.4001 8.58998 17.3451 6.49498 16.0501C6.89998 16.7501 7.43998 17.3651 8.06998 17.8651C9.12998 18.1451 10.235 18.1951 11.315 18.0151C11.265 18.0451 11.22 18.0801 11.175 18.1101C10.44 18.6001 9.90998 18.9551 8.66498 19.0201C8.54998 19.0001 8.44998 19.0051 8.34998 19.0051ZM21.98 19.3301C20.46 19.4051 19.69 18.9951 18.87 18.5601C18.01 18.1001 17.04 17.5851 15.245 17.6751C13.45 17.7651 12.535 18.3801 11.725 18.9201C10.955 19.4351 10.23 19.9201 8.70998 20.0001C7.18998 20.0751 6.41998 19.6651 5.59998 19.2301C4.73998 18.7701 3.76998 18.2551 1.97498 18.3451C1.69998 18.3601 1.48998 18.5951 1.49998 18.8701C1.51498 19.1451 1.74998 19.3551 2.02498 19.3451C3.54498 19.2701 4.31498 19.6801 5.13498 20.1151C5.99498 20.5751 6.96498 21.0901 8.75998 21.0001C10.555 20.9101 11.47 20.2951 12.28 19.7551C13.05 19.2401 13.775 18.7551 15.295 18.6751C16.815 18.6001 17.585 19.0101 18.405 19.4451C19.265 19.9051 20.235 20.4201 22.03 20.3301C22.305 20.3151 22.515 20.0801 22.505 19.8051C22.485 19.5251 22.25 19.3151 21.98 19.3301Z" fill="#13334C"/>
</svg>
