<svg width="24" height="24" viewBox="0 0 24 24" fill="none" xmlns="http://www.w3.org/2000/svg">
<path d="M7.67012 18.9551C7.87512 18.9851 8.10012 19.0051 8.35012 19.0051C8.45012 19.0051 8.55012 19.0001 8.65512 18.9951C9.90012 18.9351 10.4301 18.5751 11.1651 18.0851C11.2551 18.0251 11.3451 17.9651 11.4351 17.9051V13.3951H9.71512C9.59012 15.0451 8.94012 16.5501 7.92012 17.7301C7.63012 17.4901 7.36512 17.2251 7.12012 16.9351C7.94012 15.9601 8.47012 14.7351 8.59012 13.3951H5.65012C5.63512 13.2101 5.62512 13.0201 5.62512 12.8301C5.62512 12.6401 5.63512 12.4551 5.65012 12.2701H8.59512C8.47512 10.9301 7.94512 9.70508 7.12512 8.73008C7.37012 8.44008 7.63512 8.17508 7.92512 7.93508C8.94512 9.11508 9.59512 10.6201 9.72012 12.2701H11.4401V6.48008C11.6251 6.46508 11.8151 6.45508 12.0051 6.45508C12.1951 6.45508 12.3801 6.46508 12.5701 6.48008V12.2701H14.2901C14.4151 10.6201 15.0651 9.11508 16.0851 7.93508C16.3751 8.17508 16.6401 8.44008 16.8851 8.73008C16.0651 9.70508 15.5351 10.9301 15.4151 12.2701H18.3501C18.3651 12.4551 18.3751 12.6451 18.3751 12.8301C18.3751 13.0201 18.3651 13.2051 18.3501 13.3951H15.4051C15.5151 14.6451 15.9851 15.7951 16.7151 16.7351C17.2751 16.8151 17.7451 16.9501 18.1551 17.1101C19.0001 15.8951 19.4951 14.4201 19.4951 12.8301C19.4951 8.69008 16.1351 5.33008 11.9951 5.33008C7.85512 5.33008 4.49512 8.69008 4.49512 12.8301C4.50012 15.3601 5.75012 17.5951 7.67012 18.9551Z" fill="#13334C"/>
<path d="M12.5649 13.395V17.275C13.2299 16.975 14.0649 16.73 15.1949 16.675C15.2349 16.675 15.2749 16.67 15.3149 16.67C14.7349 15.7 14.3699 14.585 14.2849 13.395H12.5649Z" fill="#13334C"/>
<path d="M21.98 19.3301C20.46 19.4051 19.69 18.9951 18.87 18.5601C18.01 18.1001 17.04 17.5851 15.245 17.6751C13.45 17.7651 12.535 18.3801 11.725 18.9201C10.955 19.4351 10.23 19.9201 8.70998 20.0001C7.18998 20.0751 6.41998 19.6651 5.59998 19.2301C4.73998 18.7701 3.76998 18.2551 1.97498 18.3451C1.69998 18.3601 1.48998 18.5951 1.49998 18.8701C1.51498 19.1451 1.74998 19.3551 2.02498 19.3451C3.54498 19.2701 4.31498 19.6801 5.13498 20.1151C5.99498 20.5751 6.96498 21.0901 8.75998 21.0001C10.555 20.9101 11.47 20.2951 12.28 19.7551C13.05 19.2401 13.775 18.7551 15.295 18.6751C16.815 18.6001 17.585 19.0101 18.405 19.4451C19.265 19.9051 20.235 20.4201 22.03 20.3301C22.305 20.3151 22.515 20.0801 22.505 19.8051C22.485 19.5251 22.25 19.3151 21.98 19.3301Z" fill="#13334C"/>
</svg>
