<svg width="24" height="24" viewBox="0 0 24 24" fill="none" xmlns="http://www.w3.org/2000/svg">
<path fill-rule="evenodd" clip-rule="evenodd" d="M14.9302 14.9601C14.9102 14.9601 14.8952 14.9601 14.8752 14.9601C14.4752 14.9451 14.1052 14.7751 13.8302 14.4851C13.5552 14.1901 13.4152 13.8101 13.4302 13.4101C13.4602 12.6001 14.1152 11.9651 14.9252 11.9651C14.9452 11.9651 14.9602 11.9651 14.9802 11.9651C15.8052 11.9951 16.4552 12.6901 16.4252 13.5151C16.3952 14.3251 15.7402 14.9601 14.9302 14.9601Z" fill="#13334C"/>
<path d="M16.078 5.34527C16.8041 4.49474 16.7033 3.21659 15.8528 2.49043C15.0023 1.76427 13.7241 1.86508 12.9979 2.71561C12.2718 3.56613 12.3726 4.84428 13.2231 5.57044C14.0736 6.2966 15.3518 6.19579 16.078 5.34527Z" fill="#13334C"/>
<path d="M18.44 15.0002L16.015 8.26019C15.96 8.11018 15.87 7.97519 15.755 7.86519C15.655 7.75019 15.53 7.65518 15.38 7.59518L12.525 6.44019C12.47 6.42019 12.415 6.40019 12.355 6.39019H12.35C12.335 6.38519 12.32 6.38519 12.305 6.38019C12.3 6.38019 12.295 6.38019 12.29 6.37519L6.86999 5.57519C6.58999 5.53519 6.30999 5.61019 6.08999 5.79019C5.86999 5.97019 5.73999 6.23019 5.72499 6.51019L5.50999 10.5402C5.47999 11.0902 5.90499 11.5652 6.45499 11.5902C7.00499 11.6202 7.47999 11.1952 7.50499 10.6452L7.66499 7.71018L10.75 8.16519L8.94999 12.6052C8.74499 13.1152 8.98999 13.7002 9.49999 13.9052L11.06 14.5352C11.77 14.8602 12.33 15.4302 12.635 16.1552C12.96 16.9252 12.97 17.7752 12.655 18.5452C12.34 19.3202 11.745 19.9252 10.98 20.2502C10.21 20.5752 9.35999 20.5852 8.58999 20.2702C6.99499 19.6252 6.21999 17.8002 6.86499 16.2002C7.05499 15.7252 7.34999 15.3152 7.73999 14.9852C8.15999 14.6302 8.21499 13.9952 7.85999 13.5752C7.50499 13.1552 6.86999 13.1002 6.44999 13.4552C5.81999 13.9902 5.32499 14.6752 5.00999 15.4452C3.94999 18.0652 5.21999 21.0552 7.83999 22.1152C8.45999 22.3652 9.10999 22.4902 9.75999 22.4902C10.44 22.4902 11.115 22.3552 11.76 22.0802C13.02 21.5452 13.995 20.5502 14.51 19.2852C14.98 18.1202 15.01 16.8502 14.595 15.6752C14.09 15.6002 13.63 15.3602 13.28 14.9852C12.87 14.5452 12.655 13.9702 12.675 13.3702C12.695 12.7852 12.94 12.2352 13.36 11.8302C13.78 11.4252 14.335 11.2002 14.92 11.2002C14.945 11.2002 14.975 11.2002 15 11.2002C15.6 11.2202 16.155 11.4752 16.565 11.9152C16.975 12.3552 17.19 12.9302 17.17 13.5302C17.15 14.1152 16.905 14.6652 16.485 15.0702C16.45 15.1052 16.415 15.1352 16.375 15.1652L16.555 15.6652C16.7 16.0752 17.085 16.3252 17.495 16.3252C17.605 16.3252 17.72 16.3052 17.835 16.2652C18.36 16.0902 18.63 15.5202 18.44 15.0002Z" fill="#13334C"/>
</svg>
