<svg width="24" height="24" viewBox="0 0 24 24" fill="none" xmlns="http://www.w3.org/2000/svg">
<path d="M10.4663 4.66601C11.2571 3.8752 11.2571 2.59306 10.4663 1.80225C9.67548 1.01145 8.39334 1.01145 7.60253 1.80225C6.81173 2.59306 6.81173 3.8752 7.60253 4.66601C8.39334 5.45681 9.67548 5.45681 10.4663 4.66601Z" fill="#13334C"/>
<path d="M12.745 3.26982C12.735 3.24482 12.73 3.21982 12.72 3.19482C12.58 3.36482 12.5 3.58482 12.5 3.81982V5.39982L7.33503 6.25982C7.33003 6.25982 7.32503 6.25982 7.32003 6.26482C7.29503 6.26982 7.27503 6.27482 7.25003 6.27982C7.24003 6.27982 7.23003 6.28482 7.22003 6.28482C7.19503 6.28982 7.17503 6.29982 7.15503 6.30482C7.14503 6.30982 7.13503 6.30982 7.12503 6.31482C7.10503 6.32482 7.08503 6.33482 7.06503 6.33982C7.05503 6.34482 7.04503 6.34982 7.03503 6.35482C7.01503 6.36482 6.99503 6.37482 6.98003 6.38482C6.97003 6.38982 6.96003 6.39482 6.95003 6.39982C6.93003 6.40982 6.91503 6.42482 6.89503 6.43482C6.88503 6.43982 6.88003 6.44482 6.87003 6.45482C6.85003 6.46982 6.83503 6.48482 6.82003 6.49982C6.81503 6.50482 6.80503 6.50982 6.80003 6.51982C6.78003 6.53482 6.76503 6.55482 6.75003 6.57482C6.74503 6.57982 6.74003 6.58482 6.73503 6.58982C6.72003 6.60982 6.70003 6.62982 6.68503 6.64982C6.68003 6.65482 6.68003 6.65982 6.67503 6.65982C6.66003 6.68482 6.64503 6.70482 6.63003 6.72982C6.63003 6.73482 6.62503 6.73482 6.62503 6.73982C6.61003 6.76482 6.60003 6.78982 6.58503 6.81482C6.58503 6.81982 6.58003 6.81982 6.58003 6.82482C6.57003 6.84982 6.56003 6.87482 6.55003 6.89982C6.55003 6.90482 6.54503 6.90982 6.54503 6.91482C6.53503 6.93982 6.53003 6.96482 6.52503 6.98982C6.52503 6.99482 6.52003 7.00482 6.52003 7.00982C6.51503 7.03482 6.51003 7.05482 6.50503 7.07982C6.50503 7.08982 6.50003 7.09982 6.50003 7.10982C6.49503 7.12982 6.49503 7.15482 6.49503 7.17482C6.49503 7.18482 6.49503 7.19482 6.49503 7.20982C6.49503 7.21982 6.49503 7.22482 6.49503 7.23482V13.2348C6.49503 13.7848 6.94503 14.2348 7.49503 14.2348H9.03003C10.755 14.2348 12.155 15.6348 12.155 17.3598C12.155 19.0848 10.755 20.4848 9.03003 20.4848C7.30503 20.4848 5.90503 19.0848 5.90503 17.3598C5.90503 16.8448 6.02503 16.3598 6.26003 15.9098C6.51503 15.4198 6.33003 14.8148 5.84003 14.5598C5.35003 14.3048 4.74503 14.4898 4.49003 14.9798C4.10503 15.7098 3.90503 16.5348 3.90503 17.3648C3.90503 20.1898 6.20503 22.4898 9.03003 22.4898C11.855 22.4898 14.155 20.1898 14.155 17.3648C14.155 15.4348 13.08 13.7448 11.495 12.8748V7.59982L13.66 7.23982C14.14 7.15982 14.495 6.74482 14.495 6.25482V4.84482C13.705 4.64482 13.035 4.06482 12.745 3.26982Z" fill="#13334C"/>
<path d="M15.6527 3.80691C16.4216 3.49848 16.7948 2.62517 16.4864 1.85631C16.178 1.08744 15.3047 0.71418 14.5358 1.0226C13.767 1.33103 13.3937 2.20434 13.7021 2.97321C14.0105 3.74207 14.8839 4.11533 15.6527 3.80691Z" fill="#13334C"/>
</svg>
