<svg width="24" height="24" viewBox="0 0 24 24" fill="none" xmlns="http://www.w3.org/2000/svg">
<path d="M11.5577 5.27461C12.6758 5.24575 13.5587 4.316 13.5299 3.19796C13.501 2.07992 12.5713 1.19696 11.4532 1.22582C10.3352 1.25468 9.45223 2.18443 9.48109 3.30247C9.50995 4.42051 10.4397 5.30347 11.5577 5.27461Z" fill="#13334C"/>
<path fill-rule="evenodd" clip-rule="evenodd" d="M20.32 8.44999L17.465 6.44998C17.295 6.32998 17.095 6.26998 16.89 6.26998H13.495C13.49 6.26998 13.485 6.26998 13.48 6.26998H10.48C10.475 6.26998 10.47 6.26998 10.465 6.26998H7.02002L5.90502 4.59998C5.69502 4.65498 5.48502 4.68498 5.26502 4.68498C4.60502 4.68498 3.98502 4.41998 3.52502 3.97998C3.44002 4.25498 3.47502 4.56998 3.65002 4.82998L5.65002 7.82999C5.83502 8.10999 6.15002 8.27499 6.48002 8.27499H9.47502V13.275C9.47502 13.825 9.92502 14.275 10.475 14.275H12.01C13.735 14.275 15.135 15.675 15.135 17.4C15.135 19.125 13.735 20.525 12.01 20.525C10.285 20.525 8.88502 19.125 8.88502 17.4C8.88502 16.885 9.00502 16.4 9.24002 15.95C9.49502 15.46 9.31002 14.855 8.82002 14.6C8.33002 14.345 7.72502 14.53 7.47002 15.02C7.08502 15.75 6.88502 16.575 6.88502 17.405C6.88502 20.23 9.18502 22.53 12.01 22.53C14.835 22.53 17.135 20.23 17.135 17.405C17.135 15.47 16.06 13.785 14.475 12.915V8.28499H16.57L19.17 10.105C19.345 10.225 19.545 10.285 19.745 10.285C20.06 10.285 20.37 10.135 20.565 9.85999C20.88 9.38999 20.77 8.76499 20.32 8.44999Z" fill="#13334C"/>
<path d="M5.34523 3.6831C6.17249 3.6389 6.80729 2.93243 6.76309 2.10516C6.71889 1.27789 6.01242 0.643094 5.18516 0.687297C4.35789 0.7315 3.72309 1.43797 3.76729 2.26523C3.8115 3.0925 4.51796 3.7273 5.34523 3.6831Z" fill="#13334C"/>
</svg>
