<svg width="128" height="128" viewBox="0 0 128 128" fill="none" xmlns="http://www.w3.org/2000/svg">
<mask id="mask0_21088_4724" style="mask-type:alpha" maskUnits="userSpaceOnUse" x="0" y="0" width="128" height="128">
<circle cx="64" cy="64" r="63.5" fill="#F7931E" stroke="#F7931E"/>
</mask>
<g mask="url(#mask0_21088_4724)">
<circle cx="88" cy="37.2" r="20" fill="#FEFEFE" fill-opacity="0.87"/>
<circle cx="88" cy="37.2" r="20" stroke="#F7931E"/>
<circle cx="32" cy="56" r="20" fill="#FEFEFE" fill-opacity="0.87"/>
<circle cx="32" cy="56" r="20" stroke="#F7931E"/>
<mask id="path-4-outside-1_21088_4724" maskUnits="userSpaceOnUse" x="50.1738" y="60.2" width="79" height="82" fill="black">
<rect fill="white" x="50.1738" y="60.2" width="79" height="82"/>
<path fill-rule="evenodd" clip-rule="evenodd" d="M88.0078 141.2C110.099 141.2 128.008 123.291 128.008 101.2C128.008 79.1086 110.099 61.2 88.0078 61.2C72.3095 61.2 58.7233 70.2431 52.1746 83.4043C66.2096 89.6158 76.002 103.664 76.002 120C76.002 126.393 74.5021 132.436 71.8352 137.796C76.7803 139.984 82.2521 141.2 88.0078 141.2Z"/>
</mask>
<path fill-rule="evenodd" clip-rule="evenodd" d="M88.0078 141.2C110.099 141.2 128.008 123.291 128.008 101.2C128.008 79.1086 110.099 61.2 88.0078 61.2C72.3095 61.2 58.7233 70.2431 52.1746 83.4043C66.2096 89.6158 76.002 103.664 76.002 120C76.002 126.393 74.5021 132.436 71.8352 137.796C76.7803 139.984 82.2521 141.2 88.0078 141.2Z" fill="#FEFEFE" fill-opacity="0.87"/>
<path d="M52.1746 83.4043L51.2793 82.9588L50.8133 83.8953L51.7699 84.3187L52.1746 83.4043ZM71.8352 137.796L70.9399 137.35L70.4739 138.287L71.4305 138.71L71.8352 137.796ZM127.008 101.2C127.008 122.739 109.547 140.2 88.0078 140.2V142.2C110.651 142.2 129.008 123.844 129.008 101.2H127.008ZM88.0078 62.2C109.547 62.2 127.008 79.6608 127.008 101.2H129.008C129.008 78.5563 110.651 60.2 88.0078 60.2V62.2ZM53.0699 83.8497C59.4561 71.0152 72.7034 62.2 88.0078 62.2V60.2C71.9156 60.2 57.9906 69.4711 51.2793 82.9588L53.0699 83.8497ZM51.7699 84.3187C65.4561 90.3759 75.002 104.074 75.002 120H77.002C77.002 103.254 66.963 88.8557 52.5793 82.4898L51.7699 84.3187ZM75.002 120C75.002 126.235 73.5395 132.126 70.9399 137.35L72.7305 138.241C75.4648 132.746 77.002 126.551 77.002 120H75.002ZM88.0078 140.2C82.3941 140.2 77.06 139.015 72.2399 136.881L71.4305 138.71C76.5006 140.954 82.11 142.2 88.0078 142.2V140.2Z" fill="#F7931E" mask="url(#path-4-outside-1_21088_4724)"/>
<circle cx="36" cy="120" r="41.3" fill="#FEFEFE" fill-opacity="0.87" stroke="#F7931E" stroke-width="2.6"/>
</g>
</svg>
