<svg width="80" height="80" viewBox="0 0 80 80" fill="none" xmlns="http://www.w3.org/2000/svg">
<path d="M41.6686 63.667V49.3337C41.6686 48.3337 41.6686 47.667 42.002 47.0003C40.002 46.667 38.3353 46.667 36.6686 46.667C27.6686 46.667 10.002 51.0003 10.002 60.0003V66.667H42.002C42.002 65.667 41.6686 64.667 41.6686 63.667Z" fill="#FEFEFE" fill-opacity="0.87"/>
<path d="M36.6683 40.0004C44.0321 40.0004 50.0016 34.0309 50.0016 26.6671C50.0016 19.3033 44.0321 13.3337 36.6683 13.3337C29.3045 13.3337 23.335 19.3033 23.335 26.6671C23.335 34.0309 29.3045 40.0004 36.6683 40.0004Z" fill="#FEFEFE" fill-opacity="0.87"/>
<g clip-path="url(#clip0_22034_4726)">
<path d="M70.0013 47.7663H68.3346V44.5996C68.3346 40.2329 64.6013 36.6663 60.0013 36.6663C55.4013 36.6663 51.668 40.2329 51.668 44.5996V47.7663H50.0013C48.168 47.7663 46.668 49.1996 46.668 50.9329V66.7996C46.668 68.5329 48.168 69.9663 50.0013 69.9663H70.0013C71.8346 69.9663 73.3346 68.5329 73.3346 66.7996V50.9329C73.3346 49.1996 71.8346 47.7663 70.0013 47.7663ZM60.0013 62.0663C58.2013 62.0663 56.7346 60.6329 56.7346 58.8996C56.7346 57.1663 58.2013 55.7329 60.0013 55.7329C61.8013 55.7329 63.268 57.1663 63.268 58.8996C63.268 60.6329 61.8013 62.0663 60.0013 62.0663ZM65.068 47.7663H54.9346V44.5996C54.9346 41.8996 57.2013 39.6663 60.0013 39.6663C62.8013 39.6663 65.068 41.8663 65.068 44.5996V47.7663Z" fill="#FEFEFE" fill-opacity="0.87"/>
</g>
<defs>
<clipPath id="clip0_22034_4726">
<rect width="26.6667" height="33.3333" fill="white" transform="translate(46.668 36.6663)"/>
</clipPath>
</defs>
</svg>
