<svg width="24" height="24" fill="none" viewBox="0 0 24 24">
  <mask id="a" width="24" height="24" x="0" y="0" maskUnits="userSpaceOnUse" style="mask-type:alpha">
    <path fill="#D9D9D9" d="M0 0h24v24H0z"/>
  </mask>
  <g mask="url(#a)">
    <path fill="#13334C" fill-rule="evenodd" d="M10.957 18.086c-1.764-1.596-3.12-3.094-4.067-4.495C5.763 11.927 5.2 10.387 5.2 8.97c0-2.125.684-3.818 2.051-5.079C8.618 2.631 10.201 2 12.001 2c1.798 0 3.381.63 4.748 1.891C18.116 5.152 18.8 6.845 18.8 8.97c0 1.417-.563 2.957-1.689 4.621-.947 1.4-2.303 2.899-4.068 4.495.416.153.707.507.707.92 0 .53-.482.964-1.092.997a2.1 2.1 0 0 0 .522.867 2.09 2.09 0 0 0 3.51-.974.753.753 0 0 1 .059-.16c.1-.198.288-.345.512-.345.282 0 .515.23.469.508a3.165 3.165 0 0 1-.195.683 3.11 3.11 0 0 1-2.876 1.922 3.113 3.113 0 0 1-3.052-2.499h-.19c-.644 0-1.167-.448-1.167-1 0-.412.291-.766.707-.92ZM9.695 4.21a.5.5 0 0 1-.24.666c-.897.421-1.531 1.172-1.89 2.313-.224.709-.2 1.615.14 2.749a.5.5 0 1 1-.96.286c-.372-1.25-.438-2.372-.135-3.335.43-1.367 1.233-2.36 2.42-2.918a.5.5 0 0 1 .665.24Z" clip-rule="evenodd"/>
  </g>
</svg>
