<svg width="24" height="24" fill="none" viewBox="0 0 24 24">
  <mask id="a" width="24" height="24" x="0" y="0" maskUnits="userSpaceOnUse" style="mask-type:alpha">
    <path fill="#D9D9D9" d="M0 0h24v24H0z"/>
  </mask>
  <g mask="url(#a)">
    <path fill="#13334C" d="m8.4 17 3.6-3.6 3.6 3.6 1.4-1.4-3.6-3.6L17 8.4 15.6 7 12 10.6 8.4 7 7 8.4l3.6 3.6L7 15.6 8.4 17Zm3.6 5a9.738 9.738 0 0 1-3.9-.788 10.099 10.099 0 0 1-3.175-2.137c-.9-.9-1.612-1.958-2.137-3.175A9.738 9.738 0 0 1 2 12a9.74 9.74 0 0 1 .788-3.9 10.099 10.099 0 0 1 2.137-3.175c.9-.9 1.958-1.612 3.175-2.137A9.738 9.738 0 0 1 12 2a9.74 9.74 0 0 1 3.9.788 10.098 10.098 0 0 1 3.175 2.137c.9.9 1.613 1.958 2.137 3.175A9.738 9.738 0 0 1 22 12a9.738 9.738 0 0 1-.788 3.9 10.098 10.098 0 0 1-2.137 3.175c-.9.9-1.958 1.613-3.175 2.137A9.738 9.738 0 0 1 12 22Zm0-2c2.233 0 4.125-.775 5.675-2.325C19.225 16.125 20 14.233 20 12c0-2.233-.775-4.125-2.325-5.675C16.125 4.775 14.233 4 12 4c-2.233 0-4.125.775-5.675 2.325C4.775 7.875 4 9.767 4 12c0 2.233.775 4.125 2.325 5.675C7.875 19.225 9.767 20 12 20Z"/>
  </g>
</svg>
