<svg width="24" height="24" viewBox="0 0 24 24" fill="none" xmlns="http://www.w3.org/2000/svg">
<g clip-path="url(#clip0_10669_89)">
<path d="M6.27241 17.7274C5.06325 16.5183 5.06325 14.5525 6.27241 13.3434L9.10083 10.5149L7.75733 9.17144L4.9289 11.9999C2.97729 13.9515 2.97729 17.1193 4.9289 19.0709C6.88052 21.0225 10.0484 21.0225 12 19.0709L14.8284 16.2425L13.4849 14.899L10.6565 17.7274C9.44732 18.9366 7.48156 18.9366 6.27241 17.7274ZM9.87865 15.5354L15.5355 9.87855L14.1213 8.46433L8.46444 14.1212L9.87865 15.5354ZM12 4.9288L9.17154 7.75723L10.515 9.10073L13.3435 6.2723C14.5526 5.06315 16.5184 5.06315 17.7275 6.2723C18.9367 7.48145 18.9367 9.44721 17.7275 10.6564L14.8991 13.4848L16.2426 14.8283L19.071 11.9999C21.0227 10.0483 21.0227 6.88041 19.071 4.9288C17.1194 2.97718 13.9516 2.97718 12 4.9288Z" fill="#13334C"/>
</g>
<defs>
<clipPath id="clip0_10669_89">
<rect width="24" height="24" fill="white"/>
</clipPath>
</defs>
</svg>
