<svg width="24" height="24" fill="none" viewBox="0 0 24 24">
  <g clip-path="url(#a)">
    <path fill="#13334C" d="M6 11c-1.66 0-2.99-1.34-2.99-3S4.34 5 6 5c.32 0 .63.05.91.14-.57.81-.9 1.79-.9 2.86 0 1.07.34 2.04.9 2.86-.28.09-.59.14-.91.14Zm5 0c-1.66 0-2.99-1.34-2.99-3S9.34 5 11 5c1.66 0 3 1.34 3 3s-1.34 3-3 3Zm-6.62 2.16C3.55 13.89 3 14.82 3 16v2H0v-2c0-1.54 2.37-2.49 4.38-2.84ZM11 13c2 0 6 1 6 3v2H5v-2c0-2 4-3 6-3Zm9 1.84.58-.528C22.64 12.444 24 11.212 24 9.7c0-1.232-.968-2.2-2.2-2.2-.696 0-1.364.324-1.8.836a2.395 2.395 0 0 0-1.8-.836c-1.232 0-2.2.968-2.2 2.2 0 1.512 1.36 2.744 3.42 4.616l.58.524Z"/>
  </g>
  <defs>
    <clipPath id="a">
      <path fill="#fff" d="M24 0H0v24h24z"/>
    </clipPath>
  </defs>
</svg>
