<svg width="24" height="24" viewBox="0 0 24 24" fill="none" xmlns="http://www.w3.org/2000/svg">
<mask id="mask0_19565_360" style="mask-type:alpha" maskUnits="userSpaceOnUse" x="0" y="0" width="24" height="24">
<rect width="24" height="24" fill="#D9D9D9"/>
</mask>
<g mask="url(#mask0_19565_360)">
<path d="M7 7.5C6.51667 7.5 6.10417 7.32917 5.7625 6.9875C5.42083 6.64583 5.25 6.23333 5.25 5.75C5.25 5.26667 5.42083 4.85417 5.7625 4.5125C6.10417 4.17083 6.51667 4 7 4C7.48333 4 7.89583 4.17083 8.2375 4.5125C8.57917 4.85417 8.75 5.26667 8.75 5.75C8.75 6.23333 8.57917 6.64583 8.2375 6.9875C7.89583 7.32917 7.48333 7.5 7 7.5ZM5 20V15H4V10.5C4 9.95 4.19583 9.47917 4.5875 9.0875C4.97917 8.69583 5.45 8.5 6 8.5H8C8.55 8.5 9.02083 8.69583 9.4125 9.0875C9.80417 9.47917 10 9.95 10 10.5V15H9V20H5Z" fill="#13334C"/>
<path d="M17 7.5C16.5167 7.5 16.1042 7.32917 15.7625 6.9875C15.4208 6.64583 15.25 6.23333 15.25 5.75C15.25 5.26667 15.4208 4.85417 15.7625 4.5125C16.1042 4.17083 16.5167 4 17 4C17.4833 4 17.8958 4.17083 18.2375 4.5125C18.5792 4.85417 18.75 5.26667 18.75 5.75C18.75 6.23333 18.5792 6.64583 18.2375 6.9875C17.8958 7.32917 17.4833 7.5 17 7.5ZM15 20V16H14L15.375 9.625C15.5083 9.29167 15.7208 9.02083 16.0125 8.8125C16.3042 8.60417 16.6333 8.5 17 8.5C17.3667 8.5 17.6958 8.60417 17.9875 8.8125C18.2792 9.02083 18.4917 9.29167 18.625 9.625L20 16H19V20H15Z" fill="#13334C"/>
</g>
</svg>
