<svg width="24" height="24" viewBox="0 0 24 24" fill="none" xmlns="http://www.w3.org/2000/svg">
<path d="M5.65681 23H18.6861C19.591 23 20.3246 22.2664 20.3246 21.3616V13.1689H4.01837V21.3616C4.01837 22.2664 4.75198 23 5.65681 23Z" fill="#13334C"/>
<path d="M3 10.1307V12.3299H21.3436V10.1307C21.3436 9.2259 20.61 8.49229 19.7052 8.49229H14.909C17.1869 8.49229 20.4621 6.28162 19.7445 3.93742C19.1452 1.97907 17.3466 0.988629 15.5087 1.0001C12.9138 1.01484 12.2412 6.45488 12.2412 6.45488H12.1716C12.1716 6.45488 11.4994 1.01484 8.90413 1.0001C7.0658 0.988629 5.2676 1.97907 4.66834 3.93742C3.9503 6.28162 7.22595 8.49229 9.50462 8.49229H4.63844C3.73361 8.49229 3 9.2259 3 10.1307ZM17.4171 2.97729C17.4171 2.97729 17.3368 5.6545 13.7392 7.65381C13.7396 7.65381 14.4191 4.21677 17.4171 2.97729ZM7.02606 2.97729C10.0232 4.21636 10.7027 7.65381 10.7027 7.65381C7.10594 5.6545 7.02606 2.97729 7.02606 2.97729Z" fill="#13334C"/>
</svg>
