<svg width="24" height="24" viewBox="0 0 24 24" fill="none" xmlns="http://www.w3.org/2000/svg">
<path d="M17.7735 18.8216C17.4194 19.0256 17.2171 19.9435 16.8376 20.071C16.787 21.3714 16.1547 23.5387 16.1547 23.5387C16.1547 23.5387 18.9877 20.8359 20.303 16.8328C19.8477 17.9802 18.9118 18.2096 17.7735 18.8216Z" fill="#13334C"/>
<path d="M5.63179 5.38545C5.70768 5.58943 7.42774 5.86991 7.6048 5.86991C8.56601 5.9974 9.60311 6.27787 10.5643 6.35437C11.7279 6.45636 12.8409 6.37986 14.0044 6.50735C15.1933 6.63484 16.1292 6.96631 17.2928 7.32328C18.684 7.75675 19.8982 7.98623 20.3788 9.13363C18.3046 4.03406 10.8932 2.98865 6.13769 4.46753C6.13769 4.7225 5.5812 5.23246 5.63179 5.38545Z" fill="#13334C"/>
<path d="M4.97454 6.04857C5.32867 5.84459 5.73339 4.69719 6.11281 4.5697C6.1634 3.26931 6.79578 1 6.79578 1C6.79578 1 3.98803 3.70277 2.6474 7.73143C3.128 6.58403 3.83627 6.68602 4.97454 6.04857Z" fill="#13334C"/>
<path d="M17.1151 19.4853C17.0392 19.2813 15.4709 18.6948 15.3191 18.6693C14.3579 18.5419 13.4979 18.2614 12.5367 18.1849C11.3731 18.0829 10.1084 18.3124 8.91951 18.1849C7.73065 18.0574 6.79473 17.8789 5.63116 17.5219C4.23994 17.0885 3.10166 16.553 2.59576 15.3801C4.06287 19.2048 8.66656 20.6582 12.4861 20.6837C13.9279 20.6837 15.4709 20.5817 16.8368 20.0717C16.8621 19.8168 17.1657 19.6638 17.1151 19.4853Z" fill="#13334C"/>
<path d="M9.04585 10.6135C9.2735 10.639 9.50116 10.5625 9.65293 10.4095C9.82999 10.231 9.88058 10.027 9.85529 9.79757C9.82999 9.64458 9.75411 9.49159 9.65293 9.3641C9.57704 9.28761 9.45057 9.21112 9.34939 9.18562C9.09644 9.10912 8.7929 9.16012 8.61583 9.3641C8.41347 9.56809 8.36288 9.84856 8.43877 10.1035C8.46406 10.2055 8.53995 10.3075 8.61583 10.4095C8.71701 10.5115 8.86878 10.588 9.04585 10.6135Z" fill="#13334C"/>
<path d="M14.4847 14.182C14.3582 14.0545 14.2065 13.978 14.0547 13.978C13.827 13.9525 13.5994 14.029 13.4476 14.182C13.2705 14.3604 13.2199 14.5644 13.2452 14.7939C13.2705 14.9469 13.3464 15.0999 13.4476 15.2274C13.5235 15.3039 13.65 15.3804 13.7511 15.4059C14.0041 15.4823 14.3076 15.4314 14.4847 15.2274C14.6871 15.0234 14.7376 14.7429 14.6618 14.4879C14.6365 14.3604 14.5606 14.2585 14.4847 14.182Z" fill="#13334C"/>
<path d="M20.6062 9.84712C20.5556 9.61764 20.4797 9.38815 20.3785 9.18417C19.8726 8.01127 19.0379 7.09335 17.6467 6.65989C16.5084 6.30292 15.2437 6.22642 14.0548 6.09893C12.8912 5.97144 11.7277 5.84395 10.5388 5.74196C9.57758 5.63997 8.61637 5.56348 7.68046 5.46149C7.52869 5.43599 6.26394 5.38499 6.21335 5.18101C6.16276 5.00253 6.13746 4.77304 6.16276 4.51807C5.78333 4.64556 5.40391 4.82404 5.04978 5.00253C3.9115 5.63997 3.15265 6.60889 2.67205 7.75629C1.98908 9.79612 1.71084 12.1929 2.3938 14.7427C2.44439 14.9722 2.52028 15.2017 2.62146 15.4056C3.12736 16.5785 3.96209 17.4965 5.35332 17.9299C6.49159 18.2869 7.75634 18.3634 8.94521 18.4909C10.1088 18.6184 11.2723 18.7459 12.4612 18.8479C13.4224 18.9498 14.3836 19.0263 15.3195 19.1538C15.4713 19.1793 16.7361 19.2303 16.7867 19.4343C16.8372 19.6128 16.8625 19.8423 16.8372 20.0972C17.2167 19.9698 17.5961 19.7913 17.9502 19.6128C19.0885 18.9753 19.8473 18.0064 20.328 16.859C21.0109 14.7937 21.2892 12.3969 20.6062 9.84712ZM11.8035 16.1196C11.7529 16.1196 11.7024 16.1196 11.6518 16.1196C11.6265 16.1196 11.6265 16.1196 11.6012 16.1196C11.5759 16.1196 11.5759 16.1196 11.5506 16.1196C10.5388 16.1196 9.60288 15.7371 8.86932 15.0487C8.13577 14.3347 7.73105 13.3913 7.70575 12.3714C7.70575 11.8614 7.78164 11.377 7.9587 10.918C7.70575 10.6375 7.55398 10.2806 7.55398 9.89811C7.55398 9.05668 8.23695 8.36824 9.09698 8.36824C9.95701 8.36824 10.64 9.05668 10.64 9.89811C10.64 10.7395 9.95701 11.428 9.09698 11.428C8.94521 11.428 8.79344 11.4025 8.64167 11.3515C8.54049 11.683 8.4899 12.0144 8.4899 12.3459C8.4899 13.1618 8.81873 13.9013 9.40052 14.4622C9.9823 15.0232 10.7159 15.3037 11.5253 15.3037C11.5506 15.3037 11.5506 15.3037 11.5759 15.3037C11.6012 15.3037 11.6012 15.3037 11.6265 15.3037C11.6518 15.3037 11.7277 15.3037 11.7529 15.3037C11.9806 15.3037 12.1577 15.4566 12.1577 15.6861C12.183 15.9156 12.0312 16.1196 11.8035 16.1196ZM13.9536 16.2471C13.1189 16.2471 12.4106 15.5586 12.4106 14.7172C12.4106 13.8758 13.0936 13.1873 13.9536 13.1873C14.1054 13.1873 14.2572 13.2128 14.3836 13.2383C14.4848 12.9324 14.5354 12.6009 14.5354 12.2694C14.5354 11.4535 14.2066 10.6885 13.6501 10.1276C13.0683 9.56664 12.3094 9.26067 11.5 9.26067C11.4747 9.26067 11.4747 9.26067 11.4494 9.26067C11.4241 9.26067 11.3482 9.26067 11.3229 9.26067C11.0953 9.26067 10.9182 9.10768 10.9182 8.8782C10.9182 8.64872 11.07 8.47023 11.2976 8.47023C11.3482 8.47023 11.3988 8.47023 11.4494 8.47023C11.4747 8.47023 11.4747 8.47023 11.5 8.47023C12.5371 8.47023 13.4983 8.8527 14.2066 9.56664C14.9401 10.2806 15.3448 11.2495 15.3448 12.2694C15.3448 12.7539 15.2437 13.2128 15.0919 13.6463C15.3448 13.9268 15.4966 14.2837 15.4966 14.6917C15.4713 15.5841 14.7883 16.2471 13.9536 16.2471Z" fill="#13334C"/>
</svg>
