<svg width="24" height="24" viewBox="0 0 24 24" fill="none" xmlns="http://www.w3.org/2000/svg">
<g clip-path="url(#clip0_1945_1526)">
<path fill-rule="evenodd" clip-rule="evenodd" d="M4 2H20C21.1 2 22 2.9 22 4V16C22 17.1 21.1 18 20 18H6L2 22V4C2 2.9 2.9 2 4 2ZM11.42 13.1421L12 13.6701L12.58 13.1461L12.5958 13.1317C14.6469 11.2678 16 10.0382 16 8.53008C16 7.29808 15.032 6.33008 13.8 6.33008C13.104 6.33008 12.436 6.65408 12 7.16608C11.564 6.65408 10.896 6.33008 10.2 6.33008C8.968 6.33008 8 7.29808 8 8.53008C8 10.0408 9.35777 11.2721 11.4149 13.1375L11.42 13.1421Z" fill="#13334C"/>
</g>
<defs>
<clipPath id="clip0_1945_1526">
<rect width="24" height="24" fill="white"/>
</clipPath>
</defs>
</svg>
