<svg width="24" height="24" viewBox="0 0 24 24" fill="none" xmlns="http://www.w3.org/2000/svg">
<mask id="mask0_20060_4228" style="mask-type:alpha" maskUnits="userSpaceOnUse" x="0" y="0" width="24" height="24">
<rect width="24" height="24" fill="#D9D9D9"/>
</mask>
<g mask="url(#mask0_20060_4228)">
<path d="M19.8 22.6L16.775 19.5751C16.3583 19.8417 15.9167 20.0709 15.45 20.2626C14.9833 20.4542 14.5 20.6084 14 20.725V18.675C14.2333 18.5917 14.4625 18.5084 14.6875 18.425C14.9125 18.3417 15.125 18.2417 15.325 18.1251L12 14.8V20L6.99999 15H2.99999V9.00005H6.19999L1.39999 4.20005L2.79999 2.80005L21.2 21.2001L19.8 22.6ZM19.6 16.8L18.15 15.35C18.4333 14.8334 18.6458 14.2917 18.7875 13.725C18.9292 13.1584 19 12.5751 19 11.975C19 10.4084 18.5417 9.00838 17.625 7.77505C16.7083 6.54172 15.5 5.70838 14 5.27505V3.22505C16.0667 3.69172 17.75 4.73755 19.05 6.36255C20.35 7.98755 21 9.85838 21 11.975C21 12.8584 20.8792 13.7084 20.6375 14.5251C20.3958 15.3417 20.05 16.1 19.6 16.8ZM16.25 13.45L14 11.2V7.95005C14.7833 8.31672 15.3958 8.86672 15.8375 9.60005C16.2792 10.3334 16.5 11.1334 16.5 12C16.5 12.25 16.4792 12.4959 16.4375 12.7375C16.3958 12.9792 16.3333 13.2167 16.25 13.45ZM12 9.20005L9.39999 6.60005L12 4.00005V9.20005ZM9.99999 15.1501V12.8L8.19999 11H4.99999V13H7.84999L9.99999 15.1501Z" fill="#13334C"/>
</g>
</svg>
