<svg width="24" height="24" viewBox="0 0 24 24" fill="none" xmlns="http://www.w3.org/2000/svg">
<path d="M0.494742 3.0933C0.275086 3.30885 0.141422 3.64504 0.09375 4.10188V11.8317C0.09375 19.3734 0.116016 20.0917 0.494742 20.5021C0.67357 20.708 0.658898 20.8366 1.4393 20.9071C2.21445 20.9771 3.77737 20.9895 6.10859 21.0151L11.3437 21.0408V2.67395L6.26452 2.64831C3.70022 2.62059 2.39093 2.5968 1.65176 2.65363C1.02314 2.70199 0.824203 2.76995 0.494719 3.09327L0.494742 3.0933ZM3.15919 7.86187C3.44827 7.53199 6.41137 7.53199 7.53157 7.82521C8.21815 8.04513 8.53125 8.356 8.53125 10.0787C8.53125 11.3982 8.43497 12.2123 8.14589 12.2123C7.78453 12.2123 7.82435 12.0472 8.073 12.4494C8.39822 12.6326 8.53247 13.2539 8.46019 14.4269C8.51147 15.2391 8.4067 15.7653 8.14589 16.0053C7.88508 16.2454 7.01782 16.3533 5.54414 16.3288C3.37601 16.4021 2.90625 16.3288 2.90625 15.8523C2.90625 15.4125 3.37601 14.82 5.07438 14.82H7.04189V12.8523H5.6164C4.31552 12.9623 3.93352 12.5291 3.93352 12.0526C3.93352 11.6127 4.35164 11.264 5.6164 11.264H7.04189V9.14882H5.07438C3.08693 9.14882 2.54491 8.48493 3.15921 7.86182L3.15919 7.86187ZM12.7043 11.8417V21.0408L17.9158 21.0151C22.5951 20.9894 23.1495 20.938 23.5044 20.5269C23.8814 20.1157 23.9036 19.3962 23.9036 11.8417C23.946 6.99545 23.9618 4.40191 23.951 4.06106C23.9403 3.7202 23.8335 3.4012 23.6306 3.1041C23.3946 2.88039 23.1794 2.73452 22.4855 2.66828C21.7448 2.59757 20.1995 2.61606 17.7606 2.64259L12.7043 2.66828V11.8417V11.8417ZM15.9344 7.90736C16.1987 7.57931 19.4362 7.57931 20.13 7.87092C20.5264 8.05317 20.9063 8.63636 20.9063 10.2401C20.9063 12.2084 20.8008 12.7337 20.074 12.9524C19.6115 13.0618 18.5225 13.0618 17.8948 12.9524C16.8547 12.9524 17.1222 13.8532 17.0156 14.1653V14.966H18.7168C20.2695 14.966 20.6585 15.416 20.6585 15.8534C20.6585 16.2908 20.163 16.4002 18.1808 16.4002H15.7031V14.4683C15.7031 12.0626 16.2647 11.443 18.2799 11.5888H19.5512V10.2401L19.4293 9.21541H17.6306C15.8136 9.21541 15.3728 8.527 15.9344 7.90734V7.90736Z" fill="#13334C"/>
</svg>
