<svg width="24" height="24" viewBox="0 0 24 24" fill="none" xmlns="http://www.w3.org/2000/svg">
<path d="M21.1667 5.22222H17.5556V3.83333C17.5556 3.37153 17.184 3 16.7222 3H7.27778C6.81597 3 6.44444 3.37153 6.44444 3.83333V5.22222H2.83333C2.37153 5.22222 2 5.59375 2 6.05556V8C2 9.23958 2.78125 10.5139 4.14931 11.4965C5.24306 12.2847 6.57292 12.7847 7.96875 12.9444C9.05903 14.7535 10.3333 15.5 10.3333 15.5V18H8.66667C7.44097 18 6.44444 18.7187 6.44444 19.9444V20.3611C6.44444 20.5903 6.63194 20.7778 6.86111 20.7778H17.1389C17.3681 20.7778 17.5556 20.5903 17.5556 20.3611V19.9444C17.5556 18.7187 16.559 18 15.3333 18H13.6667V15.5C13.6667 15.5 14.941 14.7535 16.0313 12.9444C17.4306 12.7847 18.7604 12.2847 19.8507 11.4965C21.2153 10.5139 22 9.23958 22 8V6.05556C22 5.59375 21.6285 5.22222 21.1667 5.22222ZM5.44792 9.69444C4.60069 9.08333 4.22222 8.40278 4.22222 8V7.44444H6.45139C6.48611 8.57639 6.65278 9.56944 6.89583 10.4375C6.37153 10.2569 5.88194 10.0069 5.44792 9.69444ZM19.7778 8C19.7778 8.55903 19.1632 9.25347 18.5521 9.69444C18.1181 10.0069 17.625 10.2569 17.1007 10.4375C17.3438 9.56944 17.5104 8.57639 17.5451 7.44444H19.7778V8Z" fill="#13334C"/>
</svg>
