<svg width="24" height="24" fill="none" viewBox="0 0 24 24">
  <mask id="a" width="24" height="24" x="0" y="0" maskUnits="userSpaceOnUse" style="mask-type:alpha">
    <path fill="#D9D9D9" d="M0 0h24v24H0z"/>
  </mask>
  <g mask="url(#a)">
    <path fill="#13334C" d="M12 19.48c-2.065 0-3.828-.73-5.29-2.19-1.46-1.46-2.19-3.223-2.19-5.29 0-2.065.73-3.828 2.19-5.29C8.17 5.25 9.933 4.52 12 4.52c2.065 0 3.828.73 5.29 2.19 1.46 1.46 2.19 3.223 2.19 5.29 0 2.065-.73 3.828-2.19 5.29-1.46 1.46-3.223 2.19-5.29 2.19Zm0-2.65c1.336 0 2.475-.47 3.418-1.412.942-.942 1.413-2.081 1.413-3.418 0-1.336-.471-2.475-1.413-3.417C14.476 7.64 13.337 7.17 12 7.17c-1.336 0-2.475.47-3.418 1.413C7.64 9.524 7.17 10.663 7.17 12c0 1.336.472 2.475 1.413 3.418.942.942 2.081 1.413 3.418 1.413Z"/>
  </g>
</svg>
