<svg width="24" height="24" viewBox="0 0 24 24" fill="none" xmlns="http://www.w3.org/2000/svg">
<path d="M8.16479 5.46002V5.99861C8.16058 6.32854 8.015 6.64364 7.75963 6.87558C7.50425 7.10752 7.15967 7.2376 6.80061 7.2376C6.44155 7.2376 6.09696 7.10752 5.84158 6.87558C5.58621 6.64364 5.44063 6.32854 5.43643 5.99861V5.46002H1.18262V17.46H5.43643V16.9214C5.44063 16.5915 5.58621 16.2764 5.84158 16.0445C6.09696 15.8125 6.44155 15.6825 6.80061 15.6825C7.15967 15.6825 7.50425 15.8125 7.75963 16.0445C8.015 16.2764 8.16058 16.5915 8.16479 16.9214V17.46H22.7826V5.46002H8.16479Z" fill="#F7931E"/>
<path d="M6.80957 15.2062C6.72255 15.2062 6.63909 15.1716 6.57755 15.1101C6.51602 15.0486 6.48145 14.9651 6.48145 14.8781V14.3156C6.48145 14.2286 6.51602 14.1451 6.57755 14.0836C6.63909 14.022 6.72255 13.9875 6.80957 13.9875C6.89659 13.9875 6.98005 14.022 7.04159 14.0836C7.10313 14.1451 7.1377 14.2286 7.1377 14.3156V14.8781C7.13772 14.9212 7.12925 14.9639 7.11277 15.0037C7.09629 15.0435 7.07212 15.0797 7.04164 15.1102C7.01117 15.1406 6.97499 15.1648 6.93517 15.1813C6.89535 15.1978 6.85267 15.2062 6.80957 15.2062ZM6.80957 13.1437C6.72255 13.1437 6.63909 13.1091 6.57755 13.0476C6.51602 12.9861 6.48145 12.9026 6.48145 12.8156V12.2531C6.48145 12.1661 6.51602 12.0826 6.57755 12.0211C6.63909 11.9595 6.72255 11.925 6.80957 11.925C6.89659 11.925 6.98005 11.9595 7.04159 12.0211C7.10313 12.0826 7.1377 12.1661 7.1377 12.2531V12.8156C7.13772 12.8587 7.12925 12.9014 7.11277 12.9412C7.09629 12.981 7.07212 13.0172 7.04164 13.0477C7.01117 13.0781 6.97499 13.1023 6.93517 13.1188C6.89535 13.1353 6.85267 13.1437 6.80957 13.1437ZM6.80957 11.0812C6.72255 11.0812 6.63909 11.0466 6.57755 10.9851C6.51602 10.9236 6.48145 10.8401 6.48145 10.7531V10.1906C6.48145 10.1036 6.51602 10.0201 6.57755 9.95856C6.63909 9.89703 6.72255 9.86246 6.80957 9.86246C6.89659 9.86246 6.98005 9.89703 7.04159 9.95856C7.10313 10.0201 7.1377 10.1036 7.1377 10.1906V10.7531C7.13772 10.7962 7.12925 10.8389 7.11277 10.8787C7.09629 10.9185 7.07212 10.9547 7.04164 10.9852C7.01117 11.0156 6.97499 11.0398 6.93517 11.0563C6.89535 11.0728 6.85267 11.0812 6.80957 11.0812ZM6.80957 9.01871C6.72255 9.01871 6.63909 8.98414 6.57755 8.9226C6.51602 8.86107 6.48145 8.77761 6.48145 8.69058V8.12808C6.48145 8.04106 6.51602 7.9576 6.57755 7.89606C6.63909 7.83453 6.72255 7.79996 6.80957 7.79996C6.89659 7.79996 6.98005 7.83453 7.04159 7.89606C7.10313 7.9576 7.1377 8.04106 7.1377 8.12808V8.69058C7.13772 8.73368 7.12925 8.77636 7.11277 8.81618C7.09629 8.856 7.07212 8.89218 7.04164 8.92266C7.01117 8.95313 6.97499 8.9773 6.93517 8.99378C6.89535 9.01026 6.85267 9.01873 6.80957 9.01871Z" fill="#FEFEFE"/>
<path d="M16.2004 16.2C18.8514 16.2 21.0004 14.0509 21.0004 11.4C21.0004 8.74901 18.8514 6.59998 16.2004 6.59998C13.5494 6.59998 11.4004 8.74901 11.4004 11.4C11.4004 14.0509 13.5494 16.2 16.2004 16.2Z" fill="#FEFEFE"/>
<g clip-path="url(#clip0_20765_3567)">
<path d="M16.2002 14.205L15.7652 13.809C14.2202 12.408 13.2002 11.484 13.2002 10.35C13.2002 9.42601 13.9262 8.70001 14.8502 8.70001C15.3722 8.70001 15.8732 8.94301 16.2002 9.32701C16.5272 8.94301 17.0282 8.70001 17.5502 8.70001C18.4742 8.70001 19.2002 9.42601 19.2002 10.35C19.2002 11.484 18.1802 12.408 16.6352 13.812L16.2002 14.205Z" fill="#DC5560"/>
</g>
<defs>
<clipPath id="clip0_20765_3567">
<rect width="7.2" height="7.2" fill="white" transform="translate(12.6006 7.79999)"/>
</clipPath>
</defs>
</svg>
