<svg width="24" height="24" viewBox="0 0 24 24" fill="none" xmlns="http://www.w3.org/2000/svg">
<path d="M17.6084 4.05857L16.0425 2.49267C15.691 2.14112 15.1317 2.14112 14.7802 2.49267L10.7695 6.50331L13.5978 9.33155L17.6084 5.3209C17.96 4.9694 17.96 4.41012 17.6084 4.05857Z" fill="#F7931E"/>
<path d="M6.39156 4.05857L7.95746 2.49267C8.30901 2.14112 8.86824 2.14112 9.21979 2.49267L13.2304 6.50331L10.4022 9.33155L6.39156 5.3209C6.04005 4.9694 6.04005 4.41012 6.39156 4.05857Z" fill="#F7931E"/>
<path d="M21.0276 5.56055H2.97168V9.01197H21.0276V5.56055Z" fill="#00DEEB"/>
<path d="M20.3726 9.01196H3.62695V19.2064H20.3726V9.01196Z" fill="#00DEEB"/>
<path d="M20.3726 9.01199H3.62695V9.63517H20.3726V9.01199Z" fill="#13334C"/>
<path d="M13.6618 5.56055H10.3223V19.2064H13.6618V5.56055Z" fill="#F7931E"/>
</svg>
