<svg width="24" height="24" viewBox="0 0 24 24" fill="none" xmlns="http://www.w3.org/2000/svg">
<path d="M20.6662 4.56238C21.4918 4.66845 22.0805 5.41574 21.9905 6.24316L20.8191 16.6079C20.729 17.4328 19.9872 18.0285 19.1623 17.9383C19.1458 17.9365 19.1293 17.9345 19.1128 17.9321H19.0365V8.43322C19.0365 7.58937 18.3523 6.90525 17.5085 6.90525H4.77539L5.05552 4.35863C5.16173 3.51912 5.92033 2.91899 6.76175 3.00892L20.6662 4.56238Z" fill="#9CFFFD"/>
<path d="M19.0368 17.9321V18.8489C19.0368 19.6927 18.3527 20.3768 17.5088 20.3768H3.52797C2.68412 20.3768 2 19.6927 2 18.8489V16.7097L6.20191 13.6538C6.86814 13.1483 7.80041 13.1911 8.41746 13.7556L11.2187 16.2004C11.8059 16.6983 12.6439 16.7699 13.3069 16.3786L19.0368 13.0171V17.9321Z" fill="#00AD3B"/>
<path d="M19.0368 8.43321V13.0171L13.3069 16.3786C12.6439 16.7699 11.8059 16.6983 11.2187 16.2004L8.41746 13.7556C7.80041 13.1912 6.86814 13.1483 6.20191 13.6538L2 16.7097V8.43321C2 7.58936 2.68412 6.90524 3.52797 6.90524H17.5088C18.3527 6.90529 19.0368 7.58936 19.0368 8.43321Z" fill="#5FE18B"/>
<path d="M12.1865 12.7116C13.0866 12.7116 13.8163 11.9819 13.8163 11.0817C13.8163 10.1816 13.0866 9.45187 12.1865 9.45187C11.2863 9.45187 10.5566 10.1816 10.5566 11.0817C10.5566 11.9819 11.2863 12.7116 12.1865 12.7116Z" fill="#9CFFFD"/>
</svg>
