<svg width="24" height="24" viewBox="0 0 24 24" fill="none" xmlns="http://www.w3.org/2000/svg">
<path d="M16.7397 23.0124C16.1877 23.0124 15.74 22.565 15.7397 22.0128L15.7373 17.0127H12.75C12.1977 17.0127 11.75 16.565 11.75 16.0127C11.75 15.4604 12.1977 15.0127 12.75 15.0127H16.7368C17.2889 15.0127 17.7365 15.4601 17.7368 16.0122L17.7397 22.0119C17.74 22.5642 17.2925 23.0121 16.7402 23.0124H16.7397Z" fill="#13334C"/>
<path d="M4.5316 22.9668C4.29645 22.9668 4.06036 22.8844 3.87023 22.7165C3.45616 22.3511 3.41681 21.7191 3.78229 21.3051L9.00035 15.3937C9.36578 14.9796 9.99782 14.9402 10.4118 15.3057C10.8259 15.6712 10.8652 16.3032 10.4998 16.7172L5.2817 22.6286C5.08409 22.8525 4.80846 22.9668 4.5316 22.9668Z" fill="#13334C"/>
<path fill-rule="evenodd" clip-rule="evenodd" d="M13.25 3.0126C13.25 4.16638 12.4146 5.01087 11.2608 5.01087C10.107 5.01087 9.25 4.16637 9.25 3.0126C9.25 1.85883 10.0964 1.0127 11.2501 1.0127C12.4039 1.0127 13.25 1.85883 13.25 3.0126V3.0126Z" fill="#13334C"/>
<path d="M19.2667 4.10108C19.0464 3.59465 18.4573 3.36274 17.9509 3.58298L12.3656 6.01262H9.75127C9.19917 6.01262 8.75151 6.46008 8.75127 7.01221L8.74878 13.0114C8.74868 13.2766 8.85396 13.5311 9.04146 13.7187C9.22896 13.9063 9.48335 14.0117 9.74858 14.0118L12.7509 14.0123H12.7511C13.0163 14.0123 13.2706 13.907 13.4581 13.7195C13.6457 13.532 13.7511 13.2776 13.7511 13.0123L13.7511 11.3949L14.9265 12.2179C15.1011 12.3402 15.3011 12.3989 15.4992 12.3989C15.8144 12.3988 16.1247 12.2501 16.3192 11.9723C16.636 11.5199 16.526 10.8964 16.0736 10.5796L13.7512 8.9534L13.7512 7.59091L18.7486 5.41697C19.2551 5.19666 19.4871 4.60752 19.2667 4.10107V4.10108Z" fill="#13334C"/>
</svg>
