<svg width="24" height="24" viewBox="0 0 24 24" fill="none" xmlns="http://www.w3.org/2000/svg">
<path d="M21.1249 8.71998C21.1249 8.64498 21.1249 8.56998 21.1199 8.49498C21.1199 8.48498 21.1199 8.46998 21.1199 8.45998C21.0899 7.38998 20.9399 6.31998 20.6699 5.26498V5.25998C20.6449 5.16998 20.6249 5.07998 20.5999 4.98998C20.5999 4.98498 20.5949 4.97498 20.5949 4.96998C20.5699 4.87998 20.5449 4.78998 20.5149 4.69498C20.5149 4.69498 20.5149 4.69498 20.5149 4.68998C20.4599 4.49998 20.3999 4.31498 20.3349 4.12998C20.3299 4.11998 20.3299 4.11498 20.3249 4.10498C20.2999 4.02498 20.2699 3.94498 20.2399 3.86498C20.2349 3.84498 20.2249 3.82498 20.2199 3.80998C20.1949 3.73998 20.1699 3.66998 20.1399 3.59998C20.1349 3.57998 20.1249 3.55998 20.1199 3.53998C20.0899 3.45998 20.0599 3.38498 20.0249 3.30498C20.0199 3.29498 20.0199 3.28498 20.0149 3.27998C19.9799 3.18998 19.9399 3.10498 19.9049 3.01498C19.8999 2.99998 19.8949 2.98998 19.8899 2.97498C19.8599 2.90498 19.8299 2.82998 19.7949 2.75998C19.7849 2.73498 19.7699 2.70498 19.7599 2.67998C19.7349 2.61998 19.7049 2.56498 19.6799 2.50498C19.6649 2.47498 19.6549 2.44498 19.6399 2.41998C19.6099 2.35998 19.5849 2.30498 19.5549 2.24498C19.5399 2.21998 19.5299 2.19498 19.5149 2.16498C19.4749 2.07998 19.4299 1.99998 19.3899 1.91998C19.3799 1.89998 19.3649 1.87998 19.3549 1.85998C19.2649 1.72498 19.1149 1.63498 18.9549 1.61498C18.8599 1.59998 18.7649 1.58998 18.6749 1.57998C18.6449 1.57498 18.6149 1.57498 18.5899 1.56998C18.5249 1.56498 18.4549 1.55498 18.3899 1.54998C18.3599 1.54498 18.3249 1.54498 18.2949 1.53998C18.2299 1.53498 18.1599 1.52998 18.0949 1.52498C18.0649 1.52498 18.0399 1.51998 18.0099 1.51998C17.8199 1.50498 17.6349 1.49498 17.4449 1.48998C17.4149 1.48998 17.3899 1.48998 17.3599 1.48498C17.2949 1.48498 17.2249 1.47998 17.1599 1.47998C17.1299 1.47998 17.0999 1.47998 17.0649 1.47998C16.9949 1.47998 16.9299 1.47998 16.8599 1.47998C16.8349 1.47998 16.8049 1.47998 16.7799 1.47998C16.5899 1.47998 16.4049 1.48498 16.2149 1.49498C16.1899 1.49498 16.1599 1.49998 16.1349 1.49998C16.0649 1.50498 15.9999 1.50498 15.9299 1.50998C15.8999 1.50998 15.8699 1.51498 15.8399 1.51498C15.7699 1.51998 15.6999 1.52498 15.6349 1.52998C15.6099 1.52998 15.5849 1.53498 15.5599 1.53498C15.3749 1.54998 15.1849 1.56998 14.9999 1.59498C14.9749 1.59998 14.9499 1.59998 14.9249 1.60498C14.8549 1.61498 14.7899 1.62498 14.7199 1.63498C14.6899 1.63998 14.6649 1.64498 14.6349 1.64998C14.5649 1.65998 14.4949 1.66998 14.4299 1.68498C14.4049 1.68998 14.3849 1.69498 14.3599 1.69498C13.6799 1.80998 13.0099 1.97498 12.3549 2.18498C11.7499 2.37998 11.1549 2.61498 10.5799 2.88998C10.5749 2.88998 10.5699 2.89498 10.5649 2.89498C10.4899 2.92998 10.4099 2.96998 10.3349 3.00498C10.3299 3.00998 10.3249 3.00998 10.3199 3.01498C10.2399 3.05498 10.1649 3.09498 10.0849 3.13498C10.0849 3.13498 10.0849 3.13498 10.0799 3.13498C9.75992 3.30498 9.44992 3.48498 9.13992 3.67998C9.12992 3.68498 9.12492 3.68998 9.11492 3.69498C9.04992 3.73498 8.98492 3.77998 8.91992 3.81998C8.90492 3.82998 8.89492 3.83498 8.87992 3.84498C8.81992 3.88498 8.75992 3.92498 8.69992 3.96998C8.68492 3.97998 8.66992 3.98998 8.65492 3.99998C8.59492 4.03998 8.53492 4.08498 8.47492 4.12998C8.46492 4.13998 8.44992 4.14498 8.43992 4.15498C8.36992 4.20498 8.30492 4.25498 8.23492 4.30498C8.22992 4.30498 8.22992 4.30998 8.22492 4.30998C8.07992 4.41998 7.93992 4.52998 7.79992 4.64498C7.78992 4.64998 7.77992 4.65998 7.77492 4.66498C7.71492 4.71498 7.65992 4.75998 7.59992 4.80998C7.58492 4.82498 7.56492 4.83998 7.54992 4.85498C7.49992 4.89498 7.44992 4.93998 7.40492 4.98498C7.38492 5.00498 7.36492 5.01998 7.34492 5.03998C7.29992 5.07998 7.25492 5.11998 7.20992 5.16498C7.18992 5.18498 7.16992 5.20498 7.14992 5.22498C7.10492 5.26498 7.05992 5.30998 7.01492 5.34998C6.99492 5.36998 6.97492 5.38998 6.95492 5.40498C6.90492 5.44998 6.85992 5.49998 6.80992 5.54998C6.79492 5.56498 6.77992 5.57998 6.76492 5.59498C6.63992 5.71998 6.51992 5.84998 6.39492 5.98498C6.37992 6.00498 6.35992 6.02498 6.34492 6.03998C6.30492 6.08498 6.25992 6.13498 6.21992 6.17998C6.19992 6.20498 6.17992 6.22998 6.15492 6.25498C6.11992 6.29998 6.07992 6.33998 6.04492 6.38498C6.02492 6.40998 5.99992 6.43998 5.97992 6.46498C5.94492 6.50498 5.90992 6.54998 5.87492 6.59498C5.85492 6.62498 5.82992 6.64998 5.80992 6.67998C5.77492 6.72498 5.73992 6.76998 5.70492 6.80998C5.68492 6.83498 5.66492 6.86498 5.63992 6.88998C5.60492 6.93998 5.56492 6.98498 5.52992 7.03498C5.51492 7.05998 5.49492 7.07998 5.47992 7.10498C5.42492 7.17998 5.37492 7.24998 5.31992 7.32498C5.26992 7.39998 5.21492 7.47498 5.16492 7.54998C5.14992 7.57498 5.13492 7.59998 5.11492 7.62498C5.07992 7.67498 5.04992 7.72498 5.01492 7.77498C4.99492 7.80498 4.97992 7.83498 4.95992 7.85998C4.92992 7.90498 4.89992 7.95498 4.86992 7.99998C4.84992 8.02998 4.83492 8.05998 4.81492 8.08998C4.78492 8.13498 4.75992 8.18498 4.72992 8.22998C4.70992 8.25998 4.69492 8.28998 4.67492 8.31998C4.64492 8.36998 4.61992 8.41998 4.58992 8.46998C4.57492 8.49998 4.55992 8.52498 4.54492 8.55498C4.51492 8.60998 4.48492 8.66498 4.45492 8.71998C4.44492 8.73998 4.42992 8.76498 4.41992 8.78498C4.33492 8.94498 4.25492 9.10498 4.17992 9.26498C4.16992 9.28498 4.15992 9.30498 4.15492 9.31998C4.12492 9.37998 4.09992 9.44498 4.06992 9.50498C4.05992 9.52998 4.04992 9.55498 4.03492 9.57998C4.00992 9.63498 3.98492 9.69498 3.95992 9.74998C3.94992 9.77498 3.93992 9.79998 3.92492 9.82998C3.89992 9.88498 3.87992 9.94498 3.85492 9.99998C3.84492 10.025 3.83492 10.05 3.82492 10.075C3.79992 10.135 3.77992 10.195 3.75492 10.255C3.74492 10.275 3.73992 10.3 3.72992 10.32C3.70492 10.39 3.67992 10.46 3.65492 10.53C3.64992 10.54 3.64492 10.55 3.64492 10.565C3.58492 10.735 3.52992 10.91 3.47492 11.08C3.47492 11.085 3.47492 11.09 3.46992 11.09C3.44492 11.17 3.41992 11.25 3.39992 11.33C3.39492 11.345 3.38992 11.36 3.38992 11.375C3.36992 11.445 3.34992 11.515 3.32992 11.59C3.32492 11.605 3.31992 11.625 3.31492 11.64C3.29492 11.71 3.27992 11.78 3.25992 11.85C3.25492 11.865 3.24992 11.88 3.24992 11.895C3.22992 11.97 3.21492 12.045 3.19992 12.12C3.19992 12.13 3.19492 12.14 3.19492 12.15C3.11992 12.505 3.05492 12.86 3.00492 13.215V13.22C2.99492 13.305 2.97992 13.395 2.96992 13.48C2.96992 13.485 2.96992 13.49 2.96992 13.5C2.95992 13.585 2.94992 13.67 2.94492 13.755C2.94492 13.76 2.94492 13.765 2.94492 13.77C2.88492 14.405 2.86492 15.04 2.88992 15.675C2.91492 16.36 2.99492 17.045 3.11492 17.725C3.11992 17.75 3.12492 17.775 3.12992 17.795C3.14492 17.865 3.15492 17.93 3.16992 18C3.17492 18.03 3.17992 18.06 3.18992 18.085C3.20492 18.15 3.21992 18.215 3.23492 18.285C3.23992 18.31 3.24492 18.335 3.24992 18.36C3.28992 18.54 3.33492 18.725 3.38492 18.905C3.38992 18.93 3.39992 18.955 3.40492 18.98C3.42492 19.045 3.43992 19.11 3.45992 19.175C3.46992 19.205 3.47492 19.235 3.48492 19.265C3.50492 19.33 3.52492 19.395 3.54492 19.46C3.55492 19.485 3.55992 19.51 3.56992 19.54C3.62492 19.72 3.68492 19.895 3.74992 20.075C3.75992 20.1 3.76992 20.125 3.77992 20.15C3.80492 20.215 3.82492 20.275 3.84992 20.34C3.85992 20.37 3.86992 20.4 3.88492 20.43C3.90992 20.49 3.93492 20.555 3.95992 20.615C3.96992 20.64 3.97992 20.67 3.98992 20.695C4.02492 20.78 4.05992 20.87 4.09492 20.955C4.12992 21.04 4.16992 21.13 4.20992 21.215C4.21992 21.24 4.23492 21.265 4.24492 21.295C4.27492 21.355 4.29992 21.415 4.32992 21.475C4.34492 21.505 4.35992 21.535 4.36992 21.565C4.39992 21.625 4.42992 21.685 4.45492 21.745C4.46992 21.77 4.47992 21.795 4.49492 21.825C4.53492 21.91 4.57992 21.995 4.62492 22.08C4.63492 22.1 4.64992 22.12 4.65992 22.14C4.73992 22.255 4.85992 22.34 4.99492 22.375C5.01492 22.38 5.03992 22.385 5.06492 22.39C5.15492 22.4 5.24992 22.415 5.33992 22.425C5.36992 22.43 5.39492 22.43 5.42492 22.435C5.48992 22.44 5.55492 22.45 5.61992 22.455C5.64992 22.46 5.68492 22.46 5.71492 22.465C5.77992 22.47 5.84492 22.475 5.90992 22.48C5.93992 22.48 5.96992 22.485 5.99492 22.485C6.07492 22.49 6.14992 22.495 6.22992 22.5C6.24492 22.5 6.25992 22.5 6.26992 22.505C6.36492 22.51 6.45992 22.515 6.55492 22.52C6.56492 22.52 6.57492 22.52 6.58492 22.52C6.66992 22.525 6.75492 22.525 6.83492 22.525C6.85492 22.525 6.87492 22.525 6.89992 22.525C6.97492 22.525 7.04992 22.525 7.12492 22.525C7.14492 22.525 7.16492 22.525 7.18492 22.525C7.26992 22.525 7.35492 22.525 7.43992 22.52C7.44992 22.52 7.45492 22.52 7.46492 22.52C7.65992 22.515 7.85492 22.505 8.05492 22.495C8.05492 22.495 8.05492 22.495 8.05992 22.495C8.15492 22.49 8.24992 22.48 8.34492 22.475C8.35492 22.475 8.35992 22.475 8.36992 22.475C8.46492 22.465 8.55492 22.46 8.64992 22.45H8.65492C9.04992 22.41 9.43992 22.355 9.82492 22.285C10.4999 22.16 11.1649 21.995 11.8099 21.78C11.8199 21.775 11.8299 21.775 11.8449 21.77C11.9149 21.745 11.9899 21.72 12.0599 21.695C12.0849 21.685 12.1049 21.68 12.1299 21.67C12.1899 21.65 12.2499 21.625 12.3099 21.605C12.3349 21.595 12.3599 21.585 12.3899 21.575C12.4449 21.555 12.5049 21.53 12.5599 21.51C12.5849 21.5 12.6099 21.49 12.6399 21.48C12.6999 21.455 12.7549 21.435 12.8149 21.41C12.8399 21.4 12.8599 21.39 12.8849 21.38C12.9549 21.35 13.0199 21.32 13.0899 21.29C13.0999 21.285 13.1149 21.28 13.1249 21.275C13.2049 21.24 13.2899 21.2 13.3699 21.165C13.3749 21.165 13.3749 21.16 13.3799 21.16C13.4549 21.125 13.5299 21.09 13.6049 21.05C13.6249 21.04 13.6449 21.03 13.6699 21.02C13.7249 20.99 13.7849 20.965 13.8399 20.935C13.8649 20.92 13.8899 20.91 13.9149 20.895C13.9699 20.865 14.0199 20.84 14.0699 20.81C14.0949 20.795 14.1199 20.78 14.1499 20.765C14.1999 20.735 14.2549 20.705 14.3049 20.68C14.3299 20.665 14.3549 20.65 14.3799 20.64C14.4349 20.605 14.4949 20.575 14.5499 20.54C14.5699 20.53 14.5899 20.52 14.6049 20.505C14.7549 20.415 14.9049 20.32 15.0549 20.225C15.0749 20.21 15.0949 20.2 15.1099 20.185C15.1649 20.15 15.2149 20.115 15.2699 20.08C15.2949 20.065 15.3199 20.045 15.3449 20.03C15.3949 19.995 15.4399 19.965 15.4899 19.93C15.5149 19.91 15.5399 19.895 15.5649 19.875C15.6099 19.84 15.6549 19.81 15.7049 19.775C15.7299 19.755 15.7549 19.74 15.7799 19.72C15.8299 19.685 15.8749 19.645 15.9249 19.61C15.9449 19.595 15.9699 19.575 15.9899 19.56C16.0499 19.515 16.1099 19.465 16.1699 19.42C16.1799 19.41 16.1899 19.405 16.1999 19.4C16.2699 19.345 16.3349 19.285 16.4049 19.23C16.4199 19.215 16.4349 19.2 16.4549 19.19C16.5049 19.145 16.5549 19.105 16.6049 19.06C16.6299 19.04 16.6499 19.02 16.6749 19C16.7199 18.96 16.7599 18.925 16.8049 18.885C16.8299 18.86 16.8549 18.84 16.8799 18.815C16.9199 18.775 16.9599 18.74 16.9999 18.7C17.0249 18.675 17.0499 18.655 17.0749 18.63C17.1149 18.59 17.1549 18.55 17.1999 18.51C17.2199 18.49 17.2449 18.465 17.2649 18.445C17.3099 18.4 17.3549 18.35 17.3999 18.305C17.4149 18.29 17.4349 18.27 17.4499 18.255C17.5099 18.19 17.5699 18.125 17.6299 18.06C17.6399 18.05 17.6499 18.035 17.6649 18.025C17.7149 17.97 17.7599 17.915 17.8099 17.86C17.8299 17.835 17.8499 17.815 17.8699 17.79C17.9099 17.745 17.9449 17.7 17.9849 17.655C18.0049 17.63 18.0299 17.6 18.0499 17.575C18.0849 17.53 18.1199 17.49 18.1549 17.445C18.1749 17.415 18.1999 17.39 18.2199 17.36C18.2549 17.315 18.2899 17.27 18.3249 17.225C18.3449 17.2 18.3649 17.17 18.3899 17.145C18.4249 17.095 18.4649 17.045 18.4999 17C18.5199 16.975 18.5349 16.955 18.5549 16.93C18.6099 16.855 18.6599 16.785 18.7149 16.71C18.7649 16.635 18.8199 16.56 18.8699 16.485C18.8849 16.46 18.9049 16.435 18.9199 16.41C18.9549 16.36 18.9849 16.31 19.0199 16.255C19.0399 16.225 19.0549 16.195 19.0749 16.165C19.1049 16.115 19.1349 16.07 19.1649 16.02C19.1849 15.99 19.1999 15.96 19.2199 15.93C19.2499 15.88 19.2749 15.835 19.3049 15.785C19.3249 15.755 19.3399 15.725 19.3549 15.695C19.3849 15.645 19.4149 15.595 19.4399 15.54C19.4549 15.515 19.4699 15.485 19.4849 15.46C19.5199 15.395 19.5549 15.33 19.5899 15.27C19.5999 15.255 19.6049 15.24 19.6149 15.225C19.6549 15.145 19.6949 15.065 19.7349 14.985C19.7449 14.965 19.7549 14.945 19.7649 14.92C19.7949 14.86 19.8249 14.8 19.8499 14.745C19.8649 14.715 19.8749 14.685 19.8899 14.66C19.9149 14.61 19.9399 14.555 19.9599 14.505C19.9749 14.475 19.9899 14.445 19.9999 14.41C20.0199 14.36 20.0449 14.31 20.0649 14.255C20.0799 14.225 20.0899 14.195 20.1049 14.16C20.1249 14.105 20.1499 14.055 20.1699 14C20.1799 13.97 20.1949 13.945 20.2049 13.915C20.2299 13.855 20.2549 13.79 20.2749 13.73C20.2849 13.71 20.2899 13.69 20.2999 13.67C20.3299 13.585 20.3599 13.505 20.3899 13.42C20.3949 13.41 20.3999 13.395 20.3999 13.385C20.4249 13.315 20.4499 13.24 20.4699 13.17C20.4799 13.145 20.4849 13.12 20.4949 13.09C20.5149 13.03 20.5299 12.975 20.5499 12.915C20.5599 12.885 20.5699 12.855 20.5749 12.825C20.5899 12.77 20.6049 12.715 20.6249 12.66C20.6349 12.63 20.6399 12.6 20.6499 12.57C20.6649 12.515 20.6799 12.46 20.6949 12.4C20.7049 12.37 20.7099 12.345 20.7149 12.315C20.7299 12.25 20.7449 12.19 20.7599 12.125C20.7649 12.105 20.7699 12.08 20.7749 12.06C20.8149 11.89 20.8499 11.715 20.8849 11.545C20.8899 11.525 20.8949 11.505 20.8949 11.48C20.9049 11.415 20.9199 11.35 20.9299 11.285C20.9349 11.255 20.9399 11.23 20.9449 11.2C20.9549 11.14 20.9649 11.08 20.9749 11.025C20.9799 10.995 20.9849 10.965 20.9899 10.935C20.9999 10.875 21.0049 10.815 21.0149 10.76C21.0199 10.73 21.0249 10.705 21.0249 10.675C21.0349 10.61 21.0399 10.55 21.0499 10.485C21.0549 10.46 21.0549 10.44 21.0599 10.415C21.0699 10.33 21.0799 10.245 21.0849 10.165V10.16C21.0949 10.07 21.0999 9.97998 21.1049 9.88998C21.1049 9.87498 21.1049 9.86498 21.1049 9.84998C21.1099 9.77498 21.1149 9.69998 21.1199 9.62998C21.1199 9.60498 21.1199 9.57998 21.1249 9.55498C21.1299 9.48998 21.1299 9.42998 21.1349 9.36498C21.1349 9.33498 21.1349 9.30998 21.1349 9.27998C21.1349 9.21998 21.1399 9.15998 21.1399 9.09498C21.1399 9.06998 21.1399 9.03998 21.1399 9.01498C21.1399 8.94998 21.1399 8.88998 21.1399 8.82498C21.1249 8.76998 21.1249 8.74498 21.1249 8.71998ZM9.54992 20.79H9.54492C9.19992 20.855 8.84992 20.9 8.49992 20.935H8.49492C8.41492 20.945 8.32992 20.95 8.24492 20.96H8.23492H8.22492C8.15492 20.965 8.09492 20.97 8.02992 20.975C7.26992 19.92 6.16492 19.145 4.91492 18.795C4.90992 18.78 4.90492 18.77 4.90492 18.755C4.88992 18.695 4.86992 18.635 4.85492 18.58L4.84492 18.545C4.83992 18.535 4.83992 18.52 4.83492 18.51C4.78992 18.35 4.74992 18.185 4.71492 18.02C4.70992 18.005 4.70992 17.99 4.70492 17.975L4.69992 17.95C4.68492 17.89 4.67492 17.83 4.65992 17.77C4.65492 17.745 4.64992 17.72 4.64492 17.69C4.63492 17.63 4.61992 17.57 4.60992 17.505L4.60492 17.475C4.60492 17.465 4.59992 17.455 4.59992 17.44C4.58492 17.35 4.56992 17.255 4.55492 17.16L4.84992 17.22C6.78492 17.625 8.48992 18.82 9.52992 20.495L9.68992 20.75C9.63492 20.775 9.59492 20.785 9.54992 20.79ZM16.2649 10.7C16.1199 10.91 15.8849 11.02 15.6499 11.02C15.4999 11.02 15.3499 10.975 15.2199 10.885L14.1949 10.17L13.0499 11.805L14.0749 12.52C14.4149 12.76 14.4949 13.225 14.2599 13.565C14.1149 13.775 13.8799 13.885 13.6449 13.885C13.4949 13.885 13.3449 13.84 13.2149 13.75L12.1899 13.035L11.0449 14.675L12.0699 15.39C12.4099 15.63 12.4899 16.095 12.2549 16.435C12.1099 16.645 11.8749 16.755 11.6399 16.755C11.4899 16.755 11.3399 16.71 11.2099 16.62L10.1799 15.9L9.46492 16.925C9.31992 17.135 9.08492 17.245 8.84992 17.245C8.69992 17.245 8.54992 17.2 8.41992 17.11C8.07992 16.87 7.99992 16.405 8.23492 16.065L8.94992 15.04L7.92492 14.325C7.58492 14.085 7.50492 13.62 7.73992 13.28C7.97492 12.94 8.44492 12.86 8.78492 13.095L9.80992 13.81L10.9549 12.17L9.92992 11.455C9.58992 11.215 9.50992 10.75 9.74492 10.41C9.97992 10.07 10.4499 9.98998 10.7899 10.225L11.8149 10.94L12.9599 9.29998L11.9349 8.58498C11.5949 8.34498 11.5149 7.87998 11.7499 7.53998C11.9849 7.19998 12.4549 7.11998 12.7949 7.35498L13.8199 8.06998L14.5349 7.04498C14.7749 6.70498 15.2399 6.62498 15.5799 6.85998C15.9199 7.09998 15.9999 7.56498 15.7649 7.90498L15.0499 8.92998L16.0749 9.64498C16.4199 9.88998 16.4999 10.36 16.2649 10.7ZM19.1649 6.73998C17.2299 6.33498 15.5249 5.13998 14.4849 3.46498L14.3249 3.20998C14.4149 3.18998 14.5099 3.17498 14.6049 3.15998C14.6149 3.15998 14.6249 3.15498 14.6349 3.15498L14.6649 3.14998C14.7249 3.13998 14.7899 3.12998 14.8499 3.11998C14.8749 3.11498 14.8999 3.10998 14.9249 3.10998C14.9849 3.09998 15.0449 3.09498 15.1099 3.08498L15.1399 3.07998C15.1549 3.07998 15.1649 3.07498 15.1799 3.07498C15.3449 3.05498 15.5149 3.03498 15.6799 3.01998C15.6899 3.01998 15.7049 3.01998 15.7149 3.01498L15.7449 3.00998C15.8049 3.00498 15.8699 2.99998 15.9299 2.99498C15.9449 2.99498 15.9549 2.99498 15.9699 2.98998C16.7299 4.04498 17.8349 4.81998 19.0849 5.16998C19.0999 5.22998 19.1199 5.28998 19.1399 5.35998L19.1449 5.36998V5.37998C19.1699 5.45998 19.1899 5.54498 19.2099 5.62498V5.62998C19.3099 6.01498 19.3899 6.40498 19.4499 6.79498L19.1649 6.73998Z" fill="#13334C"/>
</svg>
