<svg width="24" height="24" viewBox="0 0 24 24" fill="none" xmlns="http://www.w3.org/2000/svg">
<path fill-rule="evenodd" clip-rule="evenodd" d="M5.59997 21.5949L4.77997 21.0199C3.64997 20.2299 3.37497 18.6699 4.16497 17.5399C4.47997 17.0899 5.10497 16.9799 5.55997 17.2949L8.83497 19.5899C9.28497 19.9049 9.39497 20.5299 9.07997 20.9849C8.28997 22.1099 6.72997 22.3849 5.59997 21.5949ZM10.03 9.43993L7.33997 7.55493L6.45997 11.2099L8.52997 12.6599L10.03 9.43993ZM17.215 7.14993L14.41 5.18493C13.9 4.82993 13.195 5.01993 12.93 5.57993L11.29 9.09993L14.6 11.4199L17.35 8.67493C17.79 8.23493 17.725 7.50493 17.215 7.14993ZM10.86 10.0249L9.35997 13.2449L11.37 14.6549L13.885 12.1399L10.86 10.0249ZM10.65 15.3699L8.92997 14.1649L7.51497 17.1999C7.46497 17.3099 7.49997 17.4399 7.59997 17.5099L7.96497 17.7649C8.06497 17.8349 8.19997 17.8249 8.28497 17.7349L10.65 15.3699ZM18.43 9.00993L15.435 12.0049L18.3 14.0099L21.555 11.8499C22.14 11.4599 22.155 10.5999 21.575 10.1949L19.71 8.89993C19.315 8.61993 18.775 8.66493 18.43 9.00993ZM8.09497 13.5849L6.20497 12.2599L5.36497 15.7499C5.33997 15.8499 5.37997 15.9549 5.46497 16.0149L6.34997 16.6349C6.47497 16.7249 6.65497 16.6749 6.71997 16.5349L8.09497 13.5849ZM17.405 14.6049L14.715 12.7199L12.2 15.2349L14.27 16.6849L17.405 14.6049ZM11.485 15.9549L9.17997 18.2549C9.06997 18.3649 9.08497 18.5449 9.21497 18.6349L10.1 19.2549C10.185 19.3149 10.295 19.3149 10.38 19.2599L13.37 17.2749L11.485 15.9549ZM10.455 8.51993L12.25 4.67993C12.455 4.23993 12.315 3.71493 11.915 3.43993L10.05 2.13493C9.47497 1.72993 8.66997 2.03493 8.50497 2.71993L7.58997 6.51493L10.455 8.51993Z" fill="#13334C"/>
</svg>
