<svg width="24" height="24" viewBox="0 0 24 24" fill="none" xmlns="http://www.w3.org/2000/svg">
<path fill-rule="evenodd" clip-rule="evenodd" d="M11.1749 19.7499C11.2299 19.7899 11.2749 19.8349 11.3099 19.8899C11.3449 19.9449 11.3699 20.0049 11.3799 20.0699C11.3899 20.1349 11.3899 20.1999 11.3749 20.2649C11.3599 20.3299 11.3349 20.3899 11.2949 20.4449L10.7199 21.2649C10.6449 21.3749 10.5499 21.4649 10.4399 21.5349C10.3299 21.6049 10.2049 21.6549 10.0749 21.6749C9.94488 21.6999 9.81488 21.6949 9.68488 21.6649C9.55488 21.6349 9.43488 21.5849 9.32988 21.5099L2.77488 16.9249C2.66488 16.8499 2.57488 16.7549 2.50488 16.6449C2.43488 16.5349 2.38488 16.4099 2.36488 16.2799C2.33988 16.1499 2.34488 16.0199 2.37488 15.8899C2.40488 15.7599 2.45488 15.6399 2.52988 15.5349L3.10488 14.7149C3.17988 14.6049 3.29488 14.5349 3.42488 14.5099C3.55488 14.4849 3.68988 14.5149 3.79988 14.5899L11.1749 19.7499ZM19.2849 4.67489C20.4799 5.50989 21.2949 6.78989 21.5449 8.22489C21.7999 9.65989 21.4699 11.1399 20.6349 12.3349L18.0549 16.0199C17.1399 17.3249 15.7499 18.2099 14.1849 18.4849C12.6199 18.7599 11.0049 18.4049 9.70488 17.4899L8.89988 16.9249L5.45988 14.5149C4.83488 14.0749 4.29988 13.5199 3.88988 12.8749C3.47988 12.2299 3.19988 11.5099 3.06488 10.7599C2.92988 10.0099 2.94988 9.23489 3.11488 8.48989C3.27988 7.74489 3.58988 7.03489 4.02988 6.40989L5.27988 4.62489C5.85488 3.80489 6.83488 3.27489 7.65488 3.84489L8.06488 4.13489C8.27988 4.28489 8.42988 4.51989 8.47488 4.77989C8.51988 5.03989 8.46488 5.30989 8.31488 5.52489L6.30988 8.40989C6.23488 8.51489 6.20488 8.64989 6.22988 8.77989C6.25488 8.90989 6.32488 9.02489 6.43488 9.09989C6.53988 9.17489 6.67488 9.20489 6.80488 9.17989C6.93488 9.15489 7.04988 9.08489 7.12488 8.97489L10.5699 4.05489C11.8349 2.24489 15.0849 1.72489 16.8949 2.98989L19.2849 4.67489ZM9.10988 19.1299C9.15988 19.1699 9.19988 19.2249 9.20988 19.2899C9.21988 19.3549 9.20488 19.4199 9.16988 19.4749L8.89488 19.8799C8.85988 19.9349 8.81488 19.9799 8.76488 20.0149C8.70988 20.0499 8.65488 20.0749 8.58988 20.0849C8.52988 20.0949 8.46488 20.0949 8.39988 20.0799C8.33988 20.0649 8.27988 20.0399 8.22988 19.9999L5.09488 17.7249C4.98988 17.6449 4.91988 17.5299 4.89988 17.4049C4.87988 17.2799 4.90488 17.1449 4.97988 17.0349L5.25488 16.6299C5.26988 16.6049 5.29488 16.5799 5.31988 16.5649C5.34488 16.5449 5.37488 16.5349 5.40488 16.5299C5.43488 16.5249 5.46988 16.5249 5.49988 16.5299C5.52988 16.5349 5.55988 16.5499 5.58488 16.5699L9.10988 19.1299Z" fill="#13334C"/>
</svg>
