<svg width="24" height="24" viewBox="0 0 24 24" fill="none" xmlns="http://www.w3.org/2000/svg">
<path d="M10.9079 4.41444C11.853 5.07622 13.0217 4.86362 13.6835 3.91851C14.3453 2.97339 14.1375 1.79497 13.1924 1.1332C12.2473 0.471424 11.0687 0.679077 10.4069 1.62419C9.74513 2.56931 9.9628 3.75266 10.9079 4.41444H10.9079Z" fill="#13334C"/>
<path d="M10.5468 13.8028H13.5468C14.0991 13.8028 14.5468 13.3551 14.5468 12.8028V7.45506L17.6838 4.83787C17.6817 4.83758 17.6791 4.83722 17.6771 4.83695C17.4778 4.81019 17.1768 4.76981 16.9828 4.50321C16.7897 4.23788 16.8437 3.94012 16.8793 3.7431C16.8832 3.72191 16.888 3.69535 16.8918 3.67118C16.8761 3.6557 16.8588 3.63929 16.8449 3.62606C16.7462 3.53241 16.6006 3.39346 16.5248 3.2002L13.4052 5.80284H10.609L7.44626 3.58824C7.43257 3.60149 7.41921 3.61427 7.40679 3.62606C7.39282 3.63929 7.37554 3.6557 7.35977 3.67118C7.36362 3.6954 7.36846 3.72201 7.37227 3.7432C7.40796 3.94022 7.46192 4.23798 7.2688 4.50326C7.07485 4.76976 6.77383 4.81019 6.57461 4.83695C6.55386 4.83973 6.52788 4.8432 6.50425 4.84686C6.49385 4.86761 6.48296 4.89042 6.47422 4.90873C6.43037 5.0005 6.37519 5.11582 6.29102 5.22087L9.5468 7.50061V12.8028C9.5468 13.3551 9.99451 13.8028 10.5468 13.8028H10.5468Z" fill="#13334C"/>
<path d="M10.8711 14.8445C10.3443 14.6791 9.78299 14.9723 9.61761 15.4992L7.59276 21.9522C7.42743 22.4792 7.72059 23.0404 8.24749 23.2058C8.34715 23.237 8.44803 23.2519 8.5472 23.2519C8.97254 23.2519 9.36698 22.9784 9.50106 22.5511L11.5259 16.098C11.6912 15.5711 11.3981 15.0098 10.8711 14.8445H10.8711Z" fill="#13334C"/>
<path d="M14.2583 15.0957C13.87 14.7029 13.2369 14.6991 12.844 15.0872C12.4512 15.4754 12.4474 16.1085 12.8355 16.5014L14.7136 18.4022L14.5479 22.0787C14.523 22.6304 14.9501 23.0978 15.5019 23.1227C15.5172 23.1234 15.5324 23.1237 15.5477 23.1237C16.0792 23.1237 16.5217 22.7051 16.5458 22.1687L16.7312 18.0555C16.7438 17.777 16.6395 17.5059 16.4436 17.3076L14.2583 15.0957Z" fill="#13334C"/>
<path d="M7.27703 2.93939C7.27703 3.15515 6.93069 3.31352 6.86748 3.5082C6.80196 3.70997 6.98679 4.04124 6.86456 4.20918C6.74111 4.3788 6.36813 4.30475 6.1985 4.4282C6.03056 4.55042 5.98643 4.92868 5.78466 4.99419C5.58998 5.05741 5.33279 4.77939 5.11703 4.77939C4.90128 4.77939 4.64409 5.05741 4.4494 4.99419C4.24763 4.92868 4.20349 4.55042 4.03555 4.42819C3.86592 4.30474 3.49294 4.37879 3.36949 4.20916C3.24727 4.04122 3.4321 3.70996 3.36659 3.5082C3.30337 3.31352 2.95703 3.15515 2.95703 2.93939C2.95703 2.72364 3.30337 2.56527 3.36659 2.37059C3.4321 2.16882 3.24728 1.83755 3.3695 1.66961C3.49295 1.49998 3.86594 1.57403 4.03556 1.45059C4.2035 1.32837 4.24764 0.950107 4.4494 0.884594C4.64408 0.82138 4.90127 1.09939 5.11703 1.09939C5.33279 1.09939 5.58998 0.82138 5.78466 0.884594C5.98643 0.950109 6.03057 1.32837 6.19852 1.4506C6.36814 1.57405 6.74113 1.5 6.86457 1.66963C6.9868 1.83757 6.80196 2.16883 6.86748 2.37059C6.93069 2.56527 7.27703 2.72364 7.27703 2.93939Z" fill="#13334C"/>
<path d="M21.2946 2.93939C21.2946 3.15515 20.9483 3.31352 20.8851 3.5082C20.8195 3.70997 21.0044 4.04124 20.8821 4.20918C20.7587 4.3788 20.3857 4.30475 20.2161 4.4282C20.0481 4.55042 20.004 4.92868 19.8022 4.99419C19.6076 5.05741 19.3504 4.77939 19.1346 4.77939C18.9189 4.77939 18.6617 5.05741 18.467 4.99419C18.2652 4.92868 18.2211 4.55042 18.0531 4.42819C17.8835 4.30474 17.5105 4.37879 17.3871 4.20916C17.2648 4.04122 17.4497 3.70996 17.3842 3.5082C17.321 3.31352 16.9746 3.15515 16.9746 2.93939C16.9746 2.72364 17.321 2.56527 17.3842 2.37059C17.4497 2.16882 17.2649 1.83755 17.3871 1.66961C17.5105 1.49998 17.8835 1.57403 18.0531 1.45059C18.2211 1.32837 18.2652 0.950107 18.467 0.884594C18.6617 0.82138 18.9189 1.09939 19.1346 1.09939C19.3504 1.09939 19.6076 0.82138 19.8022 0.884594C20.004 0.950109 20.0482 1.32837 20.2161 1.4506C20.3857 1.57405 20.7587 1.5 20.8822 1.66963C21.0044 1.83757 20.8195 2.16883 20.8851 2.37059C20.9483 2.56527 21.2946 2.72364 21.2946 2.93939Z" fill="#13334C"/>
</svg>
