<svg width="24" height="24" viewBox="0 0 24 24" fill="none" xmlns="http://www.w3.org/2000/svg">
<path fill-rule="evenodd" clip-rule="evenodd" d="M22.5001 1.9V21.18C22.5001 21.575 21.9851 21.73 21.7651 21.4L19.0351 17.31C19.8401 17.265 20.5451 16.74 20.8151 15.975C20.9901 15.47 20.9601 14.93 20.7301 14.445C20.5001 13.965 20.0951 13.6 19.5901 13.425L15.5951 12.025C15.5601 12.01 15.5201 12 15.4851 11.99L14.5001 10.525L11.5501 5.575C11.5201 5.525 11.4801 5.48 11.4301 5.445L6.60009 2.235C6.27009 2.015 6.42509 1.5 6.82009 1.5H22.1001C22.3201 1.5 22.5001 1.68 22.5001 1.9ZM12.1251 12.695L10.6751 11.68L12.2001 10.225C12.6001 9.845 12.6151 9.21 12.2351 8.81C11.8551 8.41 11.2201 8.395 10.8201 8.775L9.00009 10.51L8.02509 9.83L10.3201 6.555C10.6351 6.105 10.5251 5.48 10.0751 5.16C9.62509 4.845 9.00009 4.955 8.68009 5.405L5.81509 9.5L4.09509 11.955C3.78009 12.405 3.89009 13.03 4.34009 13.35L9.25509 16.79C9.42509 16.91 9.62509 16.97 9.83009 16.97C9.89009 16.97 9.94509 16.965 10.0051 16.955C10.2651 16.91 10.5001 16.76 10.6501 16.545L12.3701 14.09C12.6851 13.635 12.5751 13.015 12.1251 12.695ZM4.42509 9.745C5.08509 8.8 4.88009 7.62 3.93509 6.96C2.99009 6.3 1.81009 6.505 1.15009 7.45C0.490094 8.395 0.705094 9.58 1.65009 10.24C2.59009 10.905 3.76009 10.69 4.42509 9.745ZM20.6801 21.13L15.8951 17.775C15.4451 17.46 14.8201 17.57 14.5001 18.02C14.1851 18.47 14.2951 19.095 14.7451 19.415L19.5301 22.77C19.7051 22.89 19.9051 22.95 20.1051 22.95C20.4201 22.95 20.7301 22.8 20.9251 22.525C21.2401 22.07 21.1301 21.445 20.6801 21.13ZM18.6001 16.265C19.1201 16.45 19.6901 16.175 19.8751 15.65C20.0601 15.125 19.7851 14.56 19.2601 14.375L15.2651 12.975C14.8401 12.825 14.3701 12.98 14.1151 13.345L11.4701 17.12C11.1551 17.57 11.2651 18.195 11.7151 18.515C11.8901 18.635 12.0901 18.695 12.2901 18.695C12.6051 18.695 12.9151 18.545 13.1101 18.27L15.3201 15.115L18.6001 16.265Z" fill="#13334C"/>
</svg>
