<svg width="24" height="24" viewBox="0 0 24 24" fill="none" xmlns="http://www.w3.org/2000/svg">
<path d="M19.345 5.88492C19.92 5.06992 20.94 4.88992 21.755 5.45992C22.575 6.02992 22.755 7.04992 22.18 7.86492C21.605 8.67992 20.595 8.86492 19.78 8.29492C18.965 7.72492 18.775 6.70492 19.345 5.88492ZM8.8 19.0449C8.8 21.1949 7.05 22.9449 4.9 22.9449C2.75 22.9449 1 21.1949 1 19.0449C1 16.8949 2.75 15.1449 4.9 15.1449C7.05 15.1449 8.8 16.8949 8.8 19.0449ZM7.8 19.0449C7.8 17.4449 6.5 16.1449 4.9 16.1449C3.3 16.1449 2 17.4449 2 19.0449C2 20.6449 3.3 21.9449 4.9 21.9449C6.5 21.9449 7.8 20.6449 7.8 19.0449ZM23 19.0449C23 21.1949 21.25 22.9449 19.1 22.9449C16.95 22.9449 15.2 21.1949 15.2 19.0449C15.2 17.6399 15.945 16.4049 17.065 15.7199L16.64 15.0049C16.55 14.8499 16.5 14.6749 16.5 14.4949V11.4949H7.5C6.95 11.4949 6.5 11.0449 6.5 10.4949C6.5 8.83992 7.845 7.49492 9.5 7.49492H17.5C18.05 7.49492 18.5 7.94492 18.5 8.49492V10.4949V14.2199L19.05 15.1449C19.065 15.1449 19.085 15.1449 19.1 15.1449C21.25 15.1449 23 16.8949 23 19.0449ZM22 19.0449C22 17.6449 21 16.4699 19.675 16.2049L20.355 17.3499C20.635 17.8249 20.48 18.4399 20.005 18.7199C19.845 18.8149 19.67 18.8599 19.495 18.8599C19.155 18.8599 18.82 18.6849 18.635 18.3699L17.575 16.5799C16.75 17.0949 16.2 18.0049 16.2 19.0449C16.2 20.6449 17.5 21.9449 19.1 21.9449C20.7 21.9449 22 20.6449 22 19.0449ZM15.105 14.8099L13.215 12.8249C12.835 12.4249 12.2 12.4099 11.8 12.7899C11.4 13.1699 11.385 13.8049 11.765 14.2049L13.085 15.5899L11.655 17.5849L9.39 13.0549C9.145 12.5599 8.545 12.3599 8.05 12.6049C7.555 12.8499 7.355 13.4499 7.6 13.9449L10.6 19.9449V19.9499L11.6 21.9499C11.775 22.2999 12.13 22.5049 12.495 22.5049C12.645 22.5049 12.8 22.4699 12.94 22.3999C13.435 22.1549 13.635 21.5549 13.39 21.0599L12.665 19.6049L15.19 16.0799C15.475 15.6899 15.44 15.1599 15.105 14.8099Z" fill="#13334C"/>
</svg>
