<svg width="24" height="24" viewBox="0 0 24 24" fill="none" xmlns="http://www.w3.org/2000/svg">
<path d="M15.0897 22.82C15.0747 22.82 15.0597 22.82 15.0447 22.82C14.4947 22.795 14.0647 22.33 14.0897 21.775L14.2547 18.1L12.3747 16.2C11.9847 15.805 11.9897 15.175 12.3847 14.785C12.7797 14.395 13.4097 14.4 13.7997 14.795L15.9847 17.005C16.1797 17.205 16.2847 17.475 16.2747 17.755L16.0897 21.87C16.0647 22.4 15.6197 22.82 15.0897 22.82ZM9.04469 22.25L11.0697 15.795C11.2347 15.27 10.9397 14.705 10.4147 14.54C9.88969 14.375 9.32469 14.67 9.15969 15.195L7.13469 21.65C6.96969 22.175 7.26469 22.74 7.78969 22.905C7.88969 22.935 7.98969 22.95 8.08969 22.95C8.51469 22.95 8.90969 22.675 9.04469 22.25ZM12.7347 0.830001C11.7897 0.170001 10.6097 0.375001 9.94969 1.32C9.28969 2.265 9.50469 3.45 10.4497 4.11C11.3947 4.77 12.5647 4.56 13.2247 3.615C13.8847 2.67 13.6797 1.49 12.7347 0.830001ZM18.8597 1.87C18.5047 1.445 17.8747 1.39 17.4497 1.745L12.9497 5.5H10.1547L5.57469 2.29C5.12469 1.975 4.49969 2.085 4.17969 2.535C3.86469 2.985 3.97469 3.61 4.42469 3.93L9.08969 7.2V12.5C9.08969 13.05 9.53969 13.5 10.0897 13.5H13.0897C13.6397 13.5 14.0897 13.05 14.0897 12.5V7.15L18.7297 3.28C19.1547 2.925 19.2097 2.295 18.8597 1.87Z" fill="#13334C"/>
</svg>
