<svg width="24" height="24" viewBox="0 0 24 24" fill="none" xmlns="http://www.w3.org/2000/svg">
<path d="M11.225 15.71L6.31004 12.27C5.86004 11.955 5.23504 12.065 4.91504 12.515C4.60004 12.965 4.71004 13.59 5.16004 13.91L9.25504 16.78L6.38004 20.89C6.06504 21.345 6.17504 21.965 6.62504 22.285C6.80004 22.405 7.00004 22.465 7.19504 22.465C7.51004 22.465 7.82004 22.315 8.01504 22.04L11.46 17.11C11.79 16.65 11.68 16.03 11.225 15.71Z" fill="#13334C"/>
<path d="M6.23003 15.875C5.78003 15.56 5.15503 15.67 4.83503 16.12L1.15503 21.385C0.840031 21.835 0.950031 22.46 1.40003 22.78C1.57503 22.9 1.77503 22.96 1.97503 22.96C2.29003 22.96 2.60003 22.81 2.79503 22.535L6.47503 17.27C6.79003 16.815 6.68003 16.19 6.23003 15.875Z" fill="#13334C"/>
<path d="M12.8749 4.65517C13.8199 5.31517 14.9899 5.10517 15.6499 4.16017C16.3099 3.21517 16.1049 2.03517 15.1599 1.37517C14.2149 0.715167 13.0349 0.920167 12.3749 1.86517C11.7149 2.81017 11.9299 3.99517 12.8749 4.65517Z" fill="#13334C"/>
<path d="M23.1051 10.7501L17.9801 10.7401C17.8951 10.2151 17.5351 9.78011 17.0501 9.59011C16.7851 9.48511 16.5001 9.68011 16.5001 9.96011V10.0451H15.2551L14.4601 7.27011C14.3951 7.05011 14.2601 6.85511 14.0701 6.72511L13.9351 6.63011C13.9301 6.62511 13.9301 6.62511 13.9251 6.62011L11.4701 4.90011C11.4551 4.89011 11.4401 4.88011 11.4251 4.87511L10.6501 4.33511C10.4801 4.22011 10.2801 4.15511 10.0801 4.15511H7.50513V1.48511C7.50513 0.935107 7.05513 0.485107 6.50513 0.485107C5.95513 0.485107 5.50513 0.935107 5.50513 1.48511V5.14511C5.50513 5.69511 5.95013 6.14511 6.50513 6.14511H9.37513L6.63513 10.0551C6.48513 10.2701 6.42513 10.5401 6.47013 10.8001C6.51513 11.0601 6.66513 11.2951 6.88013 11.4451L9.34013 13.1701C9.51013 13.2901 9.71013 13.3501 9.91513 13.3501C9.97513 13.3501 10.0301 13.3451 10.0901 13.3351C10.3501 13.2901 10.5851 13.1401 10.7351 12.9251L13.0551 9.61011L13.5451 11.3201C13.6701 11.7501 14.0601 12.0451 14.5051 12.0451H16.5051C16.5051 12.3001 16.7551 12.4801 17.0001 12.3951C17.5051 12.2201 17.8851 11.7801 17.9801 11.2401L23.1051 11.2501C23.2451 11.2501 23.3551 11.1401 23.3551 11.0001C23.3551 10.8651 23.2451 10.7501 23.1051 10.7501Z" fill="#13334C"/>
</svg>
