<svg width="24" height="24" viewBox="0 0 24 24" fill="none" xmlns="http://www.w3.org/2000/svg">
<path d="M1.99997 19.5H11.5H12H12.5H22C22.275 19.5 22.5 19.275 22.5 19V16.99V14.845V14.775V14.635V14.505C22.5 14.385 22.48 14.265 22.44 14.15C22.145 13.305 21.3 12.7 20.355 12.7C15.85 12.7 12.1 9.495 11.25 5.24C11.25 5.235 11.25 5.235 11.25 5.23C11.16 4.8 10.77 4.5 10.335 4.5H5.49997H4.99997H4.98997C4.44497 4.5 3.99997 4.945 3.99997 5.49V5.5V6V12.305C3.99997 12.435 4.06497 12.56 4.16997 12.635C4.41997 12.81 4.68497 12.99 4.95997 13.165C6.52497 14.17 8.73497 15.34 11.495 16.16V17.205V18.5H2.01497C1.74997 18.5 1.51497 18.7 1.49997 18.965C1.47997 19.26 1.71497 19.5 1.99997 19.5ZM12.5 17.47V16.435C13.3 16.635 14.14 16.805 15.02 16.935C15.275 16.97 15.535 16.99 15.79 16.99H17.97H20.36H21.03H21.1C21.32 16.99 21.5 17.17 21.5 17.39V18.1C21.5 18.32 21.32 18.5 21.1 18.5H12.5V17.47ZM9.52497 16.56C9.75497 16.645 9.69497 16.99 9.44997 16.99H4.90997C4.88997 16.99 4.86997 16.99 4.84997 16.99C4.36997 16.96 3.99997 16.545 3.99997 16.065V14.145C3.99997 13.965 4.19497 13.86 4.34497 13.955C4.36997 13.97 4.39497 13.99 4.41997 14.005C6.01997 15.035 7.73497 15.895 9.50997 16.555C9.51497 16.56 9.51997 16.56 9.52497 16.56Z" fill="#13334C"/>
</svg>
