<svg width="24" height="24" viewBox="0 0 24 24" fill="none" xmlns="http://www.w3.org/2000/svg">
<path d="M11.9949 2C6.46987 2 1.99487 6.475 1.99487 12C1.99487 17.52 6.46987 22 11.9949 22C17.5149 22 21.9949 17.52 21.9949 12C21.9949 6.475 17.5199 2 11.9949 2ZM6.42487 13.83L5.15987 17.05C4.11987 15.64 3.49987 13.89 3.49987 12C3.49987 11.67 3.51987 11.345 3.55487 11.03L6.27987 13.26C6.44487 13.395 6.50487 13.625 6.42487 13.83ZM7.53987 6.875L5.20487 6.895C6.22987 5.535 7.64987 4.495 9.29487 3.94L7.98487 6.595C7.89987 6.765 7.72987 6.875 7.53987 6.875ZM11.9999 20.5C11.0099 20.5 10.0649 20.33 9.18487 20.02L11.7449 18.515C11.8999 18.42 12.0949 18.42 12.2549 18.515L14.8149 20.025C13.9299 20.33 12.9849 20.5 11.9999 20.5ZM15.1199 13.295L12.3199 15.33C12.1249 15.47 11.8599 15.47 11.6699 15.33L8.86987 13.295C8.67487 13.155 8.59487 12.905 8.66987 12.675L9.73987 9.385C9.81487 9.155 10.0249 9.005 10.2649 9.005H13.7249C13.9649 9.005 14.1749 9.16 14.2499 9.385L15.3199 12.675C15.3999 12.905 15.3149 13.15 15.1199 13.295ZM16.0099 6.595L14.6949 3.935C16.3449 4.485 17.7699 5.53 18.7949 6.89L16.4549 6.87C16.2649 6.875 16.0899 6.765 16.0099 6.595ZM18.8349 17.05L17.5649 13.825C17.4849 13.625 17.5449 13.395 17.7149 13.255L20.4449 11.02C20.4799 11.34 20.4999 11.665 20.4999 11.995C20.4999 13.89 19.8799 15.64 18.8349 17.05Z" fill="#13334C"/>
</svg>
