<svg width="24" height="24" viewBox="0 0 24 24" fill="none" xmlns="http://www.w3.org/2000/svg">
<path d="M18.035 7.755C15.105 9.205 11.86 10.15 8.435 10.465C8.2 10.485 8 10.3 8 10.065V3.67C8 3.37 8.32 3.175 8.585 3.315C11.385 4.775 14.48 5.765 17.76 6.185C18.585 6.285 18.785 7.38 18.035 7.755ZM3.5 19.75C3.5 21.27 7.305 22.5 12 22.5C16.695 22.5 20.5 21.27 20.5 19.75C20.5 18.23 16.695 17 12 17C10.13 17 8.405 17.195 7 17.525V2C7 1.725 6.775 1.5 6.5 1.5C6.225 1.5 6 1.725 6 2V17.8V18.855C6 19.13 5.775 19.355 5.5 19.355H3.9C3.685 19.36 3.5 19.53 3.5 19.75C3.5 19.75 3.5 19.745 3.5 19.75Z" fill="#13334C"/>
</svg>
