<svg width="24" height="24" viewBox="0 0 24 24" fill="none" xmlns="http://www.w3.org/2000/svg">
<path d="M12 3.5C14.27 3.5 16.405 4.385 18.01 5.99C19.615 7.595 20.5 9.73 20.5 12C20.5 14.27 19.615 16.405 18.01 18.01C16.405 19.615 14.27 20.5 12 20.5C9.73 20.5 7.595 19.615 5.99 18.01C4.385 16.405 3.5 14.27 3.5 12C3.5 9.73 4.385 7.595 5.99 5.99C7.595 4.385 9.73 3.5 12 3.5ZM12 2C6.475 2 2 6.475 2 12C2 17.525 6.475 22 12 22C17.525 22 22 17.525 22 12C22 6.475 17.525 2 12 2ZM10.36 6.825C11.02 5.88 12.2 5.67 13.145 6.335C14.09 6.995 14.3 8.175 13.635 9.12C12.975 10.065 11.805 10.28 10.86 9.615C9.915 8.955 9.7 7.77 10.36 6.825ZM18.925 9.66C18.715 9.15 18.13 8.905 17.62 9.115L12.15 11.355C12.055 11.395 11.945 11.395 11.845 11.355L6.375 9.115C5.865 8.905 5.28 9.15 5.07 9.66C4.86 10.17 5.105 10.755 5.615 10.965L9.49 12.555V19.075C10.285 19.355 11.125 19.5 11.99 19.5C12.855 19.5 13.7 19.355 14.49 19.075V12.555L18.365 10.965C18.89 10.755 19.135 10.175 18.925 9.66Z" fill="#13334C"/>
</svg>
