<svg width="24" height="24" viewBox="0 0 24 24" fill="none" xmlns="http://www.w3.org/2000/svg">
<path d="M22.2399 3.09001C22.0149 2.93001 21.6999 2.98501 21.5449 3.21501L11.1999 17.97C11.0849 18.13 10.8749 18.185 10.6999 18.1L3.12995 14.435C2.99495 14.37 2.83495 14.37 2.69995 14.435C2.56495 14.5 2.46495 14.62 2.42495 14.77L1.51495 17.385C1.45495 17.63 1.58995 17.885 1.82495 17.97L9.86995 20.97C9.92495 20.99 9.98495 21 10.0449 21C10.2049 21 10.3599 20.925 10.4549 20.785L22.3649 3.78501C22.5249 3.56001 22.4699 3.25001 22.2399 3.09001Z" fill="#13334C"/>
<path d="M20.25 19.5H17.75C17.335 19.5 17 19.835 17 20.25C17 20.665 17.335 21 17.75 21H20.25C20.665 21 21 20.665 21 20.25C21 19.835 20.665 19.5 20.25 19.5Z" fill="#13334C"/>
</svg>
