<svg width="24" height="24" viewBox="0 0 24 24" fill="none" xmlns="http://www.w3.org/2000/svg">
<path d="M4.9251 6.80505C6.0701 6.80505 7.0001 5.87505 7.0001 4.73005C7.0001 3.58505 6.0701 2.65505 4.9251 2.65505C3.7801 2.65005 2.8501 3.58005 2.8501 4.72505C2.8501 5.87505 3.7801 6.80505 4.9251 6.80505Z" fill="#13334C"/>
<path d="M21.1202 20.3651L20.6052 19.2101L20.7802 19.1351C20.8052 19.1251 20.8202 19.1051 20.8302 19.0851C20.8402 19.0601 20.8402 19.0351 20.8352 19.0101L17.6802 10.1001C17.6752 10.0801 17.6702 10.0551 17.6802 10.0351C17.6852 10.0151 17.7002 9.99512 17.7202 9.98512L18.7452 9.31012C18.7602 9.30012 18.7702 9.29012 18.7802 9.27512C18.7902 9.26012 18.7902 9.24512 18.7902 9.22512C18.7902 9.21012 18.7852 9.19012 18.7752 9.17512C18.7652 9.16012 18.7552 9.15012 18.7402 9.14012L16.4452 7.76012C16.4302 7.75012 16.4102 7.74512 16.3902 7.74512C16.3702 7.74512 16.3502 7.75012 16.3352 7.76512L7.88518 13.6001C7.86518 13.6151 7.85018 13.6351 7.84518 13.6601L6.46518 19.5101C6.46018 19.5251 6.46018 19.5401 6.46518 19.5551C6.47018 19.5701 6.47518 19.5851 6.48518 19.5951C6.49518 19.6051 6.50518 19.6151 6.52018 19.6251C6.53518 19.6301 6.55018 19.6351 6.56518 19.6351L6.98518 19.6401L6.79018 20.3801C6.70018 20.7301 6.89518 21.1901 7.24018 21.2801L7.43018 21.3301C7.51518 21.3501 7.60018 21.3551 7.68518 21.3451C7.77018 21.3351 7.85018 21.3051 7.92518 21.2601C8.00018 21.2151 8.06518 21.1601 8.11518 21.0901C8.16518 21.0201 8.20518 20.9451 8.22518 20.8601L8.54018 19.6601L9.01518 19.6651C9.03518 19.6651 9.05518 19.6601 9.07018 19.6501C9.08518 19.6401 9.10018 19.6251 9.10518 19.6051L10.9752 15.5301C10.9802 15.5151 10.9902 15.5051 11.0002 15.4951C11.0102 15.4851 11.0252 15.4801 11.0352 15.4751L15.5502 14.0601C15.5702 14.0551 15.5952 14.0551 15.6152 14.0651C15.6352 14.0751 15.6552 14.0901 15.6652 14.1101L18.8752 19.8551C18.8852 19.8751 18.9052 19.8951 18.9302 19.9001C18.9552 19.9101 18.9802 19.9051 19.0002 19.8951L19.2202 19.8001L19.6952 20.8801C19.8402 21.2101 20.2802 21.4451 20.6102 21.3001L20.7902 21.2201C20.9502 21.1501 21.0752 21.0201 21.1352 20.8551C21.1952 20.7051 21.1902 20.5251 21.1202 20.3651Z" fill="#13334C"/>
<path d="M9.48998 8.70993L11.8 9.58993C11.815 9.59493 11.83 9.59993 11.845 9.59493C11.86 9.58993 11.875 9.58993 11.89 9.57993L15.245 7.39493C15.26 7.38493 15.27 7.37493 15.28 7.35993C15.29 7.34493 15.29 7.32993 15.29 7.31493C15.29 7.29993 15.285 7.27993 15.28 7.26993C15.27 7.25493 15.26 7.24493 15.245 7.23493C14.63 6.81993 11.92 4.98493 10.7 4.10493C9.31998 3.10993 8.59498 4.21993 8.59498 4.21993L7.44998 6.20993C7.17998 6.89993 6.44998 8.07993 6.44998 8.07993L3.92498 10.3399L3.92998 10.3499L3.43998 10.7199C3.28498 10.8349 3.18498 11.0099 3.15498 11.1999C3.12998 11.3899 3.17998 11.5849 3.29498 11.7399C3.40998 11.8949 3.58498 11.9949 3.77498 12.0249C3.96498 12.0499 4.15998 11.9999 4.31498 11.8849L4.74998 11.5549L4.99498 11.9149C5.00498 11.9299 5.01498 11.9399 5.02998 11.9499C5.04498 11.9599 5.05998 11.9649 5.07498 11.9699C5.08998 11.9749 5.10998 11.9699 5.12498 11.9699C5.13998 11.9649 5.15498 11.9599 5.16998 11.9499L9.38498 8.73493C9.39998 8.72493 9.41498 8.71993 9.42998 8.71493C9.45498 8.70493 9.47498 8.70493 9.48998 8.70993Z" fill="#13334C"/>
</svg>
