<svg width="24" height="24" viewBox="0 0 24 24" fill="none" xmlns="http://www.w3.org/2000/svg">
<path d="M12.2798 4.80503C13.3348 4.60003 14.0248 3.58003 13.8198 2.52503C13.6148 1.47003 12.5948 0.780031 11.5398 0.985031C10.4898 1.19003 9.79983 2.21003 9.99983 3.26003C10.2048 4.31503 11.2248 5.01003 12.2798 4.80503Z" fill="#13334C"/>
<path d="M20.2849 5.54492L19.0499 5.55992C19.0399 5.55992 19.0299 5.55492 19.0249 5.55492L10.5699 5.62992C10.4599 5.62992 10.3449 5.65992 10.2499 5.70992C9.64494 6.03992 7.37494 7.22492 7.09494 7.47992C6.76994 7.77492 6.66994 7.94492 6.71994 8.50492C6.78494 9.20992 8.38994 10.1099 8.38994 10.1099L7.58994 12.2499C7.58494 12.2599 7.58494 12.2649 7.58494 12.2749C7.58494 12.2849 7.58994 12.2899 7.59494 12.2999C7.59994 12.3049 7.60494 12.3149 7.61494 12.3149C7.62494 12.3199 7.62994 12.3199 7.63994 12.3199H12.6899L14.5099 8.31992C14.5149 8.30492 14.5299 8.29492 14.5399 8.28492C14.5549 8.27492 14.5699 8.26992 14.5849 8.26492L19.2499 7.76492C19.2749 7.75992 19.2999 7.74492 19.3149 7.72492C19.3299 7.70492 19.3399 7.67992 19.3349 7.65492L19.2799 7.14492L20.3049 7.12992C20.4099 7.12992 20.5149 7.10492 20.6099 7.06492C20.7049 7.02492 20.7949 6.96492 20.8649 6.88992C20.9399 6.81492 20.9949 6.72492 21.0349 6.62992C21.0749 6.53492 21.0949 6.42992 21.0899 6.32492C21.0899 6.21992 21.0649 6.11492 21.0249 6.01992C20.9849 5.92492 20.9249 5.83492 20.8499 5.76492C20.7749 5.69492 20.6849 5.63492 20.5899 5.59492C20.4949 5.56492 20.3899 5.54492 20.2849 5.54492Z" fill="#13334C"/>
<path d="M12.4049 13.375C12.3999 13.37 12.3949 13.365 12.3849 13.36C12.3799 13.355 12.3699 13.355 12.3599 13.355L7.42993 13.365C7.41493 13.365 7.39493 13.38 7.38993 13.39L5.50493 15.255C5.49493 15.26 5.48993 15.27 5.48993 15.28C5.48993 15.29 5.48993 15.3 5.48993 15.31C5.49493 15.32 5.49993 15.33 5.50993 15.335C5.51993 15.34 5.52993 15.345 5.53993 15.345H6.53493C6.54493 15.345 6.55493 15.35 6.56493 15.355C6.57493 15.36 6.57993 15.365 6.58493 15.375C6.58993 15.385 6.58993 15.395 6.58993 15.405C6.58993 15.415 6.58493 15.425 6.57993 15.43L3.12993 20.92L3.38993 21.105L3.00993 21.675C2.90993 21.82 2.87493 22.005 2.90993 22.175C2.94493 22.35 3.04493 22.5 3.19493 22.6C3.33993 22.7 3.51993 22.735 3.69493 22.7C3.86993 22.665 4.01993 22.565 4.11993 22.415L4.47993 21.875L4.63993 21.99L10.1149 16.12C10.1249 16.11 10.1399 16.105 10.1549 16.105C10.1699 16.105 10.1849 16.11 10.1949 16.12L12.6349 18.415C12.6399 18.42 12.6449 18.43 12.6499 18.44C12.6549 18.45 12.6549 18.46 12.6499 18.47L11.8049 21.45L12.4049 21.645L12.2299 22.12C12.1999 22.2 12.1849 22.29 12.1899 22.375C12.1949 22.465 12.2149 22.55 12.2499 22.63C12.2849 22.71 12.3399 22.78 12.4049 22.84C12.4699 22.9 12.5449 22.945 12.6249 22.975C12.7049 23.005 12.7949 23.02 12.8799 23.015C12.9699 23.01 13.0549 22.99 13.1349 22.955C13.2149 22.92 13.2849 22.865 13.3449 22.8C13.4049 22.735 13.4499 22.66 13.4799 22.58L13.6749 22.055L14.1099 22.195C14.1099 22.195 15.4899 19.065 15.7499 18.445C16.0099 17.825 15.7299 17.39 15.7299 17.39L12.4049 13.375Z" fill="#13334C"/>
</svg>
