<svg width="24" height="24" viewBox="0 0 24 24" fill="none" xmlns="http://www.w3.org/2000/svg">
<path d="M20.535 11.82H18.23C18.225 10.66 18.155 8.445 17.825 7.33C17.4 5.89 16.3 4.645 15.42 3.645L15.305 3.515C15.235 3.415 15.155 3.325 15.07 3.225C14.785 2.89 14.465 2.515 14.37 1.825C14.36 1.735 14.315 1.655 14.245 1.595C14.175 1.535 14.09 1.5 14 1.5C13.985 1.5 13.965 1.5 13.95 1.505C13.85 1.52 13.765 1.57 13.705 1.65C13.645 1.73 13.62 1.83 13.635 1.925C13.64 1.95 13.645 1.975 13.645 2L3.32 11.845C3.3 11.865 3.28 11.89 3.27 11.915C3.26 11.94 3.25 11.97 3.25 12C3.25 12.03 3.255 12.06 3.27 12.085C3.285 12.11 3.3 12.135 3.325 12.155L13.645 21.995C13.64 22.02 13.635 22.045 13.635 22.07C13.62 22.17 13.65 22.265 13.705 22.345C13.765 22.425 13.855 22.475 13.95 22.49C13.965 22.49 13.985 22.495 14 22.495C14.09 22.495 14.175 22.46 14.245 22.405C14.315 22.345 14.355 22.265 14.37 22.175C14.465 21.485 14.785 21.105 15.07 20.775C15.155 20.675 15.235 20.58 15.305 20.48L15.42 20.35C16.3 19.35 17.4 18.105 17.825 16.665C18.155 15.55 18.22 13.335 18.23 12.175H20.535C20.58 12.175 20.625 12.155 20.66 12.125C20.695 12.09 20.71 12.05 20.71 12C20.71 11.955 20.69 11.91 20.66 11.875C20.625 11.84 20.58 11.82 20.535 11.82ZM17.105 16.45C16.725 17.735 15.69 18.91 14.855 19.85L14.73 19.995L14.705 20.025C14.65 20.1 14.58 20.185 14.5 20.28C14.25 20.57 13.935 20.95 13.745 21.535L3.82 12.07C3.81 12.06 3.8 12.05 3.795 12.035C3.79 12.02 3.785 12.01 3.785 11.995C3.785 11.98 3.79 11.965 3.795 11.955C3.8 11.94 3.81 11.93 3.82 11.92L13.75 2.45C13.935 3.04 14.255 3.415 14.505 3.705C14.585 3.8 14.655 3.885 14.71 3.96L14.735 3.99L14.86 4.135C15.695 5.08 16.73 6.255 17.11 7.535C17.41 8.555 17.475 10.705 17.485 11.815H7.825C7.61 11.445 6.725 11.16 5.645 11.135C5.62 11.135 5.595 11.145 5.575 11.165C5.555 11.185 5.545 11.21 5.545 11.235V12.75C5.545 12.775 5.555 12.8 5.575 12.82C5.595 12.84 5.62 12.85 5.645 12.85C6.725 12.825 7.61 12.545 7.825 12.17H17.48C17.475 13.28 17.41 15.43 17.105 16.45Z" fill="#13334C"/>
</svg>
