<svg width="24" height="24" viewBox="0 0 24 24" fill="none" xmlns="http://www.w3.org/2000/svg">
<path d="M9.32989 16C9.32989 15.965 9.32989 15.935 9.32989 15.9C7.94489 15.865 6.63489 15.385 5.55989 14.535C6.84489 14.87 8.19989 14.875 9.48989 14.54C9.58489 14.105 9.72489 13.685 9.89989 13.285C7.95489 14.025 5.76989 13.825 3.98489 12.725C3.61489 12.09 3.35989 11.39 3.22989 10.66C3.26489 10.67 3.29489 10.68 3.32989 10.695C3.35489 10.705 3.38489 10.71 3.40489 10.72C3.43989 10.73 3.46989 10.74 3.49989 10.755C3.55489 10.775 3.60989 10.795 3.66989 10.805C3.68489 10.81 3.69489 10.815 3.70989 10.815C3.71989 10.82 3.72989 10.82 3.73489 10.82C3.75489 10.83 3.78489 10.83 3.80489 10.835C3.81989 10.84 3.83989 10.845 3.85489 10.845C3.98489 10.88 4.11489 10.91 4.24989 10.935C4.26989 10.94 4.28989 10.94 4.30489 10.95C4.33489 10.96 4.36489 10.965 4.39489 10.97C4.39989 10.97 4.40489 10.975 4.41489 10.975H4.43489C4.46489 10.98 4.49489 10.98 4.51989 10.985C4.54489 10.99 4.56489 10.99 4.58489 10.995C4.75489 11.02 4.91989 11.045 5.08989 11.06C5.09489 11.06 5.10989 11.06 5.11489 11.065C5.12489 11.065 5.13489 11.07 5.13989 11.07C5.32989 11.085 5.51989 11.095 5.71989 11.1H5.75489C6.51489 11.1 7.26989 10.97 7.99489 10.75H8.00989C8.01489 10.75 8.02989 10.745 8.03489 10.745C8.05489 10.74 8.07989 10.73 8.09989 10.725C8.10989 10.72 8.12489 10.715 8.13989 10.71C8.36489 10.635 8.58989 10.555 8.80989 10.465C8.82489 10.455 8.83989 10.455 8.85489 10.445C8.87489 10.435 8.89489 10.435 8.90989 10.425C8.94489 10.41 8.97989 10.39 9.01489 10.37C9.04489 10.355 9.06989 10.34 9.09989 10.325C9.14489 10.3 9.18989 10.285 9.23489 10.265C9.31489 10.23 9.38989 10.2 9.46489 10.155C9.57489 10.22 9.68989 10.295 9.79489 10.37C9.81989 10.39 9.84989 10.405 9.87489 10.425C9.93989 10.465 9.99989 10.51 10.0649 10.555C10.1499 10.62 10.2349 10.695 10.3149 10.77C10.3449 10.795 10.3799 10.825 10.4099 10.855C10.6399 11.06 10.8599 11.28 11.0599 11.51C11.2999 11.24 11.5649 10.99 11.8449 10.765C11.6749 10.575 11.4999 10.39 11.3149 10.215C11.3099 10.21 11.3049 10.205 11.2999 10.2C11.2949 10.195 11.2899 10.19 11.2849 10.185C11.2649 10.165 11.2449 10.145 11.2199 10.13C11.2149 10.12 11.2049 10.12 11.1999 10.11C11.0249 9.95004 10.8449 9.80004 10.6549 9.65504C10.6399 9.64504 10.6299 9.63004 10.6149 9.62004C10.5999 9.61004 10.5849 9.60004 10.5699 9.58504C10.5349 9.56504 10.5049 9.54004 10.4699 9.52004C10.4449 9.50504 10.4149 9.48504 10.3849 9.46504C10.3449 9.43504 10.3049 9.41004 10.2599 9.38004C10.1899 9.33004 10.1249 9.28504 10.0549 9.24004C10.0599 9.11004 10.0599 8.98004 10.0749 8.84504C10.0799 8.80504 10.0799 8.77504 10.0799 8.73504C10.0849 8.66504 10.0899 8.59004 10.0999 8.51504C10.1149 8.39504 10.1399 8.28004 10.1649 8.16004C10.1699 8.13004 10.1749 8.09504 10.1849 8.06504C10.3099 7.45504 10.5099 6.86004 10.7999 6.30504C10.8049 6.29504 10.8099 6.29004 10.8099 6.28004C10.8149 6.27504 10.8149 6.27004 10.8149 6.26504C11.1049 6.38004 11.3899 6.51004 11.6649 6.67004C12.8299 7.34004 13.7349 8.33004 14.3149 9.48004C14.6649 9.38504 15.0249 9.31504 15.3949 9.28004C14.7399 7.82504 13.6449 6.57504 12.2049 5.74504C11.9449 5.59004 11.6699 5.46004 11.3949 5.34504C11.4749 5.24504 11.5549 5.14504 11.6399 5.05004C11.6599 5.02504 11.6799 5.00504 11.6999 4.98004C11.7249 4.95504 11.7449 4.92504 11.7649 4.90504C11.7999 4.86504 11.8299 4.82504 11.8649 4.79004C11.9799 4.67004 12.0999 4.55504 12.2249 4.44504L12.2499 4.42504C12.2999 4.38004 12.3449 4.33504 12.3949 4.29504C12.5049 4.20004 12.6149 4.11004 12.7349 4.02504C12.3949 3.82004 12.0349 3.65504 11.6549 3.52004C11.6349 3.54004 11.6049 3.56504 11.5849 3.58504C11.5649 3.60504 11.5399 3.62504 11.5149 3.64504C11.4899 3.67004 11.4649 3.69504 11.4349 3.71504C11.3899 3.75504 11.3499 3.79004 11.3049 3.83004C11.2899 3.84504 11.2699 3.86504 11.2549 3.88004C11.2349 3.89504 11.2199 3.91504 11.2049 3.93504C11.1949 3.95004 11.1799 3.96004 11.1649 3.97504C11.0699 4.07004 10.9799 4.17004 10.8899 4.27004C10.8749 4.28504 10.8599 4.30504 10.8449 4.32004C10.8249 4.34004 10.8049 4.36004 10.7899 4.38004C10.7849 4.38504 10.7799 4.38504 10.7799 4.39504C10.7749 4.40004 10.7749 4.40504 10.7699 4.41004C10.7499 4.43004 10.7299 4.45504 10.7199 4.48004C10.7049 4.50004 10.6949 4.52004 10.6799 4.53504C10.5749 4.66504 10.4699 4.80004 10.3749 4.94004C10.3699 4.95004 10.3649 4.95504 10.3599 4.96004C10.3499 4.97004 10.3499 4.97504 10.3399 4.98504C10.2299 5.14004 10.1249 5.30504 10.0249 5.47004C10.0199 5.48004 10.0199 5.48004 10.0149 5.49004L10.0099 5.49504C10.0099 5.50004 10.0049 5.50004 10.0049 5.50004C9.62489 6.16004 9.35989 6.87004 9.18489 7.61004C9.18489 7.61504 9.17989 7.62004 9.17989 7.63004C9.17489 7.63504 9.17489 7.64004 9.17489 7.65004C9.16989 7.67004 9.16489 7.70004 9.15989 7.72004C9.15489 7.73004 9.15489 7.74504 9.14989 7.76004C9.09989 7.99504 9.05989 8.22504 9.02989 8.46004C9.02489 8.47504 9.02489 8.49004 9.02489 8.51004C9.01989 8.53004 9.01989 8.55004 9.01989 8.56504C9.01489 8.60504 9.01489 8.64504 9.01489 8.68504C9.01489 8.71504 9.01489 8.75004 9.00989 8.78004C9.00489 8.83504 8.99989 8.88004 8.99489 8.93504C8.98489 9.01504 8.97489 9.10004 8.97489 9.18004C8.85989 9.24504 8.73989 9.30504 8.62489 9.36004C8.58989 9.37504 8.55489 9.39504 8.52489 9.41004C8.45989 9.44004 8.39489 9.47504 8.32989 9.50004C8.21989 9.54504 8.11489 9.58504 7.99989 9.61504C7.96489 9.62504 7.92989 9.64004 7.89989 9.65004C7.30989 9.85004 6.69489 9.97004 6.06989 9.99504H6.02989C5.98489 9.68504 5.95489 9.37504 5.95489 9.05504C5.95489 6.56504 7.32489 4.30004 9.49489 3.14004H9.50489C11.2099 3.14004 12.8099 3.80504 14.0099 5.00504C15.1499 6.14504 15.8149 7.66504 15.8849 9.26504C15.9549 9.26504 16.0249 9.26004 16.0899 9.26004C16.3999 9.26004 16.7099 9.28004 17.0099 9.32504C16.8949 5.28004 13.5849 2.04004 9.51489 2.04004C5.36989 2.04004 2.01489 5.39504 2.01489 9.54004C2.01489 13.65 5.31989 16.985 9.41989 17.04C9.35489 16.69 9.32989 16.35 9.32989 16ZM4.99989 5.02004C6.15989 3.86004 7.68989 3.20004 9.31989 3.15504C8.55489 3.18004 7.81989 3.33504 7.14489 3.60504C5.72489 5.03504 4.88989 6.98004 4.88989 9.07004C4.88989 9.37504 4.90989 9.67504 4.94489 9.97004C4.81489 9.95504 4.68989 9.93004 4.56489 9.90504C4.53489 9.90004 4.50989 9.89504 4.47989 9.88504C4.44989 9.88004 4.41489 9.87504 4.38489 9.86504C4.32989 9.86004 4.27989 9.84504 4.22989 9.83504C4.06989 9.79504 3.90989 9.75004 3.74989 9.69504C3.67989 9.67504 3.60489 9.65004 3.53489 9.62504C3.39989 9.57504 3.26489 9.52504 3.12989 9.46504C3.14489 7.79004 3.80489 6.21004 4.99989 5.02004ZM3.21989 10.595C3.20989 10.55 3.20489 10.505 3.19989 10.455C3.20489 10.5 3.21489 10.55 3.21989 10.595Z" fill="#13334C"/>
<path d="M14.365 11.1499C14.325 11.1449 14.285 11.1349 14.24 11.1299C14.28 11.1349 14.325 11.1399 14.365 11.1499Z" fill="#13334C"/>
<path d="M13.5451 11.1599C13.4651 11.1999 13.3901 11.2399 13.3201 11.2799C13.3301 11.2749 13.3451 11.2649 13.3551 11.2599C13.4151 11.2299 13.4801 11.1949 13.5451 11.1599Z" fill="#13334C"/>
<path d="M13.89 11.1199C13.85 11.1249 13.815 11.1249 13.78 11.1299C13.81 11.1299 13.85 11.1249 13.89 11.1199Z" fill="#13334C"/>
<path d="M13.775 11.135C13.74 11.14 13.7 11.145 13.665 11.155C13.7 11.145 13.74 11.14 13.775 11.135Z" fill="#13334C"/>
<path d="M14.1801 10.875C14.0951 10.905 14.0151 10.935 13.9451 10.965C13.9201 10.975 13.8951 10.99 13.8651 11C13.8601 11.005 13.8501 11.005 13.8401 11.01H13.8451C13.9901 10.95 14.0951 10.91 14.1801 10.875Z" fill="#13334C"/>
<path d="M14.0051 11.115C13.9651 11.115 13.9301 11.115 13.8901 11.12C13.9251 11.12 13.9651 11.115 14.0051 11.115Z" fill="#13334C"/>
<path d="M18.07 10.9101C18.015 10.8901 17.965 10.8701 17.92 10.8551C17.76 10.8001 17.59 10.7501 17.45 10.7051C17.435 10.7001 17.42 10.7001 17.405 10.6951C17.425 10.7001 17.45 10.7101 17.47 10.7151C17.655 10.7651 17.88 10.8401 18.07 10.9101Z" fill="#13334C"/>
<path d="M14.615 11.205C14.57 11.195 14.53 11.18 14.49 11.175C14.53 11.185 14.575 11.195 14.615 11.205Z" fill="#13334C"/>
<path d="M18.555 11.1251C18.445 11.0701 18.315 11.0101 18.21 10.9651C18.39 11.0501 18.505 11.1051 18.59 11.1451C18.58 11.1351 18.565 11.1301 18.555 11.1251Z" fill="#13334C"/>
<path d="M13.6651 11.155C13.5951 11.17 13.5251 11.19 13.4551 11.22C13.5251 11.19 13.5951 11.17 13.6651 11.155Z" fill="#13334C"/>
<path d="M16.94 10.6C16.83 10.585 16.705 10.57 16.605 10.555C16.585 10.555 16.565 10.55 16.54 10.55C16.745 10.575 16.875 10.59 16.975 10.605C16.96 10.6 16.95 10.6 16.94 10.6Z" fill="#13334C"/>
<path d="M15.21 11.435C15.145 11.4 15.075 11.37 15.01 11.345C15.075 11.375 15.14 11.405 15.21 11.435Z" fill="#13334C"/>
<path d="M16.3151 10.54C16.2101 10.535 16.1351 10.535 16.0701 10.53C15.9351 10.53 15.7701 10.54 15.6401 10.55C15.6951 10.55 15.7451 10.545 15.7901 10.545C15.9551 10.535 16.1451 10.535 16.3151 10.54Z" fill="#13334C"/>
<path d="M15.0052 11.345C14.9402 11.315 14.8752 11.29 14.8052 11.27C14.8752 11.29 14.9402 11.315 15.0052 11.345Z" fill="#13334C"/>
<path d="M14.7251 10.7C14.9401 10.655 15.0701 10.625 15.1751 10.605C15.0251 10.63 14.9301 10.65 14.7251 10.7Z" fill="#13334C"/>
<path d="M11.385 13.2001C11.46 13.0801 11.55 12.9451 11.635 12.8201C11.535 12.9601 11.465 13.0701 11.385 13.2001Z" fill="#13334C"/>
<path d="M10.71 14.97C10.685 15.1 10.665 15.23 10.65 15.34C10.65 15.345 10.65 15.345 10.65 15.35C10.65 15.365 10.645 15.375 10.645 15.39C10.675 15.19 10.695 15.065 10.71 14.97Z" fill="#13334C"/>
<path d="M11.1301 13.6799C11.2151 13.5149 11.2801 13.3949 11.3401 13.2849C11.2801 13.3899 11.2151 13.5149 11.1301 13.6799Z" fill="#13334C"/>
<path d="M11.91 12.46L11.905 12.465C11.9 12.475 11.89 12.48 11.885 12.49C11.875 12.505 11.86 12.52 11.85 12.535L11.845 12.54C11.83 12.555 11.82 12.57 11.81 12.585C11.805 12.59 11.8 12.595 11.8 12.6C11.79 12.615 11.78 12.625 11.77 12.64C11.92 12.465 12.01 12.355 12.085 12.27C12.015 12.335 11.97 12.39 11.91 12.46Z" fill="#13334C"/>
<path d="M10.9401 14.135C10.8951 14.265 10.8451 14.42 10.8101 14.545C10.8751 14.34 10.9151 14.21 10.9551 14.105C10.9451 14.115 10.9451 14.125 10.9401 14.135Z" fill="#13334C"/>
<path d="M12.98 11.5C12.975 11.505 12.965 11.51 12.96 11.515C12.805 11.625 12.65 11.745 12.52 11.85C12.49 11.875 12.46 11.9 12.425 11.93C12.46 11.9 12.49 11.875 12.52 11.85C12.665 11.735 12.83 11.61 12.98 11.5Z" fill="#13334C"/>
<path d="M13.2601 11.3149L13.2051 11.3499L13.2501 11.3199C13.2551 11.3149 13.2601 11.3149 13.2601 11.3149Z" fill="#13334C"/>
<path d="M10.7 16.9799C10.69 16.9049 10.675 16.8149 10.665 16.7249C10.675 16.8149 10.69 16.9049 10.7 16.9799Z" fill="#13334C"/>
<path d="M11.0151 18.0601C11.0201 18.0751 11.0251 18.0901 11.0301 18.1001C11.0701 18.1901 11.1101 18.2901 11.1651 18.3951C11.0951 18.2401 11.0501 18.1401 11.0151 18.0601Z" fill="#13334C"/>
<path d="M10.7852 17.3499C10.7902 17.3649 10.7902 17.3799 10.7952 17.3899C10.8352 17.5349 10.8702 17.6449 10.8902 17.7049V17.7099C10.8402 17.5449 10.8052 17.4349 10.7852 17.3499Z" fill="#13334C"/>
<path d="M11.75 19.3401C11.765 19.3601 11.775 19.3751 11.785 19.3901C11.845 19.4651 11.905 19.5401 11.985 19.6301C11.88 19.4951 11.805 19.4101 11.75 19.3401Z" fill="#13334C"/>
<path d="M11.3401 18.7249C11.3501 18.7399 11.3551 18.7549 11.3651 18.7699C11.4201 18.8649 11.4701 18.9399 11.5001 18.9849C11.5101 18.9999 11.5251 19.0199 11.5351 19.0399C11.4451 18.8899 11.3851 18.7949 11.3401 18.7249Z" fill="#13334C"/>
<path d="M12.2551 19.9099C12.2701 19.9249 12.2801 19.9349 12.2901 19.9449C12.3701 20.0199 12.4351 20.0799 12.4801 20.1199C12.5001 20.1349 12.5151 20.1499 12.5401 20.1699C12.5401 20.1699 12.5401 20.1699 12.5351 20.1649C12.4101 20.0499 12.3201 19.9699 12.2551 19.9099Z" fill="#13334C"/>
<path d="M13.2001 20.6499C13.0401 20.5399 12.9351 20.4749 12.8601 20.4199C12.8751 20.4299 12.8901 20.4399 12.9001 20.4499C12.9901 20.5099 13.0901 20.5799 13.2001 20.6499Z" fill="#13334C"/>
<path d="M18.83 20.725C18.83 20.725 18.835 20.725 18.835 20.72C18.825 20.725 18.815 20.73 18.805 20.735C18.745 20.77 18.68 20.805 18.615 20.835C18.69 20.8 18.765 20.76 18.83 20.725Z" fill="#13334C"/>
<path d="M15.115 21.3799C15.16 21.3899 15.2 21.3949 15.235 21.4049C15.35 21.4249 15.48 21.4399 15.62 21.4499C15.515 21.4349 15.425 21.4249 15.355 21.4199C15.275 21.4049 15.195 21.3949 15.115 21.3799Z" fill="#13334C"/>
<path d="M14.3501 21.1851C14.3601 21.1901 14.3751 21.1951 14.3851 21.2001C14.5051 21.2401 14.6451 21.2801 14.7601 21.3101C14.7651 21.3101 14.7651 21.3101 14.7701 21.3101C14.7601 21.3101 14.7551 21.3051 14.7451 21.3051C14.5601 21.2501 14.4401 21.2151 14.3501 21.1851Z" fill="#13334C"/>
<path d="M14.96 19.6499C15.065 19.5399 15.175 19.4249 15.285 19.3049C15.175 19.4249 15.065 19.5399 14.96 19.6499Z" fill="#13334C"/>
<path d="M17.885 21.1599C17.895 21.1549 17.91 21.1499 17.92 21.1499C18.02 21.1099 18.135 21.0649 18.23 21.0299C18.26 21.0149 18.295 20.9999 18.33 20.9849C18.335 20.9799 18.345 20.9749 18.355 20.9749C18.34 20.9799 18.325 20.9899 18.315 20.9949C18.11 21.0699 17.985 21.1199 17.885 21.1599Z" fill="#13334C"/>
<path d="M16.1201 21.47C16.2751 21.47 16.3951 21.46 16.4751 21.455C16.4901 21.455 16.5051 21.455 16.5201 21.45C16.3051 21.46 16.1751 21.465 16.0701 21.465C16.0851 21.47 16.1001 21.47 16.1201 21.47Z" fill="#13334C"/>
<path d="M13.6099 20.8799C13.6699 20.9099 13.7349 20.9449 13.7999 20.9749C13.8399 20.9949 13.8849 21.0149 13.9449 21.0399C13.7649 20.9549 13.6499 20.8999 13.5649 20.8599C13.5849 20.8649 13.5999 20.8749 13.6099 20.8799Z" fill="#13334C"/>
<path d="M17.0649 21.375C17.1599 21.36 17.2499 21.34 17.3349 21.32C17.3649 21.315 17.3999 21.305 17.4349 21.295C17.4399 21.295 17.4499 21.29 17.4549 21.29C17.4399 21.295 17.4249 21.3 17.4099 21.3C17.2599 21.335 17.1499 21.36 17.0649 21.375Z" fill="#13334C"/>
<path d="M21.5452 16.1949C21.5452 16.1749 21.5452 16.1599 21.5502 16.1449C21.5552 16.0399 21.5502 15.9199 21.5502 15.8249C21.5502 15.8249 21.5502 15.8249 21.5502 15.8199C21.5502 15.8099 21.5502 15.8049 21.5502 15.7949C21.5452 15.9799 21.5452 16.1049 21.5452 16.1949Z" fill="#13334C"/>
<path d="M21.22 17.87C21.26 17.765 21.3 17.64 21.33 17.535C21.335 17.525 21.335 17.51 21.34 17.5C21.345 17.485 21.345 17.475 21.35 17.46C21.285 17.665 21.245 17.795 21.21 17.895C21.215 17.885 21.215 17.875 21.22 17.87Z" fill="#13334C"/>
<path d="M15.2852 19.2999C15.7802 18.7499 16.3102 18.0499 16.8402 17.2549C16.8402 17.2549 16.8402 17.2549 16.8352 17.2549C16.2902 18.0799 15.7652 18.7649 15.2852 19.2999Z" fill="#13334C"/>
<path d="M19.95 19.8599C20.155 19.6599 20.215 19.5899 20.395 19.3599C20.315 19.4549 20.255 19.5299 20.2 19.5899C20.12 19.6799 20.03 19.7749 19.95 19.8599Z" fill="#13334C"/>
<path d="M18.8401 20.72C18.8451 20.715 18.8551 20.71 18.8601 20.71C18.8451 20.72 18.8251 20.73 18.8101 20.74C18.8151 20.73 18.8301 20.725 18.8401 20.72Z" fill="#13334C"/>
<path d="M21.4552 17.0199C21.4752 16.9049 21.5002 16.7649 21.5152 16.6549V16.6499C21.5152 16.6399 21.5202 16.6249 21.5202 16.6099C21.4902 16.8049 21.4702 16.9349 21.4552 17.0299C21.4502 17.0299 21.4502 17.0249 21.4552 17.0199Z" fill="#13334C"/>
<path d="M20.9701 18.44C20.9751 18.43 20.9801 18.425 20.9801 18.415C20.9201 18.535 20.8701 18.63 20.8201 18.715C20.8651 18.635 20.9151 18.55 20.9701 18.44Z" fill="#13334C"/>
<path d="M19.735 20.0701C19.585 20.1901 19.485 20.2751 19.405 20.3401C19.515 20.2551 19.64 20.1551 19.735 20.0701Z" fill="#13334C"/>
<path d="M21.1351 13.91C21.1051 13.845 21.0751 13.765 21.0401 13.695C21.0251 13.665 21.0101 13.635 20.9951 13.595C21.0651 13.755 21.1101 13.855 21.1451 13.935C21.1401 13.93 21.1351 13.92 21.1351 13.91Z" fill="#13334C"/>
<path d="M21.365 14.5949C21.34 14.4949 21.31 14.3999 21.28 14.3149C21.275 14.3049 21.275 14.2949 21.27 14.2849C21.32 14.4549 21.35 14.5649 21.375 14.6449C21.375 14.6299 21.37 14.6099 21.365 14.5949Z" fill="#13334C"/>
<path d="M19.905 12.09C19.895 12.08 19.88 12.065 19.87 12.055C19.795 11.98 19.71 11.905 19.615 11.825C19.615 11.825 19.615 11.825 19.62 11.83C19.755 11.95 19.84 12.03 19.905 12.09Z" fill="#13334C"/>
<path d="M19.2551 11.5499C19.1701 11.4899 19.0701 11.4199 18.9551 11.3499C19.0851 11.4399 19.2451 11.5449 19.3951 11.6549C19.3401 11.6099 19.2951 11.5799 19.2551 11.5499Z" fill="#13334C"/>
<path d="M16.8401 17.255C17.0851 16.89 17.3251 16.5 17.5651 16.095C17.3201 16.505 17.0751 16.895 16.8401 17.255Z" fill="#13334C"/>
<path d="M21.46 15.02C21.47 15.095 21.485 15.185 21.495 15.275C21.485 15.185 21.475 15.095 21.46 15.02Z" fill="#13334C"/>
<path d="M20.38 12.6249C20.315 12.5399 20.23 12.4449 20.165 12.3699C20.28 12.5049 20.35 12.5949 20.405 12.6599C20.4 12.6449 20.39 12.6349 20.38 12.6249Z" fill="#13334C"/>
<path d="M13.355 11.2649C13.345 11.2699 13.33 11.2749 13.32 11.2849C13.3 11.2949 13.28 11.3049 13.26 11.3149C13.29 11.2949 13.325 11.2799 13.355 11.2649Z" fill="#13334C"/>
<path d="M21.9901 15.805V15.775C21.9901 15.77 21.9901 15.765 21.9901 15.76L21.9751 15.545V15.54C21.9751 15.515 21.9701 15.49 21.9701 15.47L21.9651 15.44C21.9651 15.435 21.9651 15.435 21.9651 15.43C21.9601 15.365 21.9501 15.295 21.9351 15.21C21.9201 15.105 21.9101 15.02 21.8951 14.95V14.945C21.8951 14.945 21.8951 14.945 21.8951 14.94V14.935L21.8901 14.91C21.8701 14.8 21.8451 14.695 21.8201 14.585C21.8201 14.58 21.8201 14.58 21.8201 14.575C21.8151 14.565 21.8151 14.55 21.8101 14.535C21.8051 14.52 21.8001 14.505 21.8001 14.49C21.8001 14.485 21.8001 14.485 21.8001 14.48C21.7751 14.38 21.7451 14.275 21.7101 14.175L21.7001 14.145L21.6901 14.11C21.6501 13.99 21.6151 13.895 21.5901 13.84C21.5901 13.835 21.5901 13.835 21.5851 13.83C21.5751 13.81 21.5701 13.79 21.5601 13.77L21.5501 13.75C21.5501 13.745 21.5451 13.74 21.5451 13.735L21.5201 13.68C21.5001 13.63 21.4751 13.57 21.4501 13.515C21.4501 13.51 21.4501 13.51 21.4451 13.505C21.4351 13.48 21.4201 13.45 21.4051 13.42L21.4001 13.405C21.3651 13.33 21.3151 13.24 21.2751 13.165C21.2601 13.14 21.2451 13.11 21.2301 13.085C21.2251 13.08 21.2251 13.075 21.2201 13.065C21.1751 12.99 21.1151 12.89 21.0151 12.73L21.0101 12.725C21.0101 12.725 21.0101 12.72 21.0051 12.72C21.0051 12.72 21.0051 12.715 21.0001 12.715C20.9651 12.665 20.9401 12.625 20.9151 12.585C20.9151 12.585 20.9151 12.58 20.9101 12.58C20.8801 12.535 20.8451 12.49 20.8001 12.435L20.7951 12.43C20.7851 12.415 20.7751 12.405 20.7601 12.39C20.7501 12.38 20.7451 12.37 20.7401 12.36C20.7351 12.355 20.7351 12.355 20.7301 12.35C20.6701 12.275 20.6051 12.195 20.5451 12.125L20.5101 12.085C20.5101 12.085 20.5101 12.08 20.5051 12.08C20.5051 12.08 20.5051 12.08 20.5001 12.075C20.4801 12.055 20.4651 12.035 20.4451 12.015C20.4451 12.015 20.4451 12.015 20.4401 12.01C20.4001 11.965 20.3351 11.9 20.2501 11.815L20.2451 11.81C20.2351 11.8 20.2201 11.785 20.2101 11.775C20.2001 11.765 20.1901 11.755 20.1801 11.745L20.1751 11.74C20.0801 11.65 19.9901 11.565 19.9001 11.49C19.9001 11.49 19.9001 11.49 19.8951 11.49L19.8901 11.485C19.8901 11.485 19.8901 11.485 19.8851 11.48C19.8201 11.425 19.7501 11.37 19.6651 11.305C19.6051 11.26 19.5601 11.225 19.5201 11.195C19.5151 11.195 19.5151 11.19 19.5101 11.19C19.4051 11.115 19.3001 11.045 19.1901 10.975C19.0851 10.91 18.9501 10.835 18.8401 10.775C18.8351 10.775 18.8351 10.77 18.8301 10.77C18.8201 10.765 18.8051 10.76 18.7951 10.75C18.7851 10.745 18.7751 10.74 18.7651 10.735C18.7601 10.735 18.7601 10.73 18.7551 10.73C18.6401 10.67 18.4951 10.605 18.3851 10.56L18.3451 10.54C18.3401 10.54 18.3351 10.535 18.3301 10.535C18.2951 10.525 18.2601 10.51 18.2251 10.495C18.1701 10.475 18.1201 10.455 18.0751 10.44C18.0701 10.44 18.0701 10.435 18.0651 10.435C17.8851 10.37 17.6951 10.315 17.5701 10.28C17.5651 10.28 17.5601 10.275 17.5551 10.275L17.5101 10.265C17.5101 10.265 17.5101 10.265 17.5051 10.265C17.3151 10.22 17.2151 10.195 17.0401 10.17C17.0301 10.17 17.0201 10.165 17.0101 10.165C17.0051 10.165 17.0001 10.165 17.0001 10.165C16.9251 10.155 16.8451 10.145 16.7651 10.135C16.7251 10.13 16.6901 10.125 16.6551 10.12C16.6501 10.12 16.6451 10.12 16.6401 10.12L16.5751 10.115C16.5751 10.115 16.5751 10.115 16.5701 10.115C16.5401 10.115 16.5151 10.11 16.4901 10.11C16.4851 10.11 16.4801 10.11 16.4751 10.11C16.4301 10.11 16.3801 10.105 16.3301 10.105C16.2151 10.1 16.1401 10.1 16.0751 10.095C16.0701 10.095 16.0651 10.095 16.0651 10.095C15.9151 10.095 15.7401 10.105 15.6101 10.115H15.6051C15.5001 10.125 15.4251 10.13 15.3551 10.14H15.3501C15.2951 10.15 15.2351 10.155 15.1751 10.165H15.1701C15.1501 10.17 15.1301 10.17 15.1101 10.175C14.9401 10.2 14.8251 10.225 14.6251 10.275H14.6201C14.5801 10.285 14.5401 10.295 14.5051 10.305C14.5001 10.305 14.5001 10.305 14.4951 10.31L14.4501 10.325C14.3851 10.345 14.3051 10.365 14.2301 10.39C14.2251 10.39 14.2251 10.39 14.2201 10.395C14.1651 10.415 14.1051 10.435 14.0301 10.465C13.9351 10.5 13.8501 10.53 13.7751 10.565H13.7701C13.7451 10.575 13.7151 10.59 13.6851 10.6H13.6801L13.6601 10.61L13.6451 10.615C13.6401 10.615 13.6351 10.62 13.6351 10.62C13.5551 10.66 13.1751 10.855 13.1051 10.895C13.1001 10.9 13.0951 10.9 13.0901 10.905C13.0901 10.905 13.0901 10.905 13.0851 10.905C13.0701 10.915 13.0551 10.925 13.0351 10.935L13.0301 10.94H13.0251L12.9801 10.97C12.9801 10.97 12.9751 10.97 12.9751 10.975C12.9351 11 12.9001 11.02 12.8701 11.04C12.8651 11.045 12.8601 11.045 12.8551 11.05C12.8151 11.08 12.7101 11.15 12.7101 11.15L12.7051 11.155C12.5601 11.26 12.3951 11.385 12.2451 11.505C12.2401 11.51 12.2401 11.51 12.2351 11.515C12.2051 11.54 12.1751 11.565 12.1401 11.6L12.1351 11.605C12.0951 11.64 12.0651 11.67 12.0351 11.7L12.0301 11.705C11.9751 11.76 11.8851 11.845 11.7851 11.95L11.7801 11.955L11.7651 11.975C11.7001 12.045 11.6401 12.105 11.5801 12.18L11.5501 12.215C11.5351 12.23 11.5251 12.245 11.5101 12.26L11.5051 12.265C11.4901 12.28 11.4801 12.3 11.4651 12.315L11.4201 12.37C11.4201 12.37 11.4201 12.375 11.4151 12.375C11.4101 12.38 11.4101 12.38 11.4051 12.385C11.3751 12.425 11.3451 12.465 11.3201 12.505C11.3201 12.505 11.3201 12.505 11.3201 12.51C11.3051 12.53 11.2901 12.555 11.2751 12.575C11.1751 12.715 11.0951 12.83 11.0151 12.97L11.0101 12.975C11.0101 12.98 11.0051 12.98 11.0051 12.985C10.9901 13.015 10.9701 13.04 10.9551 13.07C10.8951 13.175 10.8301 13.3 10.7401 13.48C10.7401 13.485 10.7351 13.49 10.7351 13.495C10.6501 13.68 10.6001 13.79 10.5451 13.955L10.5351 13.98C10.5351 13.985 10.5301 13.985 10.5301 13.99C10.4801 14.135 10.4251 14.3 10.3901 14.43C10.3901 14.43 10.3901 14.43 10.3901 14.435C10.3651 14.52 10.3351 14.65 10.3051 14.78V14.785C10.3001 14.815 10.2901 14.85 10.2851 14.89C10.2851 14.89 10.2851 14.89 10.2851 14.895C10.2601 15.04 10.2351 15.175 10.2201 15.3V15.305C10.2201 15.305 10.2201 15.305 10.2201 15.31C10.2201 15.32 10.2151 15.335 10.2151 15.345C10.2151 15.35 10.2151 15.35 10.2151 15.355C10.2001 15.47 10.1901 15.62 10.1851 15.75C10.1851 15.755 10.1851 15.755 10.1851 15.76C10.1851 15.77 10.1851 15.78 10.1851 15.795C10.1851 15.81 10.1851 15.82 10.1851 15.83C10.1851 15.835 10.1851 15.84 10.1851 15.84C10.1851 15.92 10.1851 16.01 10.1851 16.09C10.1851 16.125 10.1851 16.155 10.1851 16.185C10.1851 16.19 10.1851 16.195 10.1851 16.2V16.23C10.1851 16.23 10.1851 16.23 10.1851 16.235C10.1851 16.24 10.1851 16.24 10.1851 16.245L10.2001 16.48V16.505V16.51C10.2001 16.52 10.2001 16.525 10.2051 16.535C10.2051 16.54 10.2051 16.54 10.2051 16.545C10.2101 16.615 10.2201 16.69 10.2351 16.785C10.2501 16.895 10.2601 16.985 10.2751 17.055V17.06C10.2951 17.175 10.3201 17.295 10.3501 17.405C10.3501 17.41 10.3501 17.41 10.3501 17.415C10.3551 17.43 10.3601 17.445 10.3601 17.46C10.3651 17.47 10.3651 17.485 10.3701 17.495C10.3701 17.5 10.3701 17.5 10.3701 17.505C10.4101 17.665 10.4501 17.785 10.4701 17.84V17.845V17.85C10.5051 17.96 10.5451 18.07 10.5901 18.175C10.5901 18.18 10.5901 18.18 10.5951 18.185C10.6001 18.2 10.6051 18.21 10.6101 18.225C10.6151 18.235 10.6201 18.25 10.6251 18.26C10.6251 18.265 10.6251 18.265 10.6301 18.27C10.6751 18.38 10.7251 18.485 10.7751 18.59C10.7751 18.59 10.7751 18.59 10.7751 18.595V18.6C10.8251 18.7 10.8751 18.8 10.9301 18.895C10.9301 18.9 10.9351 18.9 10.9351 18.905C10.9451 18.92 10.9501 18.935 10.9601 18.945C10.9701 18.96 10.9751 18.975 10.9801 18.985C10.9801 18.99 10.9851 18.99 10.9851 18.995C11.0451 19.1 11.0951 19.18 11.1301 19.23C11.1301 19.23 11.1301 19.23 11.1301 19.235L11.1651 19.29C11.1651 19.29 11.1651 19.295 11.1701 19.295C11.2351 19.39 11.3001 19.48 11.3701 19.58C11.3701 19.585 11.3751 19.585 11.3751 19.59C11.3851 19.6 11.3901 19.61 11.4001 19.62C11.4101 19.635 11.4251 19.655 11.4351 19.665L11.4401 19.67C11.5101 19.755 11.5801 19.84 11.6601 19.93C11.7601 20.04 11.8451 20.13 11.9051 20.185L11.9101 20.19C11.9201 20.2 11.9351 20.21 11.9451 20.225C11.9551 20.235 11.9701 20.25 11.9801 20.26L11.9851 20.265C12.0551 20.335 12.1301 20.4 12.1951 20.455C12.1951 20.455 12.1951 20.455 12.2001 20.455C12.2201 20.47 12.2401 20.485 12.2601 20.505C12.2601 20.505 12.2601 20.505 12.2651 20.505L12.2701 20.51L12.2751 20.515C12.3601 20.585 12.4651 20.665 12.5551 20.735L12.5751 20.75C12.5801 20.755 12.5851 20.755 12.5901 20.76L12.6051 20.77C12.6151 20.78 12.6301 20.79 12.6401 20.795L12.6451 20.8C12.7501 20.875 12.8601 20.95 12.9701 21.015L12.9901 21.03C12.9901 21.03 12.9951 21.03 12.9951 21.035C13.0751 21.085 13.1751 21.14 13.2601 21.185C13.2851 21.2 13.3151 21.215 13.3401 21.23C13.3451 21.235 13.3501 21.235 13.3601 21.24L13.3651 21.245C13.3801 21.25 13.3901 21.26 13.4051 21.265L13.4101 21.27C13.4851 21.31 13.5551 21.34 13.6151 21.37C13.6151 21.37 13.6201 21.37 13.6201 21.375C13.6651 21.395 13.7101 21.415 13.7701 21.44L13.8101 21.46C13.8151 21.46 13.8151 21.465 13.8201 21.465L13.8701 21.485C13.9601 21.52 14.0601 21.56 14.1501 21.59C14.1551 21.59 14.1601 21.595 14.1601 21.595C14.1701 21.6 14.1851 21.6 14.1951 21.605C14.2051 21.61 14.2151 21.61 14.2251 21.615C14.2301 21.615 14.2301 21.615 14.2351 21.62C14.3751 21.665 14.5251 21.71 14.6401 21.735C14.6451 21.735 14.6501 21.735 14.6551 21.74C14.6701 21.745 14.6801 21.745 14.6951 21.75L14.7101 21.755C14.8001 21.775 14.9051 21.8 15.0251 21.815C15.0701 21.825 15.1101 21.83 15.1501 21.84C15.1551 21.84 15.1551 21.84 15.1601 21.84C15.2951 21.86 15.4301 21.875 15.5601 21.89C15.5651 21.89 15.5701 21.89 15.5751 21.89C15.6551 21.895 15.7201 21.9 15.7801 21.905H15.7851C15.8551 21.91 15.9351 21.91 16.0201 21.91H16.0251H16.0301C16.0401 21.91 16.0501 21.91 16.0601 21.91C16.0751 21.91 16.0901 21.91 16.1051 21.91H16.1101H16.1151C16.2851 21.91 16.4151 21.9 16.5001 21.895L16.5451 21.89H16.5501C16.6651 21.88 16.7601 21.87 16.8501 21.86H16.8551C16.8901 21.855 16.9301 21.85 16.9651 21.845C16.9651 21.845 16.9651 21.845 16.9701 21.845C17.0201 21.835 17.0801 21.825 17.1451 21.81C17.2401 21.79 17.3351 21.775 17.4251 21.755C17.4301 21.755 17.4301 21.755 17.4351 21.755C17.4651 21.75 17.5001 21.74 17.5351 21.73C17.5401 21.73 17.5501 21.725 17.5551 21.725L17.5701 21.72C17.5851 21.715 17.6051 21.71 17.6201 21.71C17.6201 21.71 17.6201 21.71 17.6251 21.71C17.6551 21.7 17.6801 21.695 17.7101 21.685H17.7151C17.8151 21.655 17.9251 21.62 18.0251 21.585C18.0301 21.585 18.0301 21.585 18.0351 21.58C18.0451 21.575 18.0551 21.575 18.0651 21.57C18.0701 21.57 18.0751 21.565 18.0751 21.565C18.1451 21.54 18.2151 21.51 18.2801 21.485C18.3151 21.47 18.3551 21.455 18.3851 21.445C18.3901 21.445 18.3951 21.44 18.4001 21.44C18.4301 21.425 18.4651 21.41 18.5051 21.395C18.5101 21.39 18.5201 21.39 18.5251 21.385L18.5451 21.375L18.5551 21.37C18.5551 21.37 18.5601 21.37 18.5601 21.365C18.6351 21.33 18.7251 21.285 18.8201 21.23C18.9051 21.185 18.9801 21.145 19.0451 21.11C19.0501 21.11 19.0551 21.105 19.0551 21.105L19.0701 21.095L19.1051 21.075C19.1101 21.07 19.1151 21.07 19.1201 21.065L19.1751 21.03L19.1801 21.025C19.2201 21 19.2551 20.98 19.2851 20.96C19.2901 20.955 19.2951 20.955 19.3001 20.95C19.3301 20.93 19.3651 20.905 19.4001 20.88C19.4601 20.84 19.5151 20.8 19.5751 20.76C19.5801 20.76 19.5801 20.755 19.5851 20.755C19.6101 20.735 19.6351 20.715 19.6651 20.69C19.7601 20.615 19.9001 20.5 20.0151 20.405L20.0201 20.4C20.0551 20.37 20.0801 20.345 20.1101 20.32C20.1151 20.315 20.1151 20.315 20.1201 20.31C20.1601 20.27 20.2051 20.225 20.2501 20.18C20.4701 19.965 20.5401 19.88 20.7301 19.645C20.7301 19.645 20.7301 19.64 20.7351 19.64C20.7401 19.635 20.7401 19.635 20.7451 19.63C20.9751 19.315 21.0851 19.145 21.2001 18.94C21.2451 18.86 21.2951 18.765 21.3551 18.65C21.3551 18.645 21.3601 18.645 21.3601 18.64L21.3701 18.62L21.4151 18.53C21.4201 18.525 21.4201 18.52 21.4251 18.51C21.4851 18.385 21.5501 18.225 21.6051 18.085C21.6051 18.08 21.6101 18.08 21.6101 18.075L21.6201 18.05L21.6251 18.03C21.6251 18.025 21.6301 18.02 21.6301 18.02C21.6651 17.92 21.7151 17.78 21.7501 17.66L21.7701 17.585C21.7701 17.58 21.7701 17.575 21.7751 17.575C21.8101 17.455 21.8451 17.295 21.8751 17.155C21.8751 17.15 21.8751 17.15 21.8751 17.145L21.8801 17.12C21.8801 17.115 21.8851 17.105 21.8851 17.1C21.8901 17.075 21.8951 17.05 21.9001 17.02C21.9151 16.92 21.9351 16.81 21.9501 16.71V16.705C21.9501 16.705 21.9501 16.705 21.9501 16.7L21.9551 16.665C21.9551 16.66 21.9551 16.655 21.9551 16.65C21.9701 16.535 21.9801 16.385 21.9851 16.255C21.9851 16.25 21.9851 16.25 21.9851 16.245C21.9851 16.235 21.9851 16.225 21.9851 16.21C21.9851 16.195 21.9851 16.18 21.9851 16.165C21.9851 16.16 21.9851 16.16 21.9851 16.155C21.9951 16.04 21.9951 15.91 21.9901 15.805ZM19.4251 13.045C19.4351 13.015 19.4401 12.985 19.4501 12.955C19.4601 12.925 19.4651 12.89 19.4751 12.86C19.4851 12.83 19.4901 12.8 19.4951 12.77C19.5001 12.74 19.5101 12.71 19.5151 12.68C19.5201 12.65 19.5251 12.625 19.5351 12.595C19.5401 12.565 19.5451 12.535 19.5501 12.505C19.5551 12.48 19.5601 12.45 19.5651 12.425C19.5651 12.415 19.5701 12.4 19.5701 12.385C19.5751 12.39 19.5801 12.395 19.5851 12.4C19.5901 12.405 19.5901 12.405 19.5951 12.41C19.6051 12.42 19.6201 12.43 19.6301 12.44C19.7001 12.51 19.7501 12.565 19.7851 12.6C19.8001 12.615 19.8151 12.63 19.8301 12.65C19.8351 12.655 19.8351 12.66 19.8401 12.665C19.9151 12.755 19.9701 12.825 20.0151 12.88C20.0301 12.9 20.0451 12.915 20.0601 12.935C20.0701 12.95 20.0801 12.96 20.0901 12.975C20.1251 13.02 20.1501 13.055 20.1751 13.09C20.1951 13.12 20.2201 13.155 20.2451 13.195C20.3401 13.345 20.3951 13.44 20.4351 13.51C20.4501 13.535 20.4601 13.56 20.4751 13.585C20.5151 13.655 20.5551 13.73 20.5801 13.785C20.6501 13.94 20.6951 14.04 20.7251 14.11C20.7351 14.13 20.7401 14.15 20.7501 14.165C20.7701 14.215 20.8001 14.29 20.8301 14.39L20.8401 14.415C20.8451 14.43 20.8501 14.445 20.8551 14.46C20.8601 14.475 20.8651 14.49 20.8701 14.505C20.8601 14.5 20.8501 14.5 20.8401 14.495C20.8301 14.49 20.8201 14.49 20.8051 14.485C20.7851 14.48 20.7651 14.475 20.7501 14.47C20.7401 14.465 20.7301 14.465 20.7201 14.46C20.6951 14.455 20.6701 14.445 20.6401 14.44C20.6351 14.44 20.6301 14.44 20.6251 14.435C20.5951 14.425 20.5651 14.42 20.5301 14.41C20.5201 14.41 20.5101 14.405 20.5001 14.405C20.4801 14.4 20.4551 14.395 20.4351 14.39C20.4201 14.385 20.4101 14.385 20.3951 14.38C20.3751 14.375 20.3551 14.37 20.3351 14.365C20.3201 14.36 20.3051 14.36 20.2951 14.355C20.2751 14.35 20.2551 14.345 20.2301 14.345C20.2151 14.34 20.2001 14.34 20.1901 14.335C20.1851 14.335 20.1801 14.335 20.1701 14.33C20.1651 14.315 20.1651 14.3 20.1601 14.29C20.1551 14.28 20.1551 14.27 20.1501 14.26C20.1401 14.22 20.1301 14.185 20.1151 14.145C20.1151 14.14 20.1101 14.135 20.1101 14.125C20.1001 14.09 20.0851 14.06 20.0751 14.025C20.0701 14.015 20.0651 14.005 20.0651 13.995C20.0501 13.96 20.0351 13.92 20.0151 13.885C20.0151 13.88 20.0101 13.875 20.0101 13.875C19.9951 13.84 19.9801 13.81 19.9601 13.78C19.9551 13.77 19.9501 13.76 19.9451 13.75C19.9251 13.715 19.9051 13.68 19.8851 13.645C19.8851 13.645 19.8851 13.645 19.8851 13.64C19.8651 13.605 19.8451 13.575 19.8201 13.54C19.8151 13.53 19.8101 13.52 19.8001 13.515C19.7801 13.485 19.7551 13.455 19.7351 13.425C19.7351 13.42 19.7301 13.42 19.7301 13.415C19.7051 13.385 19.6801 13.355 19.6551 13.325C19.6501 13.315 19.6401 13.31 19.6351 13.3C19.6101 13.275 19.5901 13.25 19.5651 13.225C19.5601 13.22 19.5551 13.215 19.5501 13.21C19.5201 13.18 19.4901 13.155 19.4601 13.125C19.4551 13.12 19.4451 13.11 19.4401 13.105C19.4301 13.095 19.4201 13.085 19.4101 13.075C19.4151 13.075 19.4201 13.06 19.4251 13.045ZM19.3501 14.76C19.3551 14.815 19.3551 14.87 19.3551 14.92C19.3551 14.975 19.3501 15.025 19.3401 15.075C19.3351 15.105 19.3301 15.135 19.3201 15.165C19.3051 15.235 19.2801 15.3 19.2501 15.365C19.2401 15.39 19.2251 15.415 19.2101 15.44C19.1301 15.58 19.0251 15.69 18.8951 15.77C18.6751 15.9 18.4101 15.935 18.1501 15.865C18.0851 15.85 18.0151 15.825 17.9501 15.795C17.9451 15.795 17.9401 15.79 17.9351 15.79C17.9251 15.785 17.9151 15.78 17.9051 15.775C17.8901 15.77 17.8751 15.76 17.8651 15.755H17.8601C17.8401 15.745 17.8151 15.73 17.7951 15.715C17.7201 15.67 17.6501 15.615 17.5901 15.56C17.3151 15.31 17.1351 14.96 17.1051 14.59C17.0851 14.375 17.1201 14.16 17.2051 13.98C17.2251 13.935 17.2501 13.895 17.2751 13.855C17.2901 13.835 17.3001 13.815 17.3151 13.8C17.3851 13.71 17.4651 13.635 17.5651 13.575C17.5851 13.565 17.6051 13.555 17.6251 13.545C17.6301 13.54 17.6401 13.54 17.6451 13.535C17.6601 13.53 17.6701 13.52 17.6851 13.515C17.6951 13.51 17.7001 13.51 17.7101 13.505C17.7251 13.5 17.7351 13.495 17.7501 13.49C17.7601 13.485 17.7651 13.485 17.7751 13.48C17.7901 13.475 17.8001 13.47 17.8151 13.47C17.8251 13.47 17.8301 13.465 17.8401 13.465C17.8551 13.46 17.8651 13.46 17.8801 13.455C17.8901 13.455 17.9001 13.45 17.9051 13.45C17.9201 13.45 17.9301 13.445 17.9451 13.445C17.9551 13.445 17.9651 13.445 17.9701 13.44C17.9851 13.44 17.9951 13.44 18.0101 13.44C18.0201 13.44 18.0251 13.44 18.0351 13.44C18.0451 13.44 18.0551 13.44 18.0701 13.44C18.0851 13.44 18.1001 13.44 18.1101 13.44C18.1201 13.44 18.1301 13.44 18.1451 13.445C18.1601 13.445 18.1751 13.45 18.1851 13.45C18.1951 13.45 18.2051 13.455 18.2201 13.455C18.2351 13.455 18.2501 13.46 18.2601 13.465C18.2701 13.465 18.2801 13.47 18.2951 13.47C18.3101 13.475 18.3251 13.475 18.3401 13.48C18.3501 13.485 18.3601 13.485 18.3701 13.49C18.3851 13.495 18.4001 13.5 18.4151 13.505C18.4251 13.51 18.4351 13.51 18.4451 13.515C18.4601 13.52 18.4751 13.525 18.4901 13.535C18.5001 13.54 18.5101 13.545 18.5201 13.55C18.5351 13.56 18.5551 13.565 18.5701 13.575C18.5801 13.58 18.5851 13.585 18.5951 13.59C18.6201 13.605 18.6451 13.615 18.6651 13.63C18.8001 13.715 18.9151 13.82 19.0201 13.94C19.0401 13.965 19.0601 13.99 19.0801 14.015C19.0951 14.035 19.1051 14.05 19.1201 14.07C19.2451 14.28 19.3301 14.515 19.3501 14.76ZM11.1201 15.215C11.1201 15.2 11.1251 15.185 11.1251 15.17C11.1251 15.165 11.1251 15.165 11.1251 15.16C11.1251 15.15 11.1301 15.135 11.1301 15.125C11.1301 15.12 11.1301 15.12 11.1301 15.115C11.1301 15.105 11.1351 15.09 11.1351 15.08V15.075C11.1351 15.06 11.1401 15.05 11.1401 15.04C11.1451 15.01 11.1501 14.98 11.1551 14.955C11.1751 14.85 11.2051 14.745 11.2251 14.67C11.2351 14.63 11.2501 14.595 11.2601 14.565C11.2651 14.555 11.2651 14.55 11.2701 14.54C11.2701 14.535 11.2701 14.535 11.2751 14.53C11.3151 14.41 11.3401 14.325 11.3651 14.255C11.4101 14.13 11.4401 14.055 11.5251 13.875C11.5401 13.85 11.5551 13.82 11.5651 13.795C11.5701 13.785 11.5751 13.775 11.5801 13.765C11.5851 13.76 11.5851 13.755 11.5901 13.75C11.5951 13.74 11.6001 13.73 11.6051 13.72C11.6101 13.71 11.6151 13.705 11.6201 13.695C11.6251 13.69 11.6301 13.68 11.6301 13.675C11.6351 13.665 11.6401 13.66 11.6451 13.65C11.6501 13.645 11.6501 13.635 11.6551 13.63C11.6801 13.585 11.7001 13.545 11.7201 13.51C11.7351 13.49 11.7451 13.465 11.7601 13.445C11.8201 13.35 11.8851 13.245 11.9501 13.155C11.9651 13.13 11.9851 13.105 12.0001 13.08C12.0151 13.06 12.0251 13.04 12.0401 13.025C12.0601 12.995 12.0851 12.96 12.1101 12.925C12.1401 12.89 12.1651 12.86 12.1901 12.83C12.1901 12.83 12.1951 12.825 12.1951 12.82C12.2051 12.81 12.2151 12.795 12.2251 12.785C12.2301 12.78 12.2351 12.775 12.2401 12.77C12.2451 12.76 12.2551 12.755 12.2601 12.745C12.2651 12.74 12.2701 12.73 12.2801 12.725C12.2851 12.72 12.2901 12.71 12.3001 12.705C12.3051 12.7 12.3101 12.69 12.3151 12.685C12.3251 12.675 12.3351 12.665 12.3401 12.655L12.3451 12.65C12.3651 12.625 12.3851 12.605 12.4051 12.585L12.4201 12.57C12.5051 12.48 12.5801 12.41 12.6301 12.36C12.6551 12.335 12.6851 12.31 12.7151 12.28L12.7401 12.26L12.8001 12.21C12.9001 12.13 13.0101 12.045 13.1151 11.965C13.1201 11.96 13.1251 11.96 13.1301 11.955C13.1651 11.93 13.2001 11.905 13.2351 11.88C13.2751 11.855 13.3101 11.825 13.3451 11.8C13.3751 11.78 13.4001 11.765 13.4351 11.745L13.4801 11.715L13.4851 11.71C13.5001 11.7 13.5101 11.695 13.5251 11.69C13.5301 11.685 13.5401 11.68 13.5501 11.68C13.5701 11.67 13.5901 11.66 13.6151 11.65C13.6301 11.645 13.6451 11.64 13.6601 11.635C13.6801 11.63 13.7001 11.62 13.7201 11.615C13.7301 11.61 13.7451 11.61 13.7551 11.605C13.7651 11.6 13.7801 11.6 13.7951 11.6C13.8101 11.6 13.8201 11.595 13.8351 11.595C13.8601 11.59 13.8901 11.59 13.9151 11.585C13.9251 11.585 13.9301 11.585 13.9401 11.585C13.9601 11.585 13.9801 11.585 14.0001 11.585C14.0601 11.585 14.1201 11.59 14.1851 11.595C14.1901 11.595 14.1951 11.595 14.1951 11.595C14.2251 11.6 14.2501 11.605 14.2801 11.61C14.3151 11.615 14.3501 11.625 14.3801 11.63C14.3901 11.63 14.4001 11.635 14.4101 11.635C14.4351 11.64 14.4601 11.65 14.4901 11.655C14.5451 11.67 14.6001 11.69 14.6551 11.71C14.7101 11.73 14.7701 11.755 14.8251 11.775C14.8351 11.78 14.8451 11.785 14.8551 11.79C14.8751 11.8 14.8951 11.81 14.9151 11.82C14.9451 11.835 14.9701 11.845 15.0001 11.86C15.0401 11.88 15.0751 11.9 15.1151 11.92C15.1251 11.925 15.1401 11.935 15.1501 11.94C15.1751 11.955 15.2001 11.97 15.2301 11.985C15.2451 11.995 15.2601 12 15.2751 12.01C15.3001 12.025 15.3251 12.04 15.3501 12.055C15.3651 12.065 15.3801 12.075 15.3951 12.08C15.4201 12.095 15.4451 12.115 15.4701 12.13C15.4851 12.14 15.4951 12.15 15.5101 12.155C15.5401 12.175 15.5701 12.195 15.6001 12.215C15.6101 12.22 15.6201 12.23 15.6301 12.235C15.6701 12.265 15.7101 12.29 15.7451 12.32C15.7551 12.325 15.7651 12.335 15.7701 12.34C15.8001 12.365 15.8301 12.385 15.8601 12.41C15.8751 12.42 15.8901 12.43 15.9001 12.445C15.9251 12.465 15.9501 12.485 15.9751 12.505C15.9901 12.515 16.0051 12.53 16.0201 12.54C16.0451 12.56 16.0701 12.58 16.0951 12.605C16.1101 12.62 16.1251 12.63 16.1401 12.645C16.1651 12.67 16.1951 12.69 16.2201 12.715C16.2351 12.725 16.2451 12.74 16.2601 12.75C16.3001 12.785 16.3351 12.82 16.3751 12.86C16.4151 12.895 16.4501 12.935 16.4901 12.975C16.5001 12.985 16.5151 13 16.5251 13.01C16.5501 13.035 16.5801 13.065 16.6051 13.09C16.6201 13.105 16.6351 13.12 16.6501 13.135C16.6651 13.15 16.6751 13.165 16.6901 13.175C16.6701 13.2 16.6501 13.22 16.6301 13.245C16.6201 13.255 16.6101 13.265 16.6051 13.275C16.5851 13.3 16.5651 13.33 16.5451 13.355C16.5401 13.365 16.5301 13.375 16.5251 13.385C16.5051 13.415 16.4901 13.445 16.4701 13.475C16.4651 13.485 16.4601 13.49 16.4551 13.5C16.4351 13.535 16.4201 13.57 16.4001 13.605C16.3951 13.61 16.3951 13.615 16.3901 13.625C16.3751 13.66 16.3551 13.7 16.3401 13.735C16.3351 13.74 16.3351 13.75 16.3301 13.755C16.3151 13.79 16.3051 13.83 16.2901 13.865C16.2901 13.87 16.2851 13.88 16.2851 13.885C16.2751 13.925 16.2651 13.96 16.2551 14C16.2551 14.005 16.2551 14.005 16.2551 14.01C16.2451 14.05 16.2401 14.085 16.2301 14.125C16.2301 14.13 16.2301 14.135 16.2251 14.14C16.2201 14.17 16.2151 14.2 16.2101 14.23C16.2001 14.23 16.1951 14.23 16.1851 14.23C16.1651 14.23 16.1401 14.235 16.1201 14.235C16.0701 14.24 16.0251 14.245 15.9751 14.245C15.9501 14.245 15.9251 14.25 15.9001 14.25C15.8551 14.255 15.8101 14.26 15.7651 14.26C15.7401 14.26 15.7101 14.265 15.6851 14.27C15.6401 14.275 15.5951 14.28 15.5501 14.285C15.5251 14.29 15.5001 14.29 15.4751 14.295C15.4301 14.3 15.3851 14.305 15.3401 14.31C15.3151 14.315 15.2901 14.315 15.2701 14.32C15.2201 14.325 15.1701 14.33 15.1201 14.34C15.1001 14.34 15.0851 14.345 15.0651 14.345C14.9301 14.36 14.7901 14.38 14.6551 14.4C14.6351 14.405 14.6151 14.405 14.6001 14.41C14.5501 14.415 14.5051 14.425 14.4551 14.43C14.4301 14.435 14.4101 14.435 14.3851 14.44C14.3401 14.445 14.3001 14.455 14.2551 14.46C14.2301 14.465 14.2051 14.47 14.1851 14.47C14.1451 14.475 14.1001 14.485 14.0601 14.49C14.0351 14.495 14.0101 14.5 13.9901 14.505C13.9501 14.51 13.9101 14.52 13.8651 14.53C13.8401 14.535 13.8201 14.54 13.7951 14.545C13.7501 14.555 13.7101 14.56 13.6651 14.57C13.6451 14.575 13.6251 14.575 13.6101 14.58C13.5551 14.59 13.5001 14.605 13.4451 14.615C13.4401 14.615 13.4351 14.615 13.4251 14.62C13.3651 14.635 13.3001 14.645 13.2401 14.66C13.2251 14.665 13.2151 14.665 13.2001 14.67C13.1551 14.68 13.1101 14.69 13.0601 14.7C13.0401 14.705 13.0201 14.71 13.0001 14.715C12.9601 14.725 12.9251 14.735 12.8851 14.745C12.8651 14.75 12.8451 14.755 12.8201 14.76C12.7851 14.77 12.7501 14.78 12.7101 14.79C12.6901 14.795 12.6701 14.8 12.6451 14.805C12.6101 14.815 12.5751 14.825 12.5401 14.835C12.5201 14.84 12.5001 14.845 12.4801 14.85C12.4451 14.86 12.4101 14.87 12.3751 14.88C12.3551 14.885 12.3401 14.89 12.3201 14.895C12.2801 14.905 12.2401 14.92 12.2001 14.93C12.1901 14.935 12.1751 14.935 12.1651 14.94C12.1151 14.955 12.0651 14.97 12.0151 14.99C12.0101 14.99 12.0051 14.995 12.0001 14.995C11.9551 15.01 11.9151 15.025 11.8701 15.04C11.8551 15.045 11.8401 15.05 11.8251 15.055C11.7951 15.065 11.7601 15.08 11.7301 15.09C11.7151 15.095 11.6951 15.1 11.6801 15.11C11.6501 15.12 11.6251 15.13 11.5951 15.145C11.5801 15.15 11.5601 15.16 11.5451 15.165C11.5201 15.175 11.4901 15.185 11.4651 15.2C11.4501 15.205 11.4351 15.215 11.4151 15.22C11.3901 15.23 11.3651 15.245 11.3351 15.255C11.3201 15.26 11.3051 15.27 11.2901 15.275C11.2601 15.29 11.2351 15.3 11.2101 15.315C11.2001 15.32 11.1851 15.325 11.1751 15.33C11.1401 15.35 11.1001 15.365 11.0651 15.385C11.1051 15.305 11.1151 15.26 11.1201 15.215ZM18.8701 20.14C18.8601 20.155 18.8451 20.165 18.8351 20.175C18.8251 20.18 18.8201 20.19 18.8101 20.195C18.7951 20.21 18.7801 20.22 18.7651 20.23C18.7601 20.235 18.7501 20.24 18.7451 20.245C18.7251 20.26 18.7001 20.275 18.6801 20.29L18.6001 20.335L18.5951 20.34C18.5801 20.345 18.5651 20.355 18.5551 20.365C18.5101 20.39 18.4601 20.415 18.4101 20.44C18.3251 20.485 18.2451 20.525 18.1801 20.56L18.1351 20.58H18.1301C18.0351 20.62 17.9601 20.65 17.8951 20.675C17.8851 20.68 17.8801 20.68 17.8701 20.685C17.8651 20.69 17.8551 20.69 17.8501 20.695C17.8201 20.705 17.7951 20.715 17.7751 20.725H17.7701C17.7651 20.725 17.7601 20.73 17.7551 20.73C17.7501 20.73 17.7401 20.735 17.7351 20.735C17.6451 20.765 17.5501 20.795 17.4701 20.82C17.4501 20.825 17.4251 20.835 17.4001 20.84C17.3851 20.845 17.3651 20.85 17.3501 20.855L17.3301 20.86L17.3101 20.865C17.2701 20.875 17.2351 20.88 17.2051 20.89C17.1151 20.91 17.0451 20.925 16.9851 20.935C16.9251 20.945 16.8801 20.955 16.8401 20.965C16.8101 20.97 16.7801 20.975 16.7501 20.98C16.6851 20.99 16.6151 20.995 16.5001 21.005C16.3951 21.01 16.3151 21.015 16.2451 21.015C16.2301 21.015 16.2201 21.015 16.2051 21.015C16.2001 21.015 16.2001 21.015 16.1951 21.015C16.1451 21.015 16.1051 21.02 16.0701 21.02H16.0401C15.9701 21.02 15.9001 21.02 15.8451 21.015C15.7951 21.01 15.7401 21.01 15.6751 21.005C15.5751 20.995 15.4951 20.985 15.4251 20.975C15.3451 20.965 15.2701 20.95 15.2001 20.94C15.1001 20.925 15.0151 20.905 14.9451 20.89L14.9301 20.885C14.9151 20.88 14.9051 20.88 14.8901 20.875H14.8851L14.8751 20.87C14.7501 20.835 14.6501 20.805 14.5701 20.78H14.5651C14.5401 20.77 14.5151 20.765 14.4951 20.76C14.4851 20.755 14.4751 20.755 14.4651 20.75C14.4451 20.745 14.4251 20.735 14.4051 20.73C14.4251 20.715 14.4451 20.7 14.4651 20.685C14.4751 20.675 14.4851 20.67 14.4951 20.66C14.5751 20.605 14.6501 20.54 14.7351 20.47C14.7451 20.46 14.7601 20.45 14.7701 20.44C14.8001 20.415 14.8301 20.39 14.8601 20.365C14.8751 20.355 14.8901 20.34 14.9051 20.325C14.9351 20.3 14.9601 20.275 14.9901 20.25C15.0051 20.235 15.0201 20.225 15.0351 20.21C15.0651 20.18 15.0951 20.155 15.1251 20.125C15.1401 20.11 15.1501 20.1 15.1651 20.085C15.2101 20.04 15.2501 20 15.2951 19.955C15.3501 19.9 15.4051 19.84 15.4651 19.78C15.5151 19.725 15.5701 19.67 15.6201 19.61C15.6251 19.605 15.6251 19.6 15.6301 19.6C15.8251 19.385 16.0201 19.145 16.2201 18.895C16.2601 18.845 16.3001 18.79 16.3451 18.735C16.3951 18.67 16.4451 18.6 16.5001 18.535C16.7451 18.21 16.9851 17.865 17.2251 17.505C17.2801 17.42 17.3351 17.335 17.3901 17.25C17.4051 17.225 17.4201 17.205 17.4351 17.18C17.4801 17.11 17.5251 17.04 17.5701 16.965C17.5801 16.945 17.5951 16.93 17.6051 16.91C17.6551 16.83 17.7001 16.755 17.7501 16.675C17.7901 16.69 17.8301 16.7 17.8651 16.715C17.8701 16.715 17.8751 16.72 17.8801 16.72C17.9201 16.73 17.9601 16.74 18.0051 16.75C18.0101 16.75 18.0151 16.755 18.0201 16.755C18.0601 16.765 18.1001 16.77 18.1401 16.775C18.1451 16.775 18.1501 16.775 18.1601 16.78C18.2001 16.785 18.2401 16.79 18.2801 16.795C18.2851 16.795 18.2951 16.795 18.3001 16.795C18.3401 16.8 18.3801 16.8 18.4201 16.8C18.4251 16.8 18.4251 16.8 18.4301 16.8C18.4351 16.8 18.4351 16.8 18.4401 16.8C18.4751 16.8 18.5101 16.8 18.5451 16.795C18.5501 16.795 18.5601 16.795 18.5651 16.795C18.6001 16.79 18.6351 16.79 18.6751 16.785H18.6801C18.7151 16.78 18.7501 16.775 18.7851 16.77C18.7901 16.77 18.7951 16.77 18.8001 16.765C18.8251 16.76 18.8551 16.755 18.8801 16.745C18.8851 16.76 18.8901 16.78 18.9001 16.795C18.9101 16.82 18.9151 16.845 18.9251 16.87C18.9351 16.9 18.9451 16.93 18.9551 16.96C18.9651 16.985 18.9701 17.01 18.9801 17.03C18.9901 17.06 19.0001 17.09 19.0101 17.125C19.0151 17.145 19.0251 17.17 19.0301 17.19C19.0401 17.225 19.0501 17.255 19.0551 17.29C19.0601 17.31 19.0651 17.33 19.0701 17.35C19.0801 17.39 19.0901 17.43 19.1001 17.47C19.1051 17.48 19.1051 17.495 19.1101 17.505C19.1201 17.555 19.1351 17.61 19.1451 17.66C19.1451 17.67 19.1501 17.675 19.1501 17.685C19.1601 17.73 19.1701 17.77 19.1751 17.815C19.1801 17.83 19.1801 17.845 19.1851 17.865C19.1901 17.9 19.2001 17.935 19.2051 17.965C19.2101 17.985 19.2101 18 19.2151 18.02C19.2201 18.05 19.2251 18.08 19.2301 18.115C19.2351 18.135 19.2351 18.155 19.2401 18.17C19.2451 18.2 19.2501 18.23 19.2501 18.26C19.2501 18.28 19.2551 18.3 19.2551 18.315C19.2601 18.345 19.2601 18.37 19.2651 18.4C19.2651 18.42 19.2701 18.435 19.2701 18.455C19.2701 18.485 19.2751 18.51 19.2751 18.535C19.2751 18.555 19.2751 18.57 19.2801 18.59C19.2801 18.615 19.2801 18.645 19.2851 18.67C19.2851 18.69 19.2851 18.705 19.2851 18.725C19.2851 18.75 19.2851 18.78 19.2851 18.805C19.2851 18.82 19.2851 18.84 19.2851 18.855C19.2851 18.88 19.2851 18.91 19.2851 18.935C19.2851 18.95 19.2851 18.965 19.2851 18.98C19.2851 19.01 19.2801 19.035 19.2801 19.065C19.2801 19.08 19.2801 19.09 19.2751 19.105C19.2701 19.135 19.2701 19.17 19.2651 19.2C19.2651 19.21 19.2651 19.215 19.2651 19.225C19.2551 19.305 19.2451 19.375 19.2301 19.45C19.2301 19.46 19.2251 19.47 19.2251 19.48C19.2201 19.505 19.2151 19.53 19.2051 19.555C19.2001 19.565 19.2001 19.58 19.1951 19.59C19.1901 19.61 19.1851 19.635 19.1751 19.655C19.1701 19.67 19.1651 19.68 19.1651 19.69C19.1601 19.71 19.1501 19.73 19.1451 19.745C19.1401 19.76 19.1351 19.77 19.1301 19.78C19.1251 19.8 19.1151 19.815 19.1101 19.83C19.1051 19.84 19.1001 19.855 19.0951 19.865C19.0851 19.88 19.0801 19.895 19.0701 19.915C19.0651 19.925 19.0601 19.94 19.0501 19.95C19.0401 19.965 19.0351 19.98 19.0251 19.995C19.0201 20.005 19.0101 20.015 19.0051 20.025C18.9951 20.04 18.9851 20.055 18.9751 20.065C18.9701 20.075 18.9601 20.085 18.9551 20.095C18.9451 20.11 18.9351 20.12 18.9251 20.135C18.8851 20.125 18.8751 20.135 18.8701 20.14Z" fill="#13334C"/>
</svg>
