<svg width="24" height="24" viewBox="0 0 24 24" fill="none" xmlns="http://www.w3.org/2000/svg">
<path d="M12 22C17.5286 22 22 17.5286 22 12C22 6.47143 17.5286 2 12 2C6.47143 2 2 6.47143 2 12C2 17.5286 6.48571 22 12 22ZM6.32857 10.3857C5.64286 9.98571 5.41428 9.11429 5.8 8.42857C6.2 7.74286 7.07142 7.51429 7.75714 7.9L10.5571 9.51429V6.28571C10.5571 5.5 11.2 4.85714 11.9857 4.85714C12.7714 4.85714 13.4143 5.5 13.4143 6.28571V9.52857L16.2143 7.91429C16.9 7.51429 17.7714 7.75714 18.1714 8.44286C18.5714 9.12857 18.3286 10 17.6429 10.4L14.8429 12.0143L17.6429 13.6286C18.3286 14.0286 18.5571 14.9 18.1714 15.5857C17.9 16.0429 17.4286 16.3 16.9286 16.3C16.6857 16.3 16.4429 16.2429 16.2143 16.1143L13.4143 14.4714V17.7143C13.4143 18.5 12.7714 19.1429 11.9857 19.1429C11.2 19.1429 10.5571 18.5 10.5571 17.7143V14.4714L7.75714 16.1C7.52857 16.2286 7.28571 16.2857 7.04286 16.2857C6.54286 16.2857 6.07143 16.0286 5.8 15.5714C5.4 14.8857 5.64285 14.0143 6.32857 13.6143L9.12857 12L6.32857 10.3857Z" fill="#13334C"/>
</svg>
