<svg width="24" height="24" viewBox="0 0 24 24" fill="none" xmlns="http://www.w3.org/2000/svg">
<path d="M9.20039 22.6744C9.13189 22.6744 9.06239 22.6674 8.99239 22.6524C8.45189 22.5379 8.10639 22.0074 8.22089 21.4674L9.52089 15.3174C9.63539 14.7769 10.1659 14.4319 10.7059 14.5459C11.2464 14.6604 11.5919 15.1909 11.4774 15.7309L10.1774 21.8809C10.0779 22.3514 9.66239 22.6744 9.19989 22.6744H9.20039Z" fill="#13334C"/>
<path fill-rule="evenodd" clip-rule="evenodd" d="M13.5016 4.7271C12.8396 5.6721 11.6711 5.8846 10.7261 5.2231C9.78109 4.5616 9.56309 3.3781 10.2251 2.4331C10.8871 1.4881 12.0656 1.2801 13.0106 1.9421C13.9556 2.6041 14.1636 3.7821 13.5016 4.7276V4.7271Z" fill="#13334C"/>
<path d="M15.3409 22.6201C14.9114 22.6201 14.5144 22.3416 14.3839 21.9091L12.5419 15.8136C12.3824 15.2851 12.6814 14.7266 13.2099 14.5671C13.7384 14.4076 14.2969 14.7066 14.4564 15.2351L16.2984 21.3306C16.4579 21.8591 16.1589 22.4176 15.6304 22.5771C15.5339 22.6061 15.4364 22.6201 15.3409 22.6201Z" fill="#13334C"/>
<path d="M19.5 6.12456H13.6105C13.561 6.11756 13.5115 6.11306 13.461 6.11356L12.3555 6.12456H4.5C3.9475 6.12456 3.5 6.57206 3.5 7.12456C3.5 7.67706 3.9475 8.12456 4.5 8.12456H9.48L9.527 13.1516C9.5295 13.4166 9.6375 13.6701 9.8265 13.8561C10.0135 14.0396 10.265 14.1421 10.527 14.1421C10.53 14.1421 10.5335 14.1421 10.5365 14.1421L13.5385 14.1131C13.8035 14.1106 14.057 14.0026 14.243 13.8136C14.429 13.6246 14.5315 13.3686 14.529 13.1036L14.4805 8.12456H19.4995C20.052 8.12456 20.4995 7.67706 20.4995 7.12456C20.4995 6.57206 20.052 6.12456 19.4995 6.12456H19.5Z" fill="#13334C"/>
</svg>
