<svg width="24" height="24" viewBox="0 0 24 24" fill="none" xmlns="http://www.w3.org/2000/svg">
<path d="M14.7582 17.717C15.038 17.8808 15.1294 17.8968 15.2941 17.9256L15.3186 17.9299C15.5321 17.9675 15.8125 17.9814 15.9793 17.9756C16.3086 17.9646 21.5156 17.9962 22.1262 18C22.1252 16.7511 21.3719 16.072 20.1767 15.7702C19.6024 15.6252 18.4037 15.3993 17.9944 15.1065C17.3577 14.6509 17.2284 14.3008 16.8259 13.2926L15.576 13.9058C15.5051 13.9406 15.4301 13.9571 15.3561 13.9571C15.1714 13.9571 14.9937 13.8543 14.9069 13.6772C14.7852 13.4293 14.8876 13.1297 15.1355 13.0081L16.4513 12.3626C16.3257 12.0397 16.2121 11.7237 16.1092 11.4165L14.6951 12.1103C14.6242 12.145 14.5492 12.1615 14.4752 12.1615C14.2905 12.1615 14.1128 12.0587 14.026 11.8816C13.9043 11.6337 14.0067 11.3342 14.2546 11.2125L15.8101 10.4494C15.7117 10.1038 15.6265 9.77378 15.5519 9.46214L13.8141 10.3147C13.7433 10.3495 13.6682 10.3659 13.5943 10.3659C13.4096 10.3659 13.2319 10.2632 13.1451 10.0861C13.0234 9.83816 13.1258 9.5386 13.3737 9.41697L15.3012 8.47132C15.3112 8.4664 15.3214 8.46244 15.3316 8.45826C15.1153 7.38514 15.0248 6.6967 14.8906 6.53009C14.3361 5.84214 13.5372 5.87016 12.8815 6.46231C12.8604 6.4814 11.1674 8.09003 10.3916 8.27012C9.54885 8.46578 8.85796 7.99964 8.49645 7.75558C8.00285 7.42233 7.49645 6.92402 7.51099 6.41786C7.53408 5.6144 7.99082 5.00079 8.23816 4.70474C8.48548 4.40871 8.27356 4.3552 8.27356 4.3552C8.27356 4.3552 8.14229 4.26109 7.63058 4.24128C7.51623 4.23686 7.29728 4.25081 7.15133 4.28267C6.58824 4.4056 6.1421 4.64447 5.72016 5.06209C4.74409 6.35882 3.60409 7.84764 2.69458 9.10575C6.09274 11.5377 14.3846 17.4679 14.7582 17.717V17.717Z" fill="#13334C"/>
<path d="M14.4205 19.7573C14.4163 19.7585 14.3978 19.763 14.4027 19.7712C14.4075 19.7795 14.4284 19.7678 14.4281 19.7616C14.428 19.7605 14.4277 19.76 14.4273 19.7593C14.4254 19.7586 14.4235 19.7578 14.4216 19.7571C14.4212 19.7572 14.4207 19.7573 14.4205 19.7573Z" fill="#13334C"/>
<path d="M16.0135 18.975C15.7945 18.9825 15.4411 18.9668 15.1452 18.9148L15.1219 18.9107C14.8582 18.8646 14.6545 18.8163 14.2429 18.5741C14.0536 18.4628 5.14094 12.0863 2.1196 9.92407C1.85167 10.3719 1.75182 10.7887 2.08024 11.2865C2.13424 11.3684 2.79526 11.9518 2.83463 11.9833C3.63287 12.6228 7.66109 15.2466 7.8193 15.3592C11.1063 17.6608 11.2702 17.8321 13.3134 19.2062C13.7613 19.4552 14.1039 19.6316 14.4217 19.7572C14.4234 19.7568 14.4261 19.7569 14.4274 19.7594C15.1797 20.0555 15.7942 20.0647 17.336 20.0647C18.4308 20.0647 20.2642 20.1717 20.7629 19.9742C21.2478 19.8081 21.6614 19.4645 21.9017 18.9986C19.5772 18.9844 16.2406 18.9675 16.0135 18.975H16.0135Z" fill="#13334C"/>
</svg>
