<svg width="24" height="24" viewBox="0 0 24 24" fill="none" xmlns="http://www.w3.org/2000/svg">
<path d="M16.8851 5.39492C18.0901 5.19992 18.9101 4.06492 18.7101 2.85992C18.5151 1.65492 17.3801 0.834922 16.1751 1.03492C14.9701 1.22992 14.1501 2.36492 14.3501 3.56992C14.5451 4.76992 15.6801 5.58992 16.8851 5.39492Z" fill="#13334C"/>
<path fill-rule="evenodd" clip-rule="evenodd" d="M13.85 16.1501C13.775 16.0201 13.675 15.9101 13.555 15.8251L8.35496 12.1851C7.90496 11.8701 7.27996 11.9801 6.95996 12.4301C6.64496 12.8801 6.75496 13.5051 7.20496 13.8251L12.22 17.3351L15.19 22.5901C15.375 22.9151 15.715 23.1001 16.06 23.1001C16.225 23.1001 16.395 23.0601 16.55 22.9701C17.03 22.7001 17.2 22.0901 16.93 21.6051L13.85 16.1501Z" fill="#13334C"/>
<path fill-rule="evenodd" clip-rule="evenodd" d="M8.27003 15.7849C7.82003 15.4699 7.19503 15.5799 6.87503 16.0299L3.03003 21.5249C2.71503 21.9749 2.82503 22.5999 3.27503 22.9199C3.45003 23.0399 3.65003 23.0999 3.85003 23.0999C4.16503 23.0999 4.47503 22.9499 4.67003 22.6749L8.51503 17.1799C8.83003 16.7249 8.72003 16.1049 8.27003 15.7849Z" fill="#13334C"/>
<path d="M22.0898 7.72491C21.7698 7.28491 21.2048 7.23991 20.7648 7.58491L19.6248 8.42991C19.6748 9.18991 19.0098 9.97991 18.2198 10.0749L17.2448 10.1849C17.1998 10.2149 17.1798 10.2749 17.2148 10.3249L18.1448 11.6949L18.1548 11.7099C18.2348 11.8199 18.3648 11.7999 18.4748 11.7149L19.8148 10.6699L21.8948 9.04491C22.2998 8.72491 22.3898 8.13491 22.0898 7.72491Z" fill="#13334C"/>
<path d="M13.8249 10.58L13.2749 10.645C13.2199 10.65 13.1599 10.655 13.1049 10.655C12.5949 10.655 12.1799 10.36 12.0499 9.88502L12.0399 9.84002L12.0149 9.67002L11.5599 6.52002L8.8449 10.4C8.6949 10.615 8.6349 10.885 8.6799 11.145C8.7249 11.405 8.8749 11.64 9.0899 11.79L11.5499 13.51C11.7199 13.63 11.9199 13.69 12.1249 13.69C12.1849 13.69 12.2399 13.685 12.2999 13.675C12.5599 13.63 12.7949 13.48 12.9449 13.265L14.9149 10.45L13.8249 10.58Z" fill="#13334C"/>
<path d="M12.78 9.68989C12.85 9.93989 13.135 9.90489 13.19 9.89989L13.74 9.83489L18.13 9.33489C18.52 9.28989 18.92 8.85489 18.875 8.46489L18.87 8.39489C18.815 7.93989 18.355 7.75489 17.9 7.80989L14.52 8.19489C14.41 8.20989 14.315 8.12989 14.3 8.02489L13.935 5.79489C13.885 5.41489 13.645 5.00989 12.935 5.10989L12.865 5.11989C12.49 5.18489 12.12 5.53989 12.27 6.15989L12.765 9.57489L12.78 9.68989Z" fill="#13334C"/>
</svg>
