<svg width="24" height="24" viewBox="0 0 24 24" fill="none" xmlns="http://www.w3.org/2000/svg">
<path d="M15.5471 18.4272C15.8989 18.1011 15.9697 17.5712 15.7158 17.1643L14.0223 14.4507C13.73 13.9822 13.1132 13.8393 12.6445 14.1318C12.176 14.4242 12.0332 15.041 12.3256 15.5096L13.5815 17.5221L12.7078 18.3318L10.8686 15.1108C10.5948 14.6312 9.98391 14.4644 9.50432 14.7383C9.02471 15.0121 8.85791 15.6229 9.13177 16.1025L12.7488 22.4371C12.9334 22.7603 13.2708 22.9415 13.6181 22.9415C13.7862 22.9415 13.9567 22.899 14.1131 22.8097C14.5927 22.5358 14.7595 21.925 14.4856 21.4454L13.7096 20.0863C13.7818 20.0472 13.8507 19.9995 13.9137 19.9411L15.5471 18.4272Z" fill="#13334C"/>
<path d="M18.0789 8.9961C17.5917 8.7359 16.9859 8.91998 16.7257 9.40711L16.1951 10.4008L12.9701 4.35218L11.5625 1.61885C11.3097 1.12784 10.7067 0.934675 10.2157 1.18763C9.72465 1.44046 9.53158 2.04346 9.78444 2.53448L11.1953 5.2742C11.1974 5.27845 11.1996 5.28267 11.2019 5.28687L11.7584 6.33055C11.663 6.35505 11.5696 6.3939 11.4816 6.4483L6.47475 9.54C6.02934 9.81505 5.8714 10.387 6.11264 10.8516L7.34909 13.2331C7.47765 13.4807 7.70385 13.6634 7.97301 13.7369C8.05973 13.7606 8.14833 13.7723 8.23654 13.7723C8.42218 13.7723 8.60607 13.7206 8.76647 13.6203L13.9262 10.3965L15.3119 12.9954C15.4856 13.3212 15.8247 13.5248 16.194 13.5249H16.1943C16.5634 13.5249 16.9025 13.3216 17.0764 12.996L18.4899 10.3493C18.7501 9.86209 18.5661 9.25626 18.0789 8.9961V8.9961Z" fill="#13334C"/>
<path fill-rule="evenodd" clip-rule="evenodd" d="M18.8623 7.66766C17.9529 8.37769 16.7732 8.2389 16.0631 7.32947C15.3531 6.42004 15.4913 5.2248 16.4008 4.51477C17.3102 3.80475 18.498 3.95117 19.208 4.8606C19.918 5.77003 19.7718 6.95764 18.8623 7.66766Z" fill="#13334C"/>
</svg>
