<svg width="24" height="24" viewBox="0 0 24 24" fill="none" xmlns="http://www.w3.org/2000/svg">
<path fill-rule="evenodd" clip-rule="evenodd" d="M7.90372 4.53607C8.81315 5.2461 9.9929 5.1073 10.7029 4.19788C11.4129 3.28845 11.2747 2.09321 10.3653 1.38318C9.45586 0.673158 8.26807 0.819581 7.55805 1.72901C6.84802 2.63844 6.99429 3.82605 7.90372 4.53607L7.90372 4.53607Z" fill="#13334C"/>
<path d="M4.26353 14.5077L7.40845 15.8984L8.2468 18.0476C7.98238 18.2171 7.72439 18.3824 7.47564 18.5417C7.35448 18.6193 7.25627 18.719 7.18168 18.8317C7.5099 18.9317 7.8797 18.9918 8.35069 18.9918C8.44922 18.9918 8.55232 18.9891 8.65715 18.9839C9.9015 18.9215 10.4318 18.5661 11.1657 18.0741C11.8223 17.634 12.6004 17.1128 13.8331 16.8386C15.9415 15.4827 17.8889 14.2251 18.078 14.0847C18.4152 13.8342 18.6752 13.3967 18.9755 12.5748C19.1467 12.1061 19.2671 11.6785 19.2722 11.6605C19.4213 11.1288 19.1112 10.5768 18.5794 10.4276C18.048 10.2783 17.4957 10.5885 17.3465 11.1203C17.1914 11.673 16.9525 12.3078 16.8216 12.5227C16.2574 12.9028 13.0038 14.9962 9.96408 16.9465L9.12183 14.7873C9.02578 14.5412 8.83628 14.343 8.59463 14.2362L5.07241 12.6786C4.56719 12.4553 3.97676 12.6837 3.75342 13.1887C3.53003 13.6939 3.75845 14.2844 4.26353 14.5077Z" fill="#13334C"/>
<path d="M14.5052 5.86525H8.79687C8.33537 5.84008 7.84934 5.92261 7.37722 6.11454C6.58649 6.43595 5.93058 7.01769 5.5777 7.71058C5.5696 7.72655 5.56188 7.74276 5.55461 7.75914L4.38928 10.388C4.28117 10.6318 4.27497 10.9087 4.37204 11.1571C4.46916 11.4056 4.66145 11.6049 4.90622 11.7109L6.89982 12.5739C7.02917 12.6299 7.16393 12.6565 7.2966 12.6565C7.67692 12.6565 8.03986 12.4383 8.20725 12.0705L10.1212 7.86525H14.5052C15.0575 7.86525 15.5052 7.41754 15.5052 6.86525C15.5052 6.31295 15.0575 5.86525 14.5052 5.86525Z" fill="#13334C"/>
<path d="M22.5117 6.3035H18.699L16.1318 4.82137C15.9771 4.73207 15.7865 4.73207 15.6318 4.82137C15.4771 4.91068 15.3818 5.07574 15.3818 5.25438V8.35255C15.3818 8.53119 15.4771 8.69625 15.6318 8.78556C15.7092 8.83021 15.7955 8.85255 15.8818 8.85255C15.9682 8.85255 16.0545 8.83021 16.1318 8.78556L18.6988 7.3035H22.5117C22.7878 7.3035 23.0117 7.07965 23.0117 6.8035C23.0117 6.52736 22.7878 6.3035 22.5117 6.3035V6.3035ZM16.3818 7.48654V6.1204L17.5649 6.80345L16.3818 7.48654Z" fill="#13334C"/>
<path d="M21.9776 19.3173C20.4566 19.3936 19.6858 18.9821 18.8697 18.5465C18.0117 18.0885 17.0392 17.5694 15.2426 17.6594C13.446 17.7495 12.5303 18.3633 11.7225 18.9048C10.954 19.4199 10.2282 19.9064 8.70723 19.9826C7.18634 20.0589 6.41559 19.6474 5.59954 19.2118C4.74159 18.7538 3.76915 18.2347 1.97258 18.3248C1.69777 18.3385 1.48612 18.5725 1.4999 18.8473C1.51368 19.1221 1.74767 19.3338 2.02248 19.32C3.54336 19.2438 4.31416 19.6552 5.13021 20.0909C5.98817 20.5488 6.96061 21.068 8.75712 20.9779C10.5538 20.8878 11.4694 20.274 12.2773 19.7326C13.0457 19.2175 13.7715 18.731 15.2925 18.6547C16.8135 18.5785 17.5844 18.9899 18.4005 19.4256C19.2584 19.8835 20.2309 20.4026 22.0275 20.3126C22.3023 20.2988 22.5139 20.0648 22.5001 19.79C22.4864 19.5152 22.2524 19.3035 21.9776 19.3173Z" fill="#13334C"/>
</svg>
