<svg width="24" height="24" viewBox="0 0 24 24" fill="none" xmlns="http://www.w3.org/2000/svg">
<path d="M12 2.49487C7.58879 2.49487 4 6.08366 4 10.4949C4 11.0429 4.00164 11.4232 4.02375 11.7046C4.04312 11.9508 4.08844 12.5276 4.60746 12.7728C4.70824 12.8205 4.83777 12.8598 4.99094 12.8597C5.16398 12.8597 5.36719 12.8096 5.59293 12.6646C5.72438 12.5803 5.85504 12.4729 6.02051 12.3369C6.80078 11.6957 8.42437 10.3615 12.0149 10.2947C15.6664 10.2283 17.2557 11.6152 18.0189 12.2824C18.1706 12.415 18.2905 12.5198 18.4127 12.6039C18.8278 12.8896 19.1737 12.832 19.3909 12.7335C19.9153 12.4954 19.959 11.9196 19.9777 11.6738C19.9984 11.401 20 11.0131 20 10.4949C20 6.08366 16.4112 2.49487 12 2.49487V2.49487Z" fill="#13334C"/>
<path d="M19.2577 13.5211H18.1066C17.7589 12.7638 16.7621 12.2449 15.52 12.2449C14.2778 12.2449 13.281 12.7638 12.9333 13.5211H11.0666C11.058 13.5023 11.049 13.4837 11.0396 13.4653C10.6695 12.7384 9.6914 12.2449 8.47995 12.2449C7.23777 12.2449 6.24099 12.7638 5.89327 13.5211H4.74214C4.3003 13.5211 3.94214 13.8792 3.94214 14.3211C3.94214 14.7629 4.3003 15.1211 4.74214 15.1211H6.14835C6.61605 15.6595 7.46646 16.0049 8.47995 16.0049C9.49345 16.0049 10.3439 15.6595 10.8116 15.1211H13.1883C13.656 15.6595 14.5065 16.0049 15.52 16.0049C16.5334 16.0049 17.3839 15.6595 17.8516 15.1211H19.2577C19.6996 15.1211 20.0577 14.7629 20.0577 14.3211C20.0577 13.8792 19.6996 13.5211 19.2577 13.5211Z" fill="#13334C"/>
<path d="M21.9776 19.3173C20.4566 19.3936 19.6858 18.9821 18.8697 18.5465C18.0117 18.0885 17.0392 17.5694 15.2426 17.6594C13.446 17.7495 12.5303 18.3633 11.7225 18.9048C10.954 19.4199 10.2282 19.9064 8.70723 19.9826C7.18634 20.0589 6.41559 19.6474 5.59954 19.2118C4.74159 18.7538 3.76915 18.2347 1.97258 18.3248C1.69777 18.3385 1.48612 18.5725 1.4999 18.8473C1.51368 19.1221 1.74767 19.3338 2.02248 19.32C3.54336 19.2438 4.31416 19.6552 5.13021 20.0909C5.98817 20.5488 6.96061 21.068 8.75712 20.9779C10.5538 20.8878 11.4694 20.274 12.2773 19.7326C13.0457 19.2175 13.7715 18.731 15.2925 18.6547C16.8135 18.5785 17.5844 18.9899 18.4005 19.4256C19.2584 19.8835 20.2309 20.4026 22.0275 20.3126C22.3023 20.2988 22.5139 20.0648 22.5001 19.79C22.4864 19.5152 22.2524 19.3035 21.9776 19.3173Z" fill="#13334C"/>
</svg>
