<svg width="24" height="24" viewBox="0 0 24 24" fill="none" xmlns="http://www.w3.org/2000/svg">
<path d="M16.9946 10.5288C16.6608 10.5288 16.3334 10.5567 16.0143 10.6093C16.2871 11.068 16.3029 11.6541 16.0209 12.1352C16.3346 12.0658 16.6603 12.0288 16.9946 12.0288C19.4759 12.0288 21.4946 14.0475 21.4946 16.5288C21.4946 19.0101 19.4759 21.0288 16.9946 21.0288C14.5133 21.0288 12.4946 19.0101 12.4946 16.5288C12.4946 15.0069 13.2542 13.6592 14.414 12.8444C14.2187 12.8029 14.033 12.7232 13.8663 12.6065L13.0353 12.0247C11.785 13.1251 10.9946 14.7363 10.9946 16.5288C10.9946 19.8372 13.6862 22.5288 16.9946 22.5288C20.303 22.5288 22.9946 19.8372 22.9946 16.5288C22.9946 13.2204 20.303 10.5288 16.9946 10.5288Z" fill="#13334C"/>
<path d="M6 22.9834C5.44771 22.9834 5 22.5357 5 21.9834V14.0488C5 13.4965 5.44771 13.0488 6 13.0488C6.5523 13.0488 7 13.4965 7 14.0488V21.9834C7 22.5357 6.5523 22.9834 6 22.9834Z" fill="#13334C"/>
<path d="M4.4221 10.7463C3.99617 10.7463 3.6014 10.472 3.4678 10.044L1.0535 2.30823C0.888945 1.78104 1.18294 1.22027 1.71019 1.05572C2.23743 0.891094 2.79812 1.18519 2.96268 1.71238L5.37698 9.44815C5.54153 9.97535 5.24754 10.5361 4.72034 10.7007C4.62112 10.7316 4.52078 10.7463 4.4221 10.7463V10.7463Z" fill="#13334C"/>
<path fill-rule="evenodd" clip-rule="evenodd" d="M14.7554 5.06561C13.846 5.77564 12.6662 5.63685 11.9562 4.72742C11.2462 3.81799 11.3844 2.62275 12.2938 1.91272C13.2033 1.2027 14.391 1.34912 15.1011 2.25855C15.8111 3.16798 15.6648 4.35559 14.7554 5.06561L14.7554 5.06561Z" fill="#13334C"/>
<path d="M20.5 6.50001H12.3861C12.3858 6.50001 12.3856 6.50004 12.3853 6.50004C11.7331 6.48624 11.0554 6.65851 10.4839 6.98958L6.76407 9.0823C6.53068 9.2136 6.35968 9.43306 6.28942 9.69148C6.21915 9.94991 6.25553 10.2257 6.3903 10.4571L7.39689 12.1854C7.58268 12.5043 7.91764 12.6822 8.26193 12.6822C8.43278 12.6822 8.60602 12.6384 8.76427 12.5462L11.9783 10.6742L14.1531 12.197C14.3277 12.3193 14.5277 12.378 14.7258 12.378C15.0411 12.3779 15.3513 12.2293 15.5459 11.9515C15.8627 11.4991 15.7527 10.8755 15.3003 10.5587L13.8818 9.56551L14.1106 9.43228C14.1806 9.39148 14.2455 9.34231 14.3036 9.28587L14.576 9.02161C14.7255 8.87651 14.8209 8.69356 14.8596 8.5H20.5C21.0523 8.5 21.5 8.0523 21.5 7.5C21.5 6.94771 21.0523 6.5 20.5 6.5L20.5 6.50001Z" fill="#13334C"/>
</svg>
