<svg width="24" height="24" viewBox="0 0 24 24" fill="none" xmlns="http://www.w3.org/2000/svg">
<g clip-path="url(#clip0_17945_10155)">
<path d="M8.87999 2.65494C9.53999 1.70994 10.72 1.49994 11.665 2.16494C12.61 2.82494 12.82 4.00494 12.155 4.94994C11.495 5.89494 10.325 6.10994 9.37999 5.44494C8.43999 4.78494 8.21999 3.59994 8.87999 2.65494ZM23.595 13.3299H19.65C19.485 13.3299 19.34 13.2299 19.28 13.0799C19.04 12.4799 18.54 11.3749 17.755 10.2649C16.17 8.01994 14.18 6.82994 12 6.82994C11.99 6.82994 11.975 6.82994 11.965 6.82994H3.49999C2.93499 6.82994 2.47999 7.29994 2.49999 7.86494C2.51999 8.40494 2.97999 8.82994 3.52499 8.82994H4.26999L15.455 16.6649C15.52 16.6649 15.59 16.6599 15.655 16.6599C17.45 16.6599 18.505 17.2249 19.35 17.6749C19.92 17.9799 20.39 18.2299 21.12 18.3099C21.1 18.2199 21.045 18.1349 20.96 18.0749L18.76 16.5349C18.02 16.0149 17.1 15.8099 16.21 15.9699L6.01499 8.82994H11.195C11.335 8.82994 11.47 8.90494 11.54 9.02994L13.63 12.9649L16.465 14.9299C16.575 14.9199 16.685 14.9149 16.8 14.9149C17.71 14.9149 18.585 15.1899 19.335 15.7149L20.245 16.3499C21.555 15.6899 22.83 14.8949 23.855 14.0399C24.145 13.7999 23.975 13.3299 23.595 13.3299ZM21.99 19.3299C20.47 19.4049 19.7 18.9949 18.88 18.5599C18.02 18.0999 17.05 17.5849 15.255 17.6749C13.46 17.7649 12.545 18.3799 11.735 18.9199C10.965 19.4349 10.24 19.9199 8.71999 19.9999C7.19999 20.0749 6.42999 19.6649 5.60999 19.2299C4.74999 18.7699 3.77999 18.2549 1.98499 18.3449C1.70999 18.3599 1.49999 18.5949 1.50999 18.8699C1.52499 19.1449 1.75999 19.3549 2.03499 19.3449C3.55499 19.2699 4.32499 19.6799 5.14499 20.1149C6.00499 20.5749 6.97499 21.0899 8.76999 20.9999C10.565 20.9099 11.48 20.2949 12.29 19.7549C13.06 19.2399 13.785 18.7549 15.305 18.6749C16.825 18.5999 17.595 19.0099 18.415 19.4449C19.275 19.9049 20.245 20.4199 22.04 20.3299C22.315 20.3149 22.525 20.0799 22.515 19.8049C22.495 19.5249 22.265 19.3149 21.99 19.3299ZM8.94999 13.3299H0.404993C0.029993 13.3299 -0.145007 13.7999 0.144993 14.0399C1.86999 15.4799 3.82499 16.5899 5.99999 17.3299H12.445C12.865 17.1299 13.355 16.9499 13.945 16.8249L8.94999 13.3299Z" fill="#13334C"/>
</g>
<defs>
<clipPath id="clip0_17945_10155">
<rect width="24" height="24" fill="white"/>
</clipPath>
</defs>
</svg>
