<svg width="24" height="24" viewBox="0 0 24 24" fill="none" xmlns="http://www.w3.org/2000/svg">
<path d="M19.3798 1.92495C19.2948 1.75995 19.1298 1.64495 18.9448 1.61995C13.6948 0.909947 8.39979 2.91495 5.31479 7.31995C2.22979 11.7249 2.15479 17.3849 4.61479 22.0749C4.69979 22.2399 4.86479 22.3549 5.04979 22.3799C10.2948 23.0899 15.5898 21.0849 18.6748 16.6799C21.7648 12.2749 21.8398 6.60995 19.3798 1.92495ZM16.2598 10.7099C16.1148 10.9199 15.8798 11.0299 15.6448 11.0299C15.4948 11.0299 15.3448 10.9849 15.2148 10.8949L14.1898 10.1799L13.0448 11.8199L14.0698 12.5349C14.4098 12.7749 14.4898 13.2399 14.2548 13.5799C14.1098 13.7899 13.8748 13.8999 13.6398 13.8999C13.4898 13.8999 13.3398 13.8549 13.2098 13.7649L12.1848 13.0499L11.0398 14.6899L12.0648 15.4049C12.4048 15.6449 12.4848 16.1099 12.2498 16.4499C12.1048 16.6599 11.8698 16.7699 11.6348 16.7699C11.4848 16.7699 11.3348 16.7249 11.2048 16.6349L10.1798 15.9199L9.46479 16.9449C9.31979 17.1549 9.08479 17.2649 8.84979 17.2649C8.69979 17.2649 8.54979 17.2199 8.41979 17.1299C8.07979 16.8899 7.99979 16.4249 8.23479 16.0849L8.94979 15.0499L7.92479 14.3349C7.58479 14.0949 7.50479 13.6299 7.73979 13.2899C7.97979 12.9499 8.44479 12.8699 8.78479 13.1049L9.80979 13.8199L10.9548 12.1799L9.92979 11.4649C9.58979 11.2249 9.50979 10.7599 9.74479 10.4199C9.98479 10.0799 10.4498 9.99995 10.7898 10.2349L11.8148 10.9499L12.9598 9.30995L11.9398 8.59995C11.5998 8.35995 11.5198 7.89495 11.7548 7.55495C11.9948 7.21495 12.4598 7.13495 12.7998 7.36995L13.8248 8.08495L14.5398 7.05995C14.7798 6.71995 15.2448 6.63995 15.5848 6.87495C15.9248 7.11495 16.0048 7.57995 15.7698 7.91995L15.0498 8.94995L16.0748 9.66495C16.4148 9.90495 16.4998 10.3699 16.2598 10.7099Z" fill="#13334C"/>
</svg>
