<svg width="24" height="24" viewBox="0 0 24 24" fill="none" xmlns="http://www.w3.org/2000/svg">
<path fill-rule="evenodd" clip-rule="evenodd" d="M14 14.415V5.34504C14 5.00004 14.535 4.88004 14.71 5.19004C16.315 7.99504 18.245 11.775 18.495 14.155C18.52 14.38 18.265 14.545 18.015 14.485C17.335 14.315 16.03 14.145 14.54 14.71C14.29 14.805 14 14.66 14 14.415ZM13 14.515V1.31504C13 1.14504 12.81 1.02504 12.66 1.11004C7.93497 3.78504 4.64497 11.705 4.00997 13.6C3.95997 13.76 4.09497 13.9 4.25997 13.875C7.99497 13.255 11.65 14.365 12.7 14.725C12.85 14.775 13 14.67 13 14.515ZM7.99997 18.5H10.515C10.73 18.38 10.94 18.24 11.165 18.085C12.035 17.5 13.12 16.775 15.19 16.67C15.345 16.66 15.495 16.66 15.64 16.66C16.735 16.66 17.555 16.87 18.22 17.135C18.325 16.93 18.405 16.71 18.45 16.475C18.5 16.225 18.31 15.995 18.055 15.995H5.93997C5.68997 15.995 5.49997 16.225 5.54497 16.47C5.76497 17.63 6.77997 18.5 7.99997 18.5ZM21.975 19.33C20.455 19.405 19.685 18.995 18.865 18.56C18.005 18.1 17.035 17.585 15.24 17.675C13.445 17.765 12.53 18.38 11.72 18.92C10.95 19.435 10.225 19.92 8.70497 20C7.18497 20.075 6.41497 19.665 5.59497 19.23C4.73497 18.77 3.76497 18.255 1.96997 18.345C1.69497 18.36 1.48497 18.595 1.49497 18.87C1.50997 19.145 1.74497 19.355 2.01997 19.345C3.53997 19.27 4.30997 19.68 5.12997 20.115C5.98997 20.575 6.95997 21.09 8.75497 21C10.55 20.91 11.465 20.295 12.275 19.755C13.045 19.24 13.77 18.755 15.29 18.675C16.81 18.6 17.58 19.01 18.4 19.445C19.26 19.905 20.23 20.42 22.025 20.33C22.3 20.315 22.51 20.08 22.5 19.805C22.485 19.525 22.25 19.315 21.975 19.33Z" fill="#13334C"/>
</svg>
