<svg width="24" height="24" viewBox="0 0 24 24" fill="none" xmlns="http://www.w3.org/2000/svg">
<path d="M5.28201 22.9124H5.28145C4.72915 22.9121 4.28169 22.4641 4.28198 21.9118L4.28494 16.5122C4.28523 15.9601 4.73286 15.5127 5.28494 15.5127L9.74875 15.5127C10.301 15.5127 10.7488 15.9604 10.7488 16.5127C10.7488 17.065 10.3011 17.5127 9.74875 17.5127L6.2844 17.5127L6.28198 21.9129C6.28169 22.465 5.83401 22.9123 5.28201 22.9124Z" fill="#13334C"/>
<path d="M18.7045 22.9418C18.4617 22.9418 18.2182 22.8539 18.0259 22.676L12.1402 17.2343C11.7347 16.8593 11.7099 16.2267 12.0849 15.8212C12.4598 15.4156 13.0925 15.3908 13.4979 15.7657L19.3836 21.2075C19.7891 21.5824 19.8139 22.2151 19.439 22.6206C19.2419 22.8338 18.9736 22.9418 18.7045 22.9418Z" fill="#13334C"/>
<path fill-rule="evenodd" clip-rule="evenodd" d="M13.25 4.4877C13.25 5.64148 12.4146 6.48597 11.2608 6.48597C10.107 6.48597 9.25 5.64147 9.25 4.4877C9.25 3.33392 10.0964 2.48779 11.2501 2.48779C12.4039 2.48779 13.25 3.33393 13.25 4.4877V4.4877Z" fill="#13334C"/>
<path d="M18.5952 7.50002H9.92171L6.83077 4.32926L7.7898 3.12204C8.13333 2.68962 8.06126 2.06056 7.62881 1.71701C7.19639 1.37353 6.56734 1.44557 6.22378 1.878L4.717 3.77472C4.40389 4.16886 4.43257 4.73432 4.78394 5.09479L8.75076 9.16403L8.74871 13.5114C8.74859 13.7767 8.85386 14.0311 9.04139 14.2188C9.22889 14.4064 9.48326 14.5118 9.74854 14.5119L12.7508 14.5124H12.751C13.0162 14.5124 13.2705 14.4071 13.4581 14.2196C13.6457 14.032 13.751 13.7777 13.751 13.5125L13.7511 9.50002H18.5952C19.1475 9.50002 19.5952 9.05231 19.5952 8.50002C19.5952 7.94772 19.1475 7.50002 18.5952 7.50002Z" fill="#13334C"/>
</svg>
