<svg width="24" height="24" viewBox="0 0 24 24" fill="none" xmlns="http://www.w3.org/2000/svg">
<path d="M21.49 8.84C21.82 9.835 22 10.895 22 12C22 13.395 21.715 14.725 21.195 15.935C19.67 19.5 16.125 22 12 22C7.115 22 3.05 18.495 2.175 13.865C2.06 13.26 2 12.635 2 12C2 6.475 6.475 2 12 2C13.105 2 14.165 2.18 15.16 2.51C14.735 2.855 14.37 3.28 14.095 3.76C13.425 3.59 12.725 3.5 12 3.5C7.305 3.5 3.5 7.305 3.5 12C3.5 12.175 3.505 12.35 3.515 12.52C3.785 16.975 7.48 20.5 12 20.5C15.725 20.5 18.885 18.105 20.035 14.775C20.335 13.905 20.5 12.975 20.5 12C20.5 11.275 20.41 10.575 20.24 9.905C20.72 9.63 21.145 9.265 21.49 8.84ZM18.91 13.14L16.54 10.77C16.39 10.62 16.145 10.62 15.995 10.77L13.78 12.195C13.63 12.345 13.385 12.345 13.235 12.195L9.64 7.81C9.49 7.66 9.245 7.66 9.095 7.81L5 11.89C5 11.925 5 11.965 5 12C5 13.87 5.73 15.63 7.05 16.95C8.37 18.27 10.13 19 12 19C13.87 19 15.63 18.27 16.95 16.95C18 15.9 18.675 14.575 18.91 13.14ZM21.5 6C21.5 7.935 19.935 9.5 18 9.5C16.065 9.5 14.5 7.935 14.5 6C14.5 4.065 16.065 2.5 18 2.5C19.935 2.5 21.5 4.065 21.5 6ZM18.995 6L19.975 5.435C20.215 5.295 20.295 4.99 20.16 4.75C20.02 4.51 19.715 4.43 19.475 4.565L18.495 5.13V4C18.495 3.725 18.27 3.5 17.995 3.5C17.72 3.5 17.495 3.725 17.495 4V5.135L16.515 4.57C16.275 4.43 15.97 4.515 15.83 4.755C15.69 4.995 15.775 5.3 16.015 5.44L16.995 6.005L16.015 6.57C15.775 6.71 15.695 7.015 15.83 7.255C15.925 7.415 16.09 7.505 16.265 7.505C16.35 7.505 16.435 7.485 16.515 7.44L17.495 6.875V8C17.495 8.275 17.72 8.5 17.995 8.5C18.27 8.5 18.495 8.275 18.495 8V6.865L19.475 7.43C19.555 7.475 19.64 7.495 19.725 7.495C19.9 7.495 20.065 7.405 20.16 7.245C20.3 7.005 20.215 6.7 19.975 6.56L18.995 6Z" fill="#13334C"/>
</svg>
