<svg width="24" height="24" viewBox="0 0 24 24" fill="none" xmlns="http://www.w3.org/2000/svg">
<path fill-rule="evenodd" clip-rule="evenodd" d="M22.4352 6.83006C22.3152 4.96006 21.4952 3.40006 20.1252 2.44006C18.7552 1.48006 17.0102 1.24006 15.2102 1.77006C13.4502 2.28506 11.8502 3.47506 10.6952 5.12506C9.54017 6.77006 8.97017 8.68506 9.09017 10.5151C9.14017 11.2951 9.31017 12.0151 9.59517 12.6651L8.64017 17.8651C8.35017 17.7951 8.03517 17.9051 7.85517 18.1651L5.84517 21.0301C5.60517 21.3701 5.69017 21.8351 6.03017 22.0751L6.44017 22.3601C6.78017 22.6001 7.24517 22.5151 7.48517 22.1751L9.49517 19.3101C9.67517 19.0501 9.67017 18.7201 9.51017 18.4701L14.1252 15.8351C14.2402 15.8401 14.3602 15.8451 14.4752 15.8451C15.0752 15.8451 15.6952 15.7551 16.3202 15.5701C18.0802 15.0551 19.6802 13.8651 20.8352 12.2151C21.9802 10.5751 22.5502 8.66006 22.4352 6.83006ZM9.78517 17.1601L10.3752 13.9551C10.6702 14.3151 11.0152 14.6351 11.4052 14.9051C11.7852 15.1751 12.2002 15.3851 12.6352 15.5401L9.78517 17.1601ZM20.0102 11.6501C18.5802 13.6951 16.4402 14.8501 14.4802 14.8501C13.5802 14.8501 12.7152 14.6051 11.9752 14.0901C10.8602 13.3101 10.1902 12.0201 10.0902 10.4551C9.99017 8.85506 10.4952 7.16506 11.5202 5.70506C12.9502 3.66006 15.0902 2.50506 17.0502 2.50506C17.9502 2.50506 18.8152 2.75006 19.5552 3.26506C20.6702 4.04506 21.3402 5.33506 21.4402 6.90006C21.5402 8.50006 21.0302 10.1851 20.0102 11.6501Z" fill="#13334C"/>
<path d="M6.99317 12.159C7.08088 11.0579 6.25941 10.0943 5.15837 10.0066C4.05734 9.91886 3.09368 10.7403 3.00597 11.8414C2.91827 12.9424 3.73973 13.9061 4.84077 13.9938C5.9418 14.0815 6.90547 13.26 6.99317 12.159Z" fill="#13334C"/>
</svg>
