<svg width="24" height="24" viewBox="0 0 24 24" fill="none" xmlns="http://www.w3.org/2000/svg">
<path fill-rule="evenodd" clip-rule="evenodd" d="M12 5C13.735 5 15.32 5.635 16.545 6.685C15.57 8.225 15 10.045 15 12C15 13.955 15.57 15.775 16.545 17.315C15.32 18.365 13.735 19 12 19C10.265 19 8.68 18.365 7.46 17.315C8.43 15.775 9 13.955 9 12C9 10.045 8.43 8.225 7.46 6.685C8.68 5.635 10.265 5 12 5ZM17.61 16.17C18.48 15.005 19 13.565 19 12C19 10.435 18.48 8.995 17.61 7.83C16.91 9.065 16.5 10.485 16.5 12C16.5 13.515 16.91 14.935 17.61 16.17ZM5 12C5 10.435 5.52 8.995 6.39 7.83C7.09 9.065 7.5 10.485 7.5 12C7.5 13.515 7.09 14.935 6.39 16.17C5.52 15.005 5 13.565 5 12ZM12 20.5C7.315 20.5 3.5 16.685 3.5 12C3.5 7.315 7.315 3.5 12 3.5C16.685 3.5 20.5 7.315 20.5 12C20.5 16.685 16.685 20.5 12 20.5ZM12 2C6.475 2 2 6.475 2 12C2 17.52 6.475 22 12 22C17.52 22 22 17.52 22 12C22 6.475 17.52 2 12 2Z" fill="#13334C"/>
</svg>
