<svg width="24" height="24" viewBox="0 0 24 24" fill="none" xmlns="http://www.w3.org/2000/svg">
<path d="M15.2361 9.99348L12.7787 8.27273C12.5614 8.12055 12.2926 8.06103 12.0314 8.10705C11.7702 8.15312 11.538 8.30105 11.3859 8.51828L9.16805 11.6857L7.91907 7.5718C7.75864 7.04333 7.20015 6.74507 6.67168 6.90542C6.14321 7.06587 5.84487 7.62434 6.0053 8.1528L7.7199 13.8004C7.77842 13.9932 7.89377 14.1637 8.05085 14.2898L10.2499 16.0548V22.0279C10.2499 22.5801 10.6976 23.0279 11.2499 23.0279C11.8022 23.0279 12.2499 22.5801 12.2499 22.0279V15.9901C12.2743 15.9623 12.2976 15.9335 12.319 15.903L15.4817 11.3862C15.7985 10.9338 15.6885 10.3103 15.2361 9.99348Z" fill="#13334C"/>
<path fill-rule="evenodd" clip-rule="evenodd" d="M5.62829 16.2368C6.29006 15.2917 7.45877 15.0791 8.40389 15.7409C9.349 16.4027 9.56667 17.586 8.90489 18.5311C8.24312 19.4763 7.06449 19.6839 6.11938 19.0221C5.17426 18.3604 4.96651 17.1819 5.62829 16.2368H5.62829Z" fill="#13334C"/>
<path d="M16.4992 9.43681C16.303 9.43681 16.1048 9.37919 15.9312 9.2591C15.477 8.94487 15.3635 8.32197 15.6777 7.86777L18.0806 4.39443L15.4603 2.82255C14.9867 2.53844 14.8331 1.92419 15.1172 1.45058C15.4013 0.976995 16.0155 0.823333 16.4892 1.10746L20.0246 3.22826C20.2617 3.3705 20.4293 3.60453 20.4876 3.87477C20.546 4.14504 20.4898 4.42739 20.3325 4.65475L17.3225 9.00566C17.1284 9.28625 16.8164 9.43681 16.4992 9.43681V9.43681Z" fill="#13334C"/>
<path d="M13.925 7.63442C13.7269 7.63442 13.5269 7.57575 13.3523 7.45348L6.79906 2.86491C6.34667 2.54811 6.23671 1.92458 6.5535 1.47216C6.87023 1.01977 7.49374 0.909808 7.94623 1.22658L14.4995 5.8152C14.9518 6.13198 15.0618 6.75551 14.745 7.20793C14.5505 7.48574 14.2402 7.63442 13.925 7.63442Z" fill="#13334C"/>
</svg>
