<svg width="24" height="24" viewBox="0 0 24 24" fill="none" xmlns="http://www.w3.org/2000/svg">
<path fill-rule="evenodd" clip-rule="evenodd" d="M18.7351 13.47C17.5751 14.445 16.0151 14.315 15.0401 13.155C14.0651 11.995 14.1901 10.415 15.3551 9.44003C16.5151 8.46503 18.0851 8.60003 19.0601 9.76503C20.0351 10.925 19.8951 12.495 18.7351 13.47ZM6.4501 15.195L9.4701 12.66L10.3151 13.665L5.2801 17.89C5.2651 17.9 5.2551 17.915 5.2401 17.925C5.5451 18.06 5.8151 18.205 6.0701 18.34C6.7651 18.71 7.3101 19 8.3501 19C8.4501 19 8.5501 18.995 8.6551 18.99C9.9001 18.93 10.4301 18.57 11.1651 18.08C12.0351 17.495 13.1201 16.77 15.1901 16.665C15.3451 16.655 15.4951 16.655 15.6401 16.655C15.8651 16.655 16.0801 16.665 16.2801 16.68L15.7051 16L13.1701 12.98L10.6351 9.96003C10.1701 9.40503 9.3401 9.33003 8.7851 9.80003L4.7551 13.18C4.2001 13.645 4.1251 14.475 4.5951 15.03C5.0651 15.585 5.8951 15.66 6.4501 15.195ZM21.9801 19.33C20.4601 19.405 19.6901 18.995 18.8701 18.56C18.0101 18.1 17.0401 17.585 15.2451 17.675C13.4501 17.765 12.5351 18.38 11.7251 18.92C10.9551 19.435 10.2301 19.92 8.7101 20C7.1901 20.075 6.4201 19.665 5.6001 19.23C4.7401 18.77 3.7701 18.255 1.9751 18.345C1.7001 18.36 1.4901 18.595 1.5001 18.87C1.5151 19.145 1.7501 19.355 2.0251 19.345C3.5451 19.27 4.3151 19.68 5.1351 20.115C5.9951 20.575 6.9651 21.09 8.7601 21C10.5551 20.91 11.4701 20.295 12.2801 19.755C13.0501 19.24 13.7751 18.755 15.2951 18.675C16.8151 18.6 17.5851 19.01 18.4051 19.445C19.2651 19.905 20.2351 20.42 22.0301 20.33C22.3051 20.315 22.5151 20.08 22.5051 19.805C22.4851 19.525 22.2501 19.315 21.9801 19.33Z" fill="#13334C"/>
</svg>
