<svg width="24" height="24" viewBox="0 0 24 24" fill="none" xmlns="http://www.w3.org/2000/svg">
<path fill-rule="evenodd" clip-rule="evenodd" d="M19.78 2.83988C15.27 -0.305116 10.885 2.46488 8.195 6.30988C6.45 8.79988 5.78 10.4999 7.21 12.9449C7.795 13.9449 9.52 15.1599 8.775 16.3699L5.72 20.7349C5.465 21.0949 5.555 21.5949 5.915 21.8499L6.65 22.3649C7.01 22.6199 7.51 22.5299 7.765 22.1699L10.71 17.9649C10.73 17.9399 10.75 17.9149 10.77 17.8799C11.625 16.6599 13.4 17.9249 14.58 18.1049C17.38 18.5349 18.735 17.4049 20.48 14.9099C23.175 11.0699 24.7 6.27488 19.78 2.83988ZM11.3 15.8149L7.81 20.8049C7.685 20.9849 7.435 21.0299 7.255 20.9049L7.095 20.7899C6.915 20.6649 6.87 20.4149 6.995 20.2349L10.485 15.2449C10.61 15.0649 10.86 15.0199 11.04 15.1449L11.2 15.2599C11.385 15.3849 11.425 15.6349 11.3 15.8149ZM3.5 13.9999C2.395 13.9999 1.5 13.1049 1.5 11.9999C1.5 10.8949 2.395 9.99988 3.5 9.99988C4.605 9.99988 5.5 10.8949 5.5 11.9999C5.5 13.1049 4.605 13.9999 3.5 13.9999Z" fill="#13334C"/>
</svg>
