<svg width="24" height="24" viewBox="0 0 24 24" fill="none" xmlns="http://www.w3.org/2000/svg">
<path fill-rule="evenodd" clip-rule="evenodd" d="M21.1351 6.79989L18.8401 10.0749C18.6451 10.3549 18.3351 10.4999 18.0201 10.4999C17.8201 10.4999 17.6201 10.4399 17.4451 10.3199L15.8051 9.17489L12.9351 13.2699C12.7851 13.4849 12.5501 13.6349 12.2901 13.6799C12.2301 13.6899 12.1751 13.6949 12.1151 13.6949C11.9101 13.6949 11.7101 13.6349 11.5401 13.5149L9.0801 11.7949C8.8651 11.6449 8.7151 11.4099 8.6701 11.1499C8.6251 10.8899 8.6851 10.6199 8.8351 10.4049L11.7051 6.30989L10.8851 5.73489L9.1651 8.18989C8.8501 8.63989 8.2251 8.74989 7.7701 8.43489C7.3201 8.11989 7.2101 7.49489 7.5251 7.03989L9.8201 3.76489C9.9701 3.54989 10.2051 3.39989 10.4651 3.35489C10.7251 3.30989 10.9951 3.36989 11.2101 3.51989L14.2801 5.66989L16.1251 6.95989L17.7651 8.10489L19.4851 5.64989C19.8001 5.19989 20.4251 5.08989 20.8801 5.40489C21.3401 5.72489 21.4501 6.34489 21.1351 6.79989ZM13.4351 16.0549L8.5201 12.6149C8.0701 12.2999 7.4451 12.4099 7.1251 12.8599C6.8101 13.3099 6.9201 13.9349 7.3701 14.2549L11.4651 17.1249L8.6001 21.2199C8.2851 21.6749 8.3951 22.2949 8.8451 22.6149C9.0201 22.7349 9.2201 22.7949 9.4151 22.7949C9.7301 22.7949 10.0401 22.6449 10.2351 22.3699L13.6751 17.4549C13.9951 16.9949 13.8851 16.3699 13.4351 16.0549ZM8.4351 16.2199C7.9851 15.9049 7.3601 16.0149 7.0401 16.4649L3.6001 21.3799C3.2851 21.8299 3.3951 22.4549 3.8451 22.7749C4.0201 22.8949 4.2201 22.9549 4.4201 22.9549C4.7351 22.9549 5.0451 22.8049 5.2401 22.5299L8.6801 17.6149C9.0001 17.1599 8.8901 16.5349 8.4351 16.2199ZM15.0851 4.99989C16.0301 5.65989 17.2001 5.44989 17.8601 4.50489C18.5201 3.55989 18.3151 2.37989 17.3701 1.71989C16.4251 1.05989 15.2451 1.26489 14.5851 2.20989C13.9251 3.15489 14.1401 4.33989 15.0851 4.99989Z" fill="#13334C"/>
</svg>
