<svg width="24" height="24" viewBox="0 0 24 24" fill="none" xmlns="http://www.w3.org/2000/svg">
<path fill-rule="evenodd" clip-rule="evenodd" d="M16.31 4.675C15.855 4.405 15.375 4.18 14.87 4C14.84 4.03 14.805 4.06 14.775 4.085C14.745 4.11 14.715 4.14 14.685 4.165C14.65 4.195 14.615 4.23 14.58 4.26C14.52 4.31 14.465 4.36 14.41 4.415C14.39 4.435 14.365 4.46 14.345 4.48C14.32 4.5 14.3 4.525 14.28 4.55C14.265 4.57 14.245 4.585 14.23 4.605C14.105 4.735 13.985 4.865 13.865 5C13.845 5.02 13.825 5.045 13.805 5.065C13.78 5.09 13.755 5.115 13.73 5.145C13.725 5.15 13.72 5.155 13.715 5.165C13.71 5.17 13.705 5.18 13.7 5.185C13.675 5.215 13.65 5.245 13.63 5.275C13.61 5.3 13.595 5.325 13.575 5.345C13.435 5.52 13.295 5.7 13.165 5.885C13.16 5.895 13.15 5.905 13.145 5.91C13.135 5.92 13.13 5.93 13.12 5.945C12.975 6.155 12.835 6.37 12.7 6.59C12.695 6.6 12.69 6.605 12.685 6.615L12.68 6.62C12.68 6.625 12.675 6.625 12.675 6.63C12.165 7.51 11.815 8.46 11.585 9.445C11.585 9.455 11.58 9.46 11.58 9.47C11.575 9.48 11.575 9.485 11.575 9.495C11.57 9.525 11.56 9.56 11.555 9.59C11.55 9.605 11.55 9.625 11.545 9.64C11.48 9.95 11.425 10.26 11.385 10.575C11.38 10.595 11.38 10.615 11.375 10.64C11.37 10.665 11.365 10.69 11.365 10.715C11.36 10.77 11.36 10.82 11.355 10.875C11.355 10.915 11.355 10.96 11.35 11C11.345 11.07 11.335 11.135 11.33 11.205C11.32 11.315 11.305 11.425 11.305 11.535C11.15 11.62 10.995 11.7 10.84 11.775C10.795 11.795 10.75 11.82 10.705 11.84C10.62 11.88 10.53 11.925 10.445 11.96C10.3 12.02 10.155 12.07 10.005 12.115C9.96 12.13 9.915 12.145 9.87 12.16C9.08 12.425 8.26 12.585 7.43 12.62C7.42 12.62 7.41 12.62 7.405 12.62C7.395 12.62 7.385 12.62 7.38 12.62C7.32 12.21 7.28 11.795 7.28 11.365C7.28 8.045 9.11 5.025 12 3.475C10.89 3.475 9.83 3.69 8.86 4.08C6.97 5.985 5.855 8.58 5.855 11.365C5.855 11.77 5.885 12.17 5.93 12.565C5.76 12.545 5.59 12.51 5.425 12.48C5.385 12.47 5.35 12.465 5.31 12.455C5.27 12.445 5.225 12.44 5.185 12.43C5.115 12.42 5.045 12.405 4.98 12.39C4.765 12.34 4.555 12.275 4.34 12.205C4.245 12.175 4.145 12.145 4.05 12.11C3.87 12.045 3.69 11.975 3.51 11.9C3.51 11.925 3.51 11.95 3.51 11.975C3.51 12.49 3.555 12.995 3.645 13.485C3.69 13.5 3.735 13.515 3.78 13.53C3.815 13.54 3.85 13.55 3.88 13.565C3.925 13.58 3.965 13.595 4.01 13.61C4.085 13.635 4.16 13.66 4.235 13.68C4.255 13.685 4.27 13.69 4.29 13.695C4.3 13.7 4.315 13.7 4.325 13.705C4.355 13.715 4.39 13.72 4.42 13.725C4.44 13.73 4.465 13.735 4.485 13.74C4.66 13.785 4.835 13.825 5.01 13.86C5.035 13.865 5.06 13.87 5.085 13.88C5.125 13.89 5.165 13.9 5.205 13.905C5.215 13.905 5.22 13.91 5.23 13.91H5.24H5.25H5.255C5.295 13.915 5.335 13.92 5.37 13.925C5.4 13.93 5.43 13.93 5.455 13.935C5.68 13.97 5.9 14 6.13 14.02C6.14 14.02 6.155 14.02 6.165 14.025C6.175 14.025 6.19 14.03 6.2 14.03C6.455 14.05 6.71 14.065 6.975 14.07C6.98 14.07 6.99 14.07 6.995 14.07C7.005 14.07 7.01 14.07 7.02 14.07C8.035 14.07 9.04 13.9 10.005 13.605C10.01 13.605 10.01 13.605 10.015 13.605H10.025C10.035 13.605 10.05 13.6 10.06 13.595C10.09 13.585 10.12 13.575 10.145 13.565C10.16 13.56 10.18 13.55 10.195 13.545C10.495 13.445 10.795 13.34 11.085 13.215C11.105 13.205 11.125 13.2 11.145 13.19C11.17 13.18 11.195 13.175 11.215 13.165C11.26 13.145 11.31 13.12 11.355 13.095C11.395 13.075 11.43 13.055 11.47 13.035C11.53 13.005 11.59 12.98 11.65 12.955C11.755 12.91 11.86 12.865 11.955 12.81C12.105 12.9 12.255 12.995 12.395 13.095C12.43 13.12 12.465 13.14 12.5 13.165C12.585 13.22 12.67 13.28 12.75 13.34C12.865 13.43 12.975 13.525 13.085 13.625C13.125 13.66 13.17 13.7 13.21 13.735C13.835 14.29 14.385 14.915 14.835 15.62C14.84 15.63 14.845 15.635 14.85 15.64L14.855 15.65L14.86 15.655L14.865 15.66C14.54 15.915 14.2 16.16 13.83 16.37C10.955 18.03 7.425 17.955 4.64 16.23C5.185 17.165 5.9 17.985 6.74 18.65C9.33 19.33 12.135 19 14.545 17.61C14.9 17.405 15.23 17.18 15.55 16.945C15.62 17.11 15.675 17.28 15.735 17.45C15.745 17.48 15.755 17.51 15.765 17.54C15.775 17.575 15.79 17.61 15.805 17.645C15.83 17.715 15.855 17.785 15.875 17.855C15.94 18.07 15.99 18.285 16.035 18.5C16.055 18.6 16.08 18.695 16.1 18.795C16.135 18.985 16.165 19.175 16.185 19.365C16.65 19.1 17.085 18.795 17.49 18.455C17.48 18.41 17.47 18.37 17.46 18.325C17.45 18.29 17.445 18.25 17.435 18.215C17.425 18.17 17.42 18.13 17.41 18.085C17.395 18.005 17.38 17.925 17.36 17.85C17.35 17.82 17.345 17.79 17.335 17.76C17.33 17.73 17.32 17.705 17.31 17.675C17.3 17.65 17.295 17.625 17.285 17.6C17.235 17.425 17.18 17.255 17.125 17.085C17.115 17.055 17.105 17.025 17.1 17C17.09 16.965 17.08 16.935 17.07 16.9C17.065 16.89 17.065 16.885 17.06 16.875C17.055 16.865 17.055 16.86 17.05 16.85C17.035 16.815 17.02 16.78 17.005 16.745C16.995 16.715 16.98 16.69 16.97 16.66C16.89 16.45 16.805 16.24 16.705 16.035C16.7 16.025 16.695 16.015 16.69 16.005C16.685 15.99 16.68 15.98 16.675 15.965C16.565 15.735 16.455 15.505 16.325 15.28C16.32 15.275 16.32 15.27 16.315 15.26C16.31 15.25 16.305 15.24 16.3 15.235C15.79 14.355 15.145 13.575 14.41 12.88C14.405 12.875 14.395 12.865 14.39 12.86C14.385 12.855 14.375 12.845 14.37 12.84C14.345 12.815 14.315 12.79 14.285 12.765C14.275 12.755 14.265 12.75 14.255 12.74C14.02 12.53 13.78 12.325 13.525 12.135C13.505 12.12 13.49 12.105 13.475 12.09C13.455 12.075 13.435 12.06 13.415 12.045C13.37 12.015 13.325 11.985 13.28 11.96C13.245 11.94 13.205 11.915 13.17 11.89C13.115 11.85 13.06 11.815 13.005 11.775C12.915 11.71 12.825 11.645 12.73 11.585C12.735 11.41 12.74 11.235 12.755 11.06C12.76 11.01 12.76 10.965 12.765 10.915C12.77 10.82 12.78 10.72 12.79 10.625C12.81 10.465 12.845 10.31 12.875 10.155C12.885 10.115 12.89 10.07 12.9 10.03C13.065 9.215 13.335 8.425 13.72 7.685C13.725 7.675 13.73 7.665 13.735 7.655C13.74 7.65 13.74 7.64 13.745 7.635C14.13 7.79 14.51 7.965 14.88 8.175C17.755 9.835 19.455 12.93 19.355 16.205C19.885 15.29 20.245 14.27 20.4 13.185C19.695 10.6 18.005 8.33 15.595 6.94C15.245 6.735 14.88 6.56 14.515 6.405C14.62 6.27 14.73 6.14 14.84 6.01C14.865 5.98 14.89 5.95 14.92 5.92C14.95 5.885 14.98 5.85 15.005 5.82C15.05 5.77 15.095 5.715 15.14 5.665C15.295 5.505 15.455 5.355 15.62 5.205L15.65 5.175C15.715 5.115 15.78 5.055 15.845 5C16.01 4.91 16.16 4.79 16.31 4.675ZM2 12C2 6.475 6.475 2 12 2C17.52 2 22 6.475 22 12C22 17.52 17.52 22 12 22C6.475 22 2 17.52 2 12Z" fill="#13334C"/>
</svg>
